<?xml version="1.0" encoding="utf-8"?>
<!-- Generator: Adobe Illustrator 19.0.0, SVG Export Plug-In . SVG Version: 6.00 Build 0)  -->
<svg version="1.1" id="Layer_1" xmlns="http://www.w3.org/2000/svg" xmlns:xlink="http://www.w3.org/1999/xlink" x="0px" y="0px"
	 viewBox="0 0 772.6 478.2" style="enable-background:new 0 0 772.6 478.2;" xml:space="preserve">
<style type="text/css">
	.st0{clip-path:url(#SVGID_2_);fill:#A11C1C;}
</style>
<g>
	<defs>
		<rect id="SVGID_1_" width="772.6" height="478.2"/>
	</defs>
	<clipPath id="SVGID_2_">
		<use xlink:href="#SVGID_1_"  style="overflow:visible;"/>
	</clipPath>
	<path class="st0" d="M584.1,33c1.6-0.6,3.2-1.2,4.8-1.7c2.4-0.8,3.7-2.4,3.7-4.9c0-0.8,0-1.6,0.1-2.4c0.2-4.9,0.3-9.9,1-14.8
		c0.2-1.4,0.6-2.2,2.3-2.2c5.5,0,10.9-0.3,16.4-0.3c10.8,0,21.5,0,32.3,0.2c9,0.2,17.9,0.2,26.9,0.4C690,7.6,708.3,8.1,726.6,8
		c7.2,0,14.4,0,21.5-0.1c6.6-0.2,13.3-1,19.8,0.4c0.8,0.2,1.6,0,2.4-0.3c1.2-0.4,1.9-1.4,2.2-2.5c0.2-1-0.6-1.6-1.3-2.2
		c-0.9-0.8-2-1.3-3.1-1.5c-1.9-0.4-3.9-0.7-5.9-0.5c-3.3,0.3-6.6,0.5-9.9,0.2c-1.4-0.1-2.9,0-4.3,0.2c-6.3,0.6-12.7,0.9-19.1,0.9
		c-15.8,0-31.6-0.6-47.4-0.3c-3.5,0.1-7,0.1-10.5,0.4c-4.1,0.3-8.2,1-12.3-0.1c-1.6-0.5-3.4-0.5-5.1-0.6c-8.3-0.4-16.7-0.3-25,0.3
		c-2.1,0.1-4.3-0.1-5.6-1.2c-1.7-1.4-3.1-0.9-4.7-0.7c-2,0.2-3.9,0.5-5.9,0.7c-7.3,0.7-14.7,0.9-22,0.7c-10.7-0.4-21.3-1.1-32-1
		c-2.6,0-5.2-0.2-7.5,1.4c-0.6,0.4-1.4,0.3-2.1,0.3c-8.6-0.2-17.2,0.7-25.8,0.2c-2,0-3.9,0-5.9,0c-8.7,0.1-17.4,0.1-26.1,0.9
		c-5.7,0.6-11.5,1.2-16.9,3.2c-4.7,1.7-9.6,3-14.4,4.2c-9.9,2.4-19.7,5.2-29.7,7.5c-9.5,2.2-18.9,4.7-28.2,8
		c-5.5,1.9-11,3.7-16.7,5.1c-13.5,3.5-27.1,6.6-40.5,10.7c-14.3,4.3-26.7,11.7-38.3,20.8c-0.8,0.6-1.4,1.4-2.2,2
		c-2,1.8-2.8,4-2.8,6.7c0.1,2.8,0.3,5.6,0.6,8.3c0.6,5.5,0.2,10.9,0,16.4c-0.4,9.2-0.2,18.5-2.3,27.6c-1,4.3,0.4,7.5,3.4,10.4
		c2.1,2,4.2,3.9,6.1,6.1c6.4,7.4,12.8,14.8,19.2,22.2c2.5,2.9,4.7,5.9,6.4,9.3c0.7,1.4,0.9,2.6,0,4c-0.8,1.3-1.4,2.7-1.6,4.2
		c-0.3,2.3-1.3,4.3-2.3,6.3c-3.2,6.1-8.4,10.3-14.1,13.7c-3.8,2.2-7.7,4.2-11.1,7.1c-0.7,0.6-1.4,0.7-2.1,0
		c-2.8-2.4-5.9-4.4-9.1-6.2c-0.8-0.4-1.5-1.1-2-1.8c-1.8-2.2-4-3.9-6.2-5.5c-6.6-4.9-13.3-9.8-19.9-14.7c-2.8-2.1-5.9-3.7-9.3-4.8
		c-8.2-2.8-16.6-4.3-25.3-4.9c-4.3-0.3-8.6-0.5-12.8-1.3c-15.8-3-31.3-6.8-47.2-9.2c-5.5-0.8-11-1.7-16.5-2c-8-0.4-15.5,1.7-23,3.7
		c-8.5,2.3-17,4.6-25.5,6.6c-27,6.4-54,12.9-80.8,20.3c-6,1.7-12,3.7-18.3,4.1c-1.6,0.1-3.2,0.6-4.6,1.4c-1.4,0.8-2.3,1.9-2.7,3.5
		c-0.3,1.2,0.1,1.9,1.3,2.2c1.7,0.3,3.2-0.1,4.7-0.7c2-0.8,3.9-1.7,6-2.4c8.6-2.9,17.6-3.9,26.7-4.8c5.5-0.5,11.1-1,16.6-1.5
		c4.5-0.4,8.9-0.8,13.4-1.2c1.1-0.1,2.1-0.1,2.8,1.1c3.8,6.3,9.1,11.3,14.5,16.1c1.4,1.3,2.9,2,4.7,2.3c1.3,0.2,2.7,0.4,3.9,1.1
		c0.7,0.4,1.5,0.8,1.4,1.8c-0.1,0.8-1,0.5-1.5,0.8c-0.3,0.2-0.7,0.2-1,0.3c-13.3,3.9-26.5,8.2-39.7,12.6
		c-15.8,5.3-31.5,10.8-47.6,15.3c-1.6,0.4-3.1,1-4.4,1.9c-1,0.7-2.4,1.5-2.1,2.8c0.3,1.2,1.8,1.6,3,2c0.4,0.1,0.9,0.1,1.3,0.1
		c2.2,0.2,4.3-0.5,6.3-1.3c4.6-1.9,9.3-3.9,13.9-5.8c1.8-0.8,3.7-1.4,5.6-2c3-0.9,5.7-0.1,7.9,2c3.5,3.4,7.1,6.5,11.5,8.7
		c1.5,0.7,2.6,1.9,3.1,3.5c0.3,0.9,0.3,1.5-0.8,1.7c-5.1,1.3-9.6,4-14.1,6.6c-5.6,3.2-11.5,5.3-18,5.8c-3.7,0.3-7.5,0.5-11.2,1.4
		c-3,0.7-5.8,1.9-8,4.2c-0.3,0.3-0.7,0.6-0.6,1.1c0.1,0.6,0.7,0.4,1.1,0.5c2.1,0.1,4.1,0.2,6.2-0.3c6.8-1.8,13.8-3.1,20.8-4.3
		c4.5-0.7,9-2,12.7-4.8c4.7-3.6,9.9-6,15.7-7.2c1.6-0.3,2.9-0.4,4.2,0.7c1.4,1.1,3.2,1.6,5,1.8c3.2,0.3,6.5,0.3,9.7-0.2
		c5.9-1,11.8-2.4,17.8-2.9c4.7-0.4,9.2-1.6,13.3-3.9c5.9-3.5,12.1-6.3,18.1-9.4c1.9-1,2-1,2.9,1c2,4.3,4,8.6,6,12.9
		c1.6,3.4,4.1,4.6,7.6,4.8c4.7,0.3,9.3-0.2,13.9-0.9c6.1-0.9,12.3-1.7,18.5-1.4c3.6,0.2,6.5-0.9,9.2-2.9c2.5-1.9,4.9-3.9,7.4-5.8
		c1.5-1.2,3.1-2.2,4.8-2.9c0.9-0.4,1.7-0.2,2.4,0.6c1.8,2.3,3.7,4.6,5,7.3c0.8,1.6,0.9,3-0.7,4.3c-1.1,0.9-2,2.1-3,3.1
		c-6.9,6.8-13.5,13.9-20.1,21c-2.9,3.2-3.9,6.7-2.7,10.9c0.2,0.7,0.3,1.4,0.6,2.1c1.6,4.2,1.5,8.4,0.8,12.7
		c-0.5,3.2-0.4,6.4,0.1,9.6c0.9,5.3,3,10.3,4.2,15.6c0.4,1.8,0.3,3.9,1.2,5.5c0.9,1.5,2.7,2.5,4.1,3.8c4.2,4,7,9.1,9.6,14.2
		c2.4,4.6,4.7,9.3,7.6,13.6c2.6,3.8,5.6,7.2,9.6,9.6c1.5,0.9,1.8,0.8,1.9-1c0.4-6.3,1-12.5,2.1-18.7c1.3-6.9,3-13.6,6.4-19.9
		c2.7-5,6.3-8.8,11.6-11.2c4.4-2,8.7-4.3,13-6.5c2.9-1.5,5.8-2.8,8.9-3.8c4.8-1.7,9.7-2.7,14.8-2.5c1.4,0,2.2,0.3,2.2,1.9
		c-0.1,1.8,0.6,3.5,1.2,5.2c3,8.4,2.9,8.8-1.6,16.6c-15.3,26.6-31,52.9-46.7,79.2c-2.7,4.5-5.3,9-8,13.4c-0.6,1.1-0.9,1.8,0.5,2.5
		c9.7,4.9,18.7,11,28.4,15.8c1,0.5,1.9,1,2.8,1.7c2.8,2.1,6.2,3.3,8.6,5.9c0.5,0.6,1.3,1,2.1,1.2c2.6,0.8,4.9,2.3,7.2,3.7
		c6.9,4.1,13.8,7.9,20.9,11.7c1.8,1,3.8,1.6,5.8,2.2c1.1,0.4,1.9,0,2.3-1.2c0.4-1.5,0.8-2.9,1.3-4.4c0.8-3,1.5-6.1,3.2-8.8
		c10.3-16.5,19.8-33.5,29.6-50.3c6.9-11.9,13.4-23.9,20.7-35.6c2.7-4.4,5.1-9.1,7.1-13.9c1.1-2.7,1.1-2.7-1.4-4.1
		c-8.7-4.9-17.5-9.5-26.4-13.9c-11-5.4-22.1-10.7-33.2-16c-0.9-0.4-1.8-0.7-2.1-1.8c-0.9-3.5-1.7-7-1.3-10.6
		c0.2-2.3,0.8-2.8,3.2-2.4c3,0.5,6,1.3,8.8,2.4c7.4,2.9,14.8,6,21.9,9.7c4.2,2.2,8.6,4.2,13.3,5c6.3,1.1,12.7,1.3,19,1
		c7.2-0.3,14.3-0.7,21.5,0.1c2.3,0.3,4.6,0.6,6.9,0.8c1.5,0.1,3.1,0.2,4.4-0.7c3.4-2.4,7.4-3,11.5-3.3c6.5-0.5,12.9,0.2,19.4,0
		c1.4,0,2.1,0.6,2.8,1.7c2.3,3.7,4.7,7.4,7,11.1c1.6,2.6,3.2,5.2,4.6,7.9c2.7,5.4,4.6,11,5.3,17.1c0.2,1.6-0.5,2.6-1.8,3.3
		c-2,1.1-4.1,1.2-6.3,1.2c-7.4,0.2-14,2.7-20.1,6.8c-1.3,0.9-2.4,1.9-3.3,3.2c-0.4,0.7-1,1.4-0.6,2.2c0.4,0.8,1.2,0.6,1.9,0.6
		c1.4,0,2.9-0.2,4.3-0.3c0.7,0,1.5-0.5,1.9,0.4c0.3,0.8-0.5,1.2-0.9,1.8c-0.7,0.8-1.5,1.5-2.2,2.3c-0.7,0.8-1.2,1.8-1.2,2.9
		c0.1,1.6,0.6,2,2.1,1.6c2.6-0.7,5-1.9,7.4-3.1c3.9-1.9,7.6-4,11.7-5.4c6.4-2.3,12.6-2.3,18.8,0.7c1.8,0.9,3.6,1.7,5.4,2.5
		c2.5,1.2,5.1,2.1,7.9,2.6c1.4,0.2,1.6-0.3,1.4-1.4c-0.5-2.5-1.4-4.8-2.8-6.9c-1.8-2.7-3.9-5.1-6.1-7.5c-3.9-4.1-6.5-8.9-7.9-14.5
		c-2.3-9.2-2.4-18.6-3.3-28c-0.1-0.7,0.3-1.2,0.8-1.6c3.9-3,8-5.8,12.2-8.4c0.5-0.3,1-0.7,1.4-0.2c1.5,1.5,3.5,1.7,5.3,2.4
		c1.5,0.6,2.6,1.3,2.8,3.2c0.6,6.4,1.4,12.8,2.1,19.2c1.2,11.3,3.2,22.5,4.6,33.8c0.4,3,1,6,2.7,8.7c4.8,7.9,10.9,14.6,18,20.6
		c3.5,2.9,7,3.2,10.9,1.2c3-1.5,6.1-2.7,9.3-3.5c6.5-1.7,13.2-2.4,19.7-4.3c1.2-0.3,1.6,0.3,2.1,1.2c1.5,2.7,3,5.5,4.7,8.1
		c5.5,8.4,11.8,16.3,17.5,24.5c3.3,4.8,7.5,8.9,13.1,11.3c4.9,2,9.8,4,14.8,5.7c3.8,1.3,7.6,1.4,11.4,0.3c1.8-0.5,3.6-1,5.4-1.6
		c3.6-1.1,7.1-2.4,10.9-3.1c1.8-0.3,2.9,0.2,4,1.4c1.9,2.2,3.5,4.6,5,7c1.7,2.7,3.4,5.3,5.8,7.4c1.3,1.1,2.6,1.8,4.4,1.7
		c2.6-0.1,5.2,0,7.8-0.4c1.9-0.3,3.8-0.4,5.6,0.1c1.5,0.4,2.6,0,3.7-0.8c2.2-1.5,4.7-2.7,7.1-3.8c3.6-1.7,6.7-1.6,9.9,0.9
		c2.6,2,5.4,3.9,8.6,5c2,0.7,3.6,1.8,4.9,3.5c2.2,2.8,3.6,3,6.6,1.1c9.2-5.8,16.9-13.3,25-20.4c1.8-1.6,2.6-3.4,2.5-5.7
		c0-0.9-0.1-1.8-0.2-2.7c-0.1-2.9-0.5-5.9,0.3-8.8c0.4-1.4,0.9-1.5,2.1-0.9c1.3,0.7,2.4,1.6,3.5,2.5c0.9,0.7,1.9,1.4,2.8,2.1
		c1.3,0.9,2.5,1.1,4,0.2c1.2-0.7,2.6-1.3,4-1.7c6.9-2,13-5.6,19.3-8.7c1.1-0.5,1.8-1.3,2.2-2.5c1.4-4.1,3.5-7.8,5.8-11.5
		c1.6-2.6,3.2-5.2,4.8-7.8c0.5-0.8,0.5-1.5-0.5-1.9c-0.6-0.3-1.2-0.7-1.9-1.1c-7.5-4.1-15.4-7.3-23.4-10.2
		c-13.4-4.8-27.1-9-39.8-15.5c-0.6-0.3-1.2-0.5-1.8-0.7c-5.4-1.7-10-4.7-14.1-8.6c-1.5-1.4-3.2-2.6-5-3.7
		c-12.8-7.3-25.8-14.1-38.7-21.2c-12-6.6-23.8-13.6-35-21.6c-1.4-1-2.4-2.1-2.1-4c0.2-1.1-0.1-1.9-1.3-2.4c-2.9-1.2-5-3.5-6.8-6
		c-1.7-2.3-3.4-4.6-5.1-6.9c-0.3-0.4-0.8-0.8-0.7-1.4c0.5-2.4-2.3-3.9-1.6-6.4c0.1-0.4-0.5-0.4-0.8-0.6c-2.3-1.4-3.2-3.4-2.2-5.8
		c0.6-1.5,0.4-2.7-0.6-4c-1.9-2.6-3.3-5.6-4.6-8.5c-1.9-4.3-3.5-8.6-6.1-12.6c-0.5-0.8-0.7-1.7-0.3-2.5c1-2,0.4-3.7-0.7-5.6
		c-7-12.2-13.3-24.8-17.9-38.1c-0.5-1.3-1.3-2.3-2.4-3.1c-4.9-3.5-9.7-7.1-14.5-10.7c-5.5-4.1-10.8-8.4-15.3-13.5
		c-2.4-2.7-4.6-5.5-6.2-8.8c-0.8-1.6-0.6-1.8,1.2-1.8c4.1,0,8.3,0.2,12.4,0.1c6.4-0.2,12.7-0.2,19.1,0.6c1.8,0.2,3.3-0.2,4.8-1.2
		c8.2-5.7,14.7-13.1,21.1-20.6c0.8-0.9,0.5-1.5-0.2-2.3c-2.2-2.6-4.8-4.5-7.6-6.4c-2.9-1.9-5.8-3.7-8.2-6c-1.3-1.2-1.2-1.5,0.5-2.1
		c5.4-1.8,10.4-4.3,15.4-6.9c4.8-2.5,9.6-4.9,14.7-6.6c2.5-0.8,2.7-1.2,2.4-3.9c-0.2-1.2-0.5-2.3-0.6-3.4c-0.4-2.8,0.2-3.5,2.9-3.1
		c3,0.4,5.9,1.4,8.8,2.5c4.9,1.9,9.5,4.2,14.4,5.9c5.8,2,11.5,2.5,17.2-0.3c7-3.4,14.2-6.5,21.5-9.2c4.8-1.8,8.4-5.1,10.8-9.7
		c1.2-2.4,2.4-4.8,3.6-7.2c1.2-2.4,2.5-4.8,4.3-6.8c0.9-1,1.8-1.5,3.3-1.4c8.8,0.7,17.5,2,26.1,3.8c2.2,0.5,3.9,0.2,5.8-1
		c14-8.3,28-16.8,42.2-24.8c4.9-2.7,4.9-2.7,2.4-8c-1.5-3.2-3.4-6.1-5.1-9.1c-1.9-3.3-3.3-6.8-4.1-10.5c-0.2-1.2,0.1-1.8,1.4-2
		c1.7-0.3,3.4-0.1,5.1,0c2.9,0.1,5.7,0.5,8.6-0.2c1.5-0.4,3.4-0.8,3.6-2.4c0.2-1.8-1.7-2.6-3.1-3.2c-2.5-1.1-5.1-1.1-7.7-0.4
		c-6.8,1.8-13.8,2.1-20.8,2.2c-15.2,0.3-30.3,0.4-45.5,0.6c-7.5,0.1-14.9,0.5-22.3,0.9c-12,0.6-24,1.2-36,1.4
		c-13.8,0.2-27.4-0.9-41-2.8c-2.7-0.4-5.5-0.7-8.1-1.9c-0.5-0.3-1.4-0.4-1.3-1.1C582.8,33.5,583.6,33.2,584.1,33 M421.5,381.9
		c-0.6-0.2-1.7,0.5-1.9-0.6c-0.1-0.8,0.9-1.2,1.6-1.6c0.3-0.2,0.7-0.2,1-0.2c0.8-0.1,1.6-0.5,1.9,0.7c0.2,1.1-0.3,1.7-1.4,1.7
		C422.3,381.9,422,381.9,421.5,381.9 M424.1,388.2c-0.1,0-0.4-0.2-0.4-0.3c0-1,0.6-1.7,1.1-2.3c0.5-0.6,1.3-0.5,2-0.2
		c0.3,0.1,0.3,0.4,0.3,0.5C427.1,387.1,425.3,388.4,424.1,388.2 M431.6,384.3c-0.3,0.2-0.6-0.1-0.9-0.4c-1.1-1.4-2.7-2.4-3.5-4.1
		c-0.3-0.6-0.8-1.2-0.3-1.7c0.6-0.6,1.3-0.1,1.9,0.3c1.8,1.1,2.6,2.9,3,4.8C431.8,383.6,431.8,384.1,431.6,384.3 M436.4,382.4
		c-1.6-0.1-4.2-2.9-4.2-4.5c0-0.5,0.2-0.9,0.8-0.7c1.3,0.4,3.8,3.3,4,4.4C437.1,382.3,436.8,382.5,436.4,382.4 M441.9,381
		c-0.7,0.6-1.6,0.1-2.2-0.4c-0.6-0.6-1.1-1.4-1.6-2.1c-0.8-1,0.2-0.9,0.5-1.1c1.4,0,2.2,0.7,2.9,1.6
		C442.1,379.5,442.7,380.3,441.9,381 M428.8,84c-0.6-1.3-1.3-2.5-2-3.8c-0.7-1.3-1.6-2.6-2.3-4c-1.8-3.6-1.5-4,2.5-4
		c2.2,0,4.5,0,6.7-0.6c1.4-0.4,2.9-0.8,3.8-1.8c1.4-1.6,2.7-1.1,4.2-0.3c5.8,2.8,12.1,4.4,18.2,6.5c3.1,1,6.3,2.1,9.3,3.5
		c1,0.5,1.5,1,0.5,2c-5.4,5.3-10.2,11.1-16.3,15.6c-1.2,0.9-2.4,1.6-3.5,1.3c-7.2-0.7-14-1.1-20.7-2.3c-2-0.3-2.2-0.9-1.5-2.8
		c0.2-0.4,0.3-0.9,0.6-1.2C430.4,89.5,430.1,86.8,428.8,84 M455.6,69.6c-3.6-0.7-7.2-1.6-10.4-3.6c-2-1.2-2-1.2-1.2-3.4
		c0.3-0.8,0.6-1.7,1-2.5c1.2-2.5,2-5.2,1.9-8c0-0.9,0.1-1.5,0.9-2c7.1-4.4,12.4-10.8,18.1-16.8c4.8-5,4.7-5.1,11.5-3.6
		c19.4,4.2,38.9,8.3,58.2,12.8c2.9,0.7,2.9,0.6,1.8,3.3c-2.3,5.7-4.7,11.4-6.9,17.2c-0.8,2-2,2.8-4,3.3
		c-10.5,2.6-20.9,5.8-30.8,10.3c-3.4,1.5-7,2.9-11.1,2.9c-2.4,0.1-4.9-0.8-7.3-1.8c-1.5-0.6-3-1.3-4.4-2
		C467.6,72.6,461.8,70.8,455.6,69.6 M116,168.5c0.4-1.2,2-0.4,3.1-0.6c5.5-0.8,10.8-2.4,16.1-4.1c5.1-1.7,10.3-3.2,15.7-3.6
		c0.9-0.1,1.8-0.2,2.4-0.2c5.2,0.2,10,1.2,14.9,2.2c12.8,2.7,25.7,5,38.5,7.4c14.1,2.6,28.2,5.2,42.3,7.8c2.7,0.5,5.5,1,8.2,1.5
		c1.5,0.3,2.8,0.8,3.8,2.1c2.7,3.4,6.4,5.7,10.2,7.8c3.2,1.8,6.4,3.5,9.7,5.3c3.5,1.9,6.5,4.4,9.2,7.3c3,3.2,5.8,6.7,9.9,8.6
		c1,0.5,0.7,1.1,0.1,1.7c-1.8,1.9-3.5,3.9-5.3,5.7c-3.4,3.3-7,6.4-10.8,9.3c-1.8,1.4-2.6,1.4-4-0.3c-0.2-0.2-0.3-0.4-0.5-0.7
		c-2-2.7-2.2-2.8-4.7-0.5c-0.8,0.7-1.6,1.1-2.6,1.1c-13.2-0.3-25.1-3.9-35-12.9c-1.2-1-2.1-2.1-2.5-3.7c-0.2-1.1-0.8-2.2-1.4-3.2
		c-1.6-3.1-1.6-3-5.1-2.4c-5,0.9-9.4-0.7-13.3-3.7c-2.8-2.1-2.9-2.1-5.8-0.3c-5.1,3.3-10.9,4.7-16.8,5.1c-8.4,0.6-16.4-0.8-24.1-4.2
		c-3.7-1.6-7.1-3.8-10.1-6.6c-2.9-2.8-5.3-5.9-6.3-9.9c-0.4-1.7-1.3-2.1-2.9-1.9c-1.6,0.3-3.2,0.4-4.8,0.8c-3.1,0.6-6,0.5-9-0.6
		c-5.2-1.8-10-4.4-14.2-8c-1.2-1-2.3-2-3.2-3.3C117,170.7,115.7,169.7,116,168.5 M58.8,184.9c-0.6,0-0.8,0-1,0
		c-1.1-0.2-2.8,0.6-3-0.5c-0.2-0.7,1.8-1,2.9-1.4c5.5-1.9,11.2-2.6,16.8-3.6c6.6-1.1,12.9-3.1,19.1-5.3c4.1-1.4,8.2-2.5,12.4-3.3
		c2.6-0.5,4.8,0,6.6,1.9c1.2,1.2,2.5,2.4,3.4,3.8c0.9,1.3,0.7,1.7-0.9,1.9c-6.6,0.9-13.1,1.9-19.7,2.7c-6.9,0.9-13.9,1.8-20.8,2.5
		C69.2,184.2,63.8,184.5,58.8,184.9 M95.6,204.1c-3.5-0.7-6.5-2.5-9.1-4.9c-3.1-2.9-5.8-6.2-8.5-9.4c-1-1.2-0.4-1.7,0.6-2.2
		c2.2-1.1,4.5-0.9,6.5-0.8c6.5,0.7,12.4-1.2,18.4-2.4c3.9-0.8,7.9-1.7,11.9-2.1c4.1-0.4,7.8,0.3,11.5,2c2,1,4,2,6.1,2.9
		c3.7,1.6,7.6,2,11.6,0.8c1.3-0.4,2.1-0.1,3,1c2.5,3.4,5,6.8,8.3,9.5c1,0.8,0.1,1.2-0.5,1.4c-2.5,0.9-5.1,1.9-7.7,2.5
		c-6.9,1.8-13.8,3.9-20.5,6.5c-3,1.2-6.1,2-9.4,2.4c-2.8,0.3-5.4-0.2-7.7-1.7C105.6,206.9,100.7,205.2,95.6,204.1 M104.1,247.8
		c-3.4,1.9-6.9,3.6-11,2.8c-3.3-0.4-6.4,0.6-9.5,1.4c-4.1,1.1-8.1,2.3-12.3,2.6c-2.6,0.2-5-0.2-7.2-1.5c-0.8-0.4-1.6-0.8-2.3-1.4
		c-6.5-4.8-13-9.6-19.2-14.8c-0.5-0.4-0.9-0.9-1.4-1.3c-0.9-0.9-0.9-1.5,0.4-1.9c2.9-0.9,5.8-1.9,8.7-2.9
		c15.1-5,30.2-10.2,45.2-15.6c4.5-1.6,9.2-2.5,13.9-0.8c1.5,0.5,3,1.2,4.3,2.1c0.8,0.5,1.6,0.8,2.5,0.5c10.5-4,21.5-6.4,32.1-9.9
		c3.4-1.1,6.8-2.2,10-3.8c1.8-0.9,3.4-0.8,5.1,0.2c2.1,1.2,4.1,2.7,6.4,3.5c0.7,0.3,0.7,0.7,0.3,1.2c-0.5,0.5-1,1-1.5,1.5
		c-1.7,1.5-3.6,2.7-5.6,3.6c-9.9,4.6-19.1,10.7-28.3,16.6C124.7,236.1,114.5,242.1,104.1,247.8 M196.9,241.3c-5,3-10,6-14.6,9.6
		c-1.3,1-2.8,1.9-4.3,2.7c-1.7,1-3.7,1.5-5.9,1.3c-7.6-1.3-15.3,0.8-23,1.4c-2.8,0.2-5.6,0.2-8.3,0.5c-1.4,0.1-2.1-0.5-2.7-1.7
		c-2.3-4.9-4.6-9.9-7.4-14.6c-0.8-1.4,0.1-1.9,0.9-2.6c4.5-3.4,9.2-6.5,14.1-9.4c6.6-3.9,13.5-7.5,20.3-11.1c2.1-1.1,4.1-2.2,6-3.5
		c4.3-3,9-4.2,14.2-4.1c4.5,0.1,9,0.2,13.4-0.2c3.7-0.3,7.2-1.3,10.2-3.7c1-0.8,1.8-0.9,2.9-0.2c4.1,2.5,8.4,4,13.3,3.6
		c0.6-0.1,1.1,0.1,1.4,0.6c1.9,2.5,4.5,4.4,6.5,6.8c2.5,3,2.4,3.3-1,4.8C220.4,227.2,208.7,234.2,196.9,241.3 M201.7,245.3
		c-0.5-0.4-0.4-0.8,0-1.1c0.3-0.3,0.7-0.5,1.1-0.8c11.3-7.2,22.7-14,34.8-19.8c1.8-0.9,3.2-0.9,5,0c6.3,3.4,13,6,20.2,7
		c2.9,0.4,5.7,0.3,8.6,0.5c0.4,0,1-0.2,1.2,0.3c0.3,0.7-0.4,0.9-0.7,1.3c-1.5,1.2-3.2,2-5,2.6c-11.8,3.3-22.5,9.3-33.4,14.6
		c-4.3,2.1-8.7,4.3-13,6.4c-0.7,0.4-1.4,0.8-2.4,0.8c-0.2-0.1-0.6-0.1-0.9-0.2c-2.2-1-4.6-1.5-7-1.8c-1.6-0.2-2.6-1-3.3-2.3
		C205.3,250.2,204.1,247.4,201.7,245.3 M212.7,351.3c-2,5.8-2.3,11.9-2.3,18c0,0.3,0,0.5,0,0.8c0,1.2-0.5,1.4-1.5,0.9
		c-1.6-0.9-2.8-2.3-3.6-3.9c-1.9-3.8-3.7-7.6-5.5-11.4c-0.9-1.9-1.8-3.7-2.5-5.6c-0.7-1.7-0.6-1.8,1.2-1.8c0.4,0,0.9,0,1.3,0
		c0,0,0-0.1,0-0.1c3.9,0.5,7.8,1,11.7,1.5C212.3,349.9,213.2,350,212.7,351.3 M226.2,295.8c-1-0.1-1.7-1.1-1.6-2.3
		c0-0.5,0.1-0.9,0.7-0.9c0.9-0.1,1.8,1.1,1.8,2.3C227.1,295.4,226.9,295.9,226.2,295.8 M228.5,299.1c-0.3,0-0.5-0.3-0.5-0.5
		c0-2,0.9-3.6,2-5.2c0.1-0.2,0.4-0.4,0.7-0.2c0.4,0.3,0.5,0.7,0.6,1.2c-0.3,1.7-1.5,3-2.3,4.5C228.9,299,228.6,299,228.5,299.1
		 M230.8,299.2c0.8-1.8,1.7-3.5,2.6-5.3c0.2-0.3,0.3-0.7,0.7-0.7c0.6,0,0.6,0.6,0.8,0.9c0.2,0.6,0.1,1.2-0.1,1.8
		c-0.7,2.6-2.3,4.8-3.5,7.2c-0.4,0.8-0.9,0.3-1.1-0.2c-0.2-0.4-0.2-0.9-0.1-0.7C230,300.8,230.4,300,230.8,299.2 M231,318.6
		c-0.2,0.4-0.5,0.8-1,0.6c-0.3-0.1-0.3-0.6-0.3-0.9c0-0.4,0-0.7,0-1.1c0.1-0.7,0-1.7,0.8-1.7c0.7,0,0.7,1.1,0.8,1.9
		C231.2,317.8,231.1,318.2,231,318.6 M233,309.4c-0.6,0.1-2.3-1.1-2.4-1.7c-0.1-0.4,0.1-0.7,0.5-0.7c0.8-0.1,2.1,1,2.3,1.9
		C233.4,309.1,233.3,309.4,233,309.4 M235,299.8c1.3-2.8,2.9-5.5,3.7-8.6c0.1-0.3,0-0.8,0.6-0.7c0.4,0.1,0.6,0.3,0.7,0.7
		c0.3,0.8,0.1,1.6-0.2,2.3c-0.4,0.9-0.8,1.8-1.4,2.6c-0.9,1.4-1.5,2.8-1.5,4.5c0,1.3-0.2,2.5-1,3.6c-0.4,0.5-0.7,1.4-1.6,1.1
		c-0.7-0.3-0.5-1.1-0.6-1.7C233.9,302.3,234.5,301,235,299.8 M243.6,301.3c0.4-2.1,1-4.2,1.8-6.1c1-2.4,2.1-4.7,3.2-7.1
		c0.2-0.4,0.4-1.2,0.9-1c0.4,0.2,0.2,1,0.1,1.5c-0.4,1.8-1,3.6-1.7,5.3c-1.1,2.5-2.2,5.1-3.3,7.6c-0.2,0.4,0,1.3-0.8,1.1
		C243.4,302.4,243.6,301.7,243.6,301.3 M244.7,290c-1.4,3.2-2.1,6.6-3,10c-0.7,2.4-1.5,4.8-3,6.8c-0.5,0.6-1.1,1.8-1.7,1.4
		c-0.9-0.4-0.1-1.4,0.2-2.1c0.9-2.2,1.8-4.5,2.7-6.7c1.2-2.9,2.4-5.8,2.8-8.9c0.1-0.5,0.2-1.1,0.5-1.5c0.3-0.6,0.9-0.5,1.4-0.3
		c0.2,0.1,0.5,0.2,0.4,0.6C244.9,289.5,244.8,289.8,244.7,290 M234.6,326.6c-0.4,0.4-0.7,0.1-0.7-0.3c0-0.6,0.1-1.2,0.3-1.8
		c0.6-2.3,1.6-4.6,2.6-6.7c1.5-3.1,3-6.3,4-9.6c0.1-0.4,0.1-1.1,0.7-1c0.4,0.1,0.3,0.8,0.3,1.2c0,0.2,0,0.4,0,0.9
		c0,0.3,0,0.9-0.2,1.5c-1.3,5.1-3.3,9.8-5.8,14.4C235.4,325.7,235,326.1,234.6,326.6 M241.2,322.6c-0.3,0.3-0.6,0.8-1.1,0.6
		c-0.5-0.2-0.2-0.8-0.1-1.2c1.2-3.9,2.6-7.8,4-11.7c2.7-7.5,5.8-14.8,8.3-22.4c0.1-0.3,0.2-0.5,0.3-0.7c0.1-0.3,0.2-0.7,0.7-0.6
		c0.5,0.1,0.7,0.5,0.7,0.9c0,0.3-0.1,0.5-0.1,0.8c0.2,1.3-0.3,2.5-1,3.6c-1.9,2.7-2.5,5.9-3.3,9c-1.2,4.6-2.1,9.3-3.8,13.7
		C244.8,317.5,243.3,320.3,241.2,322.6 M248,318.8L248,318.8c-0.4-2.2,0.2-4.2,0.8-6.3c1.2-4.7,3.1-9.1,4.9-13.6
		c1.3-3.3,2.5-6.7,3.3-10.2c0.1-0.4,0.2-1,0.8-0.8c0.6,0.1,0.9,0.5,0.8,1.2c-0.1,0.3-0.1,0.5-0.2,0.8c-3.5,9-6,18.3-9.4,27.3
		C248.7,317.8,248.6,318.4,248,318.8 M256.7,309.6c-0.9,2.7-1.8,5.4-4.3,7.2l-0.1,0l0-0.1c-0.1-2.8,0.9-5.3,1.8-7.8
		c2-5.9,5-11.5,6.2-17.7c0.1-0.6,0.4-1,1.1-0.7c0.6,0.3,1.4,0.6,1,1.6c-0.6,1.7-1.4,3.3-2,5C259.2,301.2,258.1,305.5,256.7,309.6
		 M259.3,313.8c-0.2,0.3-0.6,0.6-0.9,0.4c-0.2-0.1-0.2-0.6-0.3-1c0.7-2.4,1.4-4.8,2.2-7.2c1.3-4,2.6-8,3.9-12c0.2-0.5,0.3-1,0.6-1.5
		c0.4-0.7,1.1-0.6,1.7-0.4c0.5,0.1,0.7,0.6,0.6,1.1c-1.4,7-2.6,14.1-7.1,20C259.6,313.4,259.4,313.6,259.3,313.8 M269.4,301
		c-0.9,2.1-1.9,4.2-2.9,6.3c-0.1,0.2-0.3,0.6-0.4,0.6c-0.4-0.1-0.6-0.4-0.7-0.7c-0.3-1.2,0.2-2.3,0.5-3.4c0.8-2.4,2.1-4.7,2.6-7.3
		c0.1-0.4,0.2-1,0.7-1.1c0.6,0,0.7,0.7,0.9,1.1c0.1,0.3,0.1,0.7,0.1,0.8C270.3,298.9,269.8,299.9,269.4,301 M254.7,281.7
		c-3.7-2.1-7.4-4.1-11.3-5.7c-0.5-0.2-1.2-0.8-1.7-0.3c-0.7,0.7-0.3,1.6,0,2.3c0.6,1.2,1.8,1.6,3,2.2c1.4,0.7,1.5,1.1,0.2,2.1
		c-4,3.1-8.4,5.1-13.3,6.1c-1.4,0.3-2.8,0.4-3.9,0.6c-3.2-0.2-6-0.7-8.5-2.3c-1-0.6-1.2-0.3-1.2,0.7c0,1.4,0.4,2.7,1,3.9
		c1.2,2.2,2.4,4.4,3.6,6.6c2,3.6,3.2,7.4,3,11.5c-0.1,3.1-0.1,6.3-0.4,9.4c-0.3,2.8-0.2,5.6,0.5,8.3c1,3.8-0.3,6.9-2.6,9.7
		c-1,1.2-2.1,2.2-3.2,3.2c-1.5,1.5-3.1,2.8-4.1,4.6c-0.6,1.2-1.5,1.4-2.7,1.2c-2.8-0.5-5.6-1-8.5-1.6c-3-0.6-6.1-0.9-9,0.3
		c-0.8,0.3-1.4,0-2-0.3c-2.7-1.3-4.6-3.4-6-6c-2-3.6-2.9-7.5-3.7-11.5c-0.9-4.2-1.7-8.4-3.1-12.5c-0.3-0.7-0.4-1.4-0.1-2.1
		c1.9-4.8,1.1-9.7,0.2-14.6c-0.4-2.2-0.8-4.4-1.2-6.6c-0.2-1.3,0-2.4,1-3.4c7.8-8.6,15.6-17.3,23.4-26c1.8-2,2.7-1.9,4,0.5
		c0.6,1.1,1,2.3,1.6,3.4c0.9,1.7,1.7,2,3.5,1.5c2.8-0.8,5.4-2,7.8-3.5c3-1.8,5.8-3.9,8.7-5.9c4.1-3,8.4-5.4,13.1-7.4
		c9.4-3.9,18.7-7.8,28-11.8c0.6-0.2,1.1-0.5,1.8-0.4c2.5,0.3,3.1,1.6,1.5,3.6c-0.7,0.9-1.7,1.6-2.5,2.5c-0.8,0.9-1.7,1.8-1.3,3
		c0.4,1.3,1.7,1.4,2.9,1.6c2.8,0.4,2.9,0.5,1.3,2.8c-0.8,1.2-1.9,2.2-2.4,3.6c-0.9,2.5,0.2,4.1,2.9,3.8c1.2-0.2,2.4-0.6,3.6-0.9
		c0.6-0.2,1.2-0.4,1.8-0.5c0.5-0.1,1.1-0.3,1.5,0.2c0.3,0.4-0.1,0.8-0.3,1.2c-0.6,1-1.3,1.9-2.2,2.7c-1.6,1.5-3.1,3-4.7,4.4
		c-1.1,1-1.5,2-0.6,3.5c1.8,3.3,1.5,7.1,1.9,10.8c0.3,2.8,0.3,5.6,0.9,8.3c0.2,0.9,0,1.4-0.8,1.6c-1.7,0.5-3.3,0.8-5.1,0
		C265.3,287.7,260.1,284.6,254.7,281.7 M291.2,311.5c-0.1,5.2,0.2,10.4,1.4,15.5c0.6,2.5,1.1,5.1,0.4,7.7c-0.8,2.8-1.6,3.2-4.2,1.9
		c-2.1-1.1-3.3-2.9-4.3-5c-1.7-3.6-2.3-7.5-2.5-11.5c-0.3-6-0.1-12,0.9-17.9c0.2-1.3,0.5-2.5,1.1-3.6c2.1-3.9,2.4-8.2,2.7-12.5
		c0.3-3.6,0.4-7.2,1.1-10.7c0.1-0.5-0.2-1.2,0.6-1.2c0.6,0,0.7,0.7,0.9,1.2c1.6,3.7,2.3,7.5,2.5,11.5c0.1,2.4,0,4.8,0,7.3
		C292.1,299.9,291.2,305.7,291.2,311.5 M286.5,262.8c-0.1,2.7-0.3,5.4-0.7,8c-0.8,5.3-1.8,10.6-3.1,15.8c-0.1,0.5,0.1,1.2-0.7,1.2
		c-0.7,0-0.8-0.7-1-1.1c-1.5-3.5-2.1-7.2-1.9-11c-0.2-3.6,0.5-7,1.8-10.2c0.6-1.5,1.5-2.9,2.7-4c0.6-0.5,1.3-1.1,2.1-0.8
		C286.7,261.1,286.6,262,286.5,262.8 M275,303.3c-0.4,2.5-1.3,4.8-2.3,7.1c-0.1,0.3-0.4,0.7-0.8,0.5c-0.3-0.2-0.1-0.6-0.1-1
		c0.4-2.4,1.4-4.6,2.1-6.9c0.1-0.3,0.2-1,0.8-0.8C275.2,302.4,275,302.9,275,303.3 M276.7,312.6c-0.1,0.2-0.4,0.5-0.6,0.5
		c-0.4,0-0.6-0.3-0.7-0.7c-0.2-1.4-0.2-2.8,0.2-4.2c0.9-3.1,2.3-6,3.4-9c0.1-0.2,0.2-0.6,0.4-0.6c0.4-0.1,0.5,0.4,0.7,0.7
		c0.3,0.8,0.3,1.6,0.3,2.5C280.1,305.5,278.5,309.1,276.7,312.6 M291.3,470.5c-7.5-3.3-14.8-7.2-22-11.3
		c-11.9-6.7-23.5-13.8-35.8-19.7c-2-1-4.1-1.9-6.1-2.8c-1.1-0.5-1.1-1-0.3-1.7c2.6-2.2,5.6-3.9,8.7-5.3c5-2.3,10.2-3.8,15.3-5.9
		c2.7-1.1,5.3-2.2,7.8-3.6c5.1-2.8,10.2-5.5,15.7-7.7c2.5-1,4.8-2.4,6.5-4.6c1-1.3,0.8-1.8-0.8-2.2c-1.4-0.4-2.8-0.2-4.2,0.4
		c-1.4,0.5-2.8,1.3-4,2.2c-3.5,2.5-7.4,4.3-11.4,5.9c-2.7,1.1-5.3,2.2-7.7,3.8c-1.3,0.9-2.7,0.7-4.1,0.7c-0.9,0-1.8-0.6-1.3,1
		c0.2,0.8-0.3,1.4-1.1,1.6c-5.4,1.4-10,4.4-14.9,6.8c-1.5,0.7-3,1.6-4.8,1.6c0.1-1.8,1.4-3,2.3-4.3c16.4-26.2,32.2-52.8,46.8-80.1
		c1.5-2.8,3-5.5,4.4-8.3c0.5-1,1-1.4,2-0.6c2,1.7,3.5,3.9,5,6c0.9,1.3,0.1,3.3,0.2,4.5c0.2,7.4,1.2,14.1,1.9,20.9
		c0.6,5.6,1.1,11.2,0.2,16.9c-0.1,0.7-0.4,1.4-0.4,2.1c-0.1,1-0.6,1.4-1.6,1.4c-0.9,0.1-1.8,0.2-2.7,0.4c-4.1,0.9-6.3,4.2-5.5,8.8
		c0.7,4.1,2.9,7.5,6.5,9.8c1.3,0.9,2.8,1.3,4.3,1.3c1.2,0,1.6,0.5,1.5,1.6c-0.1,2.2-0.3,4.5-0.3,6.7c-0.1,10,0.4,19.9,1.2,29.8
		c0.6,7.4,0.9,14.9,1.2,22.3C294,471.6,293.9,471.6,291.3,470.5 M294.8,399.6c-0.7-1.2-0.9-2.5-1.1-3.8c-0.3-1.9-0.4-3.9-1.1-5.8
		c-0.3-0.9,0.1-1.1,0.9-1c0.8,0.2,1.3,0.6,1.4,1.4c0.3,3.6,2.1,6.6,3.9,9.6c0.2,0.3,0.6,0.7,0.3,1.2c-0.3,0.4-0.8,0.3-0.6,0.3
		C296.4,401.5,295.4,400.8,294.8,399.6 M351.8,372c-7.5,12.9-15,25.9-22.5,38.8c-10,17-19.9,34-29.5,51.3c-0.2,0.4-0.4,0.8-0.6,1.2
		c-0.2,0.4-0.4,0.9-0.9,0.8c-0.2,0-0.2-0.6-0.3-1c-0.7-4.8-0.9-9.6-1-14.5c-0.1-3.3,0-6.6,0-11.5c0.2-6.8-0.2-15.1-1.1-23.4
		c-0.2-1.5-0.5-2.8-1.4-4c-0.9-1.2-0.7-1.9,0.7-2c6.3-0.5,8.7-5.7,12.1-9.6c1.5-1.7,1.5-4.2,1.1-6.4c-0.2-1.1,0.1-1.6,1.3-1.8
		c9-1.8,16.9-6.2,24.7-10.9c4.9-3,9.8-5.9,15.2-7.9c0.3-0.1,0.7-0.3,1-0.4c0.7-0.1,1.4-0.9,1.9-0.2
		C352.8,370.8,352.1,371.5,351.8,372 M297.8,336.1c0.1-1.8,0.3-1.8,1.9-1c4.2,2,8.4,4,12.6,6.1c14,6.9,28,13.8,42,20.6
		c0.3,0.2,0.6,0.3,1,0.5c1.1,0.5,0.8,1,0,1.5c-2.7,1.4-5.4,2.9-8.1,4.3c-12.9,6.6-26.1,12.7-39,19.4c-0.8,0.4-1.5,1-2.2-0.3
		c-1.6-3.2-4.6-4.1-7.8-4.4c-3.5-0.4-3.5,0.4-3.4-3.7c0.1-8.2-1.4-16.2-2.5-24.3c-0.5-3.4-0.9-6.7-1.4-10.1
		c-0.1-1.1,0.4-1.7,1.3-2.2c0.7-0.4,1.4-0.8,2.1-1.2C296.4,340.1,297.6,338.5,297.8,336.1 M303.8,312.5c-4-1.8-7-4.5-8-9.1
		c-0.1-0.3-0.1-0.8,0.1-1c0.4-0.4,0.8,0.1,1.1,0.3c2.8,2.5,5.3,5.3,7.3,8.6c0.2,0.3,0.3,0.6,0.5,0.9
		C304.4,312.8,304.1,312.6,303.8,312.5 M316,317.2c-1.2-0.4-2.3-1-3.3-1.8c-0.8-0.6-1.5-1.3-2.2-2c-3.2-3.2-6.4-6.5-9.6-9.7
		c-1.5-1.5-2.9-3.2-4-5.1c-0.4-0.7-1.2-1.6-0.7-2.1c0.6-0.7,1.4,0.3,2,0.7c2.5,1.7,4.7,3.8,6.7,6.1c2.8,3.3,5.5,6.6,8.4,9.8
		c0.9,1.1,2,2,3,3c0.2,0.2,0.3,0.4,0.5,0.6C316.6,317.4,316.2,317.3,316,317.2 M328.9,322c-0.1,0.1-0.5,0.1-0.7,0
		c-1.3-0.5-2.6-1.2-3.8-2c-2.2-1.5-4.2-3.4-5.9-5.5c-5.7-6.7-12.2-12.6-18.4-18.8c-1.5-1.5-2.9-3.2-4.4-4.7c-1.2-1.2-1-2.6-0.9-4
		c0-0.2,0.1-0.5,0.5-0.6c0.6,0.1,1,0.7,1.4,1.1c4.3,4.1,8.3,8.5,12.2,12.8c6.3,6.9,12.4,13.9,19.2,20.2c0.2,0.2,0.4,0.4,0.6,0.6
		C328.8,321.4,329.3,321.6,328.9,322 M341.7,327.1c-3.7-2.1-6.9-4.8-10.1-7.5c-11.4-10-21.9-20.9-32-32.2c-1.9-2.1-3.6-4.5-4.9-7
		c-0.2-0.2-0.4-0.4-0.3-0.7c0.3,0,0.5,0.1,0.6,0.4c6.4,5.5,12.4,11.3,18.5,17.2c8.7,8.3,17.2,16.8,25.1,25.8c1.1,1.3,2.4,2.4,3.2,4
		l0.2,0.4C341.9,327.2,341.8,327.1,341.7,327.1 M353.7,328.3c-0.3,0.1-0.7,0.1-1,0.2c-1.9-0.1-3.6-0.7-5.1-1.8
		c-2.1-1.4-3.9-3.1-5.7-4.9c-10.9-11-21.7-22.1-32.6-33.1c-4.8-4.8-9.8-9.4-15.3-13.5c-0.9-0.7-1.7-1.4-1.7-2.6
		c0-0.6-0.9-1.2-0.1-1.6c0.7-0.4,1.6-0.4,2.2,0.3c0.3,0.2,0.5,0.5,0.7,0.8c10.7,12.2,22.9,22.7,35.1,33.3
		c7.9,6.9,15.8,13.7,23.4,21.1c0.1,0.1,0.3,0.2,0.4,0.3c0.3,0.3,0.8,0.6,0.7,1.1C354.6,328.2,354.1,328.2,353.7,328.3 M366.6,329.4
		c-0.4,0.7-1.3,0.5-1.8,0.6c-1.8,0.1-3.2-0.5-4.3-1.7c-14.1-14.6-30.8-26.4-45.6-40.2c-6.1-5.7-12-11.6-17.5-17.9
		c-0.2-0.3-0.5-0.5-0.7-0.8c-1.4-1.8-1.3-2.5,0.5-4c1.2-1,2.5-0.7,3.5,0.9c2.4,3.6,4.9,7.1,7.7,10.4c7.7,9.3,16.6,17.4,25.9,25.1
		c8.2,6.8,16.6,13.5,24.9,20.1c1.3,1,2.6,1.9,4,2.8c1.1,0.8,2.2,1.6,2.9,2.8C366.5,328,367,328.7,366.6,329.4 M379.7,329.4
		c-0.8,0.3-1.5,0.4-2.4,0.4c-1.6-0.1-3-0.6-4.3-1.4c-1.1-0.7-2.3-1.4-3.3-2.4c-7.6-7.4-16.4-13.4-24.7-19.9c-7-5.5-14-11-20.4-17.2
		c-0.3-0.3-0.7-0.6-1-0.9c-0.2-0.2-0.4-0.5-0.3-0.7c0.2-0.4,0.6-0.3,0.9-0.2c2.4,0.9,4.5,2.1,6.6,3.7c3.4,2.6,6.4,5.8,9.5,8.7
		c3.9,3.6,7.9,6.8,13.2,8c0.8,0.2,1.4,0.7,2,1.3c3.7,4.2,8.2,7.5,12.7,10.8c3.4,2.4,6.8,4.7,10.1,7.1c0.6,0.4,1.1,0.9,1.7,1.3
		C380.7,328.7,380.6,329.1,379.7,329.4 M393.8,329.6c-0.4,0.7-1.3,0.3-1.7,0.4c-3.4-0.1-6-1.3-8.5-3.1c-3.7-2.6-7.3-5.5-11-8.2
		c-13.7-9.9-27.4-19.7-40.7-29.9c-0.5-0.4-1-0.7-1.5-1.2c-0.4-0.4-1.4-0.7-1-1.3c0.3-0.5,1.2,0,1.7,0.2c2.1,0.7,4.1,1.8,5.8,3.3
		c10.6,9,22.5,16,34.1,23.4c4.8,3,9.6,5.9,14.5,8.8c2.7,1.6,5.3,3.4,7.4,5.8C393.4,328.3,394.2,328.8,393.8,329.6 M401.4,326.2
		c-0.3,0.7-1.1,0.3-1.7,0.4c-2.5-0.3-4.8-1.3-6.9-2.7c-5.9-3.9-11.8-7.8-17.8-11.6c-12-7.7-24-15.4-35.7-23.5
		c-0.9-0.6-2.3-1.3-1.7-2.3c0.7-1.1,1.9,0,2.8,0.5c15.5,9.6,31.1,19.3,46.6,29c3,1.8,6.1,3.5,9.1,5.3c1.7,1,3.3,2.2,4.6,3.7
		C401,325.2,401.6,325.6,401.4,326.2 M416.5,326.3c-0.3,0.9-1.4,0.6-2.2,0.7c-2.7-0.2-5.2-1-7.5-2.5c-4.4-2.9-8.7-6-13.2-8.7
		c-13.4-8.1-27.1-15.7-40.3-24.2c-0.8-0.5-1.7-1.1-2.5-1.6c-0.3-0.2-0.6-0.5-0.5-0.9c0.2-0.5,0.7-0.5,1.1-0.4c0.8,0.3,1.5,0.6,2.2,1
		c8.5,4.5,16.9,9,25.2,13.9c1.7,1,3.4,1.9,5.2,2.7c1.8,0.7,3.4,1.7,4.4,3.4c0.4,0.5,0.7,0.9,1.4,1.1c3.3,0.7,6.2,2.4,8.9,4.3
		c3.2,2.2,6.5,4,10.2,5.4c2.4,0.9,4.8,2.1,6.6,4C416,325.1,416.7,325.6,416.5,326.3 M428.3,326.6c-0.2,0-0.4,0-0.5,0
		c-2.2,0-4.3-0.7-6.1-1.8c-5.2-3-10.3-6.1-15.5-9.2c-7.3-4.4-14.6-8.7-21.9-13.1c-4.1-2.5-8.5-4.3-12.8-6.1c-2.9-1.2-5.7-2.7-8-4.8
		c-0.4-0.4-1.2-0.8-0.8-1.5c0.3-0.5,1,0,1.5,0.1c4.6,1.4,8.8,3.4,13,5.7c5.1,2.8,10,6,15,9.1c8.4,5.2,17.4,9.3,26.2,13.8
		c3.6,1.8,7.2,3.7,10.6,5.8c0.6,0.3,1.6,0.5,1.4,1.4C430,326.8,429,326.5,428.3,326.6 M378.5,292.9c0.5-1.2,1.8-0.3,2.8-0.1
		c6.4,1.5,12.4,4.2,18.1,7.4c14.2,8,28.4,16.1,42.5,24.1c0.5,0.3,1.1,0.6,1.6,1c0.6,0.5,2,0.8,1.8,1.4c-0.3,1-1.7,0.7-2.5,0.9
		c-2.8-0.3-5.2-1.2-7.4-2.6c-11.4-7.1-23.4-13.2-35.2-19.7c-6.5-3.6-13.2-6.9-19.7-10.4C379.6,294.5,378.1,294.1,378.5,292.9
		 M432.6,332c-0.3-0.4-0.4-0.8-0.3-1.2c0.1-0.6,0.6-0.6,1-0.6c3,0,5.9,0.1,8.9,0.1c0.3,0,0.8,0,0.8,0.5c0,0.4-0.3,0.6-0.6,0.8
		c-1.9,1.3-4,1.6-6.2,1.7C434.9,333.1,433.6,333.1,432.6,332 M435.3,336.9c-0.1-0.4,0.1-0.7,0.5-0.8c1.1-0.6,2.3-0.9,3.6-1
		c1.8-0.2,3.6-0.3,5.5-0.4c0.3,0.1,1-0.4,1.1,0.4c0.1,0.4-0.4,0.7-0.8,1c-2.9,1.7-6,2.1-9.3,1.4
		C435.7,337.2,435.4,337.1,435.3,336.9 M439.5,341c-0.4-0.1-1.8,0.6-1.9-0.5c-0.1-1,1.4-1.2,2.3-1.3c1.9-0.1,3.7-0.2,5.5-0.8
		c0.4-0.1,0.7-0.2,0.8,0.3c0.1,0.2,0,0.6-0.1,0.7c-0.4,0.6-1.1,0.9-1.8,1C442.8,340.8,441.4,341.2,439.5,341 M440.5,344.6
		c-0.1-1.2,1.2-1.5,2.3-1.8c1.2-0.4,2.5-0.3,3.6-1c0.9-0.6,1.5-0.1,1.9,0.7c0.5,0.9,0.1,1.6-0.7,2c-1.4,0.8-3,1-4.8,1
		C442.2,345.1,440.7,346,440.5,344.6 M443,348.2c0-0.7,0.5-0.9,1-1.1c0.8-0.3,1.6-0.2,2.4-0.2c0.4,0,0.9,0,1.3,0
		c0.3,0,0.7,0,0.9,0.4c0.2,0.4-0.2,0.7-0.5,0.9c-1.2,0.9-2.6,1.1-4.1,1C443.6,349.1,443.1,348.9,443,348.2 M445.1,352.2
		c0.6-0.6,1.3-1,2-1.2c0.8-0.3,1.7-0.9,2.3,0.2c0.4,0.8-0.5,2-1.6,2.4c-0.3,0.1-0.7,0.1-1.1,0.2c-0.5-0.1-1-0.2-1.5-0.4
		C444.8,353,444.7,352.6,445.1,352.2 M448.5,357.8c-0.3,0.1-0.7,0.1-1,0.1c-0.6-0.1-1.4,0.1-1.5-0.8c0-0.8,0.6-1,1.3-1
		c0.3,0,0.7,0,1,0c0.5,0.1,1.2,0.1,1.2,0.7C449.7,357.4,449.1,357.7,448.5,357.8 M451.3,360.8c0,1.2-1.3,1.3-2.2,1.2
		c-0.8,0-2.1,0.5-2.1-0.8c0-1.4,1.4-0.9,2.3-1C449.9,360.5,451.2,360,451.3,360.8 M459.4,379.6c0.7,0,1.3-0.1,1.9,0.4
		c-0.2,1-0.9,1.2-1.6,1.3c-0.6,0.1-1.3,0-1.4-0.8C458.3,379.9,458.8,379.7,459.4,379.6 M456.8,376.9c0.1,0.3-0.2,0.7-0.6,0.8
		c-0.5,0.3-1.1,0.7-1.7,0.8c-1.6,0.5-3.3,0.8-4.5,2.1c-0.2,0.2-0.6,0.2-0.8,0.3c-1.7-0.2-3.1-0.9-4.2-1.9c-0.6-0.5-1.5-1.4-1.1-2
		c0.4-0.8,1.3,0.1,2,0.2c2.9,0.6,5.8,0.4,8.7-0.3c0.4-0.1,0.9-0.2,1.3-0.3C456.3,376.7,456.7,376.5,456.8,376.9 M455.1,374.5
		c-1.7,2.1-6.4,2.2-8.3,0.3c-0.4-0.4-0.7-0.8-0.5-1.4c0.2-0.6,0.8-0.6,1.4-0.6c0.9,0,1.8,0,2.7,0c0,0,0-0.1,0-0.1
		c1.4,0.1,2.8,0.2,4.2,0.4C455.6,373.1,455.7,373.7,455.1,374.5 M453.8,370.2c-0.5,0.9-1.4,1.3-2.4,1.5c-1,0.2-2,0.1-2.6-0.9
		c-0.5-0.7-0.5-1.3,0.6-1.4c0.8-0.1,1.6-0.2,2.5-0.4c0.4,0.1,0.9,0.2,1.5,0.4C453.7,369.5,453.9,369.8,453.8,370.2 M452.4,366.2
		c-0.1,1.2-1.2,0.6-1.9,0.8c-1.1,0-2.2,0.1-2.8-1.1c-0.2-0.3-0.2-0.8,0.1-1c0.9-0.7,2-0.4,3.1-0.3
		C451.8,364.7,452.5,365.3,452.4,366.2 M451.3,326.8c-0.3-0.1-0.7-0.3-0.9-0.6c-1.8-2.6-4.6-3.7-7.1-5.1
		c-14.6-8.2-29.2-16.5-44.3-23.7c-0.7-0.3-1.5-0.6-1.8-1.5c-0.5-1.6,1.1-3,3-2.7c0.5,0.1,1,0.4,1.4,0.7
		c11.5,6.9,23.7,12.6,35.6,18.9c5.6,3,11.2,6,15.7,10.7c0.5,0.5,1,1,1.3,1.7C454.3,326.1,452.3,327.2,451.3,326.8 M464.1,317.2
		c-1.4,1.5-3.2,2.2-4.8,3.4c-1,0.7-1.7-0.2-2.4-0.6c-5.8-3.6-11.7-7-17.7-10.2c-11.7-6.2-23.5-12.4-35.2-18.6
		c-3-1.6-3.2-2.5-1.1-5.3c2.1-2.7,2.1-2.7,5-1c18.2,9.9,36.6,19.3,55.2,28.5c0.8,0.4,2,0.5,2.2,1.7
		C465.2,316,464.7,316.6,464.1,317.2 M469.8,320.6c-1.6-0.1-2.6-0.9-2.5-1.9c0.2-1.2,1.9-2.5,3.2-2.3c0.7,0.1,1.5,0.2,1.3,1.3
		C471.6,319.6,470.9,320.7,469.8,320.6 M469.9,312.1c-1,0.6-1.9,0.7-3,0c-9.4-6.6-19.9-11.4-30.2-16.4c-4.8-2.3-9.6-4.9-14.4-7.3
		c-1.2-0.6-1.8-1.4-1.7-2.7c0.1-1.9,0-3.8,1.5-5.3c0.1-0.1,0.3-0.1,0.6-0.2c0.6,0.3,1.2,0.5,1.9,0.9c9.7,4.7,19.5,9.5,29.2,14.3
		c6.7,3.3,13.3,6.7,19.9,10.1c1.8,0.9,1.8,1,0.6,2.5C473,309.5,471.7,311.1,469.9,312.1 M505.3,242.1c0.2,0.8,0.4,1.6,0.5,2.1
		c0.2,1.1-0.3,1.2-0.9,1c-1-0.4-1.9-0.9-2.9-1.4c-3.5-1.9-6.7-4.2-10-6.3c-2.1-1.3-4.2-2.8-6.6-3.6c-1.6-0.6-2-1.6-1.8-3.1
		c0.2-1.6,0.5-3.2,0.7-4.8c0.1-0.8,0.6-1.1,1.3-0.8C494.1,228.7,502.3,232.4,505.3,242.1 M486.6,219.3c1-3.5,1.9-7.1,2.9-10.6
		c0.2-0.8,0.8-1,1.3-0.3c0.6,0.8,1.2,1.6,1.6,2.5c2.9,5.2,4.3,11,6.5,16.5c0.1,0.2,0.1,0.6,0,0.7c-0.3,0.4-0.6,0.1-0.9-0.1
		c-2.1-1-4-2.4-5.9-3.8c-1.5-1-2.9-2.1-4.4-3C486.9,220.8,486.4,220.3,486.6,219.3 M485,236.9c4.3,3.9,9.6,5.8,14.7,8.3
		c3.1,1.6,6.2,3.2,8.5,5.9c0.6,0.7,1.8,1.6,1.3,2.4c-0.4,0.6-1.6-0.2-2.4-0.4c-8.4-2.7-16.7-5.9-24.9-9.3c-1.1-0.5-2.3-0.8-2.1-2.1
		c0.1-1.5,0.5-2.7,1.1-3.8C482.1,236.2,483.6,235.7,485,236.9 M488.9,250.2c6.1,1.9,12,4.4,18.2,5.7c1.2,0.3,2.4,0.8,3.2,1.8
		c0.8,0.9,0.6,1.6-0.6,1.9c-1.4,0.3-2.9,0.4-4.3-0.1c-17-5.9-34.8-8.4-52.2-12.5c-0.4-0.1-0.9-0.2-1.3-0.3c-0.6-0.1-1.5-0.2-1.5-0.9
		c0-0.4,0.9-0.3,1.4-0.4c2.8-0.2,5.5-0.6,7.7-0.5C470,245.2,479.5,247.2,488.9,250.2 M612.3,396.3c-0.4,2.3-1.1,4.5-2.1,6.6
		c-1.5,3.3-3.2,6.4-4.2,9.9c-0.3,1.2-0.9,1.2-1.7,0.5c-1.2-0.9-1.8-2.2-1.9-3.6c0.2-2,0.9-3.8,1.7-5.5c1.8-3.6,4.1-6.9,5.7-10.7
		c0.3-0.8,0.7-0.9,1.4-0.3C612.2,394.1,612.6,395.1,612.3,396.3 M613.9,400.7c0.4-1.6,1.2-1.8,2.2-0.6c1,1.1,2.8,1.9,2.2,3.6
		c-0.2,2.9-0.9,5.3-2,7.6c-1.6,3.6-3.8,6.9-4.7,10.8c-0.2,1-0.9,0.8-1.4,0.3c-1.6-1.8-2.1-3.9-1.8-6.2c0.4-2.4,1.3-4.7,2.2-6.9
		C611.9,406.4,613.2,403.6,613.9,400.7 M607.2,390.4c-0.7,3.5-2.4,6.5-4,9.6c-0.9,1.7-1.8,3.5-2.7,5.3c-0.5,1-1,1.1-1.8,0.4
		c-0.9-0.8-1.3-1.9-1.5-3.1c0.2-1.4,0.6-2.7,1.4-4c1.2-2,2.6-3.9,3.8-5.8c0.9-1.4,1.7-2.7,2.3-4.2c0.2-0.5,0.2-1.5,1.1-1.2
		c0.8,0.3,1.7,0.8,1.7,1.8C607.4,389.5,607.3,390,607.2,390.4 M602.8,385c-1.7,4.9-4.6,9.3-7.2,13.8c-0.2,0.3-0.4,0.7-0.8,0.7
		c-0.5,0-0.7-0.5-0.8-0.9c-0.2-0.6-0.3-1.2-0.3-1.4c-0.1-2.3,0.7-4,1.5-5.6c0.8-1.6,1.7-3.2,2.5-4.7c0.9-1.6,1.7-3.2,1.5-5.1
		c-0.1-0.6,0.1-1.1,0.9-1C601.5,381,603.3,383.7,602.8,385 M598,378.7c-1.5,4-2.6,8.2-4.7,12c-0.6,1.2-1.3,2.3-2.4,3.2
		c-0.7,0.6-1.2,0.4-1.3-0.4c-0.2-1.2-0.1-2.5,0.2-3.7c0.8-3.3,2.4-6.3,3.9-9.4c0.7-1.4,1.2-2.8,1.9-4.2c0.2-0.4,0.5-0.7,0.7-1.1
		c0.3,0.1,0.5,0.1,0.6,0.2C597.4,376.4,598.5,377.3,598,378.7 M562.6,320.2c0.1,0.6-0.2,0.8-0.8,0.5c-0.8-0.3-1.3-0.9-1.8-1.6
		c-1-1.5-1.7-3.1-3.1-4.4c-0.8-0.7-0.3-1.5,0.1-2.2c1-1.6,2.6-2.7,2.8-4.8c0-0.1,0.2-0.2,0.4-0.3c0.4,0,0.6,0.3,0.9,0.6
		c0.6,0.9,1,1.9,1,3C562.5,314.1,562,317.2,562.6,320.2 M584.1,364.9c-1.4,4.2-3.9,7.8-6.9,11c-0.3,0.3-0.6,0.7-1.1,0.6
		c-0.7-0.2-0.6-0.8-0.6-1.3c-0.2-1.9,0.5-3.7,1.3-5.4c1.7-3.7,3.8-7.3,5-11.2c0.3-1,0.8-1,1.5-0.3c1.1,1.1,1.3,2.5,1.3,4.4
		C584.4,363.2,584.4,364.1,584.1,364.9 M585.8,364.7c0.4-1.8,1.2-2,2.5-0.6c0.6,0.6,1.4,1.1,1.5,2c-0.1,0.2-0.1,0.4-0.2,0.6
		c-2,3.7-3,7.9-4.9,11.6c-0.6,1.2-1.4,2.3-2.2,3.3c-0.7,0.9-1.5,1.2-2.6,0.7c-1.1-0.5-0.5-1.3-0.4-2.1c0.4-2.7,1.7-5.1,2.9-7.4
		C583.9,370.3,585.2,367.7,585.8,364.7 M580.2,356.6c-2.4,4.7-4.5,9.5-6.1,14.6c-0.6,1.8-1,1.8-2.2,0.3c-0.8-0.9-1.3-1.9-1.8-3
		c-0.6-1.2-0.5-2.3,0.3-3.5c2.6-3.8,4.3-8,5.4-12.5c0.6-2.2,1.4-2.4,3-0.7c0.9,1,1.6,2.1,2.3,3.1
		C580.7,355.6,580.4,356.1,580.2,356.6 M574.9,349.3c-0.7,2.3-1.6,4.5-2.8,6.7c-1.3,2.5-2.7,5-3.8,7.7c-0.2,0.4-0.2,1-0.7,1
		c-0.7,0-0.8-0.7-0.8-1.2c-0.1-0.6-0.1-1.2-0.1-1.2c0-2,0.4-3.3,0.9-4.5c1.7-3.9,4.1-7.5,4.5-12c0.1-0.8,0.6-0.8,1.2-0.5
		C574.8,346,575.4,347.5,574.9,349.3 M564.7,358c-1,1.6-1.5,1.5-2.4,0c-0.6-1-0.8-1.8-0.8-2.7c0-2.1,0.6-3.7,1.3-5.2
		c1.6-3.5,3.9-6.6,5.1-10.3c0.1-0.3,0.2-0.7,0.7-0.6c0.8,0.2,2.5,2.6,2.3,3.5C569.5,348.1,567.8,353.3,564.7,358 M566.5,336.2
		c-0.3,2.3-1.1,4.5-2.2,6.6c-1.3,2.4-2.7,4.9-4,7.3c-0.4,0.6-0.4,1.8-1.5,1.6c-1-0.2-1.2-1.2-1.2-1.6c0-2.1,0.5-3.5,1.4-4.6
		c1.1-1.5,1.6-3.1,1.9-4.9c0.3-1.9,1-3.8,2-5.5c0.7-1.1,1.6-1.4,2.7-1.1C566.8,334.3,566.6,335.4,566.5,336.2 M560.1,336.1
		c-0.6,0.6-1.2,0.7-1.4-0.5c-0.2-1.5-0.6-3-0.9-4.4c-0.2-1.4-0.4-2.8,0.2-4.2c0.7-1.6,1.4-1.8,2.9-0.8c1.1,0.8,1.9,2.4,1.8,4.2
		C562.5,332.4,561.8,334.5,560.1,336.1 M551.7,301.7c-0.9,0.3-1-0.5-0.9-1.1c0.4-1.8,1.5-3.2,3.2-4.1c2.5-1.2,5.3-1.4,8-2.2
		c0.3-0.1,0.7-0.1,0.7,0.6c-0.1,0.2-0.3,0.5-0.5,0.8C559.6,299.2,555.7,300.5,551.7,301.7 M558,293.1c-1.7,0.4-3.1,1.3-4.7,2
		c-0.7,0.3-1.5,0.5-2,0.7c-0.8,0-1.4,0-1.6-0.6c-0.2-0.6,0.4-1,0.8-1.2c0.9-0.5,1.7-0.9,2.6-1.3c1.2-0.5,2.3-1,3.1-2
		c0.4-0.5,0.8-1,1.5-0.5c0.7,0.5,1.3,1,1.3,1.9C559,292.7,558.5,292.9,558,293.1 M551,307c0.8-2.5,4.4-4.9,7.2-4.8
		c0.6,0,0.8,0.3,0.8,0.8c0.3,3-3,7-5.8,7C550.9,310,550.3,309.2,551,307 M553.8,315.5c0.9,0.2,2,0.4,1.9,1.7
		c-0.1,0.9-0.7,1.6-1.1,2.4c-0.2,0.4-0.6,0.2-0.9,0c-0.6-0.5-1.1-1.6-1.1-2.6C552.8,316.2,552.8,315.3,553.8,315.5 M554.4,324.6
		c0.6-1,1.5-1.8,1.9-2.9c0.2-0.5,0.3-1.4,1.2-1.1c0.8,0.3,1.7,0.8,1.2,2c-0.3,1.6-0.5,3.2-2.1,4.1c-0.6,0.3-1.3,0.7-2,0.1
		C554,326.1,553.8,325.4,554.4,324.6 M556.4,355c0.9-0.1,2.8,2.7,2.8,3.9c-0.1,1.1-0.9,0.9-1.5,1c-1.7,0-3.2-1.2-3.2-2.3
		C554.4,356.8,555.7,355.1,556.4,355 M555.1,362c1.5,0.2,3.5,0.2,5.3,0.9c1.8,0.7,3,1.8,3.6,3.6c0.4,1.1-0.1,1.5-1.1,1.4
		c-3.5-0.2-6.9-0.9-10.2-2.1c-0.8-0.3-1.6-0.5-1.1-1.6c0.3-1,0.1-2.3,1.7-2.3C553.7,362,554.2,362,555.1,362 M565.7,371.4
		c0.8,0.3,1.7,0.6,2.5,1c0.6,0.3,1.5,0.5,1.3,1.4c-0.2,0.8-1.1,0.8-1.8,0.9c-1.1,0.2-2.3,0.2-3.2,0.3c-5-0.3-9.6-1.3-14.3-2.1
		c-0.7-0.1-1.8,0-1.7-1.2c0.1-1,0.5-1.9,1.5-2.3c0.3-0.1,0.7-0.1,1.1-0.1C556.1,369.5,561,369.9,565.7,371.4 M552.3,376.4
		c2.8-0.2,5.5,0.6,8.2,1.2c3.8,0.8,7.5,1.8,11.4,1.5c1.1-0.1,1.8,0.3,2.4,1.3c0.8,1.2,1.9,2.1,2.2,3.7c0,0.4-0.3,0.5-0.7,0.5
		c-0.4,0-0.7-0.2-1-0.2c-6-1.1-12-1.6-18.1-2.3c-2.7-0.3-5.3-0.7-7.9-1.2c-2-0.4-2.2-1.1-0.8-2.6C549.2,377,550.6,376.5,552.3,376.4
		 M560.1,386.6c0.2-0.6,0.9-0.4,1.4-0.4c1.6,0,3.2,0,4.3,0c4.2-0.2,7.8,0.2,11.4,1.2c2.2,0.6,4.2,1.6,5.5,3.6c0.2,0.3,0.4,0.7,0.3,1
		c-0.1,0.3-0.6,0.3-0.9,0.2c-4.9-0.9-9.9-0.9-14.8-2c-2.1-0.5-4.2-1.1-6-2.3C560.7,387.6,559.8,387.3,560.1,386.6 M566,396.1
		c0.6,0.1,1.2,0.4,1.8,0c5.4-3.3,10.9-1.9,16.3-0.2c1.3,0.4,2.5,1.1,3.6,1.9c0.8,0.6,1.5,1.2,2.1,2.1c0.4,0.7,1.2,1.4,0.7,2.1
		c-0.4,0.6-1.4,0.1-2,0c-11.1-2.2-22.3-3.3-33.5-4.9c-1.2-0.2-2.4-0.5-3.6-0.8c1.1-1,2.4-0.8,3.7-0.9c0.9-0.1,1.8,0,2.7,0
		C560.5,395.2,563.2,395.6,566,396.1 M592.2,377.6c-1.8,3.5-3.8,6.9-4.5,10.8c-0.2,1.1-0.7,1.1-1.4,0.5c-1.1-1-1.4-2.3-1.6-3.5
		c0.3-1.6,0.7-3.1,1.3-4.5c1.6-3.8,4-7.2,5-11.2c0.2-0.6,0.5-0.9,1.2-0.6c1.1,0.5,2,2.2,1.8,3.5C593.7,374.4,593,376,592.2,377.6
		 M593.2,362c-0.5,0.4-1,0.3-1.5,0c-0.5-0.3-1-0.7-1.5-1.2c-1.6-1.7-3.2-3.4-4.3-5.5c-0.8-1.4-1.6-2.8-3.1-3.6
		c-0.6-0.3-0.8-0.8-0.9-1.5c-0.5-6.2-2.2-12.1-3.5-18.2c-0.7-3-1.1-6-1.3-9c0-0.1,0-0.2,0-0.3c-0.1-2.9,0.4-3.2,3-2.1
		c1.1,0.5,2.2,1.4,3.4,1.6c2.6,0.5,3.2,2.3,3.4,4.6c1.2,11.2,3.2,22.3,6.2,33.2c0.1,0.3,0.2,0.5,0.2,0.8
		C593.5,361.2,593.6,361.6,593.2,362 M577.4,342.4c0.1,0.3,0.1,0.8,0,1c-0.3,0.3-0.6-0.1-0.8-0.4c-7.8-8.7-12.7-18.6-13.3-30.4
		c0-0.1,0-0.2,0-0.3c0-1.7,0.3-1.9,1.9-1.2c2.7,1.2,4.7,3.3,6.2,5.8c1.2,2.1,2.1,4.4,2.7,6.7C575.6,329.8,576.2,336.2,577.4,342.4
		 M562.7,301.4c-0.6-0.1-1.1,0-1.4-0.4c-0.3-0.5,0.1-0.9,0.3-1.2c2-2.8,4.6-4.4,8.1-4.7c0.4,0,1,0,1.3,0.3c0.4,0.6-0.1,1-0.5,1.4
		C568.2,299.1,565.9,301.2,562.7,301.4 M569.5,291.6c-0.4,0-0.7,0-0.5,0c-4,0.1-6.6-1.5-8.7-4c-1.9-2.4-3.2-5.2-4.3-8
		c-1.1-2.7-2.3-5.4-3.5-8.1c-0.7-1.6-0.3-2.5,1.3-2.7c2.4-0.4,4.8-0.4,7.2-0.6c1.3-0.1,1.3,1.1,1.5,1.9c1.9,5.6,4.3,11,6.7,16.3
		c0.5,1.1,1,2.1,1.5,3.2C571.6,291.3,571.4,291.5,569.5,291.6 M553.3,281.1c0.2,0.9,0.3,1.8,0.4,2.1c0,3.6-1.5,5.8-4.3,6.6
		c-1.3,0.4-2.2,0.2-2.8-1.2c-1.3-2.8-2-5.7-2.7-8.7c-0.6-2.6-1-5.3-1.6-7.9c-0.3-1.3,0.1-1.8,1.3-2.1c5.1-1.5,5.4-1.3,7.2,3.5
		C551.7,275.9,552.8,278.4,553.3,281.1 M527.1,295.6c-1.6,1-3.2,1.9-4.9,2.8c-1,0.5-2.2,0.9-3.4,0.8c-0.8,0-1.6,0-2.3-0.4
		c-0.7-0.4-1.7-0.8-1.7-1.6c0-1,1.2-0.8,1.9-1c3.4-1,6.5-2.5,9.7-3.9c2.3-1,4.7-1.8,7.1-2.4c1-0.2,1.9-0.4,2.9-0.1
		c0.3,0.1,0.7,0.3,0.7,0.7c0.1,0.5-0.4,0.5-0.7,0.6C533,291.8,530.1,293.8,527.1,295.6 M527.4,300.5c-0.1,1,0.2,2.3-1.3,2.5
		c-1.2,0.1-3.3-1.1-3.3-1.7c0-1,1.6-2,3.2-2.1C526.8,299.2,527.5,299.4,527.4,300.5 M530.3,296.7c0.9-0.9,1.9-1.7,3-2.1
		c1.7-0.7,3.5-1.3,5.3-1.9c0.3-0.1,0.7-0.3,0.8,0.3c-0.1,0.2-0.2,0.4-0.3,0.5c-2.2,2.5-4.7,4.3-8.1,4.8c-0.4,0.1-1,0.3-1.2-0.2
		C529.5,297.6,529.9,297.1,530.3,296.7 M538.4,297.3c0.4-0.7,1-1.3,1.5-1.8c1.4-1.2,3-1.9,4.6-2.5c0.6,0,0.9,0.1,0.6,0.8
		c-0.4,0.8-1.1,1.4-1.8,1.9c-1.3,0.9-2.7,1.7-4,2.6c-0.3,0.2-0.6,0.5-0.9,0.2C538,298.2,538.2,297.7,538.4,297.3 M544,297.5
		c0.1-0.1,0.1-0.1,0.2-0.1c0.8-0.3,1.3-1.5,2.3-0.9c0.9,0.6,0.9,1.7,1,2.6c0,2.1-0.6,2.4-2.5,1.7c-0.3-0.1-0.5-0.2-0.7-0.4
		c-0.6-0.4-1.6,0.2-1.8-0.8C542.4,298.4,543.3,298,544,297.5 M542.8,286.7c0.1,0.4,0.3,1-0.2,1.2c-0.5,0.2-0.9-0.2-1.1-0.6
		c-0.7-1-1.4-1.9-1.9-2.9c-0.7-1.4-1.9-1.8-3.3-1.7c-1.1,0.1-2.1,0.3-3.1,0.8c-0.9,0.4-1.8,0.8-2.7,1.1c-1,0.4-2.2,1-3.1,0.3
		c-0.9-0.7,0.1-1.8,0.2-2.7c0.6-3,0.6-6,0.9-9.1c0.1-1.2,0.2-2.3,0.5-3.4c0.2-0.9,0.5-1.3,1.5-1.1c2.5,0.4,4.8,1.4,7.3,1.7
		c0.8,0.1,0.9,0.8,1.1,1.4C540.2,276.6,541.5,281.7,542.8,286.7 M527.8,289c0.1,0.5-0.3,0.8-0.6,1.1c-1.2,1-2.6,1.6-4.1,1.9
		c-3.8,0.8-7.5,1.5-11,3.3c-1.1,0.6-2.5,0.8-3.4-0.4c-0.5-0.7,1-2.3,2.7-2.4c4.3-0.3,8.3-1.9,12.4-3.3c0.9-0.3,1.9-0.7,2.9-0.6
		C527,288.6,527.6,288.4,527.8,289 M528.9,369.8c-1.7-0.5-3.2-1.4-4.8-2.3c-0.5-0.3-1.1-0.5-1.1-1c0.1-0.6,0.7-1,1.3-1.2
		c0.3-0.1,0.7-0.1,1-0.2c2.2,0.4,4.3,1.1,6.5,1.2c0.9,0,0.7,0.9,0.7,1.5c0,0.8,0.1,1.6-0.9,2C530.8,370.1,529.9,370.1,528.9,369.8
		 M531.3,374.6c0.1,1.1-0.3,2-1.5,2.1c-1.1,0.1-1.7-0.9-1.8-2.8c-0.3-1.2,0.5-1.2,1.4-1.3C531,372.4,531.2,373.5,531.3,374.6
		 M525,378c0.1,1.1-0.5,1.6-1.5,1.9c-2.3,0.8-4.6,1.3-7,1.7c-2.4,0.4-4.7,0.8-7.1,1.3c-0.4,0.1-0.8,0.1-1-0.1
		c-0.1-0.2,0.2-0.6,0.4-0.9c1.1-1.1,2.3-2,3.6-2.8c2.9-1.9,6.1-3.4,8.6-5.8c0.8-0.8,1.5-0.5,2.1,0.1
		C524.6,374.6,524.8,376.3,525,378 M531.6,362.6c-0.9,0.2-1.7,0.3-2.4,0.5c-3.3-0.4-6.2-1-9-2.2c-1.8-0.7-1.9-2.4-2.4-3.9
		c-0.1-0.4,0.2-0.9,0.8-0.8c4.4,1.1,9.1,0.9,13.4,2.5c0.9,0.3,2.2,0.6,2.1,1.7C533.9,361.7,532.7,362.3,531.6,362.6 M530.6,355.1
		c-2.1,0-4.1-0.7-6-1.2c-2.4-0.6-4.8-1.4-7.4-1.5c-0.5,0-1.1-0.1-1.4-0.6c-1-1.3-2-2.5-2.9-3.8c-0.3-0.4-0.6-1-0.4-1.5
		c0.4-0.7,1.1-0.3,1.7-0.2c2.5,0.5,4.9,1,7.4,1.5c3.9,0.8,7.9,1.5,11.8,2.6c2.1,0.6,2.4,1.7,0.9,3.4
		C533.4,354.8,532.5,355.2,530.6,355.1 M531.8,346.4c-3-0.1-6.9-0.9-10.7-1.8c-3.5-0.8-6.9-1.7-10.4-2.5c-2-0.5-4.1-2.9-4.4-4.8
		c-0.1-0.8,0.2-1.2,1-1.2c0.4,0,0.7,0.1,1.1,0.2c8.7,2,17.6,3.3,26.4,4.6c2.2,0.3,2.2,0.3,2.2,2.4
		C537,346.3,536.9,346.4,531.8,346.4 M535.6,337c-1.1,0.5-2.2,0.7-3.5,0.7c-1.5-0.3-3.1-0.5-4.6-1c-5-1.8-10.2-2.1-15.3-2.6
		c-2.1-0.2-4.1-0.6-6.1-1c-2.5-0.5-3.5-2.3-4.4-4.3c-0.4-0.8-0.3-1.4,0.9-1.2c8.5,1.8,17.2,2.4,25.6,4.6c2.6,0.7,5.1,1.6,7.5,2.9
		c0.4,0.2,0.9,0.3,0.8,0.9C536.4,336.7,536,336.8,535.6,337 M531.2,329.7c-9.8-1.9-19.6-3.9-29.5-5.8c-1-0.2-2.4-0.1-2.7-1.2
		c-0.4-1.4,1.2-1.8,1.9-2.7c0.5-0.7,1.2-0.7,1.9-0.5c5.9,1.8,12.1,2.2,18.1,3.6c3.7,0.9,7.3,1.9,10.3,4.4c0.7,0.6,1.7,1.1,1.8,2.2
		C532.4,329.9,531.8,329.8,531.2,329.7 M491.1,317.9c-0.3-4.5-1-8.9-0.7-13.4c0-0.6,0-1.2,0.8-1.6c0.3,0.4,0.7,0.7,0.9,1
		c0.9,1.4,1.2,3,1.6,4.5c0.7,2.7,1,5.5,3,7.6c0.4,0.5,0.3,1,0,1.5c-0.4,0.7-0.9,1.4-1.5,1.9c-0.9,0.7-2,1.5-3.2,1.1
		C490.9,320.1,491.2,318.8,491.1,317.9 M496.2,290.2c4.3,1.6,8,4.1,11,7.5c0.9,1,0.7,1.3-0.7,1.4c-2.5,0.1-5,0-7.5,0V299
		c-2.4,0-4.8,0-7.3,0c-1.6,0-1.8-0.4-1.3-1.8c0.9-2.6,3-4.5,4.4-6.8C495.1,289.8,495.7,290,496.2,290.2 M493.3,279.9
		c-2.9-1-5.4-2.8-8.2-4c-0.2-0.1-0.5-0.3-0.4-0.5c0.1-0.2,0.4-0.3,0.7-0.3c1.1-0.1,2.1-0.2,3.2-0.2c3.1,0.2,6,0.8,8.9,1.8
		c1.6,0.6,1.7,1.2,0.5,2.4C496.6,280.5,495,280.5,493.3,279.9 M507.6,310.7c0.2,0.5,0.3,1-0.5,1.3c-0.3-0.1-0.6-0.2-0.9-0.4
		c-2.9-1.8-4.8-4.3-5.9-7.4c-0.1-0.3-0.3-0.7,0-1c0.2-0.2,0.5-0.1,0.7,0C503.9,305.1,506.4,307.3,507.6,310.7 M504.5,302.8
		c0-0.1,0.4-0.3,0.7-0.3c0.8,0.1,1.2,0.7,1.3,1.4c0.1,0.3-0.2,0.4-0.6,0.4c-0.2-0.1-0.4-0.2-0.6-0.4
		C505,303.6,504.3,303.5,504.5,302.8 M510.3,283.1c-3.3,0.1-6.3,1.4-9.4,2.2c-1.8,0.5-2.2,0-1.7-1.7c0.4-1.3,1.2-2.4,2-3.5
		c1.4-1.8,2.8-3.5,3.6-5.7c0.3-0.8,0.6-1,1.3-0.4c2.5,2.2,3.9,5.1,5.1,8.1c0,0.1,0,0.2,0,0.3C511.2,283.1,510.7,283.1,510.3,283.1
		 M516.9,285.7c0.2,0,0.3,0.1,0.5,0.2c1.1,0.4,2.7,0.8,2.6,1.9c0,1-1.7,0.8-2.7,1c-2.5,0.6-5.1,1.2-7.6,1.8
		c-1.2,0.3-2.5,0.4-4.1,0.5c-1.4,0-3.2-0.2-4.7-1.3c-0.8-0.6-0.8-1.1,0.1-1.6C506.1,285.7,511.3,284.6,516.9,285.7 M495,305.4
		c-0.2-0.6-0.4-1.2-0.4-1.8c0-0.3,0-0.7,0.7-0.8c0.2,0.1,0.5,0.2,0.8,0.4c1.1,0.7,1.9,1.6,2.7,2.6c2.1,2.6,3.5,5.6,5.3,8.4
		c0.5,0.8-0.1,1.7-1,1.4c-1.6-0.4-3-1.5-4.7-1.8c-0.2,0-0.4-0.4-0.4-0.6C497.6,310.3,495.9,308,495,305.4 M517.6,318.9
		c-0.4,0.5-1,0.7-2.2,0.6c-2-0.4-4.3-1.2-6.6-2.1c-0.8-0.3-0.6-1-0.2-1.6c0.7-1.2,2-1.8,2.9-2.8c0.5-0.5,1,0,1.4,0.4
		c1.5,1.5,3.1,3,4.6,4.5C517.6,318.2,517.9,318.5,517.6,318.9 M525,283c0,0.7-0.3,1-1,0.8c-3.5-1-6.8-2.2-9.4-4.9
		c-0.9-0.9-1.1-1.8-0.7-3.1c0.8-2.2,1.4-4.4,2.1-6.6c0.4-1.2,0.9-2.3,1.6-3.4c1.4-2,3-2.6,5.1-1.9c2.7,0.8,3.4,1.9,3.4,5.1
		C525.8,273.4,524.8,278.2,525,283 M515.8,262.7c-0.3,0.8-0.6,1.9-1,3c-0.9,2.3-1.9,4.6-2.7,7c-0.4,1.2-0.9,1.1-1.7,0.4
		c-1.6-1.4-1.8-3-0.9-5c0.6-1.4,1.2-2.8,1.9-4.1c0.6-1.2,1.5-2.2,2.8-2.8C515.5,260.6,516,261,515.8,262.7 M463.1,252.8
		c13.9,3,27.8,6.2,41.8,9c3.6,0.7,3.6,0.9,1.6,3.9c-0.7,1-1.2,2-2.2,1.7c-3-0.4-5.6-0.9-8-1.8c-7.4-2.6-15.2-3.5-22.9-4.8
		c-13.3-2.1-26.6-3.8-39.7-6.8c-2.9-0.7-3.1-1.1-2-3.8c0.1-0.2,0.2-0.5,0.3-0.7c1.2-2.5,1.6-2.8,4.3-2.2
		C445.2,249,454.2,250.9,463.1,252.8 M432,257.8c3-0.6,5.9,0.2,8.7,0.9c3.4,0.9,6.7,2,10.1,2.9c5.7,1.6,11.6,2.1,17.5,2.8
		c9.3,1,18.5,2.1,27.7,3.9c2.1,0.4,4.2,1,5.7,2.8c0.7,0.8,0.8,1.4-0.5,1.7c-1.7,0.3-3.3,0.7-5.1,0.5c-5.2-0.1-10.3-1.3-15.4-2.4
		c-4.3-0.9-8.6-1.9-13-2.3c-0.8-0.1-1.6-0.2-2.4-0.1c-0.8,0-2.1-0.4-2.3,0.7c-0.2,0.9,0.9,1.5,1.6,2c1.5,1,3.3,1.4,5.1,1.6
		c3,0.4,5.7,1.5,8.4,2.8c3.6,1.8,7.3,3.5,10.9,5.3c1.5,0.7,2.8,1.6,4,2.7c1.1,1.1,1,2-0.3,2.8c-1.3,0.8-2.6,0.7-3.9,0.3
		c-1.1-0.3-2.2-0.8-3.2-1.5c-5.8-3.9-12.3-6.3-18.6-9c-11.8-5.2-23.7-10.2-35.5-15.4c-0.9-0.4-2.3-0.5-2.2-1.6
		C429.5,257.9,431,258,432,257.8 M431.2,263.2c12.6,7.1,26.1,12.2,39.3,17.9c5.9,2.6,11.7,5.3,17.4,8.4c2.3,1.2,2.4,1.7,0.9,3.9
		c-2.3,3.6-2.3,3.6-6,1.2c-8.9-5.9-18.5-10.5-28.2-15c-8.1-3.8-16.2-7.5-24-12c-0.9-0.5-1.9-1.1-2.7-1.7c-0.7-0.6-1.3-1.4-1-2.3
		c0.3-1.1,1.4-0.9,2.2-1C429.9,262.6,430.6,262.8,431.2,263.2 M483.5,304.9c-0.3-1,2-2.9,3-2.5c0.6,0.2,0.8,0.7,0.7,1.3
		c-0.9,4.4,0.4,8.7,1,13c0.2,1.7,0.4,3.4,0,5.1c-0.3,1.1-0.6,2.5-2,2.5c-1.2,0-1.5-1.3-1.9-2.3c-0.7-1.8-0.6-3.7-0.6-5.6
		c0-1.1,0.1-2.1,0.1-3.4C483.7,310.5,484.2,307.7,483.5,304.9 M471.3,291.6c3.5,1.9,6.9,3.8,10.1,6.1c1.9,1.3,1.9,1.9,0.6,3.6
		c-0.2,0.3-0.5,0.5-0.7,0.8c-2.7,2.7-2.8,2.7-6.1,0.7c-11.4-7-23.4-12.8-35.4-18.6c-4.7-2.2-9.3-4.5-14-6.8c-1.2-0.6-2-1.2-1.7-2.1
		c0.3-2.4,0.7-4.1,1.4-5.8c0.2-0.6,0.6-1.2,1.4-0.6C440.6,278.6,456.7,283.8,471.3,291.6 M481.9,311.9c0,2.2,0,4.5,0,6.7
		c0,1.3-0.1,2.5-0.3,3.7c-0.1,0.4,0,1-0.6,1c-0.5,0-0.8-0.4-1-0.8c-0.7-1.2-1-2.5-0.9-3.9c0.3-3.5,0.7-7,1-10.4
		c0.1-0.7,0.4-0.9,1-0.9c0.7,0,0.9,0.4,0.9,1c-0.1,1.2-0.2,2.3-0.3,3.5C481.7,311.9,481.8,311.9,481.9,311.9 M477.1,319.4
		c-0.1,0.6-0.3,1.2-0.8,1.7c-0.5,0.5-1,1.2-1.8,0.9c-0.8-0.3-0.3-1.1-0.3-1.7c-0.1-0.9,0-1.8,0-2.7c0.1-1.6-0.4-3.2,0.4-4.8
		c0.2-0.4,0.3-0.9,0.9-0.9c0.6,0,0.7,0.5,0.8,0.9C477.2,314.9,477.3,317.2,477.1,319.4 M478,333.3c-0.3-1.7-0.2-3.4,0-5.1
		c0.1-1.2,1.2-0.7,1.9-0.9c1.6,0.2,3.3,0.6,4.9,1.1c1,0.3,1,0.9,0.3,1.6c-1.5,1.7-3.2,3-5.2,4.1C478.9,334.7,478.2,334.4,478,333.3
		 M479.9,342.4c-0.6-0.3-0.4-0.9-0.3-1.4c0.4-2.6,1.7-4.7,3.7-6.4c1.4-1.2,3.1-2.2,4.7-3.1c2.2-1.3,4.5-2.7,6.1-4.8
		c0.4-0.5,0.8-0.9,1.6-0.9c0.8,0,1.5,0.2,1.9,0.9c0.4,0.6-0.2,1.2-0.5,1.7c-1.4,2.2-3.2,4.1-5.2,5.8c-3.3,2.9-7,5.3-10.6,7.8
		C480.8,342.1,480.4,342.6,479.9,342.4 M480.7,351c-0.1-0.3-0.1-0.7-0.1-0.5c-0.1-2,0.5-3.2,1.3-4.3c1.7-2.2,4-3.8,6.3-5.4
		c3.3-2.3,6.9-4.2,9.9-6.9c1-0.9,1.8-0.6,2.4,0.3c1.4,2.1,1.3,3.6-0.4,5.4c-2.7,3-5.9,5.5-9.2,7.9c-2.2,1.6-4.3,3.2-6.5,4.8
		C482.5,353.9,481.3,353.5,480.7,351 M482.8,365.5c-0.2-1.2-0.2-2.5-0.1-3.8c0-0.5,0.1-1.1,0.1-1.6c-0.2-1.5,0.5-2.5,1.7-3.4
		c4.2-3.2,8.4-6.4,12.5-9.7c1.7-1.3,3.2-2.8,4.8-4.3c0.9-0.8,1.6-0.9,2.6-0.1c1,0.9,2,1.8,2.6,3.1c1.3,2.7,1.2,3.2-1,5.3
		c-6,5.7-12.6,10.6-19.7,14.8c-0.5,0.3-0.9,0.6-1.4,0.8C483.5,367.1,483,366.9,482.8,365.5 M484.8,375.8c-0.2-1-0.3-2-0.4-3.3
		c-0.3-0.9,0.5-1.6,1.5-2.2c3.1-2.1,6.2-4.2,9.3-6.4c4.4-3,8.6-6.2,12.2-10.1c1.4-1.5,2.4-1.5,3.8-0.1c1.6,1.6,2.1,3.7,2.8,5.7
		c0.3,0.9-0.6,1.2-1.2,1.6c-3.8,2.5-7.6,5.1-11.4,7.6c-4.4,2.9-8.9,5.7-13.4,8.6C486,378.5,485.3,378.2,484.8,375.8 M487.5,387.9
		c-0.6-0.9-1-1.9-1-2.7c0-1.8,0.8-2.9,1.7-3.9c1.4-1.6,3.2-2.8,5-4c7.1-4.3,14.2-8.7,21.3-13c1.7-1.1,2.4-0.9,3.6,0.6
		c0.3,0.4,0.6,0.9,0.8,1.4c1.4,2.9,1.3,2.9-1,4.9c-5,4.3-10.7,7.7-16.4,11.1c-3.5,2.1-7.1,4.2-10.6,6.3
		C489,389.8,488.7,389.8,487.5,387.9 M494.8,397.4c-0.1-0.1-0.3-0.2-0.4-0.4c-0.7-1.2-3-1.2-2.4-3.1c0.7-2.1,2.2-3.5,4.4-3.9
		c0.4-0.1,0.7-0.1,1.2-0.1c2.3,0.2,4.6,0.9,7,1.5c0.9,0.2,1,0.6,0.6,1.3c-1.6,2.5-3.7,4.4-6.5,5.3
		C497.3,398.5,496,398.2,494.8,397.4 M508,396.4c-0.9,0.7-2,1.3-2.8,2c-2,1.8-1.6,3.7,0.8,4.8c0.4,0.2,0.9,0.3,1.2,0.5
		c1.3,0.9,1.2,1.8-0.1,2.6c-1.8,1.1-2.3,1.1-4.1-0.1c-1.4-1-2.5-2.3-3.4-3.8c-0.6-1.1-0.6-2,0.6-2.7c1.3-0.8,2.6-1.6,3.9-2.3
		c1.3-0.8,2.6-1.6,3.7-2.6c0.3-0.3,0.6-0.4,0.9-0.1c0.1,0.1,0.2,0.3,0.2,0.5C508.9,395.8,508.5,396.1,508,396.4 M537.8,400.1
		c-1,0.8-2.1,1.4-3.3,1.8c-7.5,2.4-15,4.7-22.7,6.3c-0.2,0-0.4,0.1-0.6,0.1c-0.2-0.1-0.6-0.1-0.7-0.2c-0.2-0.3,0.1-0.7,0.3-0.9
		c0.8-0.9,1.8-1.5,2.9-1.8c5.2-1.8,10-4.2,14.6-7.2c2.6-1.7,5.6-2.3,8.7-1.3c0.8,0.2,2,0.2,2.2,1.2
		C539.5,399.1,538.5,399.6,537.8,400.1 M513.1,401.6c0.6-0.4,1.3-0.9,2.1-1c0.4,0,0.9,0,1.1,0.5c0.2,0.6-0.2,1.1-0.7,1.2
		c-0.7,0.2-1.4,0.2-1.9,0.2c-0.5,0-0.9,0.3-1.1-0.1C512.4,402,512.8,401.8,513.1,401.6 M513.9,397.5c-0.3,0.1-0.5,0.2-0.8,0.2
		c-0.3,0.1-0.7,0.4-1,0c-0.3-0.5,0.1-0.8,0.4-1.1c0.8-0.9,1.8-1.4,2.8-2c1.1-0.6,2.1-1.3,2.6-2.6c0.6-1.7,0.3-2.4-1.4-2.7
		c-1.4-0.2-2.9,0.1-4.3,0.4c-1.3,0.3-2.7,0.5-4,0.2c-1.4-0.3-1.6-1-0.5-2c2.2-2.1,5-2.8,7.9-3c2.3-0.1,4.7,0,7,0v0.1
		c2.2,0,4.5-0.1,6.7,0c1.9,0.1,3-0.8,4-2.2c0.9-1.4,1.5-3,1.6-4.5c0.5-9.3,3.5-18.1,5.3-27.1c1-5.1,1.8-10.2,0.9-15.5
		c-0.8-4.5-2.8-8.2-6.3-11.2c-3.4-2.9-7.3-4.9-11-7.2c-3.2-1.9-6.5-3.9-9.3-6.5c-2.1-1.9-3.7-4.1-4.8-6.8c-0.6-1.6-0.5-1.9,1.2-2.1
		c1.8-0.2,3.6-0.1,5.3,0.4c2.2,0.7,4.3,1.8,6.4,2.7c1.7,0.8,3.4,1.6,5.3,2c2.8,0.7,3.2,0.4,3.6-2.4c0.3-2,0.5-2.2,2.6-2.2
		c2.9-0.1,5.7,0.3,8.5,1c2,0.5,3.1,1.5,3.8,3.4c1.3,3.5,1.6,7.1,2,10.8c0.3,3.3,0.6,6.6,1.7,9.8c0.7,2.1,1.7,4.1,3.7,5.1
		c1.8,0.9,1.8,2.1,1.4,3.8c-1,4.7-2.3,9.4-3.8,14c-2.8,8.3-6.1,16.4-8.6,24.9c-0.4,1.5-0.9,3.1-1.3,4.7c-0.6,2.5,0,3.8,2.2,5.1
		c2.1,1.3,4.6,1.5,6.9,2c1.8,0.3,3.5,0.6,5.3,1.1c0.9,0.2,1.9,0.7,2.7,1.2c0.8,0.5,2,1.2,1.7,2.2c-0.3,1.1-1.5,0.3-2.3,0.2
		C542.9,391.1,528.1,392.1,513.9,397.5 M546.6,402.6c-0.9-0.2-1.6-0.6-1.9-1.6c-0.7-2.1-0.4-2.5,1.9-2.3c3.2,0.4,6.4,1.1,9.5,1.9
		c6.4,1.7,12.9,2.1,19.4,2.7c4.6,0.4,9.1,0.8,13.5,2.1c2.5,0.8,4.9,1.9,6.8,3.7c0.4,0.3,1,0.6,0.7,1.3c-0.2,0.5-0.8,0.4-1.2,0.4
		c-1.3,0-2.5-0.1-3.8-0.2c-11.5-0.6-22.8-2.4-34-5.1C553.8,404.6,550.2,403.5,546.6,402.6 M550.4,409.2c-0.2-0.4-0.4-0.9-0.1-1.3
		c0.3-0.4,0.7-0.3,1.2-0.1c6,2,12.2,2.8,18.4,3.6c9.3,1.2,18.6,2.5,27.9,4.4c1,0.2,2.1,0.6,3,1.1c1.2,0.6,2,1.6,2.3,2.9
		c0.3,1.3,0,1.7-2.1,1.6c-3.5-0.7-7.6-1.5-11.7-2.4c-8.2-1.8-16.6-3-25-3.6c-2.9-0.2-5.7-0.7-8.4-1.7
		C553.5,412.8,551.6,411.5,550.4,409.2 M555.6,417.7c-0.1-0.9,0.3-1.3,1.3-1c2.7,0.7,5.4,1.3,8.1,1.9c10.5,2.3,21.1,3.9,31.7,5.6
		c1.9,0.3,3.9,0.1,5.9,0.2c1.7,0,3.4,0.4,4.8,1.5c0.4,0.3,0.7,0.8,1,1.2c0.3,0.5,0.6,1.2,0.2,1.8c-0.3,0.6-1,0.2-1.5,0.2
		c-0.4,0-0.7-0.1-1.1-0.1c-12.1-1.2-24.2-3-36.1-5.2c-3.4-0.6-6.9-1.3-10.3-1.9C558.1,421.6,555.7,419.1,555.6,417.7 M562.5,427.7
		c-0.3-0.4-0.5-1-0.1-1.5c0.3-0.4,0.8-0.3,1.2-0.2c7.4,2.1,15.1,2,22.5,3.7c1.1,0.3,2.3,0.4,3.4,0.9c2.7,1.2,5.6,1.2,8.4,1
		c3.8-0.3,7.5,0,11.2,0.9c2.3,0.6,4.4,1.7,5.2,4.2c0.4,1.2,0.1,1.6-1.1,1.5c-4.9-0.6-9.8-1.2-14.6-1.9c-7.7-1-15.4-2-23.1-3.1
		c-2.6-0.4-5.1-0.9-7.7-1.3C565.1,431.5,564,429.4,562.5,427.7 M606.5,449.8c-3.7,1.9-7.6,2-11.5,1.1c-5.8-1.3-11.1-4.1-16.7-6
		c-0.3-0.1-0.6-0.3-0.4-0.6c0.1-0.2,0.5-0.2,0.7-0.2c0.6,0,1.3,0.1,1.9,0.1c5.7,0.3,11.3,1.5,17,2.4c2.9,0.5,5.8,1,8.7,1.4
		c0.5,0.1,1.2,0.1,1.3,0.7C607.7,449.4,607,449.6,606.5,449.8 M619.8,446.2c-0.8,0.4-1.4,0.5-2.9,0.5c-5.4-0.8-10.8-1.6-16.2-2.5
		c-8.9-1.5-17.8-3.4-26.8-4.1c-1.3-0.1-2.4-0.3-2.9-1.8c-0.2-0.7-1.1-1.1-1.7-1.7c-0.3-0.3-0.5-0.8-0.1-1.2c0.3-0.3,0.7-0.2,1-0.2
		c1.5,0.4,2.9,0.8,4.4,1.1c6,1.4,12,1.9,18.1,2.6c6.7,0.7,13.4,1.2,20,2.2c2.7,0.4,5.3,1.2,7.4,3
		C621.2,445.1,621.1,445.6,619.8,446.2 M619.9,433.7c-0.1,1.2-0.8,1.1-1.4,0.4c-0.7-0.7-1.2-1.6-1.7-2.4c-0.6-1-1.1-2.2-1.9-2.9
		c-1.8-1.6-1.5-3-0.6-4.9c2.3-4.6,4.7-9,6.1-14c0.4-1.5,1.3-1.7,2.3-0.6c0.8,0.9,2,1.5,2.1,3c-0.4,1.9-0.8,3.8-1.3,5.7
		C622.2,423.2,620.5,428.3,619.9,433.7 M629,446.3c-0.2,1.3-0.9,1.1-1.7,0.5c-2.3-1.8-3.4-4.4-3.8-7.2c-0.3-1.5-0.2-3-0.3-4.5
		c0.2-6,1.9-11.6,3.6-17.3c0.5-1.5,0.7-1.5,1.9-0.4c1.9,1.9,3.6,4,5.1,6.2c0.7,1,0.8,2.1,0.4,3.3C632,433.2,629.9,439.6,629,446.3
		 M636.6,457.8c-0.4,1.4-0.8,1.5-1.8,0.5c-2.1-2.2-2.5-5-2.7-7.7c0.2-4.1,1.2-7.8,2.1-11.5c0.8-2.9,1.6-5.9,2-8.9
		c0.2-1.4,0.8-1.3,1.7-0.8c2.1,1.2,3.4,3.2,4.7,5c0.5,0.7,0,1.4-0.1,2.1c-1.1,5.4-3.1,10.6-4.6,16
		C637.6,454.2,637.1,456,636.6,457.8 M646.9,461c-1,3.2-0.6,2.9-4,2.8c-4-0.1-3.6,0-2.8-3.6c0.7-3.1,1.7-6.2,2.5-9.3
		c0.9-3.5,1.8-6.9,1.8-10.6c0-0.7-0.1-1.5,0.7-1.9c0.8-0.3,1.4,0.3,1.9,0.7c1.5,1.1,2.6,2.7,3.7,4.2c0.6,0.8,0.3,1.7,0.1,2.6
		C649.8,451.1,648.4,456,646.9,461 M657.3,453c-0.6,2.2-1.2,4.5-2,6.7c-0.6,1.8-1.6,3.4-3.3,4.4c-1.2,0.7-1.7,0.4-1.6-0.9
		c0.7-4.8,1.5-9.7,2.9-14.4c0.4-1.4,0.9-1.5,2.1-0.7C657.4,449.2,658,450.8,657.3,453 M656.2,442.3c-0.8-0.6-1.4-1.4-2-2.2
		c-1.2-1.6-2.3-3.5-3.8-4.9c-0.7-0.7-0.7-1.6-0.7-2.5c-0.3-5-0.6-10-1-15c-0.5-6.2-1.2-12.5-1.9-18.7c-0.9-8.4-2-16.7-3-25.1
		c-0.3-2.5-0.6-5-0.9-7.5c0-0.3-0.1-0.8,0.1-1c0.4-0.4,0.8,0,1.2,0.3c1.8,1.4,3.6,2.7,5.2,4.3c2.3,2.2,3.5,4.9,3.4,8.2
		c-0.1,2.6,0,5.2,0,7.8c-0.4,6.6,0.4,13.1,1.3,19.5c1.4,10.5,3.3,20.9,4.5,31.4c0.2,1.4,0.2,2.9,0.2,4.3
		C658.6,442.9,657.7,443.3,656.2,442.3 M661.9,460.6c-1,0.7-2.2,1.3-3.5,0.7c-0.4-0.2-0.4-0.6-0.3-0.9c0.4-1.6,0.9-3.3,1.4-4.9
		c0.1-0.5,0.5-0.7,1-0.6c1.7,0,3.6,1.6,3.8,3.2C664.5,459.8,662.9,460,661.9,460.6 M667.1,455c-2.5-2-4.9-4-4.9-7.8
		c-0.2-11.4-1-22.7-2.4-34c-1.4-10.9-3.1-21.8-4.9-32.7c-0.2-1-0.9-2.5,0.5-3.1c1.3-0.6,2.1,0.7,2.8,1.5c1.7,1.9,2.8,4.2,4.9,5.7
		c0.6,0.4,0.5,1.1,0.5,1.7c-0.1,7.1,0.5,14.2,1.1,21.2c0.6,6.7,1.4,13.4,2.2,20c0.8,6.8,1.5,13.5,1.7,20.4c0.1,2,0.2,3.9,0.2,5.9
		C668.8,455.3,668.1,455.8,667.1,455 M677.9,462.1c-2.6-0.8-4.1-2.7-4.9-5.3c-1-3.6-1.2-7.3-0.9-10.9c0.4-5.4-0.1-10.7-0.4-16.1
		c-0.6-10.7-2.7-21.1-4.4-31.6c-0.4-2.5-0.5-5-0.4-7.5c0-1.3,0.6-1.5,1.7-1c2.8,1.3,4.7,3.5,5.7,6.4c1.1,3.2,1.5,6.5,1.6,9.8
		c0.3,9.2,1.2,18.4,2,27.6c0.6,7.3,1.2,14.6,1.8,21.9c0.1,1.6,0.3,3.2,0.5,5.3C680.3,462.3,679.8,462.7,677.9,462.1 M687.8,465.9
		c-0.1,1.5-0.7,1.8-2,1.1c-1.3-0.7-2.1-1.8-2-3.3c0.3-6.1-0.7-12.2-1.1-18.2c-0.6-9-1.3-18-2-27.1c-0.4-4.8-0.8-9.6-1.2-14.5
		c0-0.6-0.4-1.3,0.4-1.6c0.6-0.2,0.9,0.4,1.3,0.7c1.5,1.3,2.7,2.9,4,4.4c0.7,0.8,0.6,1.6,0.7,2.5c0.4,5.9,0.4,11.8,0.8,17.7
		c0.5,8.9,1.3,17.9,1.3,26.8C687.9,458.3,688.2,462.1,687.8,465.9 M696,466.1c-0.5,0.9-1,1.9-2,1.9c-1.2,0-1.5-1.2-1.8-2.1
		c-0.5-1.4-0.8-2.9-0.8-4.5c0-3,0-6.1,0-8.8c0.4-6.5-0.4-12.6-0.8-18.8c-0.4-6.3-0.9-12.5-1.3-18.7c0-0.5-0.1-1.1,0-1.6
		c0.1-1.5,0.3-1.6,1.5-0.9c0.8,0.5,1.4,1.1,2.2,1.5c1,0.6,1.4,1.5,1.4,2.7c0.3,12.4,0.7,24.7,1.1,37c0.1,1.9,0.4,3.7,0.8,5.6
		c0.3,1.5,0.3,3,0.3,4.5C696.4,464.7,696.3,465.4,696,466.1 M702.3,462.2c-0.2,0.6-0.4,1.6-1.2,1.5c-0.8,0-1-0.9-1.4-1.5
		c-1-2.1-1.2-4.3-1.3-6.5c-0.2-4,0.7-8,0.4-12.1c0.3-5.3-0.7-10.5-1.3-15.7c-0.3-2.7,0-5.4-0.4-8c-0.1-0.4,0.1-0.9,0.6-1.1
		c0.3-0.1,0.6,0.3,0.9,0.4c2.1,1,2.6,2.7,2.8,4.9c0.7,6.9,0.3,13.8,0.9,20.7c0.3,3.1,0.6,6.2,0.9,9.4
		C703.5,456.8,703.3,459.5,702.3,462.2 M710,433.7c-0.1,3.7-0.6,7.3-1,10.9c-0.3,2.5-0.2,5,0.5,7.4c0.4,1.5,0.6,3,0.5,4.5
		c0,0.9-0.3,1.8-1,2.4c-0.9,0.6-1.9,1.4-2.9,0.9c-1.1-0.5-0.4-1.6-0.3-2.4c0.4-7-0.1-13.9-0.7-20.9c-0.3-3.7-0.6-7.5-0.8-11.2
		c-0.1-1.9,0.6-2.3,2.2-1.2c1.9,1.3,3.6,2.9,3.6,5.6C710,431.1,710,432.4,710,433.7 M715.8,448.9c-0.1,1.5-0.4,3-1.1,4.4
		c-0.3,0.6-0.6,1.5-1.4,1.4c-0.6-0.1-0.7-1-0.7-1.6c-0.2-2.9-0.3-5.7-0.3-8.6c0-1.2,0-2.5,0-3.8h0.2c0-3.5,0-7,0-10.5
		c0-0.5-0.3-1.2,0.5-1.3c0.6-0.1,0.9,0.5,1.2,0.9c0.7,1.1,1.1,2.3,1.2,3.5C715.6,438.6,716,443.8,715.8,448.9 M718.1,436.7
		c-0.1,0.3-0.1,0.8-0.6,0.7c-0.1,0-0.2-0.4-0.3-0.6c-0.1-0.3-0.1-0.7,0-1c0.1-0.6-0.2-1.8,0.4-1.8c0.8,0,0.4,1.1,0.5,1.7
		C718.1,436,718.2,436.3,718.1,436.7 M737.4,435.5c-0.8,1-1.9,1.3-3,1.4c-1,0.2-1.4-0.5-2-1.1c-0.8-0.9-0.4-1.5,0.6-1.7
		c1.4-0.4,2.8,0,4.2,0.5C737.8,434.8,737.7,435.1,737.4,435.5 M758,419.9c-1.1,5.1-4.2,8.4-9.1,10.1c-5.2,1.8-10.6,1.8-16,1.4
		c-2.4-0.2-4.8-0.7-7.2-0.8c-1.6-0.1-2.9-0.6-4.2-1.6c-5.8-4.3-12.4-7.6-18.5-11.5c-1-0.6-2.8-1.3-2.6-2c0.5-1.2,2.2-0.4,3.4-0.4
		c0.9,0,1.8,0,2.4,0c6.3,0.2,12.3,0.8,18.3,1.4c7,0.6,13.9,1.3,20.9,1.5c3.7,0.1,7.3,0.4,11,0C758.2,417.9,758.3,418.2,758,419.9
		 M747.9,401.7c5.1,1.2,10,2.8,14.6,5.4c1.9,1.1,2.1,1.4,1.2,3.4c-1.4,3-4,3.9-6.9,4.4c-5,0.9-10,0.2-15-0.3
		c-8.5-0.8-16.9-1.9-25.4-2.7c-4.6-0.5-9.2-0.3-13.7-0.1c-6.3,0.2-11.3-2-15.1-7.2c-2.6-3.6-5.6-7-8-10.8l0-0.1l0.1,0
		c2.6,0,5.1,0.8,7.7,1.2c8.3,1.3,16.6,1.9,24.9,2.5C724.2,398.3,736.2,399,747.9,401.7 M692.2,376.6c1.9,0.6,3.7,1.3,5.3,2.6
		c6,4.9,13.1,7.6,20.3,10.2c4.8,1.8,9.5,3.6,14.3,5.4c0.8,0.3,1.5,0.7,2.2,1c0.4,0.2,0.9,0.4,0.7,0.9c-0.1,0.3-0.6,0.3-1,0.1
		c-5.4-0.7-10.8-1.4-16.2-2c-6.9-0.8-13.9-1.7-20.8-2.5c-6.5-0.8-13-1.6-19.4-2.5c-3-0.4-5.4-1.8-7.4-4c-3.4-3.8-7.1-7.4-10.8-10.8
		c-1.1-1-2.1-2.2-2.6-3.7c-0.2-0.4-0.5-0.8,0-1.2c0.3-0.2,0.7-0.1,1,0c2.7,0.9,5.5,1.6,8.3,2c5.2,0.7,10.5,1.4,15.7,2.1
		C685.3,374.7,688.8,375.5,692.2,376.6 M682.4,370.1c0.4,0.2,1,0.3,0.8,0.9c-0.1,0.3-0.6,0.2-1,0.2c-8.3-1.1-16.7-1.6-24.9-3.6
		c-5.4-1.4-10-3.7-13.4-8.2c-0.7-1-1.7-1.8-2.6-2.7c-0.3-0.3-0.9-0.5-0.6-1c0.2-0.5,0.8-0.3,1.2-0.4c1,0,2,0,3,0
		c7.8,0.3,14.9,3,21.7,6.4C671.9,364.4,677.2,367.3,682.4,370.1 M629.5,344.5c0.3-0.5,1-0.3,1.7-0.3c6.7,0.6,12.8,3.1,17.8,8
		c0.3,0.3,0.8,0.6,0.4,1.1c-0.2,0.3-0.7,0.1-1,0.1c-4.3-1-8.6-1.7-12.6-3.5c-2.1-0.9-4-2-5.5-3.7
		C629.9,345.6,629.1,345.2,629.5,344.5 M629.1,350.7c0.5-0.4,0.7,0.2,1,0.5c1.7,1.5,3.3,3.1,5,4.5c3.9,3.2,5.4,7.3,5.7,12.2
		c0.6,9.6,1.2,19.1,1.7,28.7c0.5,9.9,1.3,19.8,2.7,29.7c0.1,0.4,0.1,0.7,0.2,1.1c0,1-0.7,1.5-1.6,1c-0.5-0.3-0.8-0.7-1.2-1.1
		c-0.6-0.7-1-1.5-1.6-2.2c-2.6-2.7-3.3-6.1-3.7-9.8c-1.2-13.2-3.4-26.3-5.3-39.4c-1.2-8.1-2.2-16.1-3.2-24.2
		C628.9,351.3,628.9,350.8,629.1,350.7 M614.4,335.1c0.5-0.3,0.8,0.3,1.1,0.6c3.3,2.7,6.1,5.9,9.2,8.7c0.8,0.7,0.8,1.6,0.9,2.5
		c0.4,3.7,0.4,7.3,0.7,11c0.7,8.6,1.8,17.1,3,25.6c1.4,9.8,3,19.7,4.5,29.5c0.1,0.5,0.3,1.2-0.1,1.5c-0.6,0.4-1.1-0.3-1.6-0.6
		c-1.5-1.2-2.6-2.7-3.7-4.3c-1.4-2.1-2.7-4.2-4.4-6.1c-0.8-0.9-1-1.9-1.1-3c-1.8-12-3.5-24.1-5-36.2c-1.1-8.8-2.4-17.6-3.6-26.4
		c-0.1-0.5-0.1-1.1-0.2-1.6C614.3,335.9,613.9,335.4,614.4,335.1 M600.7,324.4c0-2.1,0.7-2.5,2.6-1.4c2.7,1.6,4.5,4,5.8,6.9
		c2,4.5,2.7,9.3,3.2,14.1c1.4,14.1,2.6,28.2,4.4,42.2c0.3,2.7,0.9,5.3,1.3,8c0.1,0.4,0.2,0.8-0.1,0.9c-0.2,0.1-0.7-0.2-0.9-0.4
		c-0.7-0.9-1.4-1.8-2.1-2.8c-0.8-1.1-1.3-2.4-2.4-3.2c-1.2-0.9-1.7-2-1.9-3.4c-1-8.8-2.9-17.5-4.7-26.2c-2-9.8-4-19.7-5-29.7
		c-0.1-1.1-0.1-2.1-0.2-3.2C600.7,325.7,600.7,325.1,600.7,324.4 M601.8,356.9c1.5,6.4,3.1,12.7,3.9,19.2c0.2,1.3,0.9,3.3-0.2,3.7
		s-1.9-1.6-2.6-2.6c-4-5.6-5.9-12-7.4-18.6c-1.9-8.3-2.8-16.8-4.3-25.1c-0.5-2.8-1.1-5.6-1.7-8.4c-0.4-2.2-0.2-2.4,2-2.6
		c0.5,0,1.1,0,1.6,0c2.8,0,2.8,0,3.7,2.8c1.3,4,1.3,8.1,1.5,12.2C598.5,344,600.2,350.4,601.8,356.9 M598,315.5
		c0.9,0.6,1.7,1.3,1.5,2.4c-0.2,0.9-1.3,0.9-2,1c-1.7,0.2-3.4,0.2-5.1,0.3c0,0,0-0.1,0-0.1c-1.4,0-2.9,0-4.3,0
		c-0.2,0-0.5-0.1-0.6-0.3c-0.2-0.3,0.2-0.5,0.4-0.6c2.3-1.5,4.8-2.8,7.6-3C596.4,314.9,597.2,315,598,315.5 M594.6,310.9
		c1.2,1.5,1.1,2.1-0.8,2.4c-3.5,0.6-6.9,2-10.4,2.7c-0.9,0.2-1.8,0.3-2.2,0.3c-1.9,0-3.1-0.3-4.3-1c-0.2-0.1-0.4-0.3-0.6-0.5
		c0.2-0.2,0.4-0.4,0.6-0.5c3.7-1.4,7.1-3.3,10.9-4.5c1.3-0.4,2.6-0.5,4-0.4C593,309.6,593.9,310,594.6,310.9 M590.3,305.7
		c0.5,0.9,0.4,1.6-0.7,1.8c-4.2,1-8.1,2.9-12.3,3.7c-1,0.2-2.1,0.2-2.8,0.3c-1.5-0.1-2.7,0.1-3.8-0.4c-0.5-0.2-1.1-0.2-1.3-0.9
		c-0.1-0.6,0.4-0.9,0.8-1.3c0.4-0.3,0.9-0.6,1.3-0.9c3.9-2.1,8-3.7,12.2-4.8C586.6,302.6,589.3,303.7,590.3,305.7 M586.9,295.8
		c0,0.3,0.2,0.7,0.3,1c0.8,2.4,0.6,2.8-1.8,3.3c-3.3,0.7-6.4,2.2-9.5,3.5c-2.7,1.1-5.3,2.1-8.2,2.1c-0.1,0-0.2,0-0.3,0
		c-0.9-0.1-2.1,0.3-2.4-0.6c-0.2-0.6,1-1.1,1.6-1.6c2.5-2,4.9-4.1,7.5-6c3-2.2,6.3-3.7,10.1-3.8
		C585.6,293.8,586.7,294.1,586.9,295.8 M575.2,267.7c3.2,6,6.2,12.1,8.2,18.6c0.8,2.7,0.6,3-1.9,4c-1.8,0.7-3.7,0.8-5.1,1
		c-1.5,0.1-2.3-0.1-2.6-1.4c-1.1-4.6-3.3-8.9-5.3-13.2c-1.1-2.4-2.1-4.9-2.8-7.5c-0.5-1.9-0.5-1.9,1.4-2.3c1.6-0.3,3.2-0.7,4.7-0.9
		C573.4,265.9,574.5,266.3,575.2,267.7 M570.6,253.3c1.3,1.5,1.9,3.4,2.6,5.3c0.5,1.5,0,2-1.3,2.2c-4.9,0.7-9.6,2-14.4,3
		c-5.2,1.1-10.4,2.1-16.4,2.2c-2.3,0-5.3-0.1-8.2-1.3c-0.6-0.2-1.2-0.5-1.7-0.8c-0.7-0.5-1.9-0.8-1.7-1.8c0.2-0.8,1.3-0.7,2.1-0.9
		c8.2-2,16.5-3.4,24.6-5.7c3.3-0.9,6.5-2,9.6-3.3C568.1,251.1,569,251.4,570.6,253.3 M563.2,238.5c1.9,2.6,2.8,5.5,3.6,8.6
		c0.3,1.3-0.1,1.8-1.3,2.1c-2,0.5-4,0.8-6.1,1.1c-6.7,1.1-13.1,3.5-19.6,5.5c-4.2,1.3-8.4,2.5-12.7,3.2c-1,0.1-2,0.2-2.9,0.3
		c-2.1,0-4.1-0.5-6-1.2c-1.3-0.5-2.5-1.4-3.4-2.6c-1.5-2.1-1.3-3,1.2-3.7c14.4-4,28.5-8.9,42.3-14.7
		C560.8,236,561.5,236.2,563.2,238.5 M557.3,225.2c1,1.8,1.3,3.9,2,5.8c0.4,1.2-0.6,1.3-1.3,1.6c-8.2,3.4-16.2,7.3-24.5,10.2
		c-5.6,1.9-11.2,3.9-17,4.9c-1,0.2-1.9,0.3-2.9,0.4c0,0,0,0,0-0.1c-0.3,0-0.5,0.1-0.8,0.1c-0.4,0-0.9,0.1-1.2-0.4
		c-0.2-0.5,0.2-0.9,0.4-1.2c1-1.5,2.5-2.4,4.1-2.9c7.8-2.6,14.8-6.8,21.9-10.7c4.8-2.6,9.4-5.6,13.7-8.9
		C554,222.1,555.9,222.5,557.3,225.2 M544.6,212.2c1.2,0.4,2.3,1,3.2,1.9c1,1,2,2.1,2.9,3.1c2.1,2.3,2.1,2.3-0.3,3.9
		c-12.5,8.3-25.7,15.3-39.1,22c-1.9,1-2.6,0.4-2.7-1.6c-0.1-2.4,1.2-3.8,2.7-5c2.8-2.2,5.6-4.2,8.4-6.3c5.5-4,11.3-7.7,16.4-12.2
		c1.8-1.5,3.5-3.1,5-4.9C542.1,211.8,543.2,211.7,544.6,212.2 M535.1,204.4c2.2,0.6,3.6,2.2,5.4,3.5c0.6,0.4,0.5,0.9,0,1.3
		c-0.3,0.3-0.5,0.5-0.8,0.7c-7.9,7-15.8,14.1-24.1,20.7c-1.6,1.3-3.2,2.6-5,3.6c-1,0.6-2.1,1-3.1,0.9c-2,0-2.1-0.3-1.6-2.1
		c0.6-2,1.7-3.5,3.2-4.9c0.9-0.8,1.7-1.6,2.7-2.2c6.2-3.5,10.8-8.8,15.3-14.2c1.8-2.1,3.6-4.3,5.3-6.5
		C533.1,204.2,533.9,204.1,535.1,204.4 M526.2,196.1c2.2,1,3.2,3.4,5,4.8c0.4,0.3,0,0.8-0.2,1.2c-0.6,1.2-1.4,2.3-2.5,3.1
		c-5.3,3.9-9.3,9.2-13.6,14.1c-3,3.3-6.3,6.1-10.3,8.1c-1.6,0.8-2.3,0.3-2.3-1.6c0.2-1.6,1-2.9,2-4.2c3-3.9,6.1-7.7,9.3-11.5
		c3.4-3.9,6.6-8.1,8.9-12.8C523.5,195.5,524.3,195.2,526.2,196.1 M572.9,158.1c0.6,0.5,0.7,0.9,0.3,1.6c-0.8,1.6-1.8,3-3.2,4
		c-4.2,3-7.6,6.8-10.9,10.8c-2,2.3-4.1,3.2-7.3,2.6c-4.1-0.7-8.4-0.5-12.6-0.4c-3.5,0.1-7,0.1-10.5,0.2c-4.7,0.2-9.1-0.9-13.2-3.2
		c-0.8-0.4-1.6-0.8-2.4-1.3c-9.8-6.5-19.6-12.9-29.4-19.5c-1.6-1.1-3.1-2.1-5-2.5c-0.8-0.1-1.7-0.1-2.2,0.6
		c-0.5,0.7,0.2,1.3,0.6,1.9c2.2,3.6,5.4,6.2,8.9,8.4c3.9,2.4,8.1,4.3,12.1,6.4c2,1,3.9,2.1,5.9,3.3c2,1.1,3.5,2.7,4.9,4.5
		c1.3,1.9,3.1,3.5,4.7,5.2c2.7,2.8,5,5.8,7,9.2c0.9,1.5,0.9,2.7-0.1,4.2c-2.4,3.7-5,7.2-7.7,10.7c-3.6,4.5-7.2,8.9-10.3,13.8
		c-1,1.6-1.3,1.6-2.4-0.1c-1.4-2.3-2.4-4.8-3.3-7.3c-1.2-3.2-2.2-6.5-4.1-9.3c-2-3-4.3-2.9-6,0.3c-1.1,1.9-1.3,4.1-1.3,6.3
		c-0.1,3.4-0.9,6.6-1.9,9.7c-2.3,7.2-5.2,14.1-6.9,21.5c-0.3,1.1-0.9,1.5-2.1,1.7c-6.9,0.7-13.8,0.4-20.7,0.5c-1.3,0-2-0.6-2.5-1.6
		c-2.3-4.5-4.2-9.1-5.3-14c-0.1-0.4-0.4-1,0.2-1.1c0.4-0.1,0.7,0.5,0.9,0.9c0.5,1.3,0.9,2.5,1.4,3.8c0.4,0.8,0.9,1.9,1.9,1.5
		c1.2-0.4,0.9-1.7,0.6-2.6c-0.5-1.6-1.5-3-2.4-4.5c-0.2-0.4-0.5-0.8-0.2-1.3c0.4-0.6,0.9-0.3,1.4,0c0.4,0.2,0.9,0.5,1.3,0.3
		c1.8-1.1,2.4,0.4,3.1,1.5c0.5,0.8,0.7,1.8,1.1,2.7c0.3,0.8,0.6,1.7,1,2.5c0.6,0.9,1.4,1.9,2.6,1.4c1-0.4,0.7-1.5,0.6-2.4
		c-0.2-1.6-0.8-3.1-1.4-4.6c-1.6-3.9-3.5-7.6-5.6-11.3c-1-1.8-1.8-3.7-2.2-5.7c-0.1-0.3-0.1-0.8,0.3-0.9c0.4-0.1,0.6,0.2,0.8,0.5
		c0.5,0.8,0.6,2.3,1.8,2.1c1.4-0.2,1.4-1.8,1.7-2.8c0.3-1.2,0.5-2.5,0.6-3.7c0.4-6,0.7-12,1-18c0.1-1.7-0.1-3.4-0.7-5
		c-0.8-1.9-1.5-2.1-3.3-0.9c-1.6,1.1-2.4,2.7-2.9,4.4c-0.3,1-0.6,2.1-0.6,3.2c-0.3,4.7-2,8.9-4.2,12.9c-2.3,4.4-5,8.7-7,13.3
		c-1.2,2.6-2.1,5.3-2.6,8.2c-0.3,1.8,0.1,2.7,1.9,2.7c1.7,0,2.3,0.8,3,2.1c1.3,2.8,3.2,5.2,4.8,7.7c1.4,2.1,2.7,4.2,3.5,6.6
		c0.6,2,0.5,2.4-1.6,2.6c-2.5,0.3-5,0.4-7.4,0.1c-1.4,0-2.8-0.2-4.1,0c-2.9,0.4-4.7-0.8-6.2-3.1c-1.5-2.3-3.1-4.4-4.2-6.9
		c-0.2-0.5-0.6-1-0.1-1.5c0.6-0.5,1.2-0.2,1.7,0.2c0.7,0.5,1.1,1.2,1.5,1.9c0.4,0.7,0.9,1.4,1.4,1.9c0.4,0.4,1,0.9,1.6,0.4
		c0.7-0.5,0.6-1.2,0.2-1.9c-0.3-0.5-0.7-1-1-1.6c-0.1-0.2-0.2-0.6,0-0.7c0.2-0.1,0.5,0,0.7,0.2c0.9,0.8,1.7,1.6,2.9,1.9
		c0.7,0.2,1.3,0.2,1.7-0.3c0.5-0.6,0-1.2-0.3-1.7c-0.4-0.6-1-1.1-1.5-1.5c-2.3-1.5-3.7-3.6-4.6-6.1c-0.4-1.1-0.9-2.2-1.4-3.2
		c-0.4-0.8-1-1.5-2.1-1.4c-1.1,0.1-1.9,0.6-2.3,1.6c-0.4,1-0.7,2-0.7,3.1c0,1.6-0.3,3.2-0.5,4.8c-0.1,0.9-0.4,1.7-1,2.5
		c-0.6,0.8-1.3,1.7-2.3,1.6c-1.1-0.2-1-1.4-1.2-2.2c-2.2-7.5-3.8-15.1-6.3-22.5c-1-2.8-2.3-5.5-1.8-8.6c0.1-0.4-0.1-0.9-0.2-1.3
		c-0.4-1.2-0.8-2.8-2-2.9c-1.2-0.1-1.4,1.6-1.8,2.6c-2.3,5.1-3.6,10.5-5.4,15.7c-1.6,4.8-3.5,9.4-6.7,13.4c-1.5,1.8-1.3,6.9,0.4,8.3
		c2,1.6,2.4,3.7,2.5,6c0.1,2.4,0.3,4.8,0.9,7.2c0.6,2.3,1.5,3.2,2.9,2.9c1.2-0.2,1.7-1.7,1.1-3.9c-0.4-1.7-1-3.3-1.3-4.9
		c-0.4-2-0.1-2.2,1.8-2c0.9,0.1,1.3-0.2,1.3-1.1c0-1.2-0.4-2.3-0.8-3.4c-0.6-1.7-1.2-3.4-1.7-5.1c-0.4-1.4-0.4-2.8,0.3-4.2
		c0.5-0.9,1-1,1.5-0.1c0.7,1.3,1,2.7,1.5,4c0.5,1.7,0.9,3.5,2.1,4.9c0.5,0.6,0.9,0.5,1.1-0.2c0.4-1.1,0.3-2.1,0-3.2
		c-0.6-2.5-1.7-4.9-2.6-7.3c-0.8-1.9-1.4-3.9-1.7-5.9c-0.1-0.4-0.2-1,0.2-1.2c0.6-0.4,1,0.1,1.4,0.5c0.9,0.8,1.4,1.8,1.7,3
		c0.5,2.1,1,4.2,1.6,6.3c0.4,1.3,0.6,2.8,2.2,3.4c0.4-1.3,0.2-2.6-0.1-3.9c-0.8-3.5-2.2-6.8-3.2-10.2c-0.7-2.3-1-4.5-0.8-6.9
		c0-0.3,0-0.8,0.4-0.9c0.4-0.1,0.7,0.2,0.8,0.5c1.2,1.9,2,4,2.8,6.1c1.6,4.7,2.6,9.5,3.7,14.3c0.7,2.7,1.4,5.4,2.3,8
		c0.4,1.2,1.1,2.2,2.2,2.9c2.6,1.6,4.8,3.8,7.2,5.7c0.6,0.5,1.2,1.3,2.1,0.4c0.8-0.8,0.3-1.5-0.2-2.2c-0.5-0.7-1.1-1.4-1.6-2.1
		c-0.6-0.9-1.3-1.8-1.4-2.9c-0.1-0.4-0.2-1,0.2-1.3c0.6-0.4,0.9,0.2,1.3,0.6c1.5,1.5,2.7,3.4,4.4,4.7c0.9,0.7,0.5,1.4,0.2,2.2
		c-1,2.8-2.1,5.5-3.2,8.3c-2.2,5.4-3.9,11-5.3,16.6c-0.1,0.6-0.1,1.2-0.5,1.8c-1.2,1.6-2.5,3-2.1,5.5c0.3,1.7-1.1,3.5-1.8,5.3
		c-0.3,0.8-0.8,0.8-1.5,0.6c-1.4-0.5-2.6-1.2-3.8-2.1c-1-0.7-1.9-1.4-2.9-2c-2.4-1.3-5-0.9-6.9,1c-1.8,1.7-2.7,4-3.7,6.2
		c-2.2,4.7-2.1,4.6-7.3,3.8c-10.7-1.7-21.4-3.4-32.1-5.1c-8.8-1.4-17.5-2.7-26.3-4.1c-5.2-0.8-10.5-1.5-15.7-2.2
		c-1.4-0.2-2.3-0.8-3.2-1.8c-2.9-3.3-5.2-7.1-7.7-10.7c-1.5-2.2-3-4.5-4.7-6.6c-1.3-1.7-2.8-1.7-4.3-0.1c-0.8,0.9-1.2,2-1.7,3
		c-0.9,1.6-1.6,1.7-2.7,0.2c-0.7-1-1-2.1-1.3-3.2c-0.3-1.3-0.6-2.6-0.8-3.9c-0.3-1.4-0.9-2.3-2.5-2.3c-2.5-0.1-4.1-1.7-5.2-3.7
		c-0.4-0.8-0.8-1.6-1.2-2.4c-0.7-1.6-1.6-3-3.4-3.7c-1.2-0.4-1.2-1.1-0.6-2.1c0.5-0.8,0.9-1.5,1.4-2.3c0.6-0.9,1.1-1.9,0.9-3
		c-0.3-1.7,0.4-2.3,2-2.8c6-1.9,10.7-5.7,15-10.2c3.4-3.7,6.8-7.4,10.1-11.1c2.8-3.1,5.9-5.8,9.5-7.9c4.5-2.6,8.4-5.8,11.6-9.9
		c0.1-0.1,0.1-0.1,0.2-0.2c5.4-4,7.4-10.3,10.3-16c0.6-1.1,1-1.8,2.4-1.3c2.3,0.8,4.6,0.7,6.9,0.2c5.6-1.1,9.9,0.9,12.9,5.6
		c1.6,2.5,3,5.1,4.4,7.7c1.1,2,2.4,3.8,4.1,5.3c1,0.9,2.1,1.7,3.4,2.1c1,0.4,1.5,0.2,1.5-1c0-1.9-0.5-3.7-1.4-5.4
		c-1.2-2.4-3.1-4.4-4.9-6.3c-2.4-2.5-4.9-4.8-6.5-7.8c-0.6-1.1-1.6-1.4-2.6-1.7c-3-1.1-6.1-1.3-9.2-1.6c-1.4-0.2-2.9-0.4-4.2-0.7
		c-2.6-0.6-4.8-1.8-6.3-4.2c-2.3-3.9-5.5-7.1-8.7-10.2c-0.8-0.8-1.8-1.6-2.2-2.7c-1.4-4.4-4.8-7.3-7.8-10.5c-3.5-3.6-7.2-7-10.3-11
		c-0.4-0.6-0.9-1.1-1.3-1.7c-3.4-4-4.2-8.5-3.8-13.8c1-12.5,2.3-25,2.7-37.6c0.1-3.9,0.2-7.7,0.1-11.6c0-1.8,0.5-3,1.9-4.1
		c9.1-7.6,19.3-13,30.2-17.3c12.3-4.8,25-8.4,37.8-11.4c17-4.1,33.6-9.4,50.3-14.6c10.7-3.4,21.5-6.3,32.6-8.1
		c3.9-0.6,7.8-1,11.8-1.3c1.8-0.1,2.1,0.2,1.7,2c-0.4,1.9-1.4,3.7-1.5,5.7c0,0.7-0.7,1-1.1,1.4c-5.9,4.7-10.7,10.4-15.9,15.7
		c-2.2,2.3-4.5,4.3-6.9,6.4c-1,0.9-2.1,1.2-3.4,1.3c-4.2,0.4-8.4,0.3-12.6,0.5c-2.6,0.1-5.2,0.7-7.3,2.5c-1.6,1.3-1.5,2,0.4,2.8
		c2,0.8,4.1,0.6,6.1,0.2c2.6-0.4,5-1.3,7.6-1.6c0.5-0.1,1.1-0.2,1.6-0.2c1.6,0.1,2.1,0.6,1.8,2.2c-1.3,8-5.5,13.4-13.6,15.6
		c-0.6,0.2-1.2,0.3-1.8,0.4c-3.3,0.7-6.2,0.4-8.3-2.7c-0.6-0.9-1.5-1.6-2.3-2.3c-0.8-0.7-1.7-0.9-2.8-0.7c-1.7,0.3-2.1,1-1.2,2.5
		c4,6.6,8,13.2,11.9,19.8c0.9,1.5,1,2.7,0.2,4.2c-3.1,5.8-5.4,11.9-8,17.9c-1.1,2.5-1.1,2.5-3.7,1.7c-9.6-3.1-19.4-5.1-29.3-6.9
		c-4.5-0.8-9-1.7-13.5-2.4c-2.1-0.3-4.2-0.9-6.2,0.6c-0.8,0.6-0.8-0.3-0.8-0.7c0.1-1.8-0.8-1.9-2.2-1.6c-0.3,0.1-0.5,0.1-0.8,0.2
		c-1.1,0.3-2.3,0.5-2.6,1.6c-0.4,1.3,1,1.8,1.8,2.4c3.8,2.7,8.2,3.4,12.7,4.1c11.6,1.7,23.3,3.2,34.6,6.5c2.5,0.7,5,1.6,7.4,2.5
		c1.4,0.5,2.4,0.3,3.5-0.6c1.9-1.5,3-3.6,3.8-5.8c0.9-2.3,1.6-4.6,2.5-6.8c0.8-2,1-2.1,3-1.6c4.4,1,8.8,1.9,13.2,2.3
		c4.4,0.5,8.8,0.7,13.1-0.3c3.4-0.8,6.4-2.3,8.3-5.5c0.8-1.5,1.5-1.2,2.7-0.4c7.5,5.2,14.7,10.9,22,16.5c6,4.6,12.1,9,17.8,13.9
		c3.4,3,7.6,4.4,11.9,5.2c6.9,1.2,13.6,3.3,19.9,6.3c4.5,2.1,9.2,3.5,14.1,4c3.9,0.4,7.1,2.4,10.1,4.8
		C564.5,150.5,568.2,154.8,572.9,158.1 M448.6,213.5c0,0.2-0.2,0.3-0.4,0.2c-1.4-0.7-0.9-2.2-1.3-3.2c0-0.4,0-0.7,0.2-0.8
		c0.2,0,0.5,0.2,0.6,0.4C448.5,211.3,448.8,212.3,448.6,213.5 M448.4,200.2c0.4-1.2,0.4-2.7,1.7-3.4c0.5-0.3,0.8,0.7,0.6,4
		c0,0.4-0.1,1.2-0.1,2c0,0.5,0,1.2-0.7,1.3c-0.5,0.1-1.1-0.3-1.4-0.7C447.9,202.4,448,201.3,448.4,200.2 M589.2,125
		c-7.5,4.9-15.7,8.5-23.8,12.4c-1.5,0.7-2.9,1.4-4.4,2.1c-0.5,0.2-1,0.4-1.4,0.6c-0.9-0.3-1.6-0.5-2.4-0.7
		c-12.4-3.7-24.9-7.5-37.3-11.2c-1.5-0.4-2.9-0.8-4.4-1.1c-3-0.7-5.5-2-7.3-4.7c-1.2-1.8-3-2.8-4.7-4c-7-5.2-14.5-9.7-21.6-14.6
		c-4.8-3.3-9.5-6.8-13.9-10.6c-1.2-1.1-1.2-1.9-0.4-3.2c2-3.1,5-5.1,7.7-7.5c0.6-0.5,1.1-0.4,1.8-0.2c7.4,2.4,14.5,0.9,21.5-2
		c3.1-1.3,6.3-2.5,9.4-4c2.3-1.1,4-0.9,6,1c5.1,5.1,11.4,8.7,17.8,12c8.9,4.5,17.6,9.3,25.9,14.8c7.9,5.2,16.5,8.6,25.8,10
		c2.3,0.3,4.5,1.1,6.6,2.1c0.9,0.4,1.5,0.9,1.4,2c0,0.4,0,0.9,0.1,1.3C592.1,123.1,592.1,123.1,589.2,125 M673.2,94.2
		c-1.4,2.9-3.1,5.7-4.8,8.4c-1.3,2.2-2.4,4.7-4,6.7c-1.7,2-4.7,1.8-7.1,2.9c-4.5,2.2-8.7,5-13.2,7.3c-2.9,1.5-5.8,2.8-9,3.4
		c-3.6,0.7-7.1,0.1-10.6-0.8c-5-1.3-9.7-3.3-14.5-4.9c-9-3.1-18-6.1-27.3-7.9c-6.7-1.3-12.8-4.1-18.6-7.6
		c-8.6-5.2-17.3-10.3-26.3-14.6c-4.3-2.1-8.4-4.4-12.4-6.9c-2.3-1.4-4.4-3.1-6.7-4.6c-1.2-0.8-1-1.5,0-2.3c1.2-0.9,2.4-1.5,3.9-1.8
		c3.6-0.8,7.2-1.6,10.7-2.4c1-0.2,2-0.2,2.6-0.3c6,0.3,11.5,1.6,17,2.9c6.6,1.5,13.1,2.7,19.9,2.5c4.9-0.2,9.6,1.3,14.2,2.5
		c13.3,3.5,26.8,5.5,40.4,7.3c11.6,1.5,23.3,2.6,34.9,4.7c3.2,0.6,6.3,1.3,9.4,2.3C674.3,91.8,674.4,91.9,673.2,94.2 M599.9,43.2
		c7.7,1.7,15.4,2.4,23.2,2.5c13.4,0.2,26.7-0.5,40.1-1c12.8-0.5,25.6-0.9,38.5-1.4c11.9-0.5,23.8-1,35.8-1.4c1.9-0.1,3.9-1.1,5.5,0
		c1.4,1,1.6,3.1,2.4,4.7c2.8,5.7,5.6,11.4,8.4,17.2c0.9,1.9,0.9,2-0.9,3.1c-11.3,6.7-22.2,13.8-33.4,20.8c-1.5,0.9-3.1,1.8-4.7,2.6
		c-1.3,0.7-2.7,1.1-4.8,1c-0.7,0-2-0.1-3.3-0.6c-5.2-1.8-10.6-2.4-16.1-2.7c-9.5-0.5-18.9-2.3-28.3-3.6c-9.7-1.4-19.3-3-28.9-4.6
		c-19.6-3.2-39.4-5.9-58.9-9.5c-12.1-2.3-24.2-4.4-36.3-6.1c-1.9-0.3-2-0.3-1.3-2.2c1.9-5.5,3.8-11,5.7-16.5c0.4-1.2,1-1.5,2.1-1.5
		c1.4,0,2.7,0.4,3.9,0.8c1.2,0.3,2.4,0.7,3.6,1.1c3.5,1.3,6.9,0.8,10-1.2c2.1-1.3,4.4-2.4,6.5-3.8c3.7-2.5,7.6-2.7,11.9-2
		C587,40,593.4,41.8,599.9,43.2 M580.3,30.8c-2,1.2-4.1,2.4-6.5,2c-1-0.2-1.4,0.6-2,1.1c-2.6,2.3-5.4,4.4-8.5,6.1
		c-3.1,1.8-6.4,2.3-9.8,1.3c-14.8-4.3-30.2-5.8-45.2-9.3c-9.5-2.2-19.1-4.2-28.4-7c-2.9-0.9-2.9-0.9-2.9-3.8c0-3.2,1.2-6.2,1.3-9.3
		c0-0.9,0.8-1.1,1.5-1.2c4.4-0.5,8.7-1.2,13.1-1.6c15.6-1.4,31.3-1.7,47-1.9c10.4-0.2,20.8-0.1,31.2-0.3c5.1-0.1,10.2-0.4,15.3-0.7
		c1.6-0.1,2.2,0.4,2.5,1.9c0.4,1.8,0.3,3.6,0.4,4.9c0,4.5-0.9,8.6-1.1,12.7c0,0.8-0.4,1.2-1.2,1.5C584.5,28.1,582.5,29.5,580.3,30.8
		 M226.5,395.4c0-3.8-1-7.5-1.3-11.2c-1-10.6-1.6-21.3,0.3-31.9c0.4-2.4,1.1-4.7,2.1-6.9c2.6-5.4,6.9-8.3,12.7-9.3
		c2.5-0.4,4.9,0,6.7,1.9c1.2,1.3,2,0.9,3.1,0c1.8-1.5,3.8-2.7,6-3.6c3.6-1.3,7.2-1.4,10.6,0.7c1.7,1,1.7,1.1,0.7,2.9
		c-4.8,8.5-10.1,16.7-15.3,25c-7.6,12-15.2,23.9-21.8,36.5c-0.4,0.7-0.7,1.8-1.9,1.4c-1.2-0.3-1.9-1-1.9-2.3
		C226.5,397.5,226.5,396.4,226.5,395.4"/>
</g>
</svg>
