<?xml version="1.0" encoding="utf-8"?>
<!-- Generator: Adobe Illustrator 19.0.0, SVG Export Plug-In . SVG Version: 6.00 Build 0)  -->
<svg version="1.1" id="Layer_1" xmlns="http://www.w3.org/2000/svg" xmlns:xlink="http://www.w3.org/1999/xlink" x="0px" y="0px"
	 viewBox="0 0 520.7 387.9" style="enable-background:new 0 0 520.7 387.9;" xml:space="preserve">
<style type="text/css">
	.st0{clip-path:url(#SVGID_2_);fill-rule:evenodd;clip-rule:evenodd;fill:#A11C1C;}
</style>
<g>
	<defs>
		<rect id="SVGID_1_" width="520.7" height="387.9"/>
	</defs>
	<clipPath id="SVGID_2_">
		<use xlink:href="#SVGID_1_"  style="overflow:visible;"/>
	</clipPath>
	<path class="st0" d="M205.1,17.2c0.4-2.5,1.8-3.9,4.3-4.3C209.7,16.1,206.9,18.8,205.1,17.2 M301.7,22.4c1,0.2,1.3,1,1.7,1.7
		c1.6-0.4,3.7-0.3,3.4-2.6c-1.8-0.8-2.4-2.8-3.4-4.3C302.9,19,301.2,19.7,301.7,22.4 M418,17.2L418,17.2c-0.6,3.5,0.8,4.9,4.3,4.3
		C422.5,18.5,421.1,17,418,17.2 M239.6,19.8c-3.4,0.6-3.5-2.3-6.9-1.7v4.3C235.9,23.1,239.1,23.8,239.6,19.8 M257.7,22.4
		c2.5,0.8,2.6,0.8,5.2,0c-0.1-2.5-2-3.2-3.4-4.3C259.1,19.7,257,19.7,257.7,22.4 M282.7,19c-1.9,0.7-2,3.2-1.7,6
		c3.7,0.8,4.3-1.4,5.2-3.4C284.4,21.3,283.8,19.8,282.7,19 M324.1,19v4.3h5.2C330.1,19.2,327.7,18.5,324.1,19 M346.5,19.8
		c-2.6,3.1,1.6,6.2,4.3,4.3C349.8,22.3,348.3,20.8,346.5,19.8 M396.5,22.4c-0.7-2.2-2.8-3-6-2.6v6C393.9,26.2,396.4,25.5,396.5,22.4
		 M210.3,26.7c-2.3,0.2-3.7-0.3-3.4-2.6c3.8,1.9,7.2-1.2,9.5-3.4c1.4,4.6,8.6,7.9,8.6,16.4C217.9,39.1,213.5,31.4,210.3,26.7
		 M216.3,28.4c-0.4,2.9,0.3,4.9,3.4,4.3C221.1,31.4,219.4,28.1,216.3,28.4 M405.1,36.2c-2-6.5,3.7-16.8,12.1-12.9
		C417.3,31.7,411.4,34.2,405.1,36.2 M409.4,30.2c2-0.3,3.6-1,5.2-1.7c-0.1-1.3,0.3-3.2-0.9-3.4c-1.6,4.1-1.6,2.8-4.3,0.9
		C408.8,28.5,408.8,27.5,409.4,30.2 M373.2,23.3H368C367.1,28.1,373,25,373.2,23.3 M233.6,27.6c-5.8-1.8-6.5,5.3-2.6,6
		C231.9,31.6,234,30.8,233.6,27.6 M399.1,35.3c0.5-3-0.7-4.4-2.6-5.2c-1,1.8-4.7,1.1-3.4,5.2C395.7,36.5,395.9,35.5,399.1,35.3
		 M211.2,44v-4.3c-2.7-0.6-1.7-0.6-4.3,0c-0.5,3,0.7,4.4,2.6,5.2C209.6,44.1,210.2,43.8,211.2,44 M234.4,40.5
		c-1.8-0.7-4.8-2.1-6-0.9c-2.4,1.6,1.2,4.5,0.9,6.9C232.8,46.4,234.4,44.3,234.4,40.5 M405.9,43.1c2.7,3.5,7.9,0.9,7.8-3.4
		C410.4,37.2,406.4,40,405.9,43.1 M399.9,40.5c-3.9-0.7-5.2,3.9-3.4,6C399.3,46.3,402.1,43.1,399.9,40.5 M419.7,45.7
		c2.6,0,5.7,0.5,5.2-2.6c-0.7-1.3-2.2-1.9-4.3-1.7h0C420.9,43.4,419,43.2,419.7,45.7 M349.9,57.7v-3.4h-2.6
		C347.1,56.5,347,58.6,349.9,57.7 M358.5,64.6c1.5-3.3,1.4,1.9,2.6,1.7c1-2.2,3.4-2.9,3.4-6C360.7,59.4,356.3,62.3,358.5,64.6
		 M385.3,62.9c-1.7-1.8-3.7,0-4.3,1.7C382.2,66,385.9,65.9,385.3,62.9 M424,65.5c-0.7-1.3-2.2-1.9-4.3-1.7c0.4,2.1-1.6,1.9-0.9,4.3
		C421.2,69,423.8,68.7,424,65.5 M206.9,64.6c-0.4,1.9-2,4.7,0.9,5.2C208.9,68.7,209.2,64.7,206.9,64.6 M381.8,84.5
		c2.8,0.3,4.9-3.7,1.7-4.3C382.6,81.2,381.1,81.7,381.8,84.5 M383.5,80.2C383.5,80.2,383.5,80.2,383.5,80.2L383.5,80.2L383.5,80.2z
		 M376.6,83.6c0,1.5-0.7,2.2-1.7,2.6c0-1.1-1.5-0.8-1.7-1.7c-0.6-2.4,1.7-1.7,1.7-3.4h0c-4.3,0.3-3.8,5.6-0.9,6.9
		C376.3,88.3,378.9,84.9,376.6,83.6 M424.9,84.5L424.9,84.5c-3-0.5-4.4,0.7-5.2,2.6c1,1,3,1,5.2,0.9V84.5z M205.1,92.2
		c3.3,0.4,4.6-1.2,5.2-3.4c0-1.1-1.1-1.2-0.9-2.6C204.7,85.4,203.4,89,205.1,92.2 M339.6,111.2c-0.4-4.8-1.7-8.7,1.7-11.2
		c4,4.6,6.1,11.6,4.3,17.2c2.7-0.4,3.4,1.9,5.2,0c0-2.9-2.8-2.9-2.6-6c0.8-1.5,1.6-3,4.3-2.6c-1.7,4.5,0.3,7.6,0.9,12.1
		c-1.2,0.3-1.6,1.2-3.5,0.9c1.1,3.9-2.2,7.5,2.6,10.3c-0.1-6,3.2-9.9,3.5-16.4c0-1.2-1.6-1.5-1.7-2.6c0-0.1,1.7-2,1.7-2.6
		c0-0.1-1.7-1.1-1.7-1.7c-0.1-1.2,1-3.4,0-5.2c-3.9,0.1-3,5-6.9,5.2h0c1.8-5.7-1.3-8.2-2.6-12.9c-6.6,0.6-6.5,7.8-8.6,12.9
		C338.9,107.8,337.9,110.8,339.6,111.2 M382.7,102.6c2.7,0.4,3.5-1.1,4.3-2.6c-1.2-0.3-1.6-1.2-3.4-0.9h0
		C383.3,100.3,382.3,100.8,382.7,102.6 M246.5,101.7c1.6,0.4,1.6,2.5,4.3,1.7C252.1,99.7,246.9,98.8,246.5,101.7 M424.9,105.1
		c-5.2,1.5-1.8-0.5-3.4-2.6c-0.2,1.2-1.9,1-2.6,1.7c-0.2,1.6,1,1.9,0.9,3.4C422.8,108.2,424.2,107,424.9,105.1 M279.3,118.9
		c-8,0.4-2-11.3-4.3-14.7c-5.5,14,3.2,27.6,8.6,36.2C284.3,131.8,273.2,124.8,279.3,118.9 M210.3,113.8c0.7-1,1.1-2.3,0.9-4.3
		c-2.8-0.2-4.1,1-4.3,3.4C208.5,112.7,208.8,113.9,210.3,113.8 M346.5,125.8v-4.3c-4.1,0.4-1.3-0.8-1.7-3.4c-1.1,0-1.2-1.1-2.6-0.9
		c-0.7,2.3-2,7.3,1.7,8.6c0.1-1.4-0.1-3,1.7-2.6C344.7,124.5,344.7,125.3,346.5,125.8 M249.1,119.8h-3.4
		C244.3,123.8,250.1,122.8,249.1,119.8 M386.1,120.7h-3.4v2.6C384.3,122.9,386.4,122.9,386.1,120.7 M424.9,125.8L424.9,125.8
		L424.9,125.8z M419.7,123.2v2.6c1.8,1.9,2.5-0.4,5.2,0C426.1,122,421.4,121.6,419.7,123.2 M208.6,133.6c2.4-0.2,3.7-1.5,3.4-4.3
		C209.5,129.4,207.9,130.4,208.6,133.6 M368,133.6c0.1,2.2,0.5,4.1,1.7,5.2c1.5-2.5,0.6-8.9-2.6-9.5c-0.5,2.1-5.1,4.6-2.6,6.9
		C365.3,134.9,365.3,132.8,368,133.6 M386.1,137h-3.4C381.3,141,387.1,140,386.1,137 M419.7,140.5L419.7,140.5L419.7,140.5z
		 M423.2,143.9c-0.1-2.2-1.3-3.3-3.4-3.4c0.2,1.6-1,1.9-0.9,3.4C420,145,422.1,145,423.2,143.9 M383.5,161.2c1-3.5-2.6-4.3-4.3-2.6
		C378.8,161.3,381.1,161.3,383.5,161.2 M366.9,175.1c1,0.7,1.6,3.1,0.2,2.5c3.9,1.9,7.5,0.1,10.3,4.3
		C379.6,178.2,370.7,174.6,366.9,175.1 M365.4,175.8c0.2-0.4,0.8-0.6,1.5-0.7C366.5,174.8,365.9,174.8,365.4,175.8 M424,179.3
		c0.6-3.5-0.8-4.9-4.3-4.3v5.2C422.2,180.8,422,178.9,424,179.3 M356,186.2c2.4,0.2,4.9,4.8,6.9,2.6C361,188,358.3,183.5,356,186.2
		 M424.9,199.1c-0.4-2.5-1.8-3.9-4.3-4.3l0,0c-0.3,1.2-1.2,1.6-0.9,3.4C420.8,199.2,422.8,199.2,424.9,199.1 M381.8,217.2
		c8.9-1.7,7,7.4,9.5,12.1c0.2-1.9,3.9-4.6,1.7-6c-2.1,1.2-2.1-7.1-4.3-8.6c-2.1,0.1-4.2,0.2-4.3-1.7c-0.7-5.9,3.3-7,5.2-10.3v0
		C383.6,204.2,377.7,210.6,381.8,217.2 M373.2,212.9c-0.9,2.4-8.6,4.3-3.4,8.6C367.8,218.6,377.7,215.4,373.2,212.9 M425.8,213.7
		L425.8,213.7c-3.4,0.2-8-2.7-8.6,1.7c-0.2,3.1,1.2,4.5,4.3,4.3C422.3,217.2,426.4,217.8,425.8,213.7 M187.9,238.7
		c-8.5-2.6-19.6-6.6-15.5-19c4.3-0.8,5.8,1,7.8,2.6c2.5-1.6,3-5,5.2-6.9C197.2,217.7,191.5,231.7,187.9,238.7 M190.5,224.9
		c-1-1.9-2.9-2.9-3.4-5.2h-3.4c1,4.4-1.8,5.1-3.4,6.9c-0.5-1.8-1.3-3.3-4.3-2.6c0.2,1.6-1,1.9-0.9,3.4c1.7,4,4.5,1.6,5.2,6
		c3.5-1.2,3.1,1.5,4.3,2.6C189,233.5,188.7,228.7,190.5,224.9 M380.1,217.2c-2-0.3-3.6-1.7-5.2,0c-0.4,2.9,3.8,3,2.6,6
		c-0.2,0.5-2-0.2-1.7,0.9c0,0.2,1.5,0.3,1.7,0.9c0.7,1.8,0.2,5.1,2.6,6.9C381.9,227.1,378.5,222.6,380.1,217.2 M423.2,232.7
		L423.2,232.7c-0.8,4.4,2.6,4.6,5.2,3.4C428.2,233.4,426.4,232.4,423.2,232.7 M306,243.9c3.7-0.6,4.8,1.5,6.9,2.6
		C313.3,243.4,307.8,241.9,306,243.9 M422.3,256c-0.1,1.5,0.2,2.7,0.9,3.4c1.9-0.7,4.7-0.5,5.2-2.6h0C426.6,256,424.2,254,422.3,256
		 M390.4,266.3L390.4,266.3c3.2,4.6-1.7,5.9-2.6,10.3c-1.5,7.2,0.8,14.4-4.3,16.4c-3.2-1.5-5.1,2-6,5.2c2.3,0.4,1.6-2,3.4-2.6
		c9.5-2.7,6.7-7.8,8.6-17.2c1-5,4.5-8,3.4-11.2C391.9,267.1,391.8,266.1,390.4,266.3 M422.3,273.2c-0.8,2.5-0.8,2.7,0,5.2
		c3.7,0.8,4.3-1.4,5.2-3.4C424.3,275.9,425,272.8,422.3,273.2 M424,287.9c-1.5,1.8-1.9,2.5-0.9,5.2c2,0.3,3.3-0.1,4.3-0.9
		C427.7,289.4,426.5,288,424,287.9L424,287.9z M409.4,365.4c3.3-10-0.6-16.3-1.7-25.9c-7-6.8-10.2-17.3-16.4-25h0
		C396.5,332,412.2,342.8,409.4,365.4 M262,323.2c-0.4,0.1-0.8,0.1-1.1,0.1C261.2,323.4,261.5,323.4,262,323.2 M291.3,320.6
		c-10.9,1.5-21.3-5.1-26.7-4.3c-2.5,0.4-12.6,7.9-3.7,7c-1.1-0.3-0.4-2.3-0.6-3.6c6-4.6,13.2,2.6,20.7,3.4
		c11.1,1.2,18.3-4.1,27.6-6.9h0C301.7,315.5,299.1,319.5,291.3,320.6 M185.3,365.4c1.3-3.1-3.2-4.8-4.3-2.6
		C183.3,362.8,182.9,365.6,185.3,365.4 M203.1,83.2c-0.3,0.3-0.5,0.7-0.5,1.3C202.7,84.2,202.9,83.8,203.1,83.2 M202.5,73.3
		c2.2,3,1.4,7.6,0.5,10c1-1,3.1-0.9,2.9-3.1c0.2-3.9-1.5-6-2.6-8.6c-3.9,0.1-7.9,0.4-7.8-3.4c5.3-4.4,10.7-8.8,12.9-16.4
		c-1.5-3.1-6.7-2.4-8.6-5.2c-2.3-9.1,7.1-6.7,6.9-13.8c-6.3-3.4-8.3-14.9-4.3-21.5c8-2.4,16.1,2.2,19.8,6.9c2.9-0.8,4.1-3.3,6.9-4.3
		c1.8-2.5,1.4-7.2,5.2-7.8c4.9,3.4,6.1,10.5,12.9,12.1c3.9-5.3,6.3-12.1,12.1-15.5h0c4.4,3.7,5.2,10.9,11.2,12.9
		c6.6-0.9,5.2-9.8,11.2-11.2c4.5,2.7,8.4,6,11.2,10.3c7.2-0.3,5.4-9.6,11.2-11.2c3.4,2.6,5.1,7,6.9,11.2h7.8
		c1.1-4.3,2.3-8.6,4.3-12.1c7.7,2.3,5.4,12.8,12.9,12.1c5.7-0.6,4.2-9.7,11.2-11.2c2.3,4.4,10.2,6.5,8.6,12.1
		c9,1.5,6.5-8.4,12.1-10.3c7.6,3.2,6.2,10.5,12.9,13.8c5.2-2.8,8.4-7.7,11.2-12.9c7.6,2.7,6.8,13.9,18.1,12.9
		c2.3-8.8,10.9-6.2,19.8-8.6c2.8,4.8-2.8,12.6-1.7,15.5c3.4-3.7,5.4-12.8,3.4-19c-5.5,1.4-9.2,4.6-17.2,3.4
		c-3.3,2.1-4.6,6.3-9.5,6.9c-5.8-3.1-5.8-12-13.8-12.9c-3.4,4.1-3.5,11.4-10.3,12.1c-6.1-2.8-5.2-12.6-13.8-12.9
		c-4.5,2.4-3.6,10.2-9.5,11.2c-1.3-7-7.3-9.3-11.2-13.8c-6.5,1.9-4.8,11.6-10.3,12.1c-7.5,0.7-4.6-10.3-12.1-12.9
		c-6.5,1.2-2.7,8-6,12.9c-3,0.4-4.8-0.3-6.9-0.9c-0.7-5.7-4.3-8.4-7.8-11.2c-5.3,1.9-3,11.4-10.3,11.2C289,8.7,286.9,3.3,281,1.7
		c-4.8,2.4-4.2,10.2-9.5,12.1c-7.9-1-6-11.9-12.9-13.8c-5.9,3-5.7,12.1-12.1,14.7c-8.7,0.1-6.5-10.8-13.8-12.1
		c-2,5.2-3.2,11.2-8.6,12.9c-5.1-4.5-16.2-10.8-25-6c-0.4,6.2-2.7,22.2,6,24.1c-1.3,3-4.1,4.5-6.9,6c0.7,4.4-1.5,6.5,0,9.5
		c2.6,1.1,7.9-0.4,7.8,3.4c-1.8,2.2-3.1,5-3.4,8.6c-4.9,1.4-9.8,2.9-9.5,9.5C195.8,71.9,198.2,73.6,202.5,73.3 M430.9,48.3
		c4.8,0.7,6.3-1.7,6.9-5.2c-6-3.5-14.1-11-12.1-17.2h0c-1,2.2-3.4,2.9-3.4,6c2.9,2.8,7,4.5,7.8,9.5c3.4-0.3,4.7,1.7,4.3,5.2
		c-5.7,0.6-8,4.7-11.2,7.8c0.4,3.4,4.7,2.8,6.9,4.3c-0.5,5.4,7.7,5.8,1.7,9.5c3.1,0.5,3.8-1.4,5.2-2.6c-3.7-3.5-4.8-9.6-11.2-10.3
		C426.9,52.3,430.1,51.5,430.9,48.3 M332,296.6c-0.3-0.1-0.6-0.1-0.9-0.1C331.4,296.6,331.7,296.6,332,296.6 M393,243.9
		c0.1-0.7,0-1.3-0.3-1.7C392.7,242.8,392.7,243.4,393,243.9 M516.3,382.7c-108.5,1.5-217.4,2.2-321.5,5.2c-10,0.3-23.9-1.5-35.3-1.7
		c-8.3-0.1-16.8,1.7-25,1.7c-13.1,0-31.7,0.3-48.3-0.9c-21-1.5-42-0.5-62.1,0c-10,0.3-17.2,2.3-24.1-3.4v-6.9
		c9.4-6.2,24.6-4.6,35.3-4.3c10.5,0.3,22.1,1.2,32.8,1.7c-2.4-37.5-2.2-67.6,0-101.7c0.2-3.4,2-7.2,1.7-10.3
		c-0.4-4.7-6.1-17.5-8.6-22.4c-0.8-1.5-0.7-2.6-1.7-6.9c-0.4-1.8-2-2.6-2.6-4.3c-1.6-4.6-1.9-10-3.4-14.7c-0.3-0.9-1.3-0.7-1.7-1.7
		c-2.1-5.4-2.6-11.9-4.3-17.2c6.8-2.4,14.9-3.5,20.7-6.9c-0.5-26.9,0.7-51.8,1.7-75.8c42.7,2.6,86-0.7,128.4,1.7
		c0.3-5.1-5.5-7.5,0.9-9.5c-2.7,5.7,5,12.5,10.3,15.5c-2.3,5.5-8.1,7.4-10.3,12.9c2.3,2.3,5.7,3.5,7.8,6c5.7,1.2,9.7-3.7,14.7-5.2
		c4.3-1.3,10.4,0.5,12.9-4.3c0.5-4.3-5.6-6.4-4.3-8.6c-0.6-5.2,5.6-3.6,5.2-8.6c3.1,0,6.8,0.5,7.8-1.7c-3.2-1.4-6.6-2.6-9.5-4.3
		c0.2-5.8,2-4.7,0-9.5c5.1-2.9,8.6-2.3,12.9-5.2c0.1-3.8-2.1,0.1-4.3-0.9c-0.9-4-5.9-3.9-8.6-6c-0.7-4.7,1.1-7,0.9-11.2
		c3.2-1.7,5.3-0.5,6.9-2.6c0.4-4.7-3.4-5.2-4.3-8.6c0-7.4,1-8.7,1.7-15.5c2.9-0.6,4.3-2,4.3-3.4c2.3,0.3,0.9,3.4,6,2.6
		c0.3,4.9,4.7,5.6,6,9.5c3.1-1.8,3.7-6.1,8.6-6c1.1-2.8-2.8-0.7-1.7-3.4c2.5,0.2,4.7,0.1,4.3-2.6c4.6,5.8,18.5,9.2,19-0.9
		c5.7,0,8.6,2.9,11.2,6c2.2,0.7,4-3.4,5.2-0.9c-0.8-3.2,6.1-7.4,8.6-6.9c3.6,2.1,4.1,7.3,8.6,8.6c3.7-2.4,4.9-6.7,8.6-6.9
		c5.8-0.3,7,7.8,13.8,7.8c3.3-0.7,0.4-7.6,3.4-8.6c3.6-1,3.4,1.8,6,1.7c-0.2,0.9-1.7,0.6-1.7,1.7c3.7,1.4,7,3.4,7.8,7.8
		c2.8-3.3,5.9-6.1,7.8-10.3h8.6c0.4,1.8-1.2,1.6-2.6,1.7c1.8,2.2,3.5,4.5,4.3,7.8c9,0.3,11.9-4.1,19.8-0.9c-0.5,5.7,4.5,3.5,4.3,9.5
		c-4.1,2.5-3.9,8.5-8.6,12.1c1.8,1.6,4.1,2.8,6.9,3.4c-0.8,4.8,1.7,6.4,1.7,10.3c-2.2,2.1-7,1.6-8.6,4.3c1.3,1.3,3.4,1.8,6,1.7
		c-0.7,2.7,0.8,3.3,1.7,4.3c0.4,1.8-1.2,1.6-2.6,1.7c4.7,2.7,0.6,3.7,3.4,7.8c-2.1,2.2-5.6,3.1-8.6,4.3c1.7,2.3,5.3,2.8,7.8,4.3v9.5
		c-1,2.7-4.8,2.7-6,5.2c2.9,3.7,6.1,7.1,5.2,14.7c-4,1.4-6.8,4.1-10.3,6l0,0c5.4-1.4,14,7.3,9.5,16.4c-4.1,0.8-5.8,4-9.5,5.2
		c4,6.3,12.4-1.6,14.7-5.2c2.4-0.4,3.7-2.1,6-2.6c4.9-4.3,11.3-7,17.2-10.3c-3.4-6.4,5.2-6.3,6-11.2c-0.1-5.6-9.6-1.9-8.6-8.6
		c1.1-4.7,7.9-3.6,10.3-6.9c-0.3-6.9-3.3-11.1-9.5-12.1c2-4.9,8.3-5.5,11.2-9.5c-1.5-4.8-5.6-7.1-9.5-9.5c-0.6-5.9,5.2-4.9,7.8-6.9
		c0,0,2.6-4.1,2.6-3.4c0.3-3.9-10-6.7-12.9-9.5c1.8-2.2,7.7-8.6,8.6-6c-3.5,2.2-4.2,3.4-6,6c0.7,3.1,2.8-0.1,6,0.9
		c1.4,2.6,3.1,4.9,6,6c1.8,6-8.9,6.5-10.3,12.1c5.2-0.4,7.1,5.6,9.5,10.3c-0.9,2.9-5.8,3-7.8,6.9c5.5,2.5,16.9-0.8,22.4,1.7
		c0.3,7.1-3.4,17.9-0.9,26.7c8.8-2.7,15.8-7.2,24.1-10.3c-4.2,7.6-11.2,12.3-17.2,18.1c0.8,3.3,3.5,0.6,6,0.9
		c-2.5,5-9.8,5.2-12.1,10.3c1.6,46.8,1,98.4,0,139.6c8.4,2.8,14.2,8.2,22.4,11.2c2,4.6,5.9,7.3,9.5,10.3
		c2.7,13.1,17.4,14.2,21.5,25.9c-0.7,5.6-11.9,0.8-12.1,6.9c0.1,3.6,3.9,3.5,7.8,3.4c0.6,6.1-2.4,8.5-5.2,11.2
		c7.2,4.5,22.3-3.8,25.9,6.9C521.4,379.8,517.3,379.7,516.3,382.7 M438.7,162.9L438.7,162.9c1.3,0.8,2.7,1.3,2.6,3.4
		c2.1,29.2-0.2,63.8,0.9,91.4c-2.4,0.7-2.2-1.2-4.3-0.9c-1.2,5.8-8,3.5-10.3,9.5c9.9,2.4,9.5,11,10.3,19c-2.1-0.5-1.8-3.3-5.2-2.6
		c-1.5,3.3,1.4,3.2,2.6,4.3c1.1,1,1.4,3.4,3.4,1.7c0,2.9-2.8,2.9-2.6,6c6.9,0.7,4.7-22.9,2.6-20.7c4.8-2.9-2.1-7.9,1.7-10.3
		c-1.1-2.7-4.1-3.4,0-5.2c3.4,12.2,1.7,24.6,1.7,38.8c1.3,1.3,4.4,0.8,6.9,0.9c0.9-38.2-0.5-89.5,0-137.9
		C445.3,158.5,441.4,161.1,438.7,162.9 M404.2,286.1c1.8,0,6.4-1.5,3.4-3.4c-1.1,3-3.3,0.8-1.7-1.7
		C402.7,280.2,402.9,284.8,404.2,286.1L404.2,286.1L404.2,286.1L404.2,286.1z M404.2,267.2c-0.1,2.2,1.3,2.7,2.6,3.4
		c0.1-3.1,3.2-3.1,3.4-6h0c-1.6-1.6-1.6,0.5-4.3,0C406.2,266.9,407.7,267.4,404.2,267.2 M402.5,276.7c0,1.5,0.7,2.2,1.7,2.6
		c0.1-1.6,2.9-0.6,2.6-2.6C405.7,275.6,403.6,275.6,402.5,276.7 M406.8,293c0.6,2,2.9,2.3,3.4,4.3c8.5-0.5,18.4-0.9,24.1-1.7
		c1.7-8.6-6.1-7.7-9.5-11.2c1.3-4.6,6.3-2.1,9.5-3.4c0.9-9.5-6.4-10.8-9.5-16.4c2-4.9,8.4-5.4,11.2-9.5c0.1-7-8.2-5.5-10.3-10.3
		c0.8-5.8,7.6-5.7,8.6-11.2c-1.2-6-10.1-4.3-9.5-12.1c1.4-1.4,5.1-0.7,7.8-0.9c1.1-9.7-7.2-10.1-9.5-16.4c5.8-1.1,8.1-4.4,7.8-8.6
		c-0.5-5.1-7.3-5.7-8.6-9.5v-3.4c2.6-1.8,6.8-1.8,9.5-3.4c-0.3-5.4-4.9-6.6-7.8-9.5c-10.5,3.3-18.4,9.1-27.6,13.8
		c2.2,6.2-1,8.5-1.7,13.8c4.2,3.1,6.7,9.2,2.6,13.8c3.6,1.9,0.7,10.2,4.3,12.1c1-1.4-0.1-7.2,0-7.8c5.8,1.9,8.6,6.9,8.6,14.7h0
		c2.1,0.5,3.9,1.2,6.9,0.9c3.8,5,5.2,16,1.7,22.4c-1.8,3.4-6.2,2.4-6,6c1.1,8-1,12.8-3.4,17.2C416,281.6,407.7,287.6,406.8,293
		 M439.6,173.2c1-2.4,0.2-3.7-0.9-6c-4.1-0.7-5.5,1.3-9.5,0.9c-0.1,3.2-1,2.5,0,5.2c2.1,0.4,1.9-1.6,4.3-0.9
		c0.9,5.2-2.7,10-4.3,12.1c-1.5,0.1-2-0.9-1.7-2.6c-2.4,0.2-3.7,1.5-3.4,4.3c5-0.7,4.7,3.9,7.8,5.2c1.4-0.6-0.2-4.2,2.6-3.4
		c-1.1,3.9-2.5,6.1,0,9.5c-7.2,4.2,0.6,16.6,0.9,24.1c-3,2-7.2-0.4-7.8,2.6c8.7,0.8,11.9,14.7,2.6,17.2c2.1,0.1,0.3,2.9,0,3.4
		c3.7,0.9,4.8,4.4,7.8,6c-0.8,0-0.4,6.1,2.6,5.2c-0.1-5.8,0-6.5-1.7-10.3c4-4,0.5-13.5-0.9-15.5c1.1-0.1,2-0.3,1.7-1.7
		c-0.4-1.5-1.1,0.2-2.6,0c3.3-2.1,5.8-13.1,0.9-15.5h2.6c-0.7-8.9-0.3-22.8,0-31.9c-1.5-2.6-3.4,3.2-5.2,0c3.1,0.5,2.1-3.1,5.2-2.6
		v-4.3c-2-1.2-3.2,2.2-3.4,0c1.6-0.2-0.5-1.4,0.9-1.7C438,173,438.6,173.4,439.6,173.2 M426.6,150.8c4.4-0.5,7.3-2.4,9.5-5.2
		c5.4,0.5,7.3-2.5,11.2-3.4c0.8-7.1-0.5-18,0-27.6c-7,0-10-1-16.4,0h0c1.6,2.5,1.5,6.5,3.4,8.6c2.4,0.1,5.9-0.7,6,1.7
		c-0.9,5.7,2,15.2-1.7,18.1c-1.1-4.1-1.1-12.3,0-16.4c-2.7-0.1-2.5,2.7-6,1.7c-0.6,4.3,3.2-1.1,3.4,1.7c-3.2,2.6-7.9-0.6-11.2,2.6
		c0.6,2.7,0.6,1.7,0,4.3c6.2-1.3,7,2.7,9.5,5.2C432,145.3,428.5,147.2,426.6,150.8 M391.3,179.3c7.4,3.5,15.6-4.1,22.4-7.8
		c3.2-1.7,6-1.5,7.8-4.3c1.6-0.7,3.2-1.4,5.2-1.7c1.5-1.6,2.3-4,4.3-5.2c2.1-0.8,3.7-2,6.9-1.7c0.3-1.7-1.2-1.7-1.7-2.6
		c2.8-2.6,7.2-3.7,9.5-6.9c-1.2-0.3-1.6-1.2-3.4-0.9C425.2,158.6,402.8,163.5,391.3,179.3 M381.8,171.5L381.8,171.5L381.8,171.5
		C381.8,171.5,381.8,171.5,381.8,171.5c0.5,3.3,3.7,3.8,6.9,4.3C388.3,172.5,384,173.1,381.8,171.5 M248.2,126.7
		c6.9-1.7,12.1-5.1,19.8-6c1.7,3.6,3.1,10.4,5.2,16.4c1.9,5.7,4.5,15.2,7.8,12.9c0.2,2.7,0.6,5.1,3.4,5.2c1.4-1.4,0.7-5.1,0.9-7.8
		c-0.6-1.7-5.1,0.5-4.3-2.6c1.1-1.2,3-1.6,5.2-1.7c1.3,3.5,2.7,7,6,8.6c-1.9,1.8,0.1,2.8,0.9,4.3c-1.2-0.3-1.6-1.2-3.4-0.9
		c-0.6,5.2,0.3,8.8,6,7.8c1.3-3.9-2.5-2.6-1.7-6c1.5-0.5,1.4-2.6,2.6-3.4c1.3,0.1,3.2-0.3,3.4,0.9c-4.2-1-3.8,2.5-5.2,4.3
		c4.5,0.5,1.9,3.1,4.3,6c2.2-0.1,3-1.6,4.3-2.6c-1.5-0.2-4.3,0.9-3.4-1.7c2.5-2.5,2.7,1.7,6,0.9c0.9-3.2-3.6-5.5-1.7-6.9
		c3.1,0.7,1.3,6.1,6,5.2c1.1-4-1-6,0.9-9.5c-1.5-2-4.2-2.7-4.3-6c4.8,0.1,2.9,6.8,7.8,6.9c8.3-5.7-2.3-14-10.3-13.8
		c6.6-2.7,12.1,2.7,19,2.6c-2.3,5.7-7.9,9.8-6,17.2c-7.3,2.1-9.8,6.7-14.7,9.5c0.9,1.7,0.2,4.1,3.4,5.2c0.1-1.3-0.3-3.2,0.9-3.4
		c2.7,6.2,12.1,5.8,12.9,13.8c-2.5,0.2-4.4-0.2-5.2-1.7c2.5-3.6-6-7.5-8.6-6c5,2.5,6.2,8.7,11.2,11.2c-2.1,2.4-1.4,6.1,0.9,7.8
		c1.3-1.4-1.1-4.7,2.6-5.2c-3.1-0.8-2.9-5.8,0-6c1.1,1.4-0.3,5.5,2.6,5.2c2.6-0.7,4.5-5.2,3.4-6.9c-1.1-1.5-4.1-1.1-4.3-3.4
		c5.7-5.3-5.3-9-7.8-12.1c7.7,2,22.8,4.8,20.7-7.8c-4.5,0.7-5.3-2.2-7.8-3.4c1.2-1.1,0.9-3.7,0.9-6c3.9-1.4,5.7,0.4,8.6,0.9
		c-2,1.1-6,0.4-7.8,1.7c-0.5,4.5,3.3,4.8,6,6c4.1-1.6,5.8-5.7,10.3-6.9c0.3-4.2,0.3-7.5,0.9-9.5c3.8,5.6-0.1,15.8-8.6,17.2
		c-1.7,4-0.9,7.7-0.9,9.5c3.8-1.1,7.4-6.1,6-9.5c3,0,3.4-1.8,5.2-4.3c1.4-2,3.8-4.9,4.3-6c1.7-3.7,2.3-7.3,6-10.3
		c-0.6,2.4,1.7,1.7,1.7,3.4c-1.6,1-4.2,1-3.5,4.3c1.7,2.9,6.4,2.8,6.9,6.9c3.3,0.8,3.1-2.1,5.2-2.6c-0.6,5.6,4.8,1.6,5.2,2.6
		c-4.5,1.8,3,5.8-2.6,6c-0.9-1.7,0.1-5.1-5.2-4.3c-2.2,1.1,0.8,4.2-0.9,4.3h-2.6c-0.6-2.7,2.4-1.7,1.7-4.3c-2.1-1.8-1.8-1.2-5.2-0.9
		c0.3-2,1.8-3.7-0.9-4.3c-1.5,3.1-9.8,3.1-6,8.6c3-0.9,7.4-4.4,8.6,0c-3.2,1.7-5,0.8-7.8,1.7c-1.5,5.5,6.3,1.7,6,6
		c-6.3-0.3-7-6.2-11.2-8.6c-10.4,14.6-20.4,29.6-29.3,45.7c-5.8-8-7.5-20.1-15.5-25.9c-2.6,3.7,3.9,4.3,3.4,8.6
		c-1,1.3-0.7,3.9-3.4,3.4c-0.2-1.2-1.4-1.5-1.7-2.6c7.3,2.2-2.7-9.2-5.2-9.5c-1.1,0-1.2,1.1-2.6,0.9c-0.1,4.4,2.1,6.5,5.2,7.8
		c-2.4-0.9-5.9,1.4-6,0c0.3-7.6-3.9-10.7-1.7-16.4c2,2.7,0.7,3.5,1.7,6.9c4.5-0.9,4.3-1.6,9.5-0.9c2-2.2-1.8-4-2.6-6
		c-2.9-0.6-1.1,3.5-4.3,2.6v-6c-4.9,1.3-4.5-0.8-8.6-1.7c-0.9,2-3,2.8-2.6,6c1.5,0.8,4.3,0.3,5.2,1.7c-7.2,1.3-0.5,13.6,2.6,15.5
		c-1.5,10.2,5.7,19,7.8,28.4c1.5,0.1,2.7-0.2,3.4-0.9c-0.5,2.1-3.3,1.8-2.6,5.2c4.2,1.9,4.2-4.9,6-2.6c-7.4,4.2-2.3,14.3,0,20.7
		c9.2-4.3,15.8-11.2,25-15.5c-0.5-2.9-2.5-4.4-1.7-8.6c5.3-5.2,9.9-13.9,6.9-22.4c5.3-2.8-2.1-12.1,3.4-14.7c-2,2,0.1,4.2,0,6.9
		c5.1-0.4,5.3-5.7,10.3-6c0,1.1-1.1,1.2-0.9,2.6c5.2,0.3,7.8-2,7.8-6.9c3.7,2.4,5.5-3.4,8.6-4.3c0.3,2.3,0.4,3.2,2.6,5.2
		c-4.6-0.3-7.4,1.2-8.6,4.3c1.5,1,5,0.2,6,1.7c-4.4-0.9-5.3,1.1-5.2,2.6c-3.9,1.6-1.5-3.1-3.4-3.4c0.5,3.1-2.9,2.2-2.6,6.9
		c-2.6,0-5.3-0.1-5.2,2.6c4.8,1,12.5,3.5,10.3,8.6c-1.7,0.4-2-4.8-3.4-1.7c3.8,2.6-1.7,8.7-3.4,11.2c1.8,0.3,1.7,2.3,3.4,2.6
		c-0.4-4.1,0.8-1.3,3.4-1.7c0-2.3-0.5-5.1,1.7-5.2c-1.6,3.1,0.9,5.5,2.6,7.8c-3.4,1.1-1.6,6.1-4.3,9.5c2.9,0.8,3.7-4.8,5.2-2.6
		c-0.7,1.4-2.7,1.3-2.6,3.4c3.3,1.9,4.9,5.4,8.6,6.9c-1.5,3.9-3.2,5.2-3.4,8.6c-2.2-2.5,0.4-5.3,0-8.6c-2.3-4-9.7-3-11.2-7.8
		c1.9-1.6,3.8-3.1,3.4-6.9c-7.3-0.8-9.5-6.4-14.7-0.9c2.1-2.4-1.2-5.2,0.9-6.9c-0.1,2.4,2.1,2.5,4.3,2.6c0.5-5.2,1.7-8.9,0.9-11.2
		c0.9,0,1-0.7,1.7-0.9c0.8,3.4,1,5.4-0.9,7.8c5.9-1,1.4-8.9,0.9-12.1c-4.8-0.4-4.9-2.7-8.6-2.6c0.1-1.4,2.2-0.7,1.7-2.6
		c-2.7,0.2-6.1,4.2-4.3,6c0.2-1.2,1.9-1,2.6-1.7c-0.4,4.2,2.4,5.1,3.4,7.8c-0.7,0.2-1,0.7-0.9,1.7c-2.7,0.4-2.3-3-4.3-0.9
		c0.9,7.7-3.3,7.7-4.3,13.8c6.9,2.4,7.1,9.3,6,16.4c12.8-1,16.1,7.4,19.8,15.5c-1.9,4.5-9.9,13.2-2.6,16.4c6.4-5.3,6.9-18.3,15.5-19
		c1.1-3.8-1.9-7.8,0-9.5c0.6,5.6,8.7,3.7,10.3,6c-8.8,2.4-13.6,8.9-17.2,16.4c5-0.2,8.2,0.1,11.2-3.4c-0.8-0.3-3.8-2.3-1.7-2.6
		c-0.1,1.9,3.1,0.4,4.3,0.9c1.1-2.9-3.4-4.6-0.9-6c-0.9,2.6,1.9,1.5,3.4,1.7c-0.5-2.2,0.3-3.1,2.6-2.6c-2.7-4.1,2.6-3.1,2.6-6.9
		c-0.5-1.2-3.3-0.1-3.4-1.7c0.7-1.9,2.1-3,5.2-2.6c-2.2,2.3,0.9,3.9,0.9,6c0,2.3-1.7,4.3-2,6.1c-0.4-0.7-1.2-1-2.3-0.9
		c0.9,4.3-5.1,1.8-4.3,6c0,3.8,2.8,4.7,3.4,7.8c-0.5,7.6-8.8,7.3-8.6,15.5c-5.1,2.7-9.7,0-7.8-6.9c-1.9-2-5.1-3.7-3.4-6.9
		c-5.8-0.9-4.3,5.5-10.3,4.3c-0.1-1.3,0.3-3.2-0.9-3.4c-1.7,4.9-5.5,7.7-7.8,12.1c0.6,10.3-7.6,18.3,4.3,21.5
		c1.2-0.5,0.1-3.3,1.7-3.4c-1.4,5,0.7,3.9,2.6,6.9c2.8,1.1,0.7-2.8,3.4-1.7c-0.9,1.9-2,3.8-3.4,5.2c-0.8-2.8-0.1-4.4-4.3-5.2
		c0.5,4.2-1.3,6.1-3.4,7.8c-4.6,0.9-7.1-0.3-10.3,0.9c-2.4-2.9-5.6-4.4-9.3-5c1.3,0,2.6-0.5,4.1-0.2c4.7,1.1,11,6.5,13.8,0.9
		c-7-1-10.2-5.9-14.7-9.5c1.3-0.1,3.2,0.3,3.4-0.9c-1.9-0.1-0.4-3.7-0.9-5.2c-4.1-0.1-3.8,5-4.3,6c-4.8-1.9-9.3-3.5-15.5-4.3
		c-9-1.2-21.4-3.8-27.6-3.4c-8.9,0.5-16.7,7.3-25.9,9.5c-6,1.4-10.9,0.3-16.4,3.4c-4.8-3.4-15.1,0.5-15.5,6.9
		c1.5,2.2,8.1,4.8,3.4,7.8c1.3,1.7,3.6-1.5,4.3,1.7c1.7,9.5,10.3,12.1,9.5,24.1c-2.1,0.5-4.4,0.7-4.3,3.4c3.6,0.5,3.6-2.8,6-3.4
		c1.3,2.7,0.1,7.9,2.6,9.5c-3.3,0.2-3.3,3.6-6.9,3.4c-3.4-0.6-2.3-5.7-6.9-5.2c-0.5,11.7,6.8,15.6,11.2,22.4
		c3.1-0.6,4.2-3.3,6.9-4.3c-1.9,5.2,1.5,12.1,6.9,13.8c1.7,0.5,4.1-0.8,6-0.9c7-0.3,16.2,0.4,23.3,0c6.1-5.4,9.1-18.5,19.8-16.4
		c-0.5,3-3.7,7.7-6,6c1.2-1.6,3.3-2.5,3.4-5.2c-9.1,1.3-9.9,10.8-15.5,15.5c6.7-0.7,13.8-1.1,21.5-0.9c1.3-3.6,4.6-5.2,8.6-6
		c0.7-3.2-4.6-0.6-3.4-4.3c6.5,0.6,14.6-1.8,23.3,0c-0.1-3.7,2.1-0.9,3.4-1.7c7.9-4.7,7.7-17.6,10.3-27.6c0.8-3,4.3-5.1,2.6-8.6
		c2.9-2.9,4.6-6.9,6-11.2c-1.4-5-7.7-5-7.8-11.2c2.2-1.5,7.3-0.1,6.9-4.3c-3.7,0,1.2-3.6,0-8.6c-4.8-1.3-8.5-9.6-6-14.7
		c0.9-1.8,3.9-0.8,3.5-3.4c1.1-2.9-1.9-6,0-6.9c3.1,3,1,10.2-2.6,12.9c0.3,6.6,5.4,8.4,6.9,13.8c0.4,2.7-1.6,3-0.9,6
		c14.6,2.5-0.7-19.2,9.5-17.2c2,14.2-6.5,18.9-10.3,29.3c4.6,0.1,4.5-4.7,10.3-3.4c0.4-1.6-1.2-5.2,1.7-4.3
		c0.3,3.8-3.5,8.1-3.4,11.2c-4.5,0.3-1-4-2.6-5.2c-4.8,0.1-2.4,5.1-3.4,7.8c-1.1,2.9-4,5.7-5.2,8.6c-3.9,9.8-4.7,21.7-8.6,31.9
		c-2.8,2.3-7.7,7.1-10.3,7.8c-4.3,1.1-9-0.8-14.7,0c-1.3,4.7-4.6,4.6-9.5,6.9c3.6-0.1,0.6,1.9,0,2.6c12.4-2.7,34.4,4.9,38.8-7.8
		c-0.1,3-2.5,3.9-2.6,6.9c18.9,2.2,38.2-2.1,55.2,0c2-2.9,4.2-5.6,3.4-11.2c4.4-2.1,8.1-6.9,14.7-4.3c0.4-4.7-2.6-6-6-6.9
		c0.2-1.6-1-1.9-0.9-3.4c-14.1-7.4-23-20.1-29.3-35.3c0.7-3.1-2.5-5.2,0.9-6v6c1.6,2.1,3.9,3.6,3.4,7.8c5.6,5.3,7.1,12.1,12.9,17.2
		c2.5,2.2,6.7,3,9.5,5.2c6.6,5.3,11.9,13.2,12.9,22.4c-1.1,3.2-5,3.6-5.2,7.8c11.5,2.6,15.1-7.3,23.3-5.2c-3.6,0.9-6.5,2.7-9.5,4.3
		c9.5,3.5,22.9-2.2,12.1-6.9c1.8-2,8,0.5,8.6-2.6v9.5c13.4-1.3,34.1,4.8,33.6-10.3c-4.2-0.2-6.9,1.1-10.3,1.7
		c-8-3.5-9.1-12.7-11-21.3c1.5,3,3.8,6.3,4.1,7.5c0.4,1.5-1.3,4.5,0,6c3.1-0.5,2.1,3.1,5.2,2.6c1.1-6.4,6.9-7.6,13.8-6
		c0.2-1,1-1.3,1.7-1.7c0.3-9.5-8.9-9.5-13.8-13.8c-3.6-8.7-9.4-13.6-15.5-19c-3.2-2.8-5.9-7.1-8.6-8.6c-7.2-4-16.8-4.5-25.9-6
		c-1-0.2-1.9-1.6-2.6-1.7c-10.7-1.3-24.9,5.3-31-4.3c0.1-3.8-1.2-6.2-3.4-7.8c-3.1,5.6-11.6,5.6-11.2,14.7c0.5,2.3,3.6,2.1,3.4,5.2
		c-0.4,1.6-2.5,1.6-1.7,4.3c-2-0.3-1.6-3-4.3-2.6c-1.7,2.3-0.5,7.5-0.9,11.2c-8.1,13.7-10.4,33.3-24.1,41.4
		c11.1-12.1,17.4-32.9,23.3-47.4c-0.5-1.2-3.3-0.1-3.4-1.7c3.8,1.2,0-5.2,2.6-5.2c3.1,1.7,4.7-0.3,6-2.6c-1.4-1.5-4-1.8-4.3-4.3
		c3.2-0.4,2.7-4,4.3-6c2.9-3.5,7.7-5.7,10.3-9.5c-0.5-4.8,0.8-7.8,2.6-10.3c-4.6-7-8.4-11.7-5.2-22.4c-1.8-1.9-6.6-0.9-6.9-4.3
		c5.3,2.6,2.5-1.1,6-2.6c-0.4,0.1,3.8,2.6,4.3,0c1.1,0.9,2.6,1.4,3.4,2.6c-1.2,0.6-1.6,1.8-1.7,3.4c1.5,1.3,3.9-1,5.2,1.7
		c-2.7,4.6-2.9,7.4-4.3,12.1c7.7-0.7,4.6-7.6,5.2-11.2c2.6-0.6,2.5,1.5,5.2,0.9c4.3-5.1,2.3-5.5,0.2-4.8c5.4-3.2,2.2-16.2-3.6-14.2
		c1,1.6,5.4,4.3,2.6,6.9v-3.4c-3.2-0.4-3.7-0.3-6.9-1.7c-0.3,2.6,2.3,4.4-0.9,5.2c-2.8-1.5-2.2-3.8-1.7-6.9
		c-2.2-0.3-4.8-3.8-1.7-4.3v2.6c4.6-1,2.7-1.4,6.9,0c-0.1-4.2-3.2-5.4-3.4-9.5c-3.8-1.2-2.3,2.9-5.2,2.6c-3.7-3.6-4-14.6-10.3-14.7
		c2.5-3.2,5-5.1,6-7.8c-0.7-2.5-2.8,0.5-4.3,0c-2.7-5.3-2.9-12,0.9-15.5c0.2,0.7,0,1.7,0.9,1.7c1.8-5-4.1-2.2-4.3-5.2
		c1.9,0.2,2.7-0.7,2.6-2.6c-4.1-3.1-4.9,1-7.8,0c0.8-4-1.1-5.2-1.7-7.8c-4.7-1.4-5.8,2.7-8.6-1.7c2.8-0.9,4.1-3.9,4.3-5.2
		c5.4,0.7,13.2-1.1,15.5-6c-1.7-6.6-7.4-9.2-12.9-12.1c1.2-5.1,7-5.6,12.1-6.9c0.8-8.3-4.8-10.1-11.2-11.2v-3.4
		c5.1-2.1,12-2.4,12.9-8.6c-2-5.8-11.2-4.3-12.1-11.2c2.2-3.7,10.6-0.2,12.9-1.7c-2-2.1-0.7-5-1.7-6.9c-2.5-4.6-8.8-4.1-11.2-8.6
		c3.4-3,7.8-4.8,12.9-6c-2-5.2-7.7-6.7-11.2-10.3c-0.9-5.5,3.6-5.6,6-7.8c-0.1-6.7,3.9-8.2,0.9-12.9c-4.1,4.5-9.2,4.4-14.7,6
		c-3.6-3.8-5.2-9.7-9.5-12.9c-4.4,3.7-3.3,12.8-12.9,11.2c-1.5,3.1-1.9,5.9-0.9,9.5c1.1,2.1,3.2-0.9,3.4,0.9c-1,1.9-3,2.8-5.2,3.4
		c1.3-2.7,1-6-2.6-6c-4.6,1.4-1.9,10.2-6.9,11.2c-6.1-1.3-11.8,1.7-8.6,6.9c3.2,0.6,3.3-1.9,6-1.7c7.8,1.2,10.8-2.4,15.5-4.3
		c1.9-3,1.7-8,5.2-9.5c-1.8,4.6-2.9,9.7-6,12.9c2.9,1.4,3.7-3.7,5.2-0.9c-5.4,3.8-16,6.9-22.4,6.9c2.9,0,4.6-1.2,6-2.6
		c-4.1-1.5-7.2,0-10.3,1.7c-1.1,2.8,2.8,0.7,1.7,3.4c-4.9,0-8,1.7-11.2,3.4v6.9c8.8-3.5,13-11.7,25-12.1c5.1,5.1,11.1-4.6,18.1-1.7
		c-1.4,1.4-6.3-0.5-6,2.6c10.6-2.2,17.6,2.7,17.2,13.8c-2-0.3-1,2.5-2.6,2.6c-7.8,0.7-3.7-5.3-7.8-7.8c5.1-0.5,5.5,2.3,4.3,6
		c10.7-3.4-1.6-19.1-11.2-12.9c0.3,3.9,3.8,5,5.2,8.6c4.7,12.1-0.9,28.2-6.9,36.2c-0.8-5.1,6.2-8.7,1.7-12.1
		c4.5,1.5,2.5-4.4,2.6-5.2c0.2-1.1,3.7-4.6,0-5.2c1.2,0,1.9-0.4,2.6-0.9c-3.3-4-0.4-7.5-3.4-13.8c-0.2,1.2-1.9,1-2.6,1.7
		c0.4-1.6,2.5-1.6,1.7-4.3c-4.3,0.4-2.8-0.3-2.6-3.4c-2.8-1.1-0.7,2.8-3.5,1.7c1-1.3,1-2.2,0-3.4c-4.6,2.2-7.7-0.4-14.7,0
		c-2.9,2.7-3.4,5.9-8.6,4.3c-1.8,3.9-4.5,7-7.8,9.5c-1.7-0.6,0.5-5.1-2.6-4.3c-2,2.8,4.2,8.3,0,11.2c-3.7-3.2-7-11.4-7.8-14.7
		c1.6,1.5,2.7,3.6,4.3,5.2c1.9-1.8,2-5.4,2.6-8.6c-7.8,0.7-9.6-4-8.6-7.8c-4.6-0.5-5,3-9.5,2.6c-2.5-1.1-6.4-3.8-10.3-5.2
		c-3.8-1.3-10.6-4-12.1,0c3.4-0.2,6,0.3,6.9,2.6c0.7,2.4-1.2,2.2-0.9,4.3c1.3,0.5,4.5-1,4.3,0.9c-6.5,2.7-10.6,7.8-14.7,12.9
		c-0.5-7.2,6.2-7,7.8-12.1c-5.7,0.3-10.3,1.8-14.7,3.4c0,3.9-3.2,5.6-1.7,8.6c2.5,1.1,3.9,0.4,4.3-2.6c0.4-2.4-3.2,2.2-3.4-0.9
		c1.1-1.2,5.2-1.5,5.2,0.9c0,4.8-3.9,5.5-7.8,4.3c0.7-3-1.3-3.3-0.9-6c2.6-8.9,17-6,21.5-12.9c-1-2.8-7.1-0.3-7.8-3.4
		c0.4-3.1,2.7-4.1,6-4.3c3.1,0.9,4,4,8.6,3.4c1.4-2.7-4.3-2.4-1.7-3.4c5.9-0.3,10.1,8.7,19,5.2c2.2,0.5,4.2,3.5,6,1.7
		c0.6-7-5.2-7.4-11.2-7.8c0-2-1.5-2.5-0.9-5.2c3.8,0.6,3.5-2.8,6-3.4c-0.3-2-1.4-3.2-0.9-6c-3.6-0.4-0.3,6-4.3,5.2
		c0.1-4.7-2.9-6.3-6.9-6.9c2.4,3.3,2.4,9.1,3.4,13.8c-4.1,2.3-5.3-2.5-9.5-2.6c-1.2,2,2.2,3.2,0,3.4c-4.7-2.1-2.8,3-8.6,1.7
		c-1.6-1.5,1-2.5-0.9-4.3c-6.1-1.2-25.6-8.4-22.4,6c2.7,1,7,0.5,6.9,4.3c-0.7,4.4-3.4,6.9-9.5,6c0.2-1.5-2.4-4.3,0-5.2
		c1.8,0.5,0.2,4.4,3.4,3.4c2.8-0.4,5-1.3,4.3-5.2c-2.9-1.1-7-1-7.8-4.3c-1.5-15.8,19.9-8.3,26.7-7.8c-1.3-1.6-3.1-2.6-2.6-6
		c1.2-0.2,1.5-1.4,2.6-1.7c4.7,2.8,8,7,13.8,8.6c1.1-5.4-1.3-7.3-3.5-9.5c4.6-0.6-1.4-1.6,0-4.3c4.6-0.5,4.9,3.2,8.6,3.4
		c3-0.7,1.9-5.5,6.9-4.3c0.2,7.7,4.7,13.7-0.9,18.1c8,0.6,7.4,9.9,12.1,13.8c3.7-0.6,3.8-4.9,9.5-3.4c-2.9-8.3,3.9-11.7,10.3-11.2
		c-0.2-4.7-4-5.8-5.2-9.5c2.4-3,4.8-6.1,9.5-6.9l0,0c-0.1,2.7-2,3.8-1.7,6.9c9.9-0.8,10.8-14.8,1.7-17.2c-1.5,1.9-3.4,3.5-2.6,7.8
		c-2.1,1.6-4.5,2.9-7.8,3.4c-2.1-5.1-1-9.1-7.8-10.3c-3.2,4.6-4.5,11-12.9,10.3c-1.4-1.4-0.7-5.1-0.9-7.8c-3-1-3.7-4.4-7.8-4.3
		c1.3,4.3-4,7.6-6.9,10.3c-4.3,0.2-7-6.1-11.2-8.6c-4.8,2.4-3.7,10.6-9.5,12.1c-4.8-1.8-4.2-9-11.2-8.6c-3.1,2.7-5.2,6.2-6.9,10.3
		c-9.4,0.8-12.4-8.6-19.8-6.9c0.7,7.2,10.9,13.5,6,20.7c-2.7-1.9-8.2-0.5-8.6,2.6c3.1,5.3,7.1,9.5,12.9,12.1
		c0.8,8.8-11.8,4.3-12.9,11.2c4.9,2.3,10.2,4.1,12.9,8.6c-5.9,3.9-11.5,8-17.2,12.1C239.7,122.6,244.1,124.5,248.2,126.7
		 M341.3,60.3c-1.2,1.4-3,2.1-2.6,5.2h0c1.9,1.8,1.8,5.7,6,5.2C342.8,66.1,343.7,63.7,341.3,60.3 M319.8,88.8
		c-0.8,2.3-3-0.9-4.3-0.9C314.2,92.6,322.7,91.2,319.8,88.8 M285.3,67.2c-1.2,2.5,1.7,7.2,6,6.9C289.5,71.7,288.7,68.1,285.3,67.2
		 M400.8,262.9c0.1-2.7,2-3.8,1.7-6.9C398.9,255.2,397.5,262.1,400.8,262.9 M401.6,249.9h-2.6v4.3
		C401.7,254.6,401.8,252.4,401.6,249.9 M426.6,356c-7.2,1.5-10.1,10-9.5,14.7c1.8-4.3,4,1.1,7.8,0C429.7,369,430.8,359.2,426.6,356
		 M370.6,299.1c-2.9-2.3-4.4,2.6-7.8,2.6v0v0c0.1,2.2,1.3,3.3,3.4,3.4C368.4,303.8,370.2,302.1,370.6,299.1 M251.7,373.2
		c3.2,0.6,5.7,1.6,6.9-0.9C257,370.8,252.4,371.2,251.7,373.2 M156.9,366.3c-2,3.1,3.9,4.3,4.3,7.8c13.8,0.1,27.1-0.7,38.8,0
		c-0.1-3.9-4.8-10-6.9-14.7c-2-1.2-3.2,2.2-3.4,0v0c0.1-2.9-2.1-1.7-4.3-3.4c-7.3-5.7-12.3-14.3-19.8-3.4c-6.4-0.1-9.2,1.9-16.4,2.6
		C149.2,361.3,153.5,363.4,156.9,366.3 M181.9,342.2c1.9-2.1,0.6-6.4-2.6-6C178.9,339.4,179.6,341.5,181.9,342.2 M200.8,357.7
		c1.9,1.6,3.1,4.6,5.2,6c2.7,1.9,5.5,2.7,8.6,3.4c1.6-5.5-9.4-8.1-5.2-16.4c-9.6-2.2-15.8-7.8-25.9-9.5
		C186.5,350.2,194.5,352.3,200.8,357.7 M219.8,336.1c-0.5-1.2-1.3-2.1-2.6-2.6c-2,2.8-8.6,1.2-9.5,5.2c1.7,2.8,3.7-2.1,4.3,0
		c-1.4,1.7,0.1,1.1,0,3.4c7.2,2.3,20.9,1,27.6,2.6c-2.4-7,4.8-7.6,6-12.1c-1.3-0.1-3.2,0.3-3.4-0.9c1.7-4,3.3,1.4,6-0.9
		c-6.4-8.9-19.2-0.9-27.6,0.9v0C220.9,333.8,222.5,335.5,219.8,336.1 M237.9,323.2c-0.4-3,4.7-0.5,5.2-2.6c-2-0.3-4.4-0.9-2.6-2.6
		H237C237.5,319.5,236,323.1,237.9,323.2 M235.3,345.6c-8.4,1.8-19.5-5-23.3,3.4v0v0v0c6,2.3,14.6,2,22.4,2.6
		C234.7,348.6,236.7,348.5,235.3,345.6 M192.2,332.7c-1.6,9.2,8.3,14,16.4,16.4c1.3-1.9,2.6-3.7,2.6-6.9
		C203.9,339.9,200.7,333.6,192.2,332.7 M212.9,373.2c6.2,1.2,13.4-0.9,20.7-0.9c5,0,11.4,4,13.8-0.9c-4.4-0.2-10.6-2.2-12.9-1.7
		v-2.6C225.9,363.4,214.6,363.8,212.9,373.2 M247.4,368c-0.3-6.6-5.6-8.2-6.9-13.8c-9.6-1.2-19.1-2.4-28.4-1.7v0
		c0,1.1-1.1,1.2-0.9,2.6c0.7,3.9,4,5.2,6,7.8C230.8,360.7,237,372.3,247.4,368 M250.8,337.9c-2.1,0.8-5,0.8-5.2,3.4v0
		C247.7,340.5,251.1,341,250.8,337.9 M318,259.4c-4.7,8.3,2.2,27.7,12.9,25v0c1.6-0.4,3.9-2.5,4.3-5.2c0.4-2.9-7-11.6-10.3-19
		c-1.4-3.1-1.5-6.7-2.6-8.6c-2.7-4.8-9.2-9.1-11.2-12.1c-5.1,0.5-8.3-0.8-12.1-1.7c-2.7,0.7-7.5,5.7-4.3,6.9c2.7-1,2.2-5.3,6.9-4.3
		c1.1,2.8-2.8,0.7-1.7,3.4C306.2,248.8,313.4,252.9,318,259.4 M300.8,245.6c-3.6,2.2-8.1,3.4-9.5,7.8c2.9-0.5,2.9-2.5,6-0.9
		c1-4,2.3-2.7,6.9-2.6C304.5,247.1,303.2,245.8,300.8,245.6L300.8,245.6L300.8,245.6z M331.8,224.1L331.8,224.1
		c-4.9,6.8-15.3,8.2-20.7,14.7c13.4,5.2,14.8,22.6,22.4,33.6c5.7-0.9,11.4-1.8,12.1-7.8c-8.1-1.8-9.3-7-6-13.8
		c0.1-0.2,8.7-3.7,1.7-6c-3.8,1.7-1.4,9.6-6.9,9.5c-8.7-4.1-6.8-18.9,2.6-20.7v-9.5H331.8z M336.1,218.9V212
		C332.4,212.3,333.1,218.5,336.1,218.9 M337.9,221.5L337.9,221.5c3.2,0.8,3.4-4.2,0.9-4.3C339.1,219.3,337.1,219.1,337.9,221.5
		 M339.6,238.7c-3.3-1.2-1.7,2.4-4.3,1.7c-0.8,2.8,2.8,1.2,2.6,3.4c-1.5-0.2-3.3,4.1-1.7,1.7c4.4-1.4,4.6-6.9,9.5-7.8
		c-0.1,2.2,1.3,2.7,2.6,3.4c-0.6-5.4,4.4,0.2,5.2-3.4c-4.5,0.7-4.6-2.6-4.4-3.4c0,0,0.1,0,0.1,0l0,0c0-0.2-0.1-0.2-0.1,0
		c-1.3,0.2-3.4,3.1-4.2,0.8c0.3-1,3.5-3.3,0.9-4.3c-1.6,2.1-1.6,0.1-0.9-1.7c-5.8,1.3-2,6.7-6.9,8.6
		C338.5,238.1,339.6,237.9,339.6,238.7 M353.4,243c3,0.1,5.9-4.3,3.4-6.9c-2.8,4.4-6.2,8.2-11.2,10.3c2.1,6.1-7.5,13.6,0,12.1
		c-0.5,0-1-0.7,0-0.9c-0.6,2.3,4.1-0.6,3.4,1.7c-2.1,2-1.2,4.6,0.9,5.2c-0.2-2.8,3.1,0.3,4.3-3.4c-1.1-0.9-3.2-0.8-3.4-2.6h5.2
		c-0.6-2.6,0.9-3.1,0.9-5.2c-3.1-1.3-0.5,2.9-2.6,2.6c-0.4-2.8-4.6-1.7-6-3.4c0.2-0.7,0-1.7,0.9-1.7c1.3,0.4,2.2,1.3,3.4,1.7
		c1-3.4,2.6-4.3,5.2-4.3c0-2.3-0.5-5.1,1.7-5.2c0,0.9,1.5,1.1,1.7,0h0c-0.7-0.2-1.7,0-1.7-0.9c-3.1-0.5-2.1,3.1-5.2,2.6
		C354.2,243.9,353.5,243.7,353.4,243 M346.5,287v-6c-4.1-1-2.5-7.8-6-9.5c-1.3,1.9-4.3,2-4.3,5.2c4.6,7.9,5.2,22.8,17.2,18.1v0
		C352.7,290.5,347.7,290.7,346.5,287 M384.4,252.5c-3.5-0.6-3.9,1.8-5.2,3.4c-1.6-1.5-6.2-1.1-6.9,0.9c1.8,1.6,3.5,3.4,5.2,5.2
		c-2.2-0.4-3.3-1.5-3.4,1.7c3.6-0.7,4.4,1.3,7.8,0.9c0-1.7,2.4-1.1,1.7-3.4c-5.8-2.7,5.6-4.5,1.7-7.8l0,0h0c0,0,0,0,0,0
		C384.6,255.5,382.7,253.6,384.4,252.5 M286.1,154.3c2.8,0.8,2.7-1.3,3.4-2.6c-1.1,0-1.2-1.1-2.6-0.9
		C287.2,152.5,286,152.7,286.1,154.3 M281,155.1L281,155.1c-0.1,4.1,0.7,7.4,3.4,8.6c0.8-2.1,3.5-2.3,2.6-6
		C284.7,157.1,282.9,156.1,281,155.1 M325.8,176.7c2.5-0.8,2.6-0.8,5.2,0c0.1-3.3,3.5-3.4,4.3-6c-3.5-1.1-7.9-2.4-10.3,0
		C324.2,173.6,326.2,174,325.8,176.7 M70.7,187c10.6,1.3,7.8-11.3,7.8-19c0-16,0-32,1.7-45.7c41.3,1.5,81.1-0.6,125.8,0.9
		c0.7-0.2,1-0.7,0.9-1.7c-1-3-4.2-3.8-6-6c-47-1.3-83.6,0-128.4,0C71.7,141.1,68.6,161.8,70.7,187 M80.2,284.4
		c5.1,14.7,11.6,30,15.5,44.8c15.1,0.7,28.2,0.7,48.3,0.9c1.6,1.5,3.8,2.5,3.4,6c-3.2,2.7-8.6-1.7-10.3,1.7
		c2.5,6.7,6,12.4,11.2,16.4c7.6-4.2,17.1-6.5,26.7-8.6c-0.9-5.3-6.6-12.5,0.9-14.7c4.9-0.6,3.5,5.1,7.8,5.2c0.1-5-4-5.8-3.4-11.2
		c9.8-4.1,14.4,9.7,24.1,11.2c10.7-4,22-7.3,31.9-12.1c-4-9.7-2.9-19.3-5.2-30.2c4.2-2.3,7.8-5.5,12.1-6c4.2-0.6,8.8,2,13.8,1.7
		c2.3-0.1,8-1.5,11.2-2.6c3.7-1.3,11-6.3,12.9-6.9c13-4.2,24.7,1,37.9,1.7c-3.8-6.8-4.1-17.2-6-25.9c-4.9-1.1-7.8-4.3-12.9-5.2
		c-1.5,2.2-0.1,7.3-4.3,6.9c0.3-6-5-1.2-6.9-4.3c-3.6,3.7-9.5,4.7-14.7,7.8c-5.5,3.3-10.9,11.4-17.2,7.8c8.3-7.7,18.8-13.4,29.3-19
		c-1.6-6.9,6.9-10,11.2-13.8l0,0c2.8,0,3.3,2.5,6.9,1.7c-5.1-24.8-16.1-43.7-20.7-69c-6.4-12.6-10.9-27.1-14.7-42.2
		c-4.9-3.4-11.1-2.7-15.5,0.9c-25.5,5.3-49,17.1-71.5,22.4c2.2-1.9,3.7-4.3,8.6-3.4c-0.6-2.6,1.5-2.5,0.9-5.2
		c2,3.6,11.6,2.7,11.2-3.4c-1.9-1.8-3.8-3.7-6-5.2c1.5-1.6,2.3-4,3.4-6c-2.9-0.2-4.7-1.6-6.9-2.6c-2.2,0.6-1.6,4.1-4.3,4.3
		c1.3-6.7-11.1-0.6-16.4-3.4c-3.1,1.4-4,2.9-4.3,5.2c-0.8-2.5-1.1-3,0.9-4.3c-13.8-1.9-28.3,1-38.8-0.9c-2,0.3-1.9,2.7-3.4,3.4
		c-0.6-1.9,2.4-2.7-0.9-2.6c-3.4,1-13.2-2-16.4,2.6c0.2-1.9-0.7-2.7-2.6-2.6c-8.1,1.2-14.3-1.1-20.7,1.7c-1.4-0.4-0.7-2.7-3.4-1.7
		c-0.9,5.2-2.5,8.8,0.9,12.1c-5.2,3,0.4,7.2-2.6,11.2c2.3-0.6,1.7,1.8,2.6,2.6c-2.7,1.8-2,7.5,0,9.5c-5.9-1.7-3.6,7.8-0.9,7.8
		c-6,2.9,0.7,8.4-0.9,14.7c3.4-1.4,7.8-2,9.5-5.2c3.8,2.3,4.8-0.9,6.9-2.6c12.1,0.3,23.2-7.8,35.3-10.3c2.3-1.6,0.1-2.9,1.7-4.3
		c1.7,0.3,0.7,3.3,3.4,2.6c5.8-2.8,12.1-5.2,20.7-5.2c4.1-4.8,10.5-8.1,17.2-6c-16.6,5.8-32.6,12.2-50.9,16.4
		c-7.7,3.5-14.2,7.1-23.3,10.3c-3.8,1.4-8.6,2.9-12.9,4.3c-7.3,2.3-15.9,6.1-18.1,6c-0.3,0,0.1-2.1-0.9-1.7c0.2-0.1-0.8,1.7-0.9,1.7
		c-4.3,3.7-12.6,2.4-14.7,6.9c2.4,1.9,4.7,3.9,9.5,3.4c12.2,5.3,24.8,10.2,38.8,13.8c1.4,0.6-0.2,4.2,2.6,3.4
		c1.4-0.1,0.7-2.2,2.6-1.7c25.9,10.6,52.3,20.6,80.2,29.3c5.8-6.3,9.4-14.1,13.8-21.5c4.4-7.3,10.1-14.7,12.9-23.3
		c9.6-10.6,16.1-23.9,24.1-36.2c4-6,8.1-11.9,12.1-18.1c3.9-6.1,6.7-13.8,12.9-18.1c-4.2,17.4-15.3,27.8-20.7,44
		c-2.3,0.6-1.8,3.9-4.3,4.3c-1.3,5.4-3.8,10.7-6,13.8c-1.1,1.5-2.3,1.9-3.4,3.4c-3.2,4.3-3.5,9.7-6,14.7c-1.7,3.3-5.4,5.4-6.9,8.6
		c-0.7,1.4-0.1,3.8-0.9,5.2c-1.6,2.9-4.3,5.7-6,8.6c-4,6.8-6.7,12.5-11.2,17.2c-0.2,3.8-0.9,7.1-4.3,7.8
		c-47.7-19-94.2-39.1-143.1-56.9c-1.1,4.8,1.8,9.5,3.4,13.8c1.8,4.8,2.6,9.6,4.3,14.7c1.8,5.3,5.6,10.2,7.8,15.5
		C72.6,255.6,76,272.5,80.2,284.4 M143.1,366.3c-3.7-6.6-8.1-12.6-12.1-19c-9.9,1.2-23.1-0.8-35.3,0c-5.9,4.7-8.8,12.5-12.9,19
		C104.3,365.5,120.6,368.8,143.1,366.3 M103.4,373.2c1.6,1.5,5.7,0.6,8.6,0.9v-5.2C108.6,366.7,102.3,368,103.4,373.2 M101.7,368
		c-5.1-0.8-8,0.6-8.6,4.3C95.6,375.5,103.6,374.5,101.7,368 M81,329.2c1,0.2,1.3,1,1.7,1.7c4.7,0,5.8-2.8,10.3-0.9
		c-2-5.4-2.5-12.4-6-16.4c-2.8,2.9-1,5.2-6,6v0C86.8,321.4,79.3,324,81,329.2 M84.5,302.5c-4.8,1.8-1.3,7.8-2.6,13.8
		c2.1-2,5.4-2.7,5.2-6.9c-1.2-1.9-2.1,1.1-2.6-0.9c1-0.2,1.3-1,1.7-1.7C84.3,306.7,84.3,304.7,84.5,302.5 M84.5,339.6
		c-3.2-0.5-3.5,6.2-1.7,7.8c0.9-4.6,5.5-5.4,5.2-11.2c-3.1,0.7-4.2-1.9-6,0C81.1,338.9,84.7,337.3,84.5,339.6 M108.6,336.1
		c-1.1-1.2-4.1-1.2-5.2,0c0.2,2.8-1.4,5.1-1.7,9.5C108.6,347,106,339,108.6,336.1 M110.3,345.6L110.3,345.6l3.4,0
		c-1-5.4-0.2-5.9,1.7-9.5c-1.2-0.3-1.6-1.2-3.4-0.9C112.5,339.4,107.8,340.6,110.3,345.6 M69,370.6c4.1,0.9,4.1-5,6-8.6
		c1.6-2.9,3.7-4.7,4.3-7.8c0.7-3.5,1.9-15.1,0.9-18.1c-0.7-2-5.4-2.1-4.3-4.3c1.5-1.7,3.7-2.6,4.3-5.2c-1.6-18.6,2.6-42.3-8.6-57.7
		C67.9,297.9,71.4,342.2,69,370.6 M516.3,376.6c-0.9-5.8-6.8-3.2-10.3-3.4l0,0c-24.2-1.9-59.6-0.9-89.6,0
		c-38.2,1.2-76.1,2.6-112,2.6c-40.4,0-82.8,2.3-122.4,1.7c-29.9-0.4-59.9,0.9-88.8,0c-23.4-0.8-46.8-1.5-70.7-1.7
		c-5.1,0-14.1-2.4-16.4,5.2c5.5,4.8,12.9,3.5,18.1,3.4c6.6-0.1,13.4-1.7,21.5-1.7c25.3-0.1,50.7,1.4,75.8,0.9
		c24.8-0.5,49.5-0.2,74.1,0c96.7,0.8,200.2-4.3,305.1-4.3C505.5,379.2,513.1,381.3,516.3,376.6 M326.7,293.9
		c-10.5-0.8-22.9,7.6-34.5,9.5c-3.3,0.5-8.4,0.5-11.2,0.9c-16,2.2-33.3-8.4-34.5,6c3.2-1.1,3.8-4.8,6.9-6c2.4,0.1,5.9-0.7,6,1.7
		c6.1-4.4,14.5,2.4,22.4,1.7c9-4.4,20.5-3.6,29.3-9.5c6.5-1.2,13.7-2.5,19.9-1.7c0,0-0.1,0-0.1,0C329.5,296,328.3,294,326.7,293.9
		 M475.8,331.8c-3-7.8-8.9-11.8-16.4-14.7c2.9,6.2,8.2,4.1,12.1,8.6c2.1,2.4,3.4,5.5,4.3,8.8C475.9,333.6,476.1,332.6,475.8,331.8
		 M475.8,336.1c0.2,0.9,0.6,1.8,1.1,2.8c-0.3-1.5-0.7-3-1.1-4.4C475.7,335.1,475.6,335.7,475.8,336.1 M269.8,343.9
		c4.4-2.5,9.7-4.5,15.5-7.8c9.9-5.6,21-10.5,35.3-12.1c-4.6-1.3-7.5-0.3-12.9,0.9c-19.1,4.1-29.2,19.2-53.4,18.1
		C255.7,345,266.3,345.8,269.8,343.9 M359.4,141.3c4-0.5,4.5,2.4,5.2,5.2c1.3-0.1,3.2,0.3,3.4-0.9c-1.9-0.7-4.8-2.1-2.6-4.3h0
		C363.9,140.5,360.1,138,359.4,141.3 M329.2,59.5c0.1,1-1.3,1.3,0,1.7c0.8-1.5,2.4-2.2,1.7-5.2c-2.2-0.7-4.6-1.1-4.3,2.6
		C327.7,58.7,329.1,58.5,329.2,59.5 M378.4,75.8L378.4,75.8c3.7-8.8-14.9-9.6-12.9-1.7c0.9-3.1,4.7-3.4,6.9-5.2
		C375.1,70.5,376.6,73.3,378.4,75.8 M200,84.5c-2.6-0.5-6.8,3-6,6.9c3.3,3,6.9,5.8,12.1,6.9c1.4,0.6-0.2,4.2,2.6,3.4
		c0-8-11.3-4.8-12.1-12.1C196.2,87.1,201.2,84.7,200,84.5 M311.1,93.9c-2.2-2.4-6.6-2.6-8.6-5.2c-3.4,0.9-10.6-2-11.2,1.7
		C300.5,87.5,306.3,93.4,311.1,93.9 M291.3,90.5L291.3,90.5L291.3,90.5z M289.6,137.9c1.6,0.4,2.2,1.9,4.3,1.7
		c0.4-2.7-2-3.5,0.9-4.3c3.8-1.3,5.5,11,4.3,12.1c-1.9,1.7-6.9-1.9-6,0.9h6c0.9,1.9,2,3.8,3.4,5.2c-4.6-6.7-0.2-12.2-0.9-19
		c-8.3,0-12.5-7.8-7.8-13.8c-1-1.3-2.8-1.8-2.6-4.3c1.2-2.2,2-4.9,5.2-5.2c0.3,7.3,3,8.9,0,14.7c4.8-0.3,1,5.4,5.2,1.7h0
		c0.3,3.3,1.2,2.7,2.6,6c2,0.4,0.4-4.1,0-5.2c-1.3-3-5.1-6.1-5.2-8.6c0.8-1.3,0.7-3.3,3.4-2.6c-0.6-8.4,5.9-9.6,6-17.2H306
		c-1.9,2.8-0.9,11.3-6.9,13.8c-0.4-5-0.9-10-2.6-13.8c-3.1,1.3,0,3.8-0.9,7.8c-6.7,5.1-8.6,18.2-3.4,25
		C290.3,133.5,290.8,136.5,289.6,137.9 M280.1,116.4c-3.5-5,1.1-7.5,0.9-13.8c2,0.2,3.2-0.2,3.4-1.7c-2.1-0.4-1.9,1.6-4.3,0.9h0
		C280.7,107.6,274.4,112.8,280.1,116.4 M313.7,125.8c-0.4,1.1-1.1,1.8-2.6,1.7c-1.1-4.9-5.2-6.8-7.8-10.3c1.1,6.6,7.9,7.6,7.8,15.5
		c3.7-2.9,8.5-0.9,13.8-0.9c2.1-2.8,6.1-3.7,10.3-4.3c-0.1,3.2,3.5,2,5.2,3.4c2.2,1.9,2.1,5.8,5.2,6.9c0.6-2.6,3.2-3.2,4.3-5.2
		c-2.6-3.3-5.7-4.2-11.2-2.6c1.2-3.5-1.9-2.7-1.7-5.2c-4.7-0.9-5.3,3.8-6.9-0.9c-0.1,2.2-3.2,1.4-4.3,2.6c-0.2,1.6,1,1.9,0.9,3.4
		c-2.1-0.4-1.9,1.6-4.3,0.9c-0.3-2.9-5.3-7.2-0.9-9.5c0.3,1.8,5.5,3.1,6,1.7c-3.5-2.1-3.4-5.3-7.8-2.6c1-2.7,0.1-2,0-5.2
		c3.9-0.4,5.9-2.8,9.5-3.4c4.3,2.4,3.3,13.4,11.2,9.5c-1.9-1.4-1.3-7.9-1.7-6c-1,0.1-0.9,1.4-0.9,2.6c-2.4-0.7-2.2,1.2-4.3,0.9
		c1.9-2.4,3.5-5.2,4.3-8.6c-8.9-0.5-25.2,1.4-19.8,12.1c-2.9,1.1-6-1.9-6.9,0c1.1,1.2,3.7,0.9,6,0.9c0.4,2.3,0.7,2.9,2.6,5.2
		c-3.6-0.7-4.1,1.7-6.9,1.7C311.9,127.9,316.6,127.1,313.7,125.8 M374.1,149.1c0.1-3.3,2.5-4.4,4.3-6c0.5-5.1-0.5-8.7-3.4-10.3
		c-0.6,3.5,0.1,7,2.6,9.5c-1.5,2.3-5.1,4-6,0C370.4,143.8,371.5,148.5,374.1,149.1 M339.6,146.5c-0.9,0-2.2,0.4-0.9,0.9
		c1.1,0,1.2-1.1,2.6-0.9c-0.3-5.2-3.4-7.6-6-10.3C334.3,142,339.9,141.3,339.6,146.5 M162,147.4c0.4-1.9,4.7,0.1,4.3-2.6
		C164.7,142.3,160,146.4,162,147.4 M368,161.2c-1.6,2.3-8.3,0.7-6.9,1.7c1.2,1.3,2.2,3,4.3,3.4c-0.7-4.8,3.3-3.1,5.2-1.7
		C371.9,161.3,366.8,164.4,368,161.2 M353.4,162.9c3,7.8-6.6,10-11.2,12.9C345.2,170.8,344.5,162.1,353.4,162.9 M353.4,165.5
		c-0.7-0.2-1-0.7-0.9-1.7c-2.6,1.5-6.6,1.4-6.9,5.2c0,0.9,0.7,1,0.9,1.7C350,170.1,352.3,168.5,353.4,165.5 M374.1,189.6
		c-0.6-2.4,1.7-1.7,1.7-3.4c-3.5,0-5.2-6.2-7.8-4.3c3.2,2.4-4.5,1.2-4.3,3.4C368.5,184.6,370.8,185.4,374.1,189.6 M373.2,212
		C373.2,212,373.2,212,373.2,212L373.2,212L373.2,212z M377.5,182.7c1.6-0.4,1.6-2.5,4.3-1.7c-0.7,4.9,0.8,4.3,4.3,3.4
		c-0.3,4.6-6,3.7-4.3,10.3c-2.4-0.6-1.7,1.7-3.4,1.7c0.1,7-6.5,7.3-5.2,15.5c-1.5-2.2-3.7-3.7-5.2-6c0.4-3.1,2.3-4.6,1.7-8.6
		c5.3,3.8,3.7-2.6,9.5-2.6C374.5,190.8,379.5,189.6,377.5,182.7 M377.5,197.4c-2.4,2.2-6.5,2.6-6,7.8
		C375.1,204.2,376.3,200.8,377.5,197.4 M312.9,203.4c-5.4,0.7-5,7-8.6,9.5c2.6,1.3,3.4-0.3,5.2,0.9c-0.7,3.6,1.7,4.1,1.7,6.9
		c-2.8,3.3-2.1,4.8-2.6,10.3c6-1,0.6-3.4,1.7-8.6c1.3-2,3.6-0.9,4.3-1.7c-4.4-1.9,2.1-3,4.3-3.4c-1.4,1.3-1,3.9,1.7,3.4
		c0.6-2.6-1.5-2.5-0.9-5.2c-4-0.8-5.2,1.1-7.8,1.7c0-0.9-0.7-1-0.9-1.7c-0.6-2.4,1.7-1.7,1.7-3.4c-1.3-0.1-3.2,0.3-3.4-0.9V206
		c1.2,0,1.9-0.4,2.6-0.9c2.3,4.6,10.1,1.5,6,7.8h3.4c-0.3-3.7-0.1-7,3.4-6.9l0,0c1.7,4.2-0.9,6.6,0,8.6c2.7-2.8,1.5-7.2,0-10.3
		C321.3,207.7,316,206.9,312.9,203.4 M398.2,299.1c1.2-0.1-1-5.3,2.6-5.2h0c1.4,0.6-0.2,4.2,2.6,3.4c-0.3-3.2-2.4-4.5-5.2-5.2
		C399.5,295.3,394.4,299,398.2,299.1 M358.5,306.8C358.5,306.8,358.5,306.8,358.5,306.8L358.5,306.8L358.5,306.8z M358.5,306.8v6.9
		c-5.7,2.6-6.7,10-7.8,17.2c-3.5,3.2-6,7.9-10.3,10.3c-4.7,2.6-10.2,1.7-14.7,5.2c13.4-1.2,21.8-7.5,27.6-16.4
		C351,319.2,363.4,314.6,358.5,306.8 M414.6,316.3c11.8,18.8,39.2,18.1,49.1,39.6c-0.8-8.1-13.4-20.6-25-22.4
		c-1.1-2.6-4.9-2.5-6-5.2h-5.2c-3.5-7.7-11.1-11.4-13.8-19.8v0C412.7,312.5,417.3,313.3,414.6,316.3 M343,312
		c-4.5,2.9-14.2,8.3-21.5,11.2C331.2,322,337.8,317.7,343,312 M272.4,354.2L272.4,354.2c2.1,5-11.2,1.3-12.9,5.2
		c23.2,1.1,29.9-15.8,45.7-22.4c3-1.3,6.1,0.7,8.6-3.4c-18.6,2.1-25,16.4-40.5,21.5C274.8,352.2,269.4,353.7,272.4,354.2
		 M218.9,47.4c3.5-1.5,2.4-5.1,0.9-7.8h-3.4C214.6,42,215.1,47.9,218.9,47.4"/>
</g>
</svg>
