<?xml version="1.0" encoding="utf-8"?>
<!-- Generator: Adobe Illustrator 19.0.0, SVG Export Plug-In . SVG Version: 6.00 Build 0)  -->
<svg version="1.1" id="Layer_1" xmlns="http://www.w3.org/2000/svg" xmlns:xlink="http://www.w3.org/1999/xlink" x="0px" y="0px"
	 viewBox="0 0 385.6 337.4" style="enable-background:new 0 0 385.6 337.4;" xml:space="preserve">
<style type="text/css">
	.st0{fill:#A11C1C;}
</style>
<path class="st0" d="M227.1,286.2l-3.1-2.9l-1.7-3.5l-0.8-5.9v-9.3l1.1-9.4l2.6-10.5l4.1-11l2.5-5.4l4.8-6l3.3-3l0,0l1.8-1.3
	l2.6-0.9l2.9-0.2l3,0.9l3,2.4l1.8,5.1l0.6,6.7l-0.4,8.9l-1.8,9.9L251,260l-5,11.9l-5.2,8.1l-3.7,3.9l-3.1,1.8l-3.1,0.8L227.1,286.2z
	 M243.8,216.3l-4.5,1.8l-1.5,1.3l-1.3,1.5l0,0l-5.2,6.8l-5.3,11.3l-3.5,11.4l-2.2,13.3l0.2,10.3l0.8,5.9l1.3,3.7l2.6,2.9l4.1,1.5
	l4.7-0.6l3.7-1.9l6.8-8.2l4.9-8.1l4.3-11.2l2.2-10l1.2-9v-9.9l-1.2-5.2l-2.4-4.6l-3.5-2.7l-2.5-0.4H243.8z M177,202.8L177,202.8
	L177,202.8L177,202.8z M195.6,246.8l1.6-20.8l1.4-10.6l0,0l1.1-0.8l2.2-0.5l1.8,0.5l0.9,1.8l0.7,4.6l0.3,10l-0.5,8.1l-3.7,8.4
	l-3.8,4.3l-1.7,0.3L195.6,246.8z M187.5,210.9l1.1,0.2l4.2,2.2l2.4,2.4l0.5,2.5v12.6l-1.9,17.4l-1.1,4.3l-2.6-0.8l-3-1.9l-2.7-4.3
	l-2.4-3.8l-1.7-8.1l0.5-7.6l2.2-9.5l2.7-5.4h0l0,0l0,0L187.5,210.9z M193.2,212.3l-3.5-2.5l0,0l1.3-0.8l2.6-0.3l3.5,0.5l1.9,0.8
	l1.5,1.4l-0.5,0.8l-1.5,0.5l-1.7,0.6L193.2,212.3z M222.9,200.6l-8.2,4.9l-4.9,1.6l-4.3,1.6l-1.5,2.7l-1.5,0.3l-1-1.2l-1.9-1.8
	l-3.3-0.8l-2.7-0.3h-3.2l-2.2,0.5l-1.6-0.2l-2.4-1.7l-3.5-1.9l-3.7-1.6l4.5,3.1l4.3,3.1l-1,0.8l-2.7,5.4l-2.2,10l-0.3,8.6l1.3,7.9
	l3.3,5.7l3.8,4.6l3.5,2.4l3.7,0.5l3-0.8l3.2-3.2l4.3-8.4l1.1-8.6l-0.2-10.3l-1.2-4.9l-0.5-2.5l0.5-2.7l1.6-1.6l7.1-4.5l8.4-3.9
	l4.5-3l6.5-4.3L222.9,200.6z M94.8,196.2l1.2-2.1l2.5-2.3l3.1-0.6l2.2,0.2l2.5,1.5l3.2,3.4l1.5,4.5l1.2,5.4l0.2,8.3l-0.7,7.5
	l-2.4,6.6l-2.1,3l-2.7,1.4l-2.9,0.4l-2.9-0.9l-2.7-3.1l-1.8-4.9l-1.5-6.1l-0.2-7.1l0.4-6.2l0.9-7l0,0L94.8,196.2z M98.5,190.7
	l-2.3,1.9l-2.7,3.6l-1.2,5.2l-0.8,6.3l0,0l0.2,9.6l1.2,5.8l1.7,5.8l2.3,3.8l2.7,1.9l4,0.4l3.9-1.3l2.3-2.9l2.2-4.8l1.5-7.6l0.3-7.1
	l-0.8-7.9l-1.8-5.8l-2.9-4.3l-3.6-2.8l-3.2-0.5L98.5,190.7z M158.3,192.2l8.9,6.2l5.4,2.4l-7.2-4.6l-9.7-6.9l-4.1-1.2l-1.5-0.5
	L158.3,192.2z M150,187.6L150,187.6L150,187.6L150,187.6z M248.3,186.1l-1-1.9l-0.7-3.4l0.4-2.9l0.7-2.3l1.3-2.3l1.8-2.3l0,0
	l1.1-1.1l2.5-1.5l2.7-1.1l3.3-0.9l3.8-0.6h4.4l3.3,0.7l3.5,1.2l2.3,1.6l1.8,2.2l1.2,2.8l0.2,2.9l-0.2,3.9l-0.6,3.8l-2.1,4.5
	l-3.5,5.6l-3,4.6l-2.9,2.9L266,204l-4.2,0.5l-4.5-0.5l-2.6-1.9l-1.9-3.2l-2.1-5.5l-1.2-4.2l0.2-0.9l15-8.2l-15.8,7.2L248.3,186.1z
	 M263.2,165l-5.7,1.3l-5.6,2.5l-3,3.2l-2.2,3.9l-0.7,4.2l0.5,4.1l1.5,2.6l0.7,1.3l-3.4,2l-4.2,1.9l-4.4,2.5l0,0l2.8-1.2l5-1.6
	l2.6-1.7l1.7-1l0.4,2.5l1.9,5.7l2,4.3l2,2.4l2.9,1.5l3.9,0.4l4-0.5l2.4-1.2l3.5-3.2l4.7-6.2l3.5-6.9l1.3-4.6l0.7-4.2l-0.2-4.3
	l-1.2-2.6l-2.1-3l-3.3-2.2l-3.4-1.2l-3.9-0.5H263.2z M170.1,151.9l7.9-1.2l9-0.4l7.2,0.4l7,1.5l6.5,2.6l3.3,2.5l1.2,2.5v3l-0.8,2.9
	l-2.5,2.9l-4.6,2.4l-6.6,1.6l-10.5,1.5h-11.1l-9-2.1l-5.6-1.8l-3.3-3.1l-1-2.6l-0.2-2.7l0.8-2.4l2.3-2.2l2.8-2.3l5.1-2.2l0,0
	L170.1,151.9z M179.3,149.7l-4.9,0.5l0,0l-6.6,1.4l-5.3,2.2l-4.9,3.5l-2.2,3.1l-0.4,3.5l1,3.7l3.5,4l6.3,2.6l9.3,1.9h11.2l11.8-1.3
	l9.8-3.1l6.4-4.2l0.9-4.3l-0.4-3.9l-1.6-2.5l-3.6-2.9l-6.7-2.5l-6.9-1.6l-7.9-0.8L179.3,149.7z M360.7,136.9l2.6-0.4h2l1.9,1.2
	l1.6,3.7l0.8,5.6v8.3l-0.8,8.6l-2.2,10.2l-3.8,10.8l-4.2,7.1l-3.5,3.6l-3.2,1.8l-2.2,0.4l-2.8-1.4l-1.5-3.1l-0.8-6.2v-8.8l1.5-9.9
	l2.6-9.6l2.5-8l4-7.2l3.2-4.4l0,0L360.7,136.9z M361.2,135.7l-3.1,2.2l-3.7,4.5l-4.3,7.9l-3.4,10.5l-2.5,11.8l-0.8,9.8l0.5,7.6
	l1.2,4.2l1.9,3.5l2.2,1.2l3.3,0.2l2.9-1.4l3-2.6l4.2-6.4l4.1-9.4l2.6-10.3l1.6-11.3l0.2-9l-1.4-7.2l-1.1-3.4l-1.8-2l-2.9-0.6l0,0
	L361.2,135.7z M334.3,121.2l5.5-1.3l4.2-0.2l2.3,0.3l3.2,1.5l1.5,1.8l0.8,3.1l-0.2,3.8l-0.7,3.6l-1.7,3.1l-3.1,2.8l-4,2.6h-2.9
	l-2.1-0.8l-1.2-1.3l-1.2-3.1l-1-2.9l-1-2.9l-2.2-2.6l-0.8-1.6l-0.3-1.5l0.8-1.7l1.5-1.2l0,0L334.3,121.2z M341,119.1l-3.3,0.4
	l-3.5,1.1l-3.2,1.2l-1,1.2l0,0l-1.5,1.5l-0.5,2.1l0.5,2.2l1.7,2.5l2.5,3.5l1.8,4.3l1.2,3.2l2.4,1.3l3.8-0.2l3.6-1.7l4.6-4.5l1.4-3
	l0.9-2.9l0.3-3.1l0.2-1.9l-0.5-2.5l-1-2.2l-2.1-1.7l-2.1-0.9l-2.8-0.2L341,119.1z M23.1,105.3l6.1-0.8l4.9,0.4l3.4,2l0.6,3.1l-1,3.5
	l-1.3,1.6l-1.7,2l-1.1,3.1l-2.7,10.9l-1.1,6.6l-3.3,3.7h-5.2l-3.4-2.8l-1.7-4.3l-1.1-7.5v-6.2l2.4-8.9l1.7-4.1l2.5-1.4v0L23.1,105.3
	z M20.7,104.3l-2.1,1.1v0l-1.7,1.2l-1,3.1l-1.6,8.3l-1.1,8.9l1.1,6.7l2,6.6l3.4,3l3.7,0.4l5.2-1.3l2.7-3.5l1.7-7.1l1.1-5.1l0.9-4.1
	l0.8-2.4h1.3l6.5,4.1l3.1,1h0.7l-2.4-2.3l-5.8-3.2l-1.7-0.6l-0.8-1.8l1.8-2.7l1.4-2.4v-2.4l-1.8-3.4l-2.3-2l-5.5-1L20.7,104.3z
	 M10.2,101.9l2.7,2.4l3.1,1.3l-0.3-0.6v0l-4.4-3.5l-2.7-2L10.2,101.9z M62.3,100.5l-3.1-1l-1.7-1l-0.4-1.4l0.4-1.7l2.1-2l4.4-1.8
	l0,0l2.1-0.3l7.5-1h6.1l4.2,0.6l2.3,1.1v1.8l-1.4,1.9l-2.3,2.2L79,99.1l-5.8,1.4l-5.9,0.7L62.3,100.5z M69.8,89.6L69.8,89.6
	l-6.5,1.3l-4.4,1.8L56.5,95l-1,2.4l0.6,2.4l3.5,1.7l5.1,1.1l6.5,0.7l8.8-2.1l6.6-3.3l2.1-3.2l-0.4-2.4l-1.7-1.7l-4.1-1l-6.9-0.3
	L69.8,89.6z M267.1,97.9l-8.3-2.1l-5.4-2.8l-2.6-1.9l-0.6-1.9v-1.9l1.2-2l2.6-2.1l2.6-0.9l0,0l2.2-0.8l4.7-0.8l4.9-0.3l5.9,0.3
	l6.6,1.2l4.7,1.3l2.8,1.5l2.1,1.5l0.9,1.9l0.6,2.1v2.1l-1.2,1.7l-1.9,1.9l-4.2,1.7l-4.9,1.2l-5.2,0.2L267.1,97.9z M262.3,80
	l-2.9,0.5l-3.8,1.2l0,0l-2.1,1l-2.6,1.9l-1.7,2l-0.2,2.4l0.8,2.7l2.6,2.2l4.7,2.2l8.3,2.3l10.5,1.5l8.1-0.8l6.6-2.6l2.8-3l0.5-2.2
	l-0.8-3l-2-2.9l-2.2-1.9l-4.5-1.5l-8.3-1.6l-8.9-0.6L262.3,80z M111.3,264.3l3.7-6.9l4.9-5.2l5.8-3.6l5.9-1.5h4l4.8,1.5l3.5,3.1
	l3,4.5l3.4,7.8l2.2,9.2l1.4,9.3l0.8,10.8l-0.6,9v1.4l-7.4-4.9l-15.8-11.8l-17.7-14l-2.9-1.9l-1.1-1l0,0L111.3,264.3z M338.1,234.3
	l0.9-4.9l2.5-4.9l3.2-3.6l4-2.2l3.1-0.7l3.3,0.7l2.3,2l1.2,2l-6,4.5l-13.6,10.1l-1.8,1.2l0,0L338.1,234.3z M323.8,206.9l0.7-8.9
	l0.9,0.3l2.4,2.4l1.4,3.9l0.6,5.5l-0.3,6.2l-2.4,6.6l-2.6,5.2l-2.7,2.9L323.8,206.9z M42.3,205l-2.4-5.4l-3.5-9.3l-0.3-8.2l1.4-8.2
	l2.4-7.1l2.6-3.4l3.2-3.4l2.6-1v0v0l-0.2,2.4l-1,17.3l-0.4,17.7L46,209.4L42.3,205z M85.5,156.8l-1.4-0.5l-1.2-1.2l-0.5-2l0.4-4.2
	l0.8-2.7l1.2,0.2l9.3,5.6l-1.5,2.2l-1.3,1.3l-1.5,1l-1.8,0.5L85.5,156.8z M84.7,144.6L84.7,144.6L84.7,144.6L84.7,144.6z M5.8,168.9
	l-0.4-10.6l0.7-12.5v-2.1v0l3.8,4.4l1.8,7.9l0.2,7.9l-1,5.7l-1.7,2.7l-2.7,2.1L5.8,168.9z M87.7,141.9l3.9-2.3l4.8-2.1l4.2-1.2
	l7.8-0.5l8,0.5l6,1l4.5,1.2l2.2,1.8l0.9,2l-0.2,1.9l-1.4,1.8l-2.2,1.4l-4.3,1.5l-3.6,0.7l-5,0.5H108l-4.2-0.2l-3.4,0.2l-2.9,0.3
	l-2,0.9l-0.8,0.5l-7.8-5.2l-2.1-1.9L87.7,141.9z M177.5,134.7l-2.1-2.2l-0.8-2.7v-2.2l1.8-2.1l2.5-1.5l0,0l4.5-0.4l5.6,0.9l3.5,0.8
	l1.8,1.9l0.5,2.4l-0.5,2.3l-2.5,1.9l-3.7,2l-6.1,0.4L177.5,134.7z M116.7,129.6l21.7-7.5l27.1-8l0,0l0,0h2.9l8.1,2.9l9.1,4.6
	l5.8,1.8l-8.7-0.7l-4.6,0.2l-4.3,2.5l-1.9,3.5l0.7,2.9l2.9,3.5l4.7,2.2h7.3l5.7-1.6l2.9-2.9l1.8-2.9l0.2-3.1l5.6,2.5l14.3,6.4
	l31.6,13.2l27.7,13.2l2.8,2.4l2.2,2.8l0.7,5.1l0.5,8.6l-4.6,51.7l-5.8,44.8l-2.8,11.6l-5.8,3.4l-27.6,17.3l-29.3,17.8l-8.6,2.3
	l-1.7-1.2l-2.3-9.8l-1.2-52.2l-1.6,40.7v20.7l-1.2,0.5l-4.5-2.9l-6.9-4.6l-17.8-12.1l-6.4-4.9l0.6-2.6l0.2-4.2v-3.8l-0.2-4.3
	l-0.4-4.9l-0.8-6l-1.2-7.9l-2.5-9.3l-2-3.8l-2.5-5.2l-2.5-3l-2.8-2.4l-3-1.4l-4.5-0.2l-4.2,0.4l-5.2,1.8l-7.8,5.8l-5.2,7.9l-3.2,8
	l-24-16.2l-1.7-3.5L79.4,233l1.7-63.2l1-13.9l1.4,1.4l2,0.8l2.2,0.1l2.5-0.8l1.5-0.8l1.9-2.1l2-2.3l2.5-0.9l3.9-0.2l4.2,0.2l11-0.6
	l4.2-0.6l5.3-1.7l3.5-2.1l1.4-2.3l-0.2-2.2l-1.8-2.9l-4.8-1.9l-7.2-1.8l-6.3-0.5l-4.8,0.1l-5.2,0.4L116.7,129.6z M267.8,114
	L267.8,114L267.8,114L267.8,114z M271.4,112.3l4.9-1.7l7.8-0.5l8.3,1.1l6.8,1.2l4.5,2.1l2.5,2l1.2,2.1l0.4,2.3l-0.9,3.5l-1.6,2.2
	l-2.9,1.3l-2.3,0.5l-6.7-2l-9.3-4.2l-14.2-7.3l-2.1-0.9L271.4,112.3z M73.6,247.8l-5.7-5.7l-4.8-5.2l-9.3-5.7l-2.6-3l-1.7-3.6
	l-0.5-4.8l-0.5-17.9l2.2-44.2l1.4-27.5l1.3-5.7l0.9-1.8l3.5-2.2l18.4-6.6l34.2-11.8l12.7-4h0l2.2,1.4l3.5,2.6l7.5,4.3l8.3,1.8
	l3.5-0.5l4.8-2.2l4,1.4l4.8,1.7l4.4,1.3l-22.4,7.5l-20.5,8.8l-29,8.7l-10,5.8l-2.2,2.1l-23.2-13.6l1.7,1.9l20.2,13.5l0.9,2.2
	l-1.4,7.9L78,187.8l-1.3,26.3l0.8,30.2l2.2,7.5L73.6,247.8z M274.1,287.7l2.2-10.8l3.9-31.4l3.7-28.7l2.7-46v-3.7l-3.7-4.9l-6.6-2.7
	l-57.4-25.9l-23.2-10.8l-21.1-9.3l4.3-1.1l6.5-2.7l7-2.6l5.4-3.9l2.7-4.3l1.1-5.9l0,0l5.4-2.7l9.8,3.8l28.1,11.9l28.7,13.5
	l27.5,12.5l13.6,8.7l3.8,4.2l-1.2,0.5l-11.9,6.6l-15.1,9.6l6-2.2l15.7-7.5l8.6-3.9l2.2,5.4l0.5,9.3l-0.5,35l-4.3,37.9v21.1l-1.7,4.3
	l-9.1,7l-14.7,9.7l-11.3,8.7l-7.6,2.7V287.7z M333.4,97.1l-5.3-1.4l-3.9-2.1l-1.9-2.4l-0.8-2.5l0.2-2.3l0,0l0,0l0,0l1.7,0.1l6.8,1
	l14.6,4.3l6.1,1.9l-1.3,1.2l-3.2,1.4l-3.4,0.6l-4.6,0.4L333.4,97.1z M167.7,105.5l-3-3l3-2.7l1.5-3.1l3.5-7l4-3l5.6-4.5l0,0l1.5,0.7
	l0.5,5.7l-1.5,6.4l-2.8,5.7l-5.2,5.1l-2.3,0.4L167.7,105.5z M39.5,215.8L26.8,205l-11.5-9.6l-1.9-1.9l-1.9-0.8l-2.3-3l-1.5-6.2
	l-1.1-8l1.5-0.8l2.3-2.3l1.5-2.6l1.5-7.7l-0.4-5.7l-2.3-9.6L7.6,143l-2.2-3.5L3,118.5L2.7,98.6l1.5-3.5l1.6-1.5l4.2-0.9l10.8-2.3
	L50.2,84l25.7-5.8l0,0l3.5-0.7l5.7,1.5l11.1,3l9.6,4.6l2,3.1l8,4.6l4.6,1.5l-5.4,2.7l-22.2,8.1l-18.4,6.5l-16.1,5l-4.6,2.3l-1.9,2.2
	l-1.5,9.6l-1.5,24.9L46,158l-4.9,4.9l-3.5,5l-1.9,9.1l-0.8,7.7l1.5,9.9l3.5,8.5l4.5,7.2l1.9,3.1v6.2L39.5,215.8z M206.7,88.4
	l1.2-1.2l9.1-3.2l4.6-3.3l4.9-3.3l4.9,1.9l6.8,0.3l-8.3,2.2l-11.6,4.5L206.7,88.4L206.7,88.4z M242.7,102.9L218,90.7l0,0l-1.5-1.4
	l17.4-5.3l20.9-8.3l15.4-4.9l6.3,1.5l10.6,2.9l21.3,6.3l11.7,4.4v2.9l0.8,2.7l3.5,3.4l5.8,2.5l5.9,1l6.2-0.5l7.2-1.5l3.9-1.9
	l11.1,2.5l13.6,3.9l2.9,2.4l-1,1.5l-4.3,3.4l-18.9,11.1l22.3-11.1h1.9l0.9,1.8v3l-0.4,7.7l-1.5,21.4l-0.5,9.6l-3.4,23.1l-0.9,29.1
	l-0.5,4.9l-2.4,2.9l-4.8,5.3l-7.8,5.3l-0.9-1.5l-3.5-2.4l-2.9-1h-3.4l-3.9,1.9l-5.2,5.4l-1.9,4.8l-1.5,6.8v2.5l-8.3,6.7l-7.3,5.3
	v-8.2l0.5-10.2l2.5-1.5l2.4-3.9l2.5-5.3l1.9-5.8v-4.9l-0.5-5.9l-2.4-6.2l-3.5-2.5l0.6-33.8l-0.6-11.6l-1.9-5.9l6.7-5.8l-8.7,2.9
	l-1.5-1.9l-4.2-3.3l-8.3-4.9l-5.3-3.4l3.9-0.5l1.9-1.4l2-3v-3.9l-1.5-3.9l-3.4-2.9l-4.9-2l-8.2-1.9l-9.3-0.5l-9.6,1.5l-5.9,2.9
	L242.7,102.9z M144.2,96.5l-1.9-3.1l-0.5-3.1l0.9-0.5l2.3-0.8l3.3-2.2l3.3-3.2l4-5.9l4.5-7.5l0,0l0,0l0,0l0.9,0.5l0.9,2.9l0.8,3.5
	l-0.3,3.5l-1.4,5.1l-3.3,5.5l-4.9,4l-6.8,2.9L144.2,96.5z M175.6,69.9l3.5,1.7l2.3,2.6l1.5,3.5l-1.9,1.7l-3.2,2.5l-4,3.5l1.7-5.2
	l0.5-5.1l-0.5-3.8l0,0L175.6,69.9z M142.5,85.4l1-3.5l1.5-3.3l3.7-3.5l7.1-4l0,0l1.8-1.2l-0.2,2.6l-1.6,3.2l-2.2,4l-3.8,4.3
	l-3.7,2.8l-3.8,0.7L142.5,85.4z M101.4,81.6l-13.6-4.9l-7.2-2.9l2.5-1.5l10-2.4l10.6-1.1l0,0v0h0l-0.5,1.3l-1.3,3.2l0.6,4.8l3.1,5.3
	L101.4,81.6z M151.2,100l-3.5-1.4l4.9-1.2l3.1-1.7l3-2.5l2.6-2.6l3.1-6.6l1.5-8.6l-1.5-7.5l0,0l1.2,0.5l2.3,0.9l2.6,0.2l2.4-0.9
	l0.7,4V79l-0.9,6.9l-2.9,6.9l-2.4,2.5l-3.9,2.3l-4.6,2.2l-3.9,0.5L151.2,100z M177.4,68.7l3.5-1.2l3.4,0.5l5.2,2.3l3.2,2.9l3.3,4.5
	l2.1,4.5l1.4,6.6v5.9l-1.9,4.5l-4.9,4.5l-6.6,2.8l-6.9,1.6l-6.6,0.3l4-1.5l2.5-3l2.1-3.6l2.5-7.3l1.4-7.8l-0.5-6.2l-2.2-6.3
	l-3.5-3.1l0,0L177.4,68.7z M142.8,105.9l-5.7-1.2l-5.4-3.1l-4.2-3.1l-1.9-5.6l-0.7-4.5l1.5-5.4l2-5.6l3.6-4l6.6-5.4l6.9-2.6l8.7-1.2
	l6.2,1.6l0,0l2.8,1.2l-4.5,0.9l-4.8,1.9l-5.4,3.8l-5.2,4.7l-3.1,5.2l-1.2,6l0.6,6.7l2.2,4.6l4.5,3.3l3.5,0.5l-3.2,1.4L142.8,105.9z
	 M136.2,63.8l5.4,1.2l-3.5,2.2l-3.8,2.3l-4.7,3.8l-3,5.6l-2.4,5l-4.2-2.4V80l0.5-3.2l1-3.5l2.1-4l3.8-3.3l6.9-1.9L136.2,63.8z
	 M239.4,79.6L239.4,79.6l0.5-0.4l5.2-3.8l4-3.6l2.1-2.8l2.1-3.2l1.8-3.9l2.5,0.7l8,2.9l5.9,1.9l-3.7,1.4l-7.5,3.5l-12.8,4.9
	L239.4,79.6L239.4,79.6L239.4,79.6z M201,82.5l-1.2-3.6l-2.6-4.2l-3.5-4.3l2.4-2l2.8-2.4l4.2-2.2l9.3-3.1h0l1.3-0.1l1.9,0.8l1,2.2
	l0.4,2.2l-0.4,3.2l-1.2,3.3l-2.6,4l-3.6,5l-4.1,3.5l-3.3,1.1L201,82.5z M118.1,90.1l-6.2-2.1l-3.1-2.2l-1.6-2.9l-2.4-5.6l-0.5-5.2
	l1.8-4.5L110,64l6.9-2.9l5.2-1.2l0,0l3.3,0.7l4.9,1.6l-4.2,1l-3.5,1.8l-3.1,4l-2.8,5.7l-0.3,5.1l2.6,6.4l2.4,4.5L118.1,90.1z
	 M198.6,52l2.9,0.2l5.4,1.5l5.7,2.4l2.7,2.5l-1.9-0.2l-5.9,1.3l-5.2,2.5l-5.5,3l-4.4,4.7l-2-1.8l-3.6-1.9l1.2-1.8l2.6-3.9l2.5-4.2
	l4.4-4.1l0,0L198.6,52z M140.2,61.9l-2.5-1l-1.4-1.7l-0.2-2.7l0.2-1.9l1.6-1.9l3-0.8l3.2,0.4l4.1,1.2l4.3,2.6l3.8,4.1l2.2,2.5h0
	l-0.6-0.2l-1.6-0.2h-4.9l-3.5,0.2H144L140.2,61.9z M231.9,62.2l0.3-2.8l-0.5-4v-2.6l2.3-2l3.4-1.6h0.7l1.6-0.5l0.5,3.5l-0.9,2.5
	l-1.1,2.7l-1.5,2.5l-2,1.7l-3.3,1.4L231.9,62.2z M142.9,49.4l5.9-0.9h3.5l6.2,1.8l4.9,3l4.6,3.9l2.6,3.1l1.2,2.9l0.1,1.8l-2,1.8
	l-3.8,0.5l-1-0.5l-2.3-1.9l-2.2-2.9l-2.7-2.9l-1.9-2.2l-3.2-2.9L150,52l-3.8-1.4l-4.9-0.2l0,0L142.9,49.4z M230.7,77.4l-2.3-0.9
	l-1.7-0.8l1.3-2l1.4-2.8l1-2.7l0.3-1.3h3.9l3.9-2.4l2.2-3.1l1.5-3l0.6-3.5v-2.8l-0.4-1.6l-1.7-2l-0.9-0.4l0,0l3.5,0.4l3.2,0.7
	l2.8,1.6l1.3,1.6l1.3,2.2l0.4,2.9v3.1l-1.5,4.2l-2.2,4.2l-3,3.9l-3.6,2.7l-3,1.3l-4.4,0.5L230.7,77.4z M192.6,51.3l3.5-3.1l-1.5,3.9
	l-2.7,5.2l-4.2,5.6l-4.5,3.3l-3.2,0.4l-4.2-0.5l3.9-2.9l2.6-2.6l3.2-3.6l2.5-5.2l0,0l1.5,0.4L192.6,51.3z M199.5,50.6l0.2-0.4
	l1.8-1.6l4.6-2.1l4.9-0.9l4.8-0.2l5.3,0.7l3.3,1.5l3.9,3.5l2,5l0.3,5.4l-1.1,6.4l-1.8,3.6l-2.2,4.1l-3.3,3.1l-4.9,3.3l-6,2.8
	l-5.6,1.2l1.9-1.2l2.2-2.3l1.5-1.9l2-2.4l1.5-2.8l1.3-3.5l0.9-2.9l0.3-3.6l-0.3-3.4l-1.6-3.6l-3.2-3.3l-4.4-2.8l-4.4-1.6L199.5,50.6
	L199.5,50.6z M129.5,58.9l-3.3-1.1l-2.5-1.2l-2-2.2l-1.1-2l0.3-2.5l0.8-2.5l1.8-2.2l2.4-1.2l3.5-1.6l5.7-0.8h6.5l7.2,1.7l5.6,2.6h0
	l-0.4,0.1l-3.2-0.1h-4.4l-3.2,0.5l-3.7,1.4l-3.5,1.9l-1.9,2.5l-0.5,2.5l0.5,2.2l1.2,1.6l-2.7,0.5L129.5,58.9z M230,50.6l-2-2.4
	l-2.2-1.3l-3.5-1.3l-0.8-0.4l0,0l5.2-3.1l5.5-1.9l3.7-0.3l3.7,0.5l3.5,1.6l2.9,2l2.6,2.2l2,2.6l1.5,2.9l-2.1-1.9l-2.9-2l-3.7-0.6
	h-4.1l-3.6,1.5l-2.5,1.5l-2.1,2.3l-0.5,1.2L230,50.6z M173.7,37.1l0.7,3.1l-0.3,2.9l-1.5,4.1l-2.5,5.9l-1.5,3.8l-1.2-1.2l-1.7-2.5
	l-1.4-1.3v-0.9l0.3-2.2L166,45l2.3-4l4-3.2l0,0L173.7,37.1z M169,30.4l2.7,1.2l0.9,2.4l-0.2,2.3l-2.7,1.9l-3.4,4.3l-2.3,4.2
	l-1.6,4.4l-1.7-1.1l-4.5-1.9l0.4-1.2l0.8-2.3l2.2-4.2l3-4.2l5-4.8l0,0L169,30.4z M125,30.5l3.8-1.2l4.5-0.2l6.2,0.5l7.6,2.9l5.7,3.8
	l4.5,4.6l-0.2,1.5l-1.5,2.7l-3.9-2.5l-3.4-1.4l-5.9-2.1l-4.6-0.5h-4.1l-5,0.9l-4.5,1.7l-2.7,3.1l-1.5,2.6l-2.2-2l-0.3-3.1l0.2-1.8
	l0.6-2.7l1.8-3.5l2.6-2.3h0L125,30.5z M171.6,28.6l4.4-0.9h3.9l2.3,0.5l2.9,2.2l1.5,3l0.8,6l-0.2,4.6l-1.1,5.7l-2.9,6.6l-4.3,5.9
	l-3.4,3.1l-2.8-0.2v-0.5l-1-3.2l-0.4-2.1l1.2-2.5l1.6-3.9l1.5-5.2l0.5-6.7l-0.6-5.9l-2.3-3.5l-2.9-1.9h0L171.6,28.6z M207,43.6
	l2-0.9l3.3-1.8l3.9-3l3.1-2l2.2-0.2l3.5-0.5l4.3-1.6l4.2-2.9l2.4-3.5h0l1.5,0.4l1.9,3.6l0.2,3.6l-0.8,3.1h-5l-2.4,0.5l-3.9,1.2
	l-4.2,1.7l-3.5,2.5l-3.5-0.5l-5,0.2l-6.3,0.8L207,43.6z M221.8,33l1.3-3l1.6-4.3l1.1-3.8h0l1-0.2l3.1,0.7l3.5,1.8l2.1,1.5l-0.9,2.1
	l-1.7,1.9l-2.9,2.1l-4.5,1.7l-5.4,1.2L221.8,33z M188.8,48.4l0.2-2.8l0.2-4.9v-4.7l-0.7-4.6l-1.6-3l-1.7-1.4l-2.9-1.4l1.9-1.9
	l2.5-1.5l5.7-1.5l6-1.1h0l2.8,0.2l2.6,1.5l0.7,2.5v3.2l-0.2,4.9l-1.9,5.4l-2.6,4.5l-3.5,3.7l-4.1,3.2l-3.6,1.3L188.8,48.4z
	 M123.3,26.1l3.6-4.2l4.4-3.1l3.9-2l3.3-0.8h4.7l6.6,0.9l4,1.2l3.2,2.6l2.8,2.7l1.8,3.3l1.3,3.1l0.1,2.7l-0.4,1.5l-2.7,4l-1.9,2.7
	l-2.7-4l-4.4-4.1l-4.9-3.4l-5.2-2.2l-6.3-0.9H130l-4.4,0.8l-3.1,1.8l-1.4,1.5h0L123.3,26.1z M176.7,25.7l2.1-3.5l2.1-2.7l2.2-2.5
	l1.9-1.8l2.8-1.1l3.8-0.5l3.1,0.2l3.5,0.8l2.5,0.7l1.9,2.2l1.1,2l-3-1.4l-6.6,0.7l-5.3,1.1l-4.3,1.5l-6.4,3.6L176.7,25.7L176.7,25.7
	L176.7,25.7z M240.5,34.2l-0.2-3.1l-1.5-3.2l-1.4-2l-2.5-1.8l-3.2-1.8l-3.9-1.4l-2.3-0.3v-2.2l-0.2-2.7l-0.5-3.7l-1.5-2.5l1.5-0.2
	l2.5-0.2l5.4,0.9l4.2,2l3.7,2.6l2.5,2.9l0.9,4.6l-0.2,4.5l-1.2,5.2l-2.2,4.2L240.5,34.2z M155.5,12.4l3.5-2.2l3.5-1.3h2.1l3.7,1.8
	l2.7,3.6l2,4l1.2,2.7l0.6,2.8l0.3,2.6l-2.9,0.6l-3.5,1.7l-3.9,2.8l-0.9-3.9l-2.1-4.6l-2.2-3.9l-2.9-2.5l-2.3-1.2l-1.2-0.2h0
	L155.5,12.4z M181.9,14.7l3.5-4.2l5-4.1l6.7-3.2l5.6-1.3l5.9,0.2l5.9,2.1l4.6,2.9l3.1,4.4l1.4,6.2v4l-1.5,5.4l-2.3,4.2l-3.5,4.1
	L211,39l-5,3.3l-4.9,2.5l-1.5,0.5l2.5-3.3l2.5-4.6l1.2-6v-6.5l-0.8-5.3l-2.5-3.4l-2.4-2.1l-6.2-1.4l-7.4,0.8l-3.3,1.1L181.9,14.7
	L181.9,14.7L181.9,14.7L181.9,14.7z M202,0l-5.9,1.3L190.8,4l-4.5,3.2l-3.5,3.9l-3.1,4.5l-3.4,5l-2.1-5l-2.1-3.5L169,8.9L164.8,7
	l-4.9,0.9l-5.8,3.3l-2.4,3.7l-5.2-1.2l-6.3-0.2l-7.4,2l-5.1,3.8l-4.5,4.9l-2.7,3.9l-1.1,2.9l0.1,1.8l-3.1,5.4l-1,4.9l1.8,3.9
	l2.5,2.5l-0.2,2.9l0.2,3.1l1,2.5l-3.9,1.2l-4,1.3l-5.9,3.9l-2.3,2.5L97.6,68l-8.9,1.3l-7,1.8l-6.9,4.5L8.3,90.9l-5.6,1.5l-1.5,2
	l-0.5,2.5L0,107l0.8,10.4L2,127.8l0.6,10.5l-0.4,8.9L2,160.9l0.6,16.3l1.1,5.8l1.6,5.8l3.9,5.8l5,4.6l5.7,4.2l16.6,12.7l5.4,4.3
	l4.5,4.8l1.6,3.4l1.1,2.5l6.4,6.8l4,2.2l3.8,2.7l8.9,8.7l8.6,5.2l2,0.2h1.3l1.9,0.8l58.5,44.4l6.3,4.7l9.8,6.2l9.8,7.3l9.1,7.1
	l9.2,7.7l5,2.2l5.6-0.2l14.7-8l35.9-22.8l9.6-6l13.8-7.2l17.7-10.1l13.3-9.1l7-4.2l5.9-5l2.9-3.8l0.3-2.3l0.4-2.4l5.3-4l0,0
	l18.9-14.2l2.4-1.5l4.6-4.6l2.4-1.9l11.7-7.2l11-8.3l1.6-2.6l0.3-3.2l-0.2-12l0.2-5.9l0.5-5.6l0.4-5.8l1-17.8l1.1-17.9l0.8-10.1
	l1.3-10.1l0.8-11.2l0.3-8.6l-0.8-2.9l-2.2-1.5l-2.9-0.8l-5-1.5L358.5,93l-29.1-7.8l-11.1-2.9l-3.2-1l-14.6-4.5L275.4,69l-2.2-1.8
	l-9.3-3.4l-4.5-1.8l-4.1-0.8l0.2-3.3l-0.2-3.1l-0.9-2.6l-1.2-3.2l-1.3-1.9l-5.9-5.1l-5.4-2.9l2.3-3.5l2.1-7.5l0.9-5.7l-1.2-5.6
	l-4.2-4.2l-5.3-3.2l-3.5-1l-3.8-0.5l-5.6,0.4l-1.9-2.2l-3.2-2.7l-5.6-2.5l-3.4-0.6L202,0z"/>
</svg>
