<?xml version="1.0" encoding="utf-8"?>
<!-- Generator: Adobe Illustrator 19.0.0, SVG Export Plug-In . SVG Version: 6.00 Build 0)  -->
<svg version="1.1" id="Layer_1" xmlns="http://www.w3.org/2000/svg" xmlns:xlink="http://www.w3.org/1999/xlink" x="0px" y="0px"
	 viewBox="0 0 680.9 493.2" style="enable-background:new 0 0 680.9 493.2;" xml:space="preserve">
<style type="text/css">
	.st0{clip-path:url(#SVGID_2_);fill:#A11C1C;}
</style>
<g>
	<defs>
		<rect id="SVGID_1_" width="680.9" height="493.2"/>
	</defs>
	<clipPath id="SVGID_2_">
		<use xlink:href="#SVGID_1_"  style="overflow:visible;"/>
	</clipPath>
	<path class="st0" d="M412,26.7L412,26.7L412,26.7 M399.4,24.1c1,4.1,7,1.5,12.6,2.5C412,21.9,402.6,22.9,399.4,24.1 M412,32.5
		c-3.6-1.7-6.2-4.4-11.7-4.2C399.3,35.1,409.7,36.3,412,32.5 M143.1,141.4c-2.3-1.8,0.1-6,0-8.4c10.1-7.7,35.7-13.2,25.1-31
		c-7.1,1.4-14.1,0.2-19.3-2.5c-2.4-5.6,0.4-11.4,2.5-15.1c-0.3-4.5-4.1-5.4-5-9.2c3.9-7.3,7.7-14.6,11.7-21.8
		c4.8-1.9,14.7,1.3,14.2-5.9c1.8-0.4,2.2,0.6,3.4,0.8c2-4.4,5.4-7.5,10.1-9.2c-1,4-4.8,5.3-5,10.1c2.8,2.8,5.1-2.9,8.4,0
		c0.7,2.4-1.2,2.2-0.8,4.2c1.9,4.4,8.4,2,10.9,0c2.1-10.8-5.7-11.6-12.6-13.4v-2.5c4-1,9.2,3.4,14.2,4.2c-0.1,4.9,1.5,8,0.8,13.4
		c-1.6,1.8-6.2,0.5-5,5c7,0.9,15,7.3,14.2,14.2c-0.5,4.5-5.1,5.2-7.5,9.2c1.5,8.8,1.8,26.3-8.4,28.5c-1.4,15.8,25.5,7.4,34.3,16.8
		c5.4,5.7,5.6,18.6,9.2,29.3c1.4,4.3,3.8,7.3,4.2,10.1c0.3,2-0.5,4.2,0,5.9c1,3.2,3.4,5.9,5,8.4c1.7,2.7,4.6,5,5.9,7.5
		c2.9,5.7,0.9,11.4,3.3,18.4c-2.3,7.2-4.1,14.9-5,23.5c2.8,2.8,7.3,3.8,10.9,5.9c-3.1,3.7-6.9-0.9-10.9-2.5c-2,0.8-2.2,3.4-2.5,5.9
		c2.4,4,9.6,3.3,14.2,5c2.1-0.1,1.7-2.8,1.7-5c3.3,0.2,3.6,6.5,3.4,7.5c-5.1,1.5-9.4-2.1-15.1-2.5c-1.6,0.1-0.5,2.8-1.7,3.4
		c-11.2,1.1-23.8,0-35.2,0c-8.7,0-19.3,3.9-24.3-2.5c3.4-4,11-2.5,17.6-2.5h20.1c2.6,0.4,2.2-2.3,4.2-2.5c2.6,1.3,8.5-0.7,8.4,3.4
		c-1.2-1.3-4.3-0.7-6.7-0.8c0.8,3.7,8.3,4.2,11.7,2.5c1.1-3.7-3.2-1.8-2.5-5c-0.7-2.7,2.8-1.1,2.5-3.4c0.1-6.7,2.4-12.7,4.2-20.1
		c3.8-15.4,0.2-29.1-10.9-39.4c0.9,8.7-3.2,12.5-7.5,15.9c5.2,9.5,9.3,28.7,3.4,39.4c-0.1-11.3,1.9-26.6-4.2-35.2
		c-5,4.7-10.8,12.4-8.4,21.8c0.4,2.9-2.5,2.5-3.4,4.2c1.7,3,3.5,6,7.5,6.7c-2.6,1.7-7.9-1.1-12.6,0c0.1-2.4,3.5-1.5,5.9-1.7
		c0.6-2.9-3.1-1.4-3.4-3.4c-0.9-4.2,2.5-4.2,3.4-6.7c-1.8-15.4,8.8-24.4,15.9-33.5c6.5-15.7-6.1-22.3-9.2-35.2
		c-1.4-1.7-2.2-3.9-5-4.2c3.1-2.2,6.3-4.3,8.4-7.5c-0.9-3.6-3.6-5.4-4.2-9.2c-6.8-4.7-18.1-3.1-26-5.9c-3.2-1.1-4.3-4.6-7.5-4.2
		c-0.4-2.7-1.6-4.5-1.7-7.5c-2.4-0.7-5.2-1-7.5-1.7c-4.7-2,4-0.1,3.4,0c-0.1,0,6.7-2,7.5-2.5c5.9-3.9,6.1-14.1,5-23.5
		c-3.3-0.4-4.1-3.2-7.5-3.4c1.5-2.8,2-4.7,0.8-8.4c-3-2.3-6.4-4.2-9.2-6.7c-7,0.7-16.7-0.6-21.8,4.2c-0.7,3.2,2,3,2.5,5
		c6.4-1,11.6-8.8,17.6-5c0.6,3.7-2.8,3.4-4.2,5c0.3,2,1.8,3.6-0.8,4.2c0.1,2.4,5.7-0.7,5.9,1.7c-0.3,6-8.3,4.4-12.6,4.2
		c-2.3,3.7,1.1,4.5,1.7,7.5c0.4,3.5-3.8,2.3-5,4.2c-0.5,4.1,3.9,3.4,5,5.9C178.8,128.7,148.6,124.8,143.1,141.4 M234.4,247
		c-9.3-1.4-30.6-2-41,0.8c5.7,1.3,13.3,0.8,20.9,0.8C221.4,248.6,229.7,250,234.4,247 M231.9,149.8L231.9,149.8c0,0.4,0,0.7-0.1,1
		c-0.2,0.5-0.5,0.9-0.7,1.4c-0.1,0.3-0.1,0.6-0.1,0.9c1.2,1,2.1,2.3,2.9,3.8c1.5,2.9,2.5,6.4,4.1,9.3c0.8,1.4,1.8,2.7,3,3.7
		c-1.3-7.6-7-10.9-6.7-20.1H231.9z M188.3,59.3c2.3,0,3.9,3.5,5,0C191.8,58.6,189,56.2,188.3,59.3 M174.9,57.7
		c0.2,0,0.4-0.1,0.7-0.1c0.7,0,1.6,0.2,2.3,0.1c0.7,0,1.3-0.2,1.3-0.9c0-0.2,0-0.5-0.1-0.9c-0.2-1.2-2-0.8-3.4-0.8
		C175.8,56.3,175.3,57,174.9,57.7 M174.1,62.7L174.1,62.7c1,0.1,1.9,0.1,2.7-0.1c2.4-0.3,4-1.5,5.7-2.5c-1.5-1-4.2-0.9-6.1,0
		C175.1,60.7,174.3,61.6,174.1,62.7 M159,64.4c1.2-0.3,2.4-0.5,3.6-0.8c0.8-0.2,1.5-0.4,2.1-0.8c0.9-0.5,1.6-1.3,1.8-2.6
		C163.2,60.8,160,61.5,159,64.4 M156.5,93.7c0-0.6-0.1-1-0.3-1.4c-0.4-0.7-1.3-0.9-2.3-1c-0.5-0.1-1-0.1-1.6-0.1
		c0,0.3-0.1,0.6,0,0.9c0,0.3,0.1,0.5,0.2,0.7c0.1,0.2,0.2,0.3,0.4,0.5c0.3,0.3,0.7,0.4,1.2,0.5C154.7,93.8,155.6,93.7,156.5,93.7
		 M158.1,85.3c-0.3-0.1-0.6-0.1-0.8-0.1c-0.2,0-0.4,0-0.6,0c-0.2,0-0.3,0.1-0.5,0.2c-0.3,0.1-0.5,0.3-0.8,0.5
		c-0.3,0.2-0.5,0.3-0.9,0.3c-0.2,0-0.4,0-0.7,0c0.1,1.8,0.9,2.9,2.4,3.3c0.5,0.1,1.1,0.2,1.8,0.1V85.3z M164,97.9
		c-0.5-0.2-3.2-2.1-3.4,0C162.2,97.1,163.5,100.4,164,97.9 M165.7,80.3c-0.3-0.8-0.6-1.5-1-2.1c-0.4-0.7-0.8-1.3-1.3-1.8
		c-1-1.1-2.4-1.8-4.4-1.9c-0.4,1.1,0.1,2.1,0.6,2.9c0.3,0.6,0.7,1.1,0.9,1.6c0.3,0.8,0.3,1.5-0.7,2.2c-1.6-0.3-0.7-3.2-3.4-2.5
		c-0.9,3.4,1.3,4.9,3.8,5.1c2.2,0.1,4.6-0.9,5.2-2.6C165.6,80.8,165.7,80.6,165.7,80.3 M395.2,38.4c-2.4-0.9-5.2-1.5-8.4-1.7
		c-0.1,3.2,1.6,4.5,4.2,5C392.3,40.5,395.8,41.5,395.2,38.4 M398.6,47.6c-1.2,3.3-8.5,0.5-10.1,3.4c-3.9-0.5-4.5-4.4-6.7-6.7
		c0.4-0.7,0.7-1.5,1.7-1.7C387.6,42,394.7,45.2,398.6,47.6 M386,45.9c1.3,0.4,0.7,2.6,3.4,1.7C390.2,45.5,386.5,43.9,386,45.9
		 M371.8,83.6c4.7,0.2,8.3-0.7,8.4-5c-0.5,0-1,0-1.5,0c-3.3-0.1-6-0.8-6.1-4.2c3-2.7,7.6,2.2,9.7-0.2c0.1-0.2,0.3-0.4,0.4-0.6
		c-3.2-2.4-6.5-2.5-8.8-1.1c-0.7,0.4-1.3,0.9-1.7,1.5c-1,1.2-1.5,2.9-1.5,4.8c0,1,0.2,2,0.5,3.1C371.3,82.5,371.5,83,371.8,83.6
		 M574.5,82.8c-0.8-3.7-3.1-5.8-5.9-7.5C570.1,78.2,571,81.8,574.5,82.8 M392.7,76.9c-0.4-0.4-2.1-1-3.4-1c-0.7,0-1.3,0.3-1.5,0.9
		c0,0-0.1,0.1-0.1,0.1c2.3-0.1,2.3,5.1,0,5c-1.5-0.3-2.1-1.7-4-1.7c-0.1,0-0.1,0-0.2,0c-0.5,0.5-0.7,1.1-0.8,1.7
		c-0.3,1.8,0.9,3.8,1.7,5C387.8,84.3,393.2,83.6,392.7,76.9 M546,91.2c1.9,1.7,3.5-2,5.9-2.5h0C549.8,85.8,546.4,87.8,546,91.2
		 M195.8,92.8c1-5.1-5.3-3.4-5.9-0.8C191.1,93.2,193.6,92.8,195.8,92.8 M195,103.7c0.7-2.6,2.8-3.9,3.4-6.7c-2.3-0.4-8.6-0.4-10.9,0
		C188.6,100.6,190.6,103.3,195,103.7 M366.2,165.4c-0.3,0.8-0.6,1.5-0.8,2.3c-0.2,0.7-0.3,1.5-0.1,2.1c0.2,0.7,0.6,1.3,1.5,1.8
		c0.3-1.2,0.6-2.4,0.9-3.7c0.5-2.5,1-5.1,1.4-7.7c0.4-2.6,0.8-5.3,1.2-8c0.2-1.3,0.4-2.7,0.5-4c0.4-2.7,0.7-5.4,1.1-8
		c0.4-2.6,0.8-5.3,1.3-7.8c1.5-7.6,3.5-14.7,7-20.3c-0.1-1,0.1-2.4-0.8-2.5c-4,7.1-7.6,17.9-10.1,28.5c-1.9,8.2-1.9,15.8-2.5,25.1
		c0,0.4-0.1,0.7-0.2,1.1C366.4,164.7,366.3,165.1,366.2,165.4 M365.1,128c1.2-1.1,0.5-4,1.7-5C363.9,121.9,363.3,127.2,365.1,128
		 M364.2,129.7c-2.6,8.8-2.7,20.2-5.9,28.5C363.9,154,365.4,137.9,364.2,129.7 M169,148.1c-3.6-3.8-13.9-5-19.3-4.2
		c0,1.2,0.4,1.8,0.8,2.5C158.5,144.9,163.9,149.7,169,148.1 M210.9,159.9c-7.5-1.8-6.1-12.3-13.4-14.2c0.9,3.9,6.3,7.6,5.9,10.1
		c-8.2-2.7-18.6-7.6-27.6-6.7c13.1,4,26.5,7.6,36.9,14.2c2.1-5.2,9.3-9.7,8.4-15.1C217.3,151.7,215.4,157.1,210.9,159.9
		 M198.4,160.7c-12.2-1-31.9-1.4-40.2-0.8c-1,0.2-0.5,0.9,0,1.7C168.9,160.4,186.5,163,198.4,160.7 M205.1,174.9
		c-0.1-7,8.8-9.8,13.4-5c-0.2,4-5.4,3-5,7.5C209.4,177.8,206.3,177.3,205.1,174.9 M213.4,171.6h2.5c0.1-1.5-0.8-2-2.5-1.7V171.6z
		 M207.6,172.4c-0.2,2.8,3.1,4.3,5,2.5c0.2-2.7-1-4-3.4-4.2C209.1,171.8,209,172.7,207.6,172.4 M154.8,168.2
		c-0.4,4.7,2.1,13.4,4.2,18.4C158.9,179.2,157.8,172.8,154.8,168.2 M462.2,174.9c-1,2.5,3.5,3.6,4.2,1.7
		C464.8,176.3,464.9,174.2,462.2,174.9 M350,184.1L350,184.1v-3.4h-4.2h0h0C345.9,183.2,347.3,184.4,350,184.1 M374.3,183.3
		L374.3,183.3c-0.4-0.4-0.7-0.5-1-0.6c-0.8,0-1.5,0.7-3,0.7c-0.3,0-0.6,0-1-0.1v0v3.3c0.8,0.1,1.5,0.1,2.2,0.1
		C373.4,186.7,374.8,186,374.3,183.3 M524.2,196.7c1.3-3-2.8-0.5-2.5-2.5c1.6-1.2,4.4-1.2,5-3.4c-3.6,1.1-6.4,0.7-8.4-1.7
		c1.1-3.1,2.5-3.4,5.9-2.5h0c-1.7-7.4-8-1.7-8.4,1.7C515.3,192.4,520.4,196.5,524.2,196.7 M351.7,194.2c0.5-0.7,0.9-1.6,0.9-2.9
		c0-0.4,0-0.9-0.1-1.3h-4.2C348.1,192.7,349.3,194,351.7,194.2 M368.2,195.1c1.5,0,2.8-0.2,3.5-0.9h0c0-2-1.5-3.1-3-3
		c-1.4,0-2.7,1.2-2.1,3.9C367.2,195.1,367.8,195.1,368.2,195.1 M181.6,200.9c-4.6-3.5-11.7-4.5-17.6-6.7c1.5,3.8,7.2,5.5,11.7,6.7
		C178,201.5,181.9,203.3,181.6,200.9 M190,235.2c3.4-7.4,1.4-17.2,1.7-24.3c3.6,1.3,1.3,5.3,2.5,7.5c5.4,0.1,8.5-2.1,12.6-3.4
		c1-3.4,2.9-6.1,3.4-10.1c2-0.7,3.6-2,6.7-1.7c-1.2-6.1-15.7,1.2-16.8-5c6.5,0.5,15.3-1.4,19.3,1.7c0.4,5.7-5.2,5.4-7.5,8.4
		c-0.9,3.3-1.1,7.3-4.2,8.4c0.7,2.3,4.4,1.8,5.9,3.4c-1.2,7.4-12.4,2.5-17.6,1.7C192.7,225.2,196.2,235,190,235.2 M199.2,221
		c1.3-0.2,2.8-0.1,4.4,0c1,0.1,2.1,0.1,3.1,0.1c0.5,0,0.9,0,1.4-0.1c0.4-0.1,0.8-0.2,1.2-0.3c0.3-0.1,0.7-0.3,0.9-0.6
		c-0.3,0-0.5,0-0.8,0c-0.3,0-0.5,0-0.8-0.1c-0.8-0.1-1.6-0.3-2.4-0.6C203.1,218.7,200.5,217.6,199.2,221 M167.4,200.9
		c1.8,3.5,8.4,2.2,11.7,4.2C177.5,201.4,173,200.6,167.4,200.9 M263.7,236.1c5.1-1.8,13.2,3.4,18.4-0.8c1.7-0.6-0.2-4.7,1.7-5
		c2.9,2.1,2.7,7.4,8.4,6.7c1-1.8,3.2-2.4,3.4-5c-3-2.6-2.4,3.8-5.9,3.4c-2.7-3.6-3.7-6.5-1.7-11.7c-3.3-1.5-6.2-3.3-6.7-7.5
		c2.9-0.2,6.4,0.3,6.7-2.5h-8.4c-2.4,5.1,4.3,7.9,5,12.6c-1.6,1.6-2.1,0.1-4.2,0c-0.4,3.2,1.5,4.1,0.8,7.5
		c-3.7,2.6-10.8,1.4-13.4-1.7c0.1-3,0.4-5.8,2.5-6.7c4.2,0,9,0.6,10.1-2.5c-3.2,0.8-10.5-0.3-13.4-0.8
		C269,229.5,261.8,231,263.7,236.1 M299.7,223.5c-1.1-1.1-4.1-1.3-4.2,0.8c4.9,2.9,8.9-1.5,8.4-6.7c-2.7-0.1-8.9,1.1-10.9,4.2
		c3,2.2,4.7-2.7,8.4-2.5C301.5,221.4,301,222.8,299.7,223.5 M584.5,221.8h2.5v-2.5h-1.7h0C585.3,220.4,584.3,220.5,584.5,221.8
		 M574.5,220.2c0.8,3.1,0.2,7.6,3.4,8.4c1.6-2-2.1-4.1-0.8-8.4H574.5z M195.8,236.1c6.5-1.7,20.3,0.7,22.6-2.5
		C211.5,234.2,200.8,230.8,195.8,236.1 M193.3,241.9c11.2-1.3,19.3-2.6,28.5-3.4c3-0.2,6.8,1.5,9.2-1.7
		C218,236.2,202.9,238,193.3,241.9 M202.5,242.8c8.3,0.7,22.1-1.8,30.2-1.7c0.2-2.9-2.8-1.7-4.2-1.7
		C219.5,239.5,209.5,242.3,202.5,242.8 M345.8,245.3c-2.4-0.4-3.8-1.8-4.2-4.2h0c-5.2-0.2-7.2,2.9-8.4,6.7c3.2,2.6,4.7-2.2,5.9-4.2
		C341.7,243.3,343.2,248.4,345.8,245.3 M168.2,242.8c1.6,0.7,4.4,3.1,5,0C171.1,243.7,169.2,240.2,168.2,242.8 M593.7,241.9
		L593.7,241.9c-3.8,0.6-8.7,0.2-9.2,4.2C587.5,244.7,593.1,245.7,593.7,241.9 M308.1,249.5c-0.2-4.1-9.5-7.7-10.1-1.7
		C298.3,252.3,307,255.4,308.1,249.5 M596.3,247.8c-2.2-2.9-5.5-0.9-8.4,0c-0.6,4.2,1.1,6.1,1.7,9.2c-1.6,1.8-2.7,4-3.3,6.7
		c5.9-0.1,6.1-9.6,3.3-13.4C590.8,248.5,596.2,250.8,596.3,247.8 M452.2,249.5c4.1-1.4,8,4.3,8.4-0.8c-15.1-0.9-34.2,2.6-50.3-0.8
		c0.8,3.3,5.4,2,8.4,2.5C429.1,252.1,444.6,253.3,452.2,249.5 M344.1,249.5c3.5-2.2,8.4,0.2,11.7,0.8h0c0.4,3.2-1.7,3.9-2.5,5.9
		C349.3,254.9,345,253.9,344.1,249.5 M348.3,252c0.5,0.5,1.2,0.8,2,0.8c1.3,0,2.6-0.6,3-1.6h0c0,0,0,0,0,0l0,0
		C351.9,251.6,348.4,250.1,348.3,252L348.3,252z M363.4,253.7c2.7-3.6-5.2-7.8-4.2-0.8C361.2,252.5,361,254.4,363.4,253.7
		 M395.2,248.6L395.2,248.6L395.2,248.6L395.2,248.6z M421.2,262.1c-7.6-6.1-22-5.4-34.3-6.7c2.4-2.7,7.8-2.3,8.4-6.7
		c-7.9,0.1-12.9,7.1-20.1,8.4c-4.5,0.8-10.3-3.2-14.2,1.7c2.9,2.5,13.3-2.4,17.6,1.7c7.3-2.4,22.4-3.5,32.7-0.8
		C415,260.5,418.4,265.7,421.2,262.1 M342.4,252.8c0-1.4-0.6-2.1-1.7-2.5C340.7,251.8,341.4,252.5,342.4,252.8 M283,252
		c-6.5-0.3-15.1-1.2-17.6,3.4c10.9-1.2,27.1-1.8,36.9,0.8C299.3,252.6,290.1,252.3,283,252 M174.9,253.7c-1,0.1-2,0.3-1.7,1.7h2.5
		c6.9-2,19.3,0.2,22.6-0.8c3.8-1.2-26.8-3.4-2.5-0.8C192.5,253.3,185,253.9,174.9,253.7 M216.8,257.9c0.2-1.2,1.8-1,2.5-1.7
		c0-1.4-0.6-2.1-1.7-2.5c-1.8,3.8-7.1-0.5-11.7,0.8c-4.1,0.3,0.8,1.3,2.5,0.8C211.1,256.3,214.2,256.8,216.8,257.9 M314.8,255.3
		c7.2-1.3,13,0.3,22.6,0c-0.2,2.8,0.6,6.8-0.8,8.4c-6,1.2-17.8,1.9-22.6-0.8C313.5,259.6,315.5,258.8,314.8,255.3 M319,257.9
		c5.7-0.6,8.7,1.3,14.2,0.8C332.4,255.4,318.4,257.1,319,257.9 M317.3,259.5c0.3,2,2.1,2.8,4.6,3c0.8,0.1,1.7,0,2.6,0
		c1.4-0.1,2.8-0.3,4.1-0.6c1.8-0.4,3.4-0.8,4.7-1.2c0.3-0.1,0.6-0.2,0.8-0.3c-3.5-1.6-9.6-0.7-14.6-0.7
		C318.7,259.6,318,259.6,317.3,259.5 M221,264.6c0.7-2,1.3-5.4-1.7-5.9c-2.9,0.3,1.3,4.6-0.8,4.2c-15-0.5-33.8,0.3-48.6-2.5
		c-0.2-1.5,0.8-4.2-1.7-3.4c-0.3,1.1-1.2,1.6-0.8,3.4c12.2,8,35.8,1.7,50.3,5.9C218.2,265.1,219.4,264.7,221,264.6 M298,261.2
		c-11.5-2.4-23.4,0.2-34.3-3.4c10.1-1.1,26.8,1.8,36.9,0.8c-0.6,3.4,0.8,4.8,0.8,7.5c-10.9,4.1-35.8,6.8-40.2-5
		C271.2,262.7,289,266.7,298,261.2 M271.2,264.6c-3.1-0.1-4.7,0.4-4.6,0.9c0.1,0.3,0.8,0.6,2,0.8c8.1,1.1,23.5,2.2,26.8-1.7
		C290.3,267.4,274.1,264.7,271.2,264.6 M91.1,259.5c1.2,16.5,3.6,35.1,2.5,50.3c-0.7,9.5,2.1,19.4-1.7,27.6
		c-18.3-2.6-35.7-6.6-51.9-10.1c-3.3-0.7-10-4.2-11.7,0.8c20.1,3.4,44.4,8.3,65.3,11.7c-0.6,2-2.4,8,1.7,7.5
		c1.4-21.2,1.7-48.6-0.8-68.7c0.9-0.9,6-1.7,3.4-3.4c-0.3,1.9-4.6,0.8-4.2-0.8C92.5,269.9,96.2,260.4,91.1,259.5 M366.7,269.6
		c4.3,0.2,8.7-0.2,13.4,0c13.7,0.6,30.3,4.7,36.9-5c-15.3,1.4-39.8,3.6-56.1-1.7c-0.1-1.3,0.1-2.9-1.7-2.5h0
		c0.1,2.1-1.3,2.6-1.7,4.2C362,264.9,363.4,268.2,366.7,269.6 M169.9,263.7c-0.4,2.5,1.4,2.1,2.5,2.5c6.6,2.5,21.3,3.6,29.3,3.4
		c4.4-0.1,9.5-0.5,11.7-3.4C198.2,266.1,181.7,267.2,169.9,263.7 M504.9,275.5v3.4c2.3-0.4,4.4-1.2,6.7-1.7
		C511.1,273.1,508.2,275.7,504.9,275.5 M520.9,274.6h-2.5v2.5h2.5V274.6z M512.5,275.5c-0.6,2.9,2.2,3.7,3.3,2.5
		C516.1,275.8,514.7,275.2,512.5,275.5 M492.4,282.2v-3.4h-2.5C489.6,281,489.6,283,492.4,282.2 M503.3,285.5c-0.8-4.1-8.3-3-10.1,0
		C496,287.6,499.1,284.5,503.3,285.5 M449.7,293.9c1.2-2.4,1.4-5.8,4.2-6.7c2.9-0.5,2.8,4,5,1.7h0c-0.4-10.6-9.8,0.3-17.6-2.5
		c-0.2,3.5-0.3,7,2.5,7.5c1.8-0.7-0.3-5.3,1.7-5.9h2.5C448.1,290.4,447.3,293.8,449.7,293.9 M206.7,286.3c2-0.5,6.1,1.1,6.7-0.8
		C211.6,285,207.2,283.4,206.7,286.3 M238.6,287.2c-6.9-0.3-18.5-3.2-22.6-0.8c2.2-0.3,2.2,1.7,2.5,3.4c2.6-0.5,2.4-3.8,6.7-2.5
		c1.2,1.1,0.4,4.1,2.5,4.2c1.3-0.6-0.2-4.1,2.5-3.4c2.6,0.2,1.1,4.5,4.2,4.2C232.9,287.7,239.7,291.4,238.6,287.2 M249.5,288
		c-3.3-1.3-1.7,2.2-3.4,2.5c-1.2-1.1,0-4.4-3.4-3.4c-1.5,5.1,2.1,10.9,2.5,16.8C249.6,301.6,249.1,294.4,249.5,288 M408.6,288.9
		c-32,2.6-65.6,0-95.5,2.5c-1.6-0.1-0.6-2.8-2.5-2.5c-3.5,10.6-4.2,27-2.5,40.2c5.6,0.9-0.4-9.9,4.2-10.1c-2.1-3-3.1-12.5,0.8-14.2
		c-1.2-0.7-2.7-1.3-2.5-3.4c1.4-1.4,5.3-0.3,5-3.4c-1.2-0.5-4.3,1-4.2-0.8V293c9.3-1.6,17.6,0.9,26.8-0.8c-1.2,2.5-1,5.1,1.7,5.9
		c-0.2-3,0.6-5,2.5-5.9c1.6,1.2,1.3,4.3,4.2,4.2c0.4-1.6-1.1-5,1.7-4.2c4.8-1.4,1.9,4.8,5.9,4.2c1.1-2.1-1.9-4.1,0-4.2
		c5.2-1,7.1,1.2,10.1,2.5c0.9-0.8,0.3-3.1,2.5-2.5c18.6-0.2,36.8-0.6,53.6-2.5h0C417.7,284.5,412.9,288.5,408.6,288.9 M494.1,289.7
		c1,0.8,7.9,2.4,7.5-0.8C500.3,287.1,494.5,287.9,494.1,289.7 M422.9,288.9v1.7c0.8,0,1,0.7,1.7,0.8
		C424.5,290.1,424.6,288.5,422.9,288.9 M567.8,295.6c1.1,0.9,3,5.3,5,2.5c-1.9-0.9-3-2.5-3.3-5c1.7,0.5,5.1-3,1.7-2.5h0
		c-8.7,5-15.5,11.9-24.3,16.8c0.3,2-1.5,1.8-0.8,4.2c3.6,0.5,1.6-4.5,5.9-3.4c1.9,1.7,3.5,3.8,6.7,4.2c0.8-4.7-4.8-3-5-6.7
		c0.2-0.9,0.9-1.3,1.7-1.7c4.9-0.7,4.2,4.2,8.4,4.2c2.5-3.6-5.4-2.6-4.2-7.5c4.6-2.3,6,3.5,10.9,3.4c0-3.9-5.3-2.5-5.9-5.9
		C565.2,296.8,565.7,295.4,567.8,295.6 M298.9,291.4L298.9,291.4C298.9,291.4,298.9,291.4,298.9,291.4L298.9,291.4z M267.9,293.9
		c3.8,1.2,12.7-2.6,12.6,2.5c3.2-3.2,10.3-2.6,16.8-2.5c0.7,3.9-0.5,8.6-0.8,12.6c-0.4,4.8-2.4,11.1,1.7,12.6
		c-1.1-10.1,2.8-19.5,0.8-27.6C291.5,294.9,274,289.2,267.9,293.9 M491.5,361.7c0.3,2.9-1.8,7.8,2.5,8.4c0.1-21-0.1-49.1,0-72.9
		c3.2-2.4,7.4,0,9.2-2.5c-1-4.6-9,1.6-9.2-2.5c0-0.5-0.1-1-0.8-0.8v0C492.1,311.9,489.4,341.8,491.5,361.7 M252.8,292.2
		c-3.7,8.8-0.9,23.2-2.5,31C257,318.8,251.3,300.1,252.8,292.2 M413.6,298.1h9.2C423.1,293.7,414.2,295.7,413.6,298.1 M302.2,327.4
		c-0.2-7.1,2.4-21.2,0-25.1C302.9,310.4,298.5,321.6,302.2,327.4 M422,302.3L422,302.3c-2.9,1.6-10.2,0.2-16.8,0.8
		c-3.1,0.3-7.5,0.1-8.4,2.5c6.9,3.4,19.5-5.2,23.5,2.5c-0.5,13,0.8,29.5,0.8,44.4c0,5.4-2,12.8,2.5,15.9
		C424.1,345.4,421.7,325.2,422,302.3 M427.9,303.1L427.9,303.1c-0.1,1,0.1,2.4-0.8,2.5c-0.4,12.5-0.3,26.3-0.8,38.5
		c-0.4,8.4-2.5,16.4,0,22.6c1.6-20.2,3.1-40.5,3.4-62C429.4,303.8,428.6,303.5,427.9,303.1 M419.5,309c-4.2-1.7-12.4-0.9-16.8,0
		c-0.1,3.7,4.1,0.9,6.7,0.8C412.9,309.8,418.8,311.5,419.5,309 M404.4,316.5c5.7-0.8,12.8,1.5,13.4-2.5
		C414.4,312.6,404.7,312,404.4,316.5 M471.4,345v2.5c-0.5,11.2-5,28.8,2.5,34.3c-1.5-10.2-2-23.1,0-36.9H471.4z M518.4,355
		c3.4,0.7,4.3-1.3,7.5-0.8C526.1,349.8,517.7,351.5,518.4,355 M569.4,352.5c-1.6,0.2-1.9-0.9-3.4-0.8c-5.9,3.6-13.3,5.7-15.9,12.6
		C557.2,360.9,562.1,355.5,569.4,352.5L569.4,352.5z M516.7,360.1c2.9-0.4,7.9,1.2,8.4-1.7h0C523.8,355.5,516.3,356.3,516.7,360.1
		 M240.2,382.7c2.6-0.6,1,2.9,4.2,1.7c1.3-6.2,3.7-11.3,4.2-18.4c-1-1-3-0.9-5-0.8c3.5,3.5,1.5,9.1-1.7,12.6
		c1.1,0.3,1.7,1.1,1.7,2.5C242,380.5,240,380.5,240.2,382.7 M513.3,393.6c2.8,2.9,7.7-2.5,10.1,0c0.7,4.9-8,0.3-7.5,5
		c0.9,1.7,6-1.8,7.5,0.8c2,5.9-5.4,2.4-5,6.7c0.9,2,3.9-1.8,5,0.8c-0.3,11.2,0.5,18.8,0.8,27.6c3.8,1.5,2.4,8.2,8.4,7.5
		c-4.8-8.1,0.9-27.9-5-36.9c-0.5,8.6,2.5,18.1,0,26c-1.6-18.7-2.4-43.3-4.2-58.6v0c0.6,5.4-2-1.6-4.2,1.7c-0.5,4.4,3.4,0.5,4.2,2.5
		v4.2c-3.5-0.4-6.1,0-5.9,3.4c2.4,0.1,5.7-0.7,5.9,1.7v4.2C520.8,392.1,514,389.8,513.3,393.6 M422,452.2
		c0.4-25.1,4.2-45.6,4.2-74.6c-1.1,0-1.2-1.1-2.5-0.8C425.1,403.2,416.4,429.6,422,452.2 M423.7,376.8
		C423.7,376.8,423.7,376.8,423.7,376.8L423.7,376.8L423.7,376.8z M241.9,389.4c1.3,5.6-2.7,11.5,0.8,14.2c2-5.5,2.8-11.2,0.8-17.6
		h-4.2C238.7,388.7,242.2,387.2,241.9,389.4 M465.6,439.6c2.2,0,4.9-0.5,5,1.7c0.4,3.9-3.1,9.9,1.7,10.9c3.7-12.8,0.9-27.8,0.8-41
		c-0.1-7,3.3-18.4-1.7-20.9l0,0c1.2,3.7-2.8,2.2-2.5,5c2.5,0.9,2.9,3.8,2.5,7.5c-1.1,1.2-4.1,0.4-4.2,2.5c3.2,0.8,3.9,3.9,3.4,8.4
		c-1.9-0.3-3.2,0.1-4.2,0.8c-0.9,4.3,5.9,0.8,5,5c0,3-5.9,0.2-5,4.2c2.2,0,4.9-0.5,5,1.7c-1.1,1.7,0.4,6-3.3,5
		c-0.3,2.8,3.7,1.3,2.5,5C470.6,438.5,466.6,437.6,465.6,439.6 M257.8,400.3c3.2-1,9.3,0,8.4-3.4c-5.4-0.3-12.9,3.2-20.1,0
		C245.6,404.8,253.2,401.7,257.8,400.3 M571.1,399.4c-4.9,3.2-12.2,4-15.1,9.2C562.5,407,568.4,404.8,571.1,399.4 M556,408.6
		L556,408.6C556,408.6,556,408.6,556,408.6L556,408.6z M269.6,411.2c3.3,0.8,2.5-2.5,5.9-1.7c0.7-2.7-2.2-1.7-2.5-3.4
		c1.8-1.2,2.7-5.7-0.8-5.9c0.1,4.3-3.5,4.9-5.9,6.7C267.6,408,269.5,408.7,269.6,411.2 M557.7,412c5.9-1.6,11.7-3.4,14.2-8.4
		C567.9,407.1,559.4,406.1,557.7,412 M559.4,415.3c6.9,0,18.7-5.1,15.1-8.4C571.8,412.1,561.7,409.9,559.4,415.3 M267.9,412
		c-0.2-3.2-3.4-3.3-5.9-4.2C261.6,411.5,264.5,412,267.9,412 M355,409.5c-0.2-0.7-0.7-1-1.7-0.8h0c1.8,14.2-0.9,28.6,0,44.4
		c-2.8,1.6-8.2,0.7-10.9,2.5c1.8,1.6,6.1,0.6,9.2,0.8c2.4-1,3.8,5,4.2,0.8C355.2,445.4,357.3,423.7,355,409.5 M589.6,413.7
		c-0.2-0.9-0.9-1.3-1.7-1.7c-0.3,7-12.7,1.9-15.1,6.7c1.1,1.3,3.6,3.1,1.7,5c-2.7-1.2-5.8-6.4-9.2-4.2c5.2,2.4,7.4,7.6,13.4,9.2
		c-1.1-2.5-0.6-6.7-1.7-9.2C584,420.4,588.3,418.6,589.6,413.7 M428.7,456.4c1.1-12.9,0.5-27.4,1.7-40.2c-0.2-0.7-0.7-1-1.7-0.8
		C428.4,428.6,421.8,448,428.7,456.4 M558.6,420.4c4.2,4.5,9.6,7.7,15.9,10.1C574.2,425.3,564.4,422.7,558.6,420.4L558.6,420.4z
		 M361.7,458.9c1.8-13.2-1.9-24.9,0-35.2c-0.2-0.9-0.9-1.3-1.7-1.7l0,0c-0.6,5.4-0.9,15.7-0.8,24.3C359.2,451,357.4,458,361.7,458.9
		 M204.2,430.4C204.2,430.4,204.2,430.4,204.2,430.4C204.2,430.4,204.2,430.4,204.2,430.4L204.2,430.4z M226.8,434.6
		c7.6-0.5,18.1,2.6,22.6-2.5c-14.8,3.2-30.7,0.4-45.2-1.7C209,435.6,220.5,435,226.8,434.6 M143.1,446.3c0.9-2.6,0.8-10.6-1.7-12.6
		C140.6,436.3,138.6,446.3,143.1,446.3 M148.1,438.8c-1,2.3-1,5.1,0.8,6.7C148.4,443.5,150,439.4,148.1,438.8 M318.1,458.1
		c5.5-1.1,0.8-9.1,1.7-13.4h-2.5l0,0C317.7,449,316.4,455.1,318.1,458.1 M298.9,455.6c-0.1-3.2,0.7-7.4-1.7-8.4
		c-0.4,2.9-0.4,6.3-1.7,8.4H293c-0.2-3.4,0.7-7.9-2.5-8.4c0,4.8,0.1,9.6-5.9,8.4c0.5,4.5,6.4,2.3,10.1,2.5c3,0.2,6.7,1,9.2,0.8
		c3.5-0.2,9.7,0.6,11.7-2.5c-5.2-0.1-11,0.4-11.7-4.2C302.7,453.8,302,455.9,298.9,455.6 M325.7,459.7c1-2.8,1-10.8-1.7-12.6h0
		C324.5,452.5,321.5,457.3,325.7,459.7 M330.7,456.4c4.3,0.4,2.3-7.9,0-8.4C328.8,450.2,330.6,453.7,330.7,456.4 M341.6,455.6
		c-3.6,0.8-0.1-5.5-3.4-5v0C334.5,452.4,338.2,458.8,341.6,455.6 M205.9,458.1L205.9,458.1c-4.3-0.2-10.3,5.3-9.2,10
		c0.3,1.5,4.2,6.8,6.7,2.5c-2.5-1.1-5.4-1.9-5.9-5C199.2,461.9,204.5,462,205.9,458.1 M256.2,462.3c-2.2-3.1-6.2-0.1-5.9,4.2
		C254,466.8,256.5,466,256.2,462.3 M260.3,474c-1-5.4-5.4-3.7-10.9-3.3c-2,4.2-6.4,5.7-10.9,3.4c-1.9,1.8-6.4,4.3-4.2,7.5
		c3.1,0,0.9-5.2,4.2-5c2.4,0.1,5.7-0.7,5.9,1.7c1,5-2.3,5.5-3.4,8.4c7.6,0.4,9.1-5.5,8.4-13.4c2.6,0.6,2.5-1.4,5-0.8
		c1.7,1.7,0.6,5.6,0,7.5C258,479.4,258.8,476.4,260.3,474 M260.3,474C260.3,474,260.3,474,260.3,474C260.3,474,260.3,474,260.3,474
		L260.3,474z M549.3,423.7c2,2.5,4,8.5,1.7,12.6c-4.1,2.1-10.5,0.2-14.2-0.8c-0.5,4.6,1.3,7.1,4.2,8.4c5,0.8,6.3-5.6,10.1-3.4
		c-2.4,1.7-4.3,9.2-8.4,10.9c-4,1.6-8.8,0.7-10.9-2.5c-4,0.2-3.9,4.5-5.9,6.7c-8.5,2.8-20.8,1.8-29.4,4.6c-3.8,0.9-7.2,2.4-10.1,4.4
		c-3.3-0.9-7.3-1.4-11.5-1.6c-1.9-0.1-3.9-0.1-5.9-0.1c-0.2,0-0.4,0-0.7,0c-3.3,0-6.8,0.2-10.2,0.4c-3.4,0.2-6.9,0.5-10.2,0.7l0,0
		c-5.4,0.4-12,0.6-15.1,4.2c1.3-0.2,2.5-0.3,3.8-0.5c5.9-0.7,11.7-1,17.4-1.1c7.2-0.2,14-0.2,20.6-0.5c3.7-0.2,7.4-0.5,10.9-1
		c-1.5,1.1-2.8,2.3-4.1,3.6c-20.1,0.3-39.5,0.9-57.9,2.1c-2.7,0.7-2.6-1.3-3.4-2.5c-2.3-0.6,0.6,4-1.7,3.4c-10.6,4-22,0.3-32.7,0
		c-36-1-72.7-1.7-108.9,0.8c-1.4,1.7-0.9,5.2-1.7,7.5c-2.6,1.7-6,2.5-9.4,3.4c-3.8,0.7-7.3,2.1-10.3,4c-0.8,0.4-1.4,0.8-2.2,1.2
		c-2,0.6-3.8,1.4-5.5,2.3c-0.8,0.3-1.5,0.6-2.2,0.9c-0.7,0.2-1.4,0.4-2,0.6c-5,0-10,0-14.9-0.1c-2.2-0.5-4.6-0.8-7.2-0.8
		c-1.9-0.6-3.9-1-6.2-1.2c-1.7-0.7-3.6-1.2-5.6-1.5c-2.2-1.4-4.8-2.6-7.6-3.3c-0.6-0.3-1.2-0.7-1.5-1.4c-8.8,0.8-14.9-5.1-13.4-11.7
		c3.6,0.8,2.8,6.1,5.9,7.5c4.1,1.2,8.3,2.4,12.6,3.4c3.9,4.6,15.7,7,22.6,3.4c-0.1-2.4,0.5-5.5-0.8-6.7c-7.3-1.6-18.3,6.2-24.3-1.7
		c0-3.7,2.5,1.8,5.9,0c7.3-1.1,13.3-16.7,1.7-17.6c-0.4-1.8,1.2-1.6,2.5-1.7c-5.5-5.2-9.9-13.9-1.7-20.9c-0.6-1.9-4.8-0.2-4.2-3.4
		c7.9,1.4,26.4,3.8,37.7,1.7c4.1,1.7-1.9,3-2.5,5c2.4,1.2,4.3-2.3,5,0c0,4.6-9.1,2.9-6.7-2.5c-5.6,2.2-12.4,0-17.6-0.8
		c2.5,3.1,9,2.2,7.5,9.2c2.8,0.9,1.3-2.6,1.7-4.2c1.7,2.3,2.7,7.2,2.5,13.4c1.7,4.5,11.1,5.7,14.2,1.7c-3.8-8.2,7.5-20.8,1.7-28.5
		h-17.6c4.1-2.9,14,0,15.9-5c-6.8-2.2-18,2.5-24.3,0.8c1.6-3.7,10.8,0.1,11.7-4.2c1.3-3.8-5.5,0.4-4.2-3.4
		c7.1-1.3,13.6-3.2,20.9-4.2c1.5-0.8,1.5-2.9,2.5-4.2c2.5,2.7-0.4,7.1-0.8,11.7c-1,10.2-0.1,21.8-3.4,29.3c2.4,2.7,7.6,2.5,10.1,5
		c4.9-3.1,0.3-7.8,0-12.6c2.5-1.4,5.9,2.1,8.4,3.4c0.7,3.5-1.6,4-1.7,6.7c1.9,1.7,0.9-0.2,2.5-0.8c3,0.6,1.6,5.6,6.7,4.2
		c2.4-1.1,1.7-5.3,0-6.7c0.3-2.7,4.4-4.4,1.7-7.5c-2.5-3.7-7.2,1.2-10.1-0.8c0.3-4.4,8.7-0.8,10.1-4.2c-3.3-2.4-8.6,0.3-12.6,0
		c-0.2-5.5,8.8-1.8,11.7-4.2c-0.9-5.5-7.3-0.4-11.7-1.7c0.2-4.8,9.4-0.6,10.9-4.2c-0.9-4-7.6-2.3-10.9-1.7c1.1-3.7,7.3-2.1,10.1-4.2
		c-1-3.2-7.3-1-10.9-1.7c2-3.9,11.4-0.4,9.2-8.4c5.9,3.1,3.7,12.1,5,18.4c1.4,6.3,4,17.3,2.5,28.5c-6.9,2.2-10.4-2-15.9,0.8
		c-0.1,4.3,4.5,3.9,4.2,8.4c-5-0.9-6.9-4.8-8.4-9.2c-4.5,1-5.3,0.2-8.4-1.7c-2.1,5.9-10.3,11.2-16.8,7.5c-1.3,2.9-5.6,2.8-10.1,2.5
		c-3.3,2.7-3,6.5-5.9,10.9c2,0.1,8.5,0.3,10.9,2.5c0.9,2.2,1,5.1,0.8,8.4c17.8,2.2,25-6.3,36-10.9V469c13.5-4.7,34.4-1.9,50.3-4.2
		c-17-2.5-32.2-0.6-48.6-2.5c1.4-3.2,6-1.6,8.4-1.7c26.5-0.7,56.3,2.9,85.4,0c3.4-1.4,1.1-8.4,5-9.2v9.2h3.4
		c3.4,0.3,0.9-5.2,1.7-7.5c3.4,0.2,1.8,5.5,3.4,7.5h7.5c2.8-2.5-1.6-12.2,2.5-13.4c-0.5,5.3,0.6,8.9,0.8,13.4
		c2-2.6,1.1-11.3,2.5-16.8c1.5,1.9,1.8,4.4,0.8,6.7c6.2-0.3,11-0.3,15.1-0.8c0.9-4.5-3.6-3.4-5.9-2.5c-0.5-3.8,5.6-1.1,5.9-4.2
		c1.2-4-4.8-0.8-4.2-4.2c2.6,0,4.3-0.8,5-2.5c0.7-2.7-2.2-1.7-2.5-3.4c-0.7-2.7,2.8-1.1,2.5-3.4c-0.2-16.9,2.1-44.9,0.8-60.3
		c5,1.9-1.2,10,5,10.1c-0.3,2-2.9,1.6-2.5,4.2c0.8,25.4-0.7,52.8-1.7,73.7c-4.1-0.2-15.4-3.3-16.8,1.7c2.4,3.8,11.6,0.7,16.8,1.7
		c1.6-3.5,4.5-5.5,9.2-5.9c3.6,0.3,3.2,4.6,5,6.7c3.4,0.6,2.9-2.7,6.7-1.7c0.2,3.3-3.6,2.6-3.4,5.9c6.3-3.7,17-3.1,26-4.2
		c-3.4-5.4-14.7-2.2-20.9-1.7c1.6-3.2,3.7-5.7,4.2-10.1c3.1-0.3,0.4,5.2,2.5,5.9c5.6,1.7,3.3-4.5,5-6.7c2.3,1.1,0.5,6.2,3.4,6.7
		c2.1-0.7-0.2-5.8,1.7-6.7c2.9,0.5,1.3,4.9,0.8,6.7c5.5,1.9,1.2-6,5-5.9c-0.5,2.7,0.6,3.9,0.8,5.9c14.3,3.6,27.2-1.2,31-10.9
		c-1.9-6.9-2.2-19.4-1.7-30.2c0.4-7.2,2.6-13.9,3.4-20.1c0.4-3.1-1.5-11.3,1.7-11.7c2.8,1.3-0.4,11-0.8,16.8
		c-0.3,3.5,0.3,6.8,0,10.1c-0.3,2.7-1.8,5.9-1.7,8.4c0.4,6,5,12.2,5.9,18.4c0.9,6.1-0.8,10.3,0,15.9c4.2,0.9,4.4-2.3,4.2-5.9
		c4-1.2-0.6,6.2,3.4,5c3.9,0,0-7.8,2.5-9.2c3.1,1.1,0.2,8.1,3.4,9.2c4.8,0.6,0.9-7.4,3.3-9.2c2.2,1.4,0.9,6.4,3.4,7.5
		c1.7-2,1-6.3,2.5-8.4c2.5,1.8,0.2,6.6,3.4,9.2c6.6-3.4,17.5-4.3,13.4-15.9c0.5-4,3.8-5.1,2.5-10.9c2.7,1.2,2.7,5.1,3.4,8.4
		c3.7,0.4-0.6-7.3,3.3-6.7c0.3,3.9,1,4.8,0,8.4h5.9c1.6-3.2-0.5-6.4-2.5-8.4c-3.2-17.5-4.7-41.1-6.7-57c6,3.7,4.2,12.3,5,21.8
		C545.3,401.8,549.1,413.2,549.3,423.7 M393.5,455.6C393.5,455.6,393.5,455.6,393.5,455.6c5.5-1.1,10.3,0.4,13.4-1.7c0,0,0,0,0,0
		C404,451.1,395.1,450.5,393.5,455.6C393.5,455.6,393.5,455.6,393.5,455.6C393.5,455.6,393.5,455.6,393.5,455.6L393.5,455.6z
		 M265.4,452.2c2.5,0,2.1-2.9,2.5-5h0c-1.1,0-1.2-1.1-2.5-0.8V452.2L265.4,452.2z M234.4,463.1c-0.1-0.3-0.7-0.6-1.3-0.6
		c-0.3,0-0.6,0-0.8,0.1c-0.2,0.1-0.4,0.3-0.5,0.5C231.3,465.1,235.1,464.9,234.4,463.1 M231.4,454.6c-0.1,0.8,1.4,0.9,2.2-1.5
		C232,453.5,231.4,454.1,231.4,454.6 M221,460.6c0.6,2.4,1.3,4.8,3.4,5.9c1.2-0.2,2.2-0.6,2.9-1.3c0.8-0.6,1.4-1.4,2-2.2
		c0.6-0.8,1.3-1.5,2.1-2.1c0.8-0.6,1.8-1,3-1.2c0.3,0.7,0.8,1.3,1.4,2c1,0.9,2.4,1.7,3.8,2c0.4,0.1,0.7,0.1,1.1,0.2
		c1.1,0.1,2.1-0.2,3-0.8c-0.9-0.2-1.9-0.5-2.9-0.8C234,459.7,227.2,453.5,221,460.6 M228.6,455.1c0.4-0.3,0.7-0.6,0.7-1
		c0-0.4-0.2-0.7-0.9-1c0,0.2-0.1,0.4-0.2,0.5c-0.7,1-2.9,0.5-3.2,2C226.3,456,227.8,455.7,228.6,455.1 M220.1,458.1
		c0.6-0.7,0.7-1.2,0.5-1.6c-0.4-0.9-2-1.5-2.7-2.7c-0.1-0.2-0.2-0.5-0.3-0.8c0-0.1-0.1-0.2-0.1-0.2c-0.1-0.4,0-0.8,0.1-1.3
		c5.2,5.1,13.1,0.2,12.8-5.5c0-0.4-0.1-0.8-0.2-1.2v0c-0.6-2.5-9.8-6.7-11.7-6.7c-6.3,0.1-9.1,4.9-10.1,10.9h0
		C211.1,453.2,215,456.2,220.1,458.1 M220.2,462.6c0-1-0.3-1.6-1.8-1.2c-0.1,2.1,0.4,3.5,1.7,4.2v0c0,0,0,0,0,0
		c0-0.2-0.1-0.4-0.1-0.7C220.1,464.2,220.2,463.3,220.2,462.6 M221.7,471.2c0.1-1.7-0.3-3.4-1.5-4.8c0.5,6.9-4.4,8.4-6.7,12.6v0h0
		C218,479.4,221.4,475.3,221.7,471.2 M232,482.3c-0.3-0.3-0.6-0.6-0.9-0.8c0.1,0.3,0.1,0.7,0.1,1.1c0,0,0,0,0,0.1
		c0,0.5-0.1,1-0.2,1.4c-0.1,0.9,0,1.7,0.9,1.6C232.9,484.8,232.7,483.3,232,482.3 M291.5,469.3c0.1-0.2-0.6-0.3-1.6-0.3
		c-0.2,0-0.4,0-0.6,0c-0.4,0-0.9,0-1.4,0c-0.2,0-0.5,0-0.7,0c-0.7,0-1.4,0-2,0c-0.2,0-0.4,0-0.6,0c-1,0-2,0-3,0h0
		c-3,0-6.1,0.1-7.9,0c-0.1,0.8,0.2,1.2,0.6,1.5c0.2,0.1,0.5,0.2,0.8,0.2c0.3,0,0.7,0,1.1-0.1c0.9,0,1.8,0,2.7-0.1
		c1.7-0.2,3.4-0.4,5-0.6c0.8-0.1,1.7-0.2,2.6-0.2c1.2-0.1,2.5,0,3.9,0.1C291.1,469.6,291.4,469.4,291.5,469.3 M338.2,467.3
		C338.2,467.3,338.2,467.3,338.2,467.3c-6.6,0.5-16.5-3.4-20.1,1.7c0,0,0,0,0,0C323.4,466.9,333.1,469.4,338.2,467.3
		C338.2,467.3,338.2,467.3,338.2,467.3L338.2,467.3L338.2,467.3z M364.2,469C364.2,469,364.2,469,364.2,469c0-0.2,0-0.3-0.1-0.4
		c0-0.2,0-0.4-0.1-0.5c0-0.1-0.1-0.2-0.2-0.2c-0.1-0.1-0.1-0.2-0.3-0.3c-0.4-0.3-1.1-0.3-1.9-0.2v1.7v0H364.2z M422,465.6
		C422,465.6,422,465.6,422,465.6c-0.7-3.5-1-7.3-5.9-6.7v0c-2.7,0.4-0.5,5.6-3.4,5.9c-7.2-1.6-18-3-25.1-0.8
		c-5.5-1.1-11.7-1.9-17.6-1.7c-3.7,0.1-9.1,0.2-12.6,2.5l0,0C379.4,465,402.1,468.3,422,465.6 M464.7,458.9h-8.4
		c-0.1,3.5,5.8,0.9,8.4,1.7V458.9z M490.7,448.9L490.7,448.9c0.3,0,0.6-0.4,0.8-1c0.6-1.7,0.4-4.9-1.6-4.1h0c0.1,0.1,0,0.3,0.1,0.4
		c0.1,1.2-0.9,2.6-1,3.6C488.9,448.5,489.3,448.9,490.7,448.9 M488.2,434c0,3.5,0.5,6.7,3.4,7.3v0c0,0,0,0,0,0
		c-0.2-0.4-0.3-0.8-0.4-1.3c0,0,0,0,0-0.1c0-0.2-0.1-0.5-0.1-0.7c-0.2-1.5-0.2-3.1-0.4-4.7c-0.2-2-0.7-3.7-2.5-4.2
		C488.2,431.6,488.2,432.8,488.2,434 M492.4,453c-0.9-0.1-1.7-0.1-2.5-0.1c-5.6,0-9.4,1.8-10.1,6.8h0c1.8,0.5,3.9,0.9,5.9,0.9
		C490,460.7,493.8,459,492.4,453 M513.3,453.9c-2.2,0.2-4.6,0.3-6.9,0.5c-1.3,0.1-2.5,0.1-3.7,0.3c-1.1,0.1-2.2,0.3-3.3,0.5
		c-1.4,0.3-2.6,0.7-3.7,1.3c0.8-0.1,1.6-0.1,2.4-0.1c5.7,0,12.3,0.9,14.9-2.2C513.1,454,513.3,454,513.3,453.9 M535.1,448
		c0.7,0.4,1.4,0.6,2,0.6c0.6,0,1.2,0,1.8-0.2c0.9-0.2,1.9-0.5,3.2-0.5c0.4,0,0.9,0,1.4,0C542,445.5,535.1,442.7,535.1,448
		 M680.9,180c-0.1,14.5-8.3,23.8-12.6,35.2c-2.9,7.8-5.1,16-7.5,24.3c-4.7,15.6-12.1,31.1-15.9,48.6c-1.3,5.8-1.5,11.8-2.9,17.5
		c-0.1,0.1-0.1,0.3-0.2,0.5c0,0.1-0.1,0.1-0.1,0.2c0,0,0,0.1,0,0.1c-0.1,0.1-0.1,0.3-0.1,0.5c0,0.1,0,0.1,0,0.2
		c-0.1,0.2-0.1,0.3-0.2,0.5c-0.1,0.2-0.2,0.4-0.3,0.6c0,0.1-0.1,0.2-0.1,0.3c0,0,0,0,0,0c-0.5,0.9-1,1.8-1.3,2.7
		c-0.2,0.6-0.4,1.2-0.4,1.8c-0.4,2,0.4,5.1-1,6.1c-0.4,2.9,4.5,0.5,5,2.5c-0.4,4.1-0.1,8.9-5.9,7.5c3.1-3.4,2.5-5.7-1.7-7.5
		c-0.2-8.9,3.2-17,5-25.1c3.1-14.2,6.5-27.5,10.9-40.2c1.8-5.1,4.9-11,5.9-15.9c0.3-1.7-0.5-4.2,0-5.9c2.3-7.9,6.8-16.1,10.1-23.5
		c1.6-3.6,3.2-8.1,5-11.7c1.7-3.3,6.7-6.9,2.5-10.9c-5.4,3.6-8.1,10.8-10.9,16.8c-1.5,3.1-2.8,6.6-4.2,10.1
		c-10.8,26.2-18.5,59.5-26,91.3c-0.7,3.1-1.2,8.1-4.2,10.1c1.9-21.3,9.8-44.5,14.2-66.2c1.2-5.7,2.5-10.7,4.2-15.9
		c1.4-4.3,4.5-9.8,2.5-14.2c-5.1,1.6-3.8,8-5,11.7c-1.7,5.3-4.4,10.2-5.9,15.9c-1.6,5.9-1.8,12.3-3.4,18.4c-1.1,4.5-4,8.8-5,13.4
		c-2.3,10.7-1.1,22.6-7.5,31c-3.6-2-1.5-7.4-0.8-10.9c1.1-6.1,3.9-12.4,5-17.6c4.4-20.6,7.5-43.8,15.1-61.1
		c-2.3-3.3-7.1,0.6-10.1-2.5c0-2.5,2.2-2.8,2.5-5c3.2-0.4,2.6,3,4.2,4.2c1.8,0.1,0.4-3,0.8-4.2c2.2-0.2,3.6,0.3,3.4,2.5
		c4.2-1.1,7-3.7,9.2,0c0.5-1.1,1.8-1.6,3.3-1.7c4.7-5.9,6.8-14.5,10.9-20.9c-3.9-3.7-14.3-0.7-20.9-1.7c-3.9,0.8-2.8-3.4-6.7-2.5
		c-5.7,15.8-8.7,32.3-13.4,51.1c-1.1,4.4-2.6,10.2-5.9,13.4c0.5-10.9,4.7-21.1,7.5-31c3.3-11.8,4-24.3,10.9-33.5
		c-1.3-2-3.1-3.6-2.5-7.5c2.3-5.5,10.6-4.6,13.4,0c0.4,4-1,6.3-2.5,8.4c6.3,0,14.3-2.3,20.1,0c3.6-2.7,1.4-6,2.5-10.9
		C673.1,175.4,678.7,175,680.9,180 M647.4,185.8c1.3-6.7-9.6-8.1-7.5,0C641.8,186.5,645.6,187.5,647.4,185.8 M645.4,223.5
		c-0.1-0.3-0.3-0.6-0.6-0.8v0v0c-0.1,0.2-0.2,0.5-0.3,0.9c-0.2,0.6-0.4,1.2-0.6,1.9c-0.3,0.9-0.7,2-0.9,2.8
		c-0.2,0.6-0.3,1.2-0.3,1.6c0,0.2,0,0.4,0.1,0.5c0.1,0.1,0.2,0,0.4-0.2C643.3,228.1,646.2,225.4,645.4,223.5 M654.6,224.2
		c0.1-0.4,0-0.8,0-1.2c-0.1-0.4-0.2-0.8-0.5-1.1c0,0.5-0.1,0.9-0.2,1.4c-0.1,0.5-0.3,0.9-0.5,1.4c-0.4,0.9-0.9,1.8-1.3,2.7
		c-0.2,0.4-0.4,0.9-0.6,1.3c-0.3,0.8-0.5,1.6-0.4,2.3c0.1,0.4,0.2,0.7,0.4,1c0.3-1.6,1.4-3.4,2.2-5.1
		C654.2,225.9,654.5,225,654.6,224.2 M676.7,179.1c-3.6,0.1-5.3,2-5,5.9c0.3,0.2,0.6,0.4,1,0.5c0.7,0.3,1.5,0.4,2.3,0.7
		c0.4,0.1,0.7,0.3,1,0.5C677.5,185.5,678.4,181.1,676.7,179.1 M187.5,466.4c-8.3-0.8-14.6,0.5-15.1,7.5c-6.1,0-8,3.6-12.6,2.5
		c-7.8-1.9-6.3-13.6-5.9-21.8c-5.2-3.2-15.6-3.4-23.5-5c-2-0.4-6.3,0.1-6.7-2.5c2-1.4,4.7,2.1,9.2,0.8c-2.6-1.6-3.1-3.1,1.7-2.5
		c0.9-3.8-2-11.5,1.7-12.6c-0.6,5.4,1,8.5,0.8,13.4c2.4,1.4,6.3,2.4,8.4,0c3.7,1.3,0.1,5.3,6.7,4.2c3-0.5-0.2-4.7,0.8-8.4
		c2.8-4.7,4.4-13.2,5-17.6c-0.2-1.2-2.5-0.3-2.5-1.7c-4-20.7-1-54.2-0.8-75.4c-9.4-3.8-21.9-2.2-30.2,1.7
		c-1.5,9.3-0.1,18.8-0.8,29.3c-0.6,8.5-1.4,16.3-2.5,26.8c-0.8,7.7-3.6,16.6-2.5,20.1c1.5,5,12,6.5,12.6,10.9
		c0.6,4.9-10.7,13.6-17.6,10.9c-3.5,3.6-11.3,6.9-17.6,5c-3.5,12.7-3.8,25.2-5.8,36.8c-0.4,1.3-0.7,2.6-1,3.9
		c-0.3,0.1-0.6,0.2-0.8,0.3c-1.6-0.5-3.3-1-5.1-1.2c-0.7-1-1.5-1.9-2.3-2.8c-0.1-0.6-0.2-1.2-0.3-1.8v0c4.8-13.9,5.7-31.9,9.5-46.9
		c0,0,0,0,0,0c-1.7-1.9-2.8,3.9-5.9,3.4c-3.8-4.4-14.7,0.8-18.6-1.9c0,0,0,0,0,0c-0.2-0.2-0.5-0.4-0.7-0.6c0,0,0,0,0,0
		c1.4,0.5,11.9,0.7,11.2-1.9c0-0.2-0.1-0.4-0.3-0.6v0c-7.4-1-32.1,5.3-35.2-4.2l0,0c7.5-1.2,21.8-0.6,31.8-0.8
		c3.3-0.1,8.4,1.5,10.1-1.7c0,0,0,0,0,0c-1.7-2.3-4.3-3.3-6.7-5c-2.1-1.5-3.5-4.1-6.7-5c-7.6-2.1-17.6,2.6-21.8-5c0,0,0,0,0,0
		c1.5-6.4,2.3-13.5,3.8-20c0.4-0.8,0.8-1.5,1.1-2.3c1.1-2.6,1.4-5.3,1.6-8.1c0.2-2.7,0.4-5.4,0.8-8.1v0c1.4-7.6,2.2-16.4,1.7-24.6
		c0,0,0,0,0,0c0.4-2,0.6-4.1-0.4-5.7c-1.5-2.4-5.8-2.5-8.3-2.8c-5.7-0.8-11.4-1.4-17.1-2c0,0,0,0,0,0c-1.5-0.2-1.9,0.6-1.9,1.7
		c0,0.1,0,0.3,0,0.4c0.1,0.9,0.3,1.8,0.2,2.1c-0.8,2.8-1.1,5.8-1.3,9c0,0.4,0,0.8,0,1.2c-0.2,5-0.1,10.4-0.3,15.8
		c-1.3,29.5-5.9,63.8-17.6,84.6c0,0,0,0,0,0c0.1,1.2,0.2,2.3,0.1,3.3c-0.1,3-1.1,5.2-3.5,6c-5.1-1-6.7-2.7-6.5-4.9
		c0.2-2.9,3.1-6.6,4.8-11c4.8-12.2,5.4-21.4,7.5-36.9c1.8-13.2,2.9-30.4,3.3-47.6c0.1-5.7,0.2-11.4,0.2-17c0-13.3-0.4-25.7-1.1-35.1
		c-0.3,0-0.7,0-1,0c-0.1-1.1-0.2-2.1-0.3-3.2c0-1.4-0.1-2.7-0.3-4.1c0-0.5-0.1-1-0.1-1.6c-0.2-31-2-62.9-4.9-94.2
		c4.3,2.6,2.7,8.4,3.4,12.6c0.7,4.7,2.2,9.5,2.5,14.2c0.5,6.8-0.6,13.4,0,20.1c4.4,49,8.7,115.9,0,165.9c-1.7,10-4.6,19.4-6.7,28.5
		c5.5-3.4,6.5-11.6,8.4-18.4c1.8-6.4,3.9-14,5-20.9c0.6-4-0.1-8.4,0.8-12.6c2.2-10.3,3.6-31.5,4.2-44.4c0.3-5.8-1.6-12.1,2.5-16.8
		c19.8,4.5,42.4,6.2,62.8,10.1c0.8,3-3.3,1.2-5,1.7c1.4,28.4-1.1,55.3,0.8,84.6c4.4-1.6,2.2-7.6,2.5-10.9
		c1.7-18.5,2.4-41.8,2.5-61.2c0-3.8-3-9,1.7-10.9c3.8,1.5,3.1,5.6,3.4,8.4c0.6,5.6-0.1,12.6,0,20.1c0.1,10.4,0.8,21.2-0.8,30.2
		c-0.6,3.3-0.6,5.4-0.8,10.1c-0.3,6.5-3.6,13.9-4.2,20.9c-1,12.9-3.3,25.2-4.2,37.7c5.5-2.4,2.1-11.3,3.3-19.3
		c0.4-2.6,2-4.9,2.5-7.5c2-10.3,2.8-22.5,4.2-34.3c1.4-11.8,2.5-23.6,2.5-35.2c0-1.4,0.5-3.7,0.8-5c2.6-11.3,2.5-33.2,2.5-51.9
		c0-38.7-2.1-70-3.4-108.9c-1.2-1.8-2.2-3.9-5.9-3.4c-1.4,4.8,4.8,1.9,4.2,5.9c-2.4,0.7-2.2-1.2-4.2-0.8c0.3,11,2.6,24,1.7,33.5
		c-4.5-1.3-2.2-8.5-2.5-13.4c-0.2-3-1.5-9.4-0.8-14.2c-18.4,0-46.3-1.2-68.7-4.2c-4.4-9.3-22.6-10.9-16.8-25.1
		c2.8-1.4,6.1-0.6,9.2,0c4.4-17.4,6.8-36.7,15.1-50.3c-2.5-16.5,6-16.5,18.4-20.1c3.9-1.1,8.3-3.9,12.6-5c7.6-2,13.6-1.7,14.2-10.1
		c0.1-1.6-1.9-3-2.5-5.9c-0.4-1.8,0.4-3.7,0-5c-1.3-4-4.3-6.2-4.2-10.1c0.1-2.4,3.2-5.6,4.2-8.4c1.2-3.3,0.4-6.7,1.7-9.2
		C78.8,65.5,97,56.9,107,59.3c6.2,1.5,12,9.1,15.9,15.1c3.4,5.2,7.4,12.2-0.8,15.1c-1,13.3-4.2,20.2-8.4,31
		c-2.3,1.6-4.1,3.7-7.5,4.2c0.8,3.7,4.4,4.5,9.2,4.2c3.5,4,11.6,3.5,17.6,5c2,4.1,7.9,6.3,10.1,10.9c2.5,5.3,1,11.4,1.7,17.6
		c1.9,17.2,11.8,31.6,17.6,42.7c7.8,1.4,16.2,2.2,24.3,3.4c1.9-5.1-0.9-14.9,5.9-15.1c-0.6-3.9-5.1-3.9-4.2-9.2
		c12.5,1.5,25.6,2.4,36.9,5c-1.5,5.5-5.7,8.3-12.6,8.4c2.1-3.2,8.2-2.4,9.2-6.7c-10-1.2-19.4-2.9-29.3-4.2c-2.1,3,4.5,4.4,4.2,8.4
		c-3.3-0.5-4.9,0.7-6.7,1.7c0.1,13.8-1.9,23.3-1.7,39.4c-4.4,1.2-9.4,1.8-13.4,3.4c-1.7,0.3-2.6-0.2-2.5-1.7c-5.7,5.5-16-1.8-22.6,0
		c-1.9,1.6,1.1,5.6,0,9.2c11.2,1.9,25.9,0.3,38.5,0.8c-1.6,5.2-7.6,1.7-10.9,1.7c-8.2-0.1-17.5,0.5-26,0c-1.6,6.8-0.6,15.3,0,20.9
		c18.8,2.4,38.3,4.2,57,6.7c-4.4,3.6-10.3,0.5-15.9,0c-13.6-1.3-28.3-1.9-40.2-4.2c-2.9-0.4-0.5,4.5-2.5,5c-2,0.5-4.8,0.9-9.2,0.8
		c-3.4,6.9-0.6,16.4,3.4,20.9c8.3,0.4,13.4,2.2,21.8,5c3.6,1.2,8.3,1.9,11.7,3.4c3.3,1.4,6.3,4.7,9.2,5.9
		c7.5,3.1,16.8,3.6,18.4,12.6c0.7,3.8-1,11.5-1.7,15.1c-3.2,17.9-8.7,38.2-10.1,58.6c8.3-1.5,17.5-2.1,27.6-1.7
		c4.9-7.1,9-15,14.2-21.8c0.8-4.2-0.5-10.5,4.2-10.9c-0.9,13.6-8.6,20.4-13.4,30.2c0.6,0.8,6.6-1,7.5,1.7c-0.6,2.6,0.9,3,0.8,5
		c-4.9,2.8-16.3,8.3-16.8-2.5c-8.9,1.5-20.4,0.3-27.6,3.4c2.3,3.1,7.8,3.6,11.7,4.2c16.7,2.5,35.4,1,53.6,1.7
		c-19.2,4.7-51.6,3.8-67-3.3c0,0,0,0,0,0l0,0c0,0,0,0,0,0c1.5,6.3,7.9,7.8,8.4,15.1c-0.5,4.2-3.3-5.2-6.7-0.8
		c-1.4,4.8,4.8,1.9,4.2,5.9c-2.6,4.2-1.4,11.2,0,15.9c7-1.7,1.4-10.9,0.8-15.1c2.8,0.5,3,3.7,5,5c0.5-3.3-2.2-3.4-1.7-6.7
		c10,6.7,2,23.2-1.7,31.8c-2.1,4.9-4.5,10.8-7.5,11.7c1.9-7,9.3-13,7.5-20.9c0.6-2.4,4-2.2,3.4-5.9c-0.9-2.2-4.1,4.7-5.9,1.7
		c-7.4-1.1-3.2-12.4-2.5-17.6c-6.8,0.4-5.4,9.2-5.9,15.9c1.6,2.9,5,3.9,8.4,5C195.1,456.8,190.3,460.7,187.5,466.4 M200,433.8
		c0.1,1.6,0.6,2.8,1.7,3.4C201.9,435.2,201.5,434,200,433.8 M152.3,199.2c-0.1,0.6,0,1.1,0,1.5c0.2,1.4,0.9,2.2,1.9,2.8
		c0.4,0.3,0.9,0.5,1.4,0.7C154.9,202.2,154.9,199.4,152.3,199.2 M13.2,200.1c-0.6,0.1-1.2,0.3-1.7,0.6c-1,0.5-1.8,1.3-2.2,2.4
		c-0.2,0.6-0.3,1.3-0.3,2c1,0.7,2.2,1.1,4.2,0.8c0.1-0.5,0.3-1,0.4-1.5c0.1-0.5,0.3-1,0.4-1.6C14.2,201.8,14.1,200.9,13.2,200.1
		 M17.4,209.3c0.1-1.1-0.4-1.7-1.4-1.7c-0.3,0-0.7,0-1.1,0.1v1.7H17.4z M6.5,458.9c-0.4-0.1-0.7-0.1-1-0.1c-0.3,0.1-0.5,0.2-0.8,0.4
		c-0.4,0.3-0.7,0.9-0.7,1.5c-0.1,0.9,0.2,1.8,0.9,2.2c0.2,0.1,0.5,0.2,0.8,0.2C6.4,462.1,6.8,460.8,6.5,458.9 M58.5,350h1.7v-1.7
		h-1.7V350z M82.8,426.2c1.1-27.1,1.8-48.4,0.8-75.4c-7.9,0.1-13.2-2.4-21.8-1.7c-2.8,22.9-8.4,47.4-10.1,68.7v0h0v0c0,0,0,0,0,0
		c2.7,1.2,7,0.8,10.9,0.8c1.5-1.3-0.2-5.7,3.4-5c0.1,0.4,0.2,0.8,0.2,1.2c0,0,0,0,0,0.1c0,0.4,0,0.7-0.1,1.1c0,0.3-0.1,0.5-0.2,0.8
		c0,0.1,0,0.2-0.1,0.3c0,0,0,0.1,0,0.1c-0.4,1.6-0.9,2.8,1,3.1c1.8-2.7,0.8-8.1,2.5-10.9c0.7,1.3,0.8,2.4,0.8,3.4
		c-0.1,1.8-0.7,3.3-0.8,4.9c0,0,0,0,0,0c1.6,1.7,3,3.7,5.9,4.2c0,0,0,0,0,0c-0.3-1.1-1-3.5-1-5.5c0-1.2,0.3-2.3,1-2.8
		c0.7,0.5,0.9,1.4,1,2.5c0.1,1.9-0.5,4.3-0.5,5.9c0,1.1,0.2,1.9,1.2,1.7c3.5,3.7,2.7-4,5-4.2c0.1,0.3,0.1,0.7,0.1,1.1
		c-0.1,1.6-1,3.5-1.1,5c-0.1,1.1,0.3,2,1.9,2.2C82.8,427.3,82.8,426.8,82.8,426.2 M86.1,484c-0.7,0.7-1.2,1.6-1.5,2.7
		c-0.3,1.1-0.3,2.4-0.1,4c0.6,0.1,1.1-0.1,1.5-0.5c0.4-0.3,0.8-0.8,1.1-1.4C87.9,486.9,87.8,484.3,86.1,484 M119.6,435.5
		c-0.2,1.8,0.7,2.7,2.5,2.5v-2.5H119.6z M142.2,154c-1.3-3.7-0.8-9.3-4.2-10.9C138.2,148.7,135.3,154.1,142.2,154 M135.5,147.3
		c0.2-0.9-0.2-2.3-0.5-2.2c-0.1,0-0.1,0-0.2,0.1s-0.1,0.2-0.1,0.4C134.5,146.8,135.2,148.9,135.5,147.3 M131.3,143.1
		c-0.1,0.8-0.2,1.7-0.3,2.5c-0.1,1.6-0.1,3.2,0.1,4.7c0.2,1.5,0.4,3,0.7,4.4c0.3,1.4,0.7,2.8,1.2,4.1c0.2,0.7,0.5,1.3,0.7,1.9
		c1.7,4.3,4.7,8.2,6.7,12.6c2.2,4.7,3.4,10.2,6.7,13.4c-3-10.1-7.3-20-10.9-29c-1.2-3-2.3-5.9-3.3-8.7c-0.1-0.2-0.1-0.5-0.1-0.8
		C132.9,146,134.1,142.5,131.3,143.1 M134.7,287.2h1.7v-1.7h-1.7V287.2z M127.2,149c-2.2,3.4,0.7,7.9,4.2,8.4
		C131.5,153,127,153.3,127.2,149 M123,134.7c-1.7,3.6-2.5,8.1-3.4,12.6c1-0.3,1.7-1.1,2.1-2c1.1-2.4,0.9-6.2,2.5-8
		c0.3-0.4,0.7-0.7,1.2-0.9c0.2,0.6,0.3,1.1,0.3,1.7c0.1,4-3.6,8.4-3.6,13.4c5,0,3.1-6.9,5-10.1c1.2-1.6,4.3-1.3,4.2-4.2
		C129,136,125.8,135.5,123,134.7 M117.9,144.8c-0.6-0.8,0.2-2.5,1.1-4.3c0.2-0.5,0.5-1.1,0.7-1.6c0.3-0.8,0.5-1.5,0.5-2.2
		c0-0.4-0.1-0.8-0.3-1.2s-0.6-0.6-1.1-0.8C117.9,136.7,114.6,144,117.9,144.8 M112.9,140.6c0.3-0.1,0.6-0.2,0.8-0.3
		c1.6-1.1,1.3-4,2.5-5.5C113.1,134.7,113.4,138,112.9,140.6 M109.6,141.4c0.8-3.1,3-4.8,2.5-9.2h-2.5
		C110,135.2,107.1,139.2,109.6,141.4 M105.4,140.6c-0.4-3,4.9-8,0.8-9.2C105.3,133.3,103.1,138.3,105.4,140.6 M110.4,92h-2.5
		c-0.6,2.6-0.6,1.6,0,4.2C110.5,96.6,110.6,94.4,110.4,92 M112.1,82.8c-2.6,0.2-3.8,1.8-5.9,2.5c-0.6,2.3,1.7,1.7,1.7,3.4
		C110.7,88.3,113.5,84.8,112.1,82.8 M101.2,68.5c-0.4,4.5,4.1,4.3,6.7,5.9C109,69.3,104.4,66.5,101.2,68.5 M102,102.1h1.7
		c0-1.1,1.1-1.2,0.8-2.5H102V102.1z M92.8,80.3c1.3-0.1,3.1,0.3,3.4-0.8C94.9,79.6,93.1,79.1,92.8,80.3 M92.8,90.3
		c2.9-2.5,7.4-1.6,10.1,0.8v-3.4c-3.4-0.6-4.7-3.1-8.4-3.4C93.8,85.8,90.9,89.1,92.8,90.3 M96.2,205.1c-4.9-1-3.1,4.7-6.7,5
		c-0.2,1.6,0.9,1.9,0.8,3.4c1.1-1,1.8-1.2,2.4-1.1c0.8,0.1,1.6,0.7,3,0.9c0.6,0.1,1.3,0.2,2.1,0.2C99,210.8,97.5,207.6,96.2,205.1
		 M93.6,138.1c3.7-3.5-0.6-12.8-1.7-7.5C96.6,127.9,88.1,137.4,93.6,138.1 M99.9,122.1c0-0.3-0.1-0.7-0.3-1.1
		c-0.3-0.6-0.8-1.1-1.3-1.7c-0.8-1-1.7-2-1.8-2.8c-0.1-0.7,0.2-1.3,1.3-1.8c2.4,1.3,3.1,4.2,4.2,6.7h6.7c6.2-8.1,8.6-19.9,10.9-31.8
		c-1.4,0.5-2.5,1.2-3.4,2c-0.5,0.4-0.9,0.9-1.3,1.4c-0.5,0.6-1,1.3-1.5,1.9c-1.4,2-2.7,4.1-4.7,5.6c0.8,1.6,1.3,3.3,1.4,5
		c0.1,1.3-0.2,2.6-0.7,3.8c-0.2,0.4-0.4,0.8-0.7,1.2c-0.4,0-0.8-0.1-1.1-0.2c-1-0.3-1.6-1-2-1.8c-0.5-1.1-0.8-2.6-1.1-3.9
		c-3.9-0.8-5.8,0.3-7.2,2c-1.2,1.5-1.9,3.4-3.2,4.8c-0.2,0.2-0.4,0.5-0.6,0.7c-0.6,0.3-1.3,0.5-2,0.6c-0.7,0.1-1.5,0.1-2.3,0
		c-0.8-0.1-1.6-0.2-2.5-0.3c-1.7-0.2-3.3-0.5-4.8-0.4c-0.7,0-1.4,0.1-2,0.4c-1.2,0.4-2.1,1.4-2.4,3.1c1,0.1,2.4,2.2,3.3,2.3
		c0.3,0,0.6-0.1,0.8-0.7l0,0c-0.1,0-0.2,0-0.3-0.1c-0.1-0.1-0.2-0.2-0.2-0.3c-0.1-0.2,0.1-0.4,0.5-0.5c2.4-0.2,4.6,0.5,6.8,1.6
		c1.8,0.9,3.5,2,5.3,2.9c1.8,1,3.6,1.8,5.5,2.2c0.1-0.1,0.2-0.3,0.3-0.5C99.9,122.4,99.9,122.2,99.9,122.1 M102,137.2
		c0.7-2.7,2.5-4.2,2.5-7.5H102C102.8,132.5,99.5,135.4,102,137.2 M105.4,277.1c0.1-2.1-1.3-2.6-2.5-3.4
		C102.7,275.9,104.1,276.4,105.4,277.1 M137.2,344.1c-0.1-0.5-0.3-1-0.5-1.3c-1.6-2.4-5.3,0-7.8,0.5c-8.9,1.6-15.7,5.8-22.6,4.2
		c7.3-2.4,14.8-4.7,23.5-5.9c-0.5-4.2-7.8-1.7-10.9-3.4c-1.2,3.5-9.1,7.6-11.7,4.2c3.2-0.4,6.6-0.7,7.9-3c0.2-0.3,0.3-0.7,0.4-1.1
		c-0.8-3.1-6.7-1.1-10.1-1.7c0.4,6.3-0.7,10.6,0,15.1C114.5,351,125.3,344.8,137.2,344.1 M184.1,451.4L184.1,451.4
		C184.1,451.4,184.1,451.4,184.1,451.4c0.5,2.5,1.9,4.3,5,4.2c0.6-0.6,0.9-2,0.9-3.3c0-1.4-0.3-2.7-0.9-3.4
		C185.9,448.1,186.2,450.9,184.1,451.4 M162.3,360.9c-0.1-4.8-0.3-9.8-1.7-13.4c-0.3,0-0.5,0-0.7,0c-0.6-0.1-0.9-0.3-1.2-0.5
		c-0.2-0.1-0.3-0.1-0.5-0.1c-0.1,0-0.2,0.1-0.4,0.2c-0.1,0.1-0.3,0.2-0.5,0.4c-0.5,0-1,0.1-0.8,0.8c1.1,15.1,0.7,30.4,0,45.2
		c-0.1,3.3-0.3,6.8-0.4,10.1c0,5.6,0.3,11.1,2,15.8C162.9,403.7,162.7,380.3,162.3,360.9 M175.7,351.7c-1.7-2.7-8.5-7.5-11.7-3.4
		c2.1,1.5,5.6,1.6,8,2.7c0.8,0.4,1.5,0.8,2,1.5c0-0.1,0.1-0.1,0.1-0.1C174.4,351.9,174.8,351.6,175.7,351.7 M175.7,341.6
		c2.2,1.6,9.9,1.6,10.1-1.7C183.7,338.9,176.8,339,175.7,341.6 M181.5,391.4c0-0.2-0.1-0.4-0.1-0.6c-0.1-0.3-0.3-0.5-0.5-0.8
		c-0.2-0.2-0.6-0.5-1-0.6c0,0.4,0,0.7-0.1,1.1c-0.1,0.4-0.2,0.7-0.3,1.1c-0.2,0.5-0.4,0.9-0.7,1.4c-0.4,0.7-0.8,1.4-1.2,2
		c-0.2,0.4-0.5,0.9-0.6,1.3c-0.1,0.2-0.1,0.4-0.2,0.6c0,0.2-0.1,0.4-0.1,0.6c0,0.2,0,0.4,0.1,0.6c0.2,0.5,0.6,1,1.4,1.5
		C178.3,397.2,181.7,393.8,181.5,391.4 M183.2,359.4c0.9-3.1,1.9-6.1,2.6-9.4c-0.8,0.1-1.2-0.1-1.6-0.3c-0.3-0.2-0.5-0.3-0.8-0.5
		c-0.4-0.2-0.9-0.3-1.8-0.1c-0.9,1.8-1.1,4.4-0.8,6.9c0.3,2.5,1,4.9,1.6,6.5C182.7,361.5,182.9,360.4,183.2,359.4 M562.7,362.6
		c2.9-2.2,6.2-4.1,10.1-5c0.2,1.2,1.4,1.4,1.7,2.5c-6.5,5.3-15.5,7.9-18.4,16.8c8.7-3.3,13.5-15,23.5-14.2c0-0.6-0.1-1-0.2-1.4
		c-0.4-0.2-0.7-0.5-1-0.8c-2.2-1-3.7-2.6-4.7-4.5c-1.5-0.1-1-2.2-3.2-1.6c-5.4,5.8-15,7.4-17.6,15.9
		C556.6,370.4,559.1,365.3,562.7,362.6 M653.2,441.3c0,4.4-7,3.7-10.1,2.5c2.9,9.3-8.2,15.5-12.6,6.7c-0.4-3.1,3.7-3.8,1.7-5.9
		c-12.1,0.1-25.4-3-36.9-0.8c-3.6,0.7-5.2,0.7-10.1,0.8c-5.1,0.1-10.1,3.3-14.2,3.4c-2,0-15.2-1.4-13.4-5.9
		c6.4,0.3,10.5,2.9,17.6,2.5c0.1-2.4-2.4-2.1-3.4-3.3c1.4-1.3,5.9,1.4,3.4-3.4c4.8-0.1,5.8,3.7,10.1,4.2c2.5-4.4-6.5-3.9-6.7-8.4
		c5.6-0.7,6.8,6.8,11.7,4.2c0.2-5.5-7.2-3.5-7.5-8.4c2.9-0.7,3.5,0.9,5,1.7c2.5-1.7-3.9-1.6-2.5-5c4.1,0,5.1,3.3,8.4,4.2
		c2.9-3.9-4.2-3.9-4.2-7.5c3.7-0.4,4.4,2.3,6.7,3.4c1.6-0.1,4-3.7,1.7-5c2.4-2.3,4.3-5.2,5.9-8.4c-0.1-3.8-6.1-1.7-5.9-5.9
		c4.9-0.4,5.7,3.3,9.2,4.2c2.1-3.6-5.6-3.7-4.2-9.2c4.2,0.6,3.2,6.3,8.4,5.9c2.1-2.3-6.2-4.6-4.2-6.7c3.5,0.5,4.9,2.9,7.5,4.2
		c2.8-1.8-2.5-2.4-1.7-5c2.6-0.6,1.6,2.3,4.2,1.7c1.7,0.3-0.2-2.4-0.8-2.5c3.8-1.8,4.2,6.5,10.1,3.4c-2.9-5.5-9.5-7.3-11.7-13.4
		c-1.1,1.2-3.6,0.8-5.9,0.8c-0.5,3.6,3.5,2.6,5,4.2c-1.3,5.9-5.9-1-7.5-2.5c-8.9,0-17.1,0.8-22.6,4.2c1.5,4.4,5.9,5.8,5.9,11.7
		c-4.9-4.6-10.6-8.4-10.1-18.4c3-0.8,0.9,3.6,2.5,4.2c5.6-2.5,9.7-6.5,13.4-10.9c-15-6.2-19.9,6.6-28.5,11.7
		c-2.6-12.4,12.3-14.4,16.8-22.6c-4-0.9-7.8,1.3-10.9,3.4c-4.8,3.2-8,8.8-11.7,12.6c-0.2-9.9,10.5-22.1,19.3-25.1
		c0.4-0.2,0.8,0.6,1.3,0.8c0,0,0,0,0,0c0.9,1.1,2.1,2,3.4,2.7c0.7,0.4,1.3,0.8,1.9,1.2c0.3,0.3,0.6,0.7,0.9,1.1
		c0.2,0.4,0.5,0.9,0.7,1.4c0.4,1,1.5,1.9,2.5,2.4c0.9,1,2.3,1.4,2.7,2.9c1,2.1-1.6,4.2-0.4,4.8c0.2,0.1,0.6,0.2,1.3,0.2
		c7.8-0.1,5-13.5,5-23.5v-15.1c0-0.2,0-0.4,0-0.5c0-2.1,0.2-4.3,0.2-6.3c0-0.7,0-1.3-0.1-2c0,0,0,0,0-0.1c0-0.4-0.1-0.8-0.1-1.1
		c0-0.1,0-0.3-0.1-0.4c0,0,0,0,0,0c-0.1-0.4-0.2-0.8-0.4-1.2c-0.2-0.4-0.4-0.8-0.7-1.1c-0.1-0.1-0.1-0.1-0.2-0.2
		c-0.1-0.2-0.3-0.3-0.4-0.5c0,0,0,0.1,0,0.1c-0.8-0.7-1.8-1.2-3-1.4c-3,0-6-0.4-9-0.6c-3.7-0.2-7.3,0.1-10.8,1.4
		c-0.7,0.3-1.4,0.9-1.9,1.6c-0.2-0.4-0.3-0.8-0.5-1.2c-2,5.6-0.3,14.8-0.8,21.8c-3.3,1.3-0.3-3.6-2.5-3.4c-7,3.6-12.1,9.1-19.3,12.6
		c2.8-6.2,9.2-8.6,15.1-11.7c-4.9-2.9-8.8,2.4-11.7,4.2c-5.5,0.4-13-1.3-15.1,2.5c-4.6-19.6-4.9-41.7-6.7-64.5
		c-0.7-9.2-5-18.4-1.7-26c3.4,0.9,1.3,5,1.7,7.5c0.5,3.4,2.5,7.2,1.7,10.9c8.9-1.2,10.8-9.3,19.3-10.9c3.8-8,11-16.9,7.5-29.3
		c-9.3,8-24.6,10.1-40.2,11.7c2,3,9,1,10.1,5c-2.7,8.1-12.4,8.6-20.1,10.9c-6.6,2-12.5,5.4-18.4,6.7c-3,0.2-4-1.5-6.7-1.7
		c-3.5,2.9,0.7,9,2.5,11.7c-2.5,8.5,2.6,21.5-1.7,29.3c-1.7,2.5-3.4-0.1-5.9,1.7c-0.3,3.1,0.7,7.4-0.8,9.2
		c-4.2-19.8,5.9-39.5,0-54.5c-12.2-4-26.5-9.5-40.2-5.9c1.6,1.8,6.4,0.3,5,5c10.1-0.4,16.2,3.3,23.5,5.9c-1.1,15.8,4,34.3,0,49.4
		c4.4,1.5,9.6,1.7,14.2,0.8c-2,5.1-11.5,6.7-17.6,5c3-15.5-2.8-39.3,0.8-55.3c-21.2,5.6-46.7,3.7-74.6,5c-64,3-121.4,3.3-178.4-3.4
		c1.6-3.1,6-1.8,8.4-1.7c2.9,0.1,6.3,1.5,9.2,1.7c15.1,1.2,27.8,0.7,42.7,1.7c48.5,3.1,98.7-0.9,144.1-2.5
		c14.2-0.5,27.2-0.6,40.2-2.5c-2.3-4.7-12-2-17.6-3.4c0.9-4.6-4.6-2.7-4.2-6.7c4.7-2.3,11.7-2.9,17.6-2.5c1.3,0.1,2.4,1.5,4.2,1.7
		c1.4,0.1,3-1.1,4.2-0.8c2,0.4,3.4,2.2,5.9,2.5c7.9,1.1,12.2,0.5,15.1,6.7c15.3-1.2,34.4-5.1,45.2-13.4c0-4.4-9,0.1-8.4-5
		c-8.2,0.2-15.5,0.5-22.6,1.7c-3.9,0.7-7.3,3-10.9,3.4c-9.2,1-18.5-3.6-28.5,0c2.2-9,10-12.3,17.6-15.9c26.8,3.5,52.4-7.6,72-16.8
		c4.5-8.3-1.3-13.7-6.7-16.8c-9.6,5.1-10.2,14.2-26,12.6c-11.4-1.2-19.3-6.9-26-12.6c-8.3-7-17.1-20.4-26-25.1
		c2.5-2.2,7.1,1,9.2,2.5c6.2,4.5,8,12,14.2,17.6c1.2,1.1,2.7,0.7,4.2,1.7c1.9,1.3,3.3,4.6,5,5.9c3.1,2.2,7.5,2.5,11.7,4.2
		c4.2,1.6,5.5,4.2,12.6,3.4c7.4-0.9,10.9-6.8,17.6-10.1c-1.6-5.1-6.8-6.6-11.7-8.4c-2.6-0.4-2.2,2.3-4.2,2.5
		c-3.9-0.3-7.6,0.6-10.9-0.8c-3.1-1.4-7.6-3.6-11.7-5.9c-5.1-2.9-9.6-8-13.4-10.1c-1.2-0.7-3.4-0.2-4.2-0.8
		c-3.5-2.8-5.7-7.2-6.7-11.7c-1.9-2.6-4.1-4.8-6.7-6.7c2.4-2.4,4.5,2.7,8.4,1.7c0.4,5,3.2,11.9,7.5,15.1c1.1,0.8,2.9,0.1,4.2,0.8
		c3.3,1.7,6.5,5.4,10.1,7.5c3.1,1.8,5.5,2.7,8.4,4.2c5.7,3,9.3,6.7,16.8,2.5c3.7-2.1,4.9-2.9,5-6.7c0.6-1.8,5.9,0.7,3.3,0.8
		c3.2-0.2,3.8-2.8,7.5-5.9c0.5,2.5-5.6,5.5-6.7,9.2c6,2.5,7.1-6.7,12.6-7.5c-2.4,4.8-6.9,7.7-9.2,12.6c6.1,1,8.6-8.6,13.4-11.7
		c2.7,2.6-6.4,9.7-8.4,13.4c5.3,0,9.3-8.5,14.2-11.7c-0.6-6.8,2.4-9.9,2.5-15.9c1.5-0.1,1.8,1,3.4,0.8c0.6-2.6-2.9-1-1.7-4.2
		c6.1,3.7,10.9-2.7,17.6-3.4c-5.7-6.5-15.1,0.5-20.1,2.5c4.9-10.7,22.2-7.9,26,1.7c-6,1-12.5,1.4-15.1,5.9c-0.3,2,1.5,1.8,0.8,4.2
		c9.2-0.3,15.2-0.3,18.4-7.5c2.4,3.2-2.1,6.8-4.2,8.4c-4.3,16.4-6,35.3-14.2,47.7c2.1,1.9,4.6-1,5.9-2.5c1.2,5.1-8.5,6.6-10.1,11.7
		c8.1-1.7,17.5-9.3,26.8-12.6c-1.7-1.7-5.3,1.9-8.4,1.7c3.4-4.8-3.5-8.5-2.5-15.9c3.7,2.7,5.5-3.8,9.2-0.8c0.6,3.6-3.9,2.3-6.7,2.5
		c0.3,4.4,2.1,7.4,3.4,10.9c6.6-0.1,9.1-4.3,15.1-5c0.3,2.2-1.7,2.2-3.4,2.5c0.4,1.9,4.4,0,5,1.7c-7,3.9-16.1,5.6-21.8,10.9
		c-1.2,0.1-2.4,0.1-2.5-0.8c-4.1,2.9-7.8,6.2-12.6,8.4v5c2.9,0.6,6.9-4.8,12.6-4.2c-2.7,4.3-9.4,4.6-11.7,9.2c6-0.4,10-2.9,14.2-5
		c9.5,2.7,6.9,15.1-1.7,16.8c0.8-4,4.1-5.4,5.9-8.4c0.2-2.5-1.9-2.6-1.7-5c-10.5,2.1-21.6,3.5-23.5,14.2c6.2-1.3,10.5-4.6,16.8-5.9
		c-3.7,5-11.8,5.5-17.6,8.4c4.3,2.1,9.2-2.5,14.2-2.5c-4.9,6.2-18.8,4.3-25.1,9.2c-0.3,3.6,4.6,2.1,4.2,5.9
		c-4.2,0.6-4.2-3.1-7.5-3.4c0.2,2.8,3.8,2.4,5,4.2c-3.1,3-4.9-2.3-8.4-1.7c2.1,2.9,7.3,2.8,7.5,7.5c-3.8-1.8-6.7-4.5-10.9-5.9
		c-1.7,3.5,5.7,4.1,7.5,6.7c0.1,1.5-1,1.8-0.8,3.3c-3.7,0.9-4.2-1.4-6.7-1.7c-1.1,2.8-0.8,11.4,2.5,12.6c4.9-2.5,10-4.4,14.2-7.5
		c3.3-2.5,4.9-6.9,9.2-8.4c-1.2-3.2-6.3-2.6-7.5-5.9c5.2-0.7,5.6,3.4,10.1,3.4c-1.1-2.5-4.3-3-5.9-5c3.1-2.7,4.4,3.4,8.4,2.5
		c0.1-2.4-2.4-2.1-3.4-3.4c2.2-2.7,3.6,2.5,7.5,0.8c3.3-1.3-3.6-3.5-0.8-4.2c6.8,3.4,9.1-3.3,12.6-5.9c0.3,12-14.3,9.2-16.8,18.4
		c-6.3-1.9-6.4,5-9.2,7.5c-1,0.8-4,1.4-5.9,2.5c-5.6,3.2-7.4,7.2-15.1,7.5c2.1,13-0.8,31,2.5,42.7c3.8-2.4,12-0.3,15.1-3.4
		c-5.2-2.1-10.4,1.2-15.1-0.8c2.2-4.8,12.4-1.6,18.4-2.5c-1.5-6.4-11.3-3.6-17.6-3.4c2.6-5.4,12.4-1.3,15.9-4.2
		c-3.1-3.1-10,1.7-12.6-0.8c2.9-4,12.1-0.4,17.6-1.7c2.6-0.6,5.3-2.1,5.9-4.2c-2-1.7-9.4-1.6-9.2,1.7c-4.4-0.5-10.6,0.7-12.6,0
		c0.5-2.8,4.5-2.2,7.5-2.5c3.3-5.4,12.6-4.7,16.8-9.2c0.2-3.8-3.8-3.5-3.4-7.5c6.5-1,14.8,5.1,18.4-0.8c-0.6-4.4-4-6-5-10.1
		c3.8-0.4,3.7,3,6.7,3.4c-3.7,2.4,0.8,4.1,0,6.7c-2,6.6-8,5-15.9,3.4c-1.8,1.6,3.5,3.7,0.8,6.7h3.4c1.3,3-2.8,0.5-2.5,2.5
		c2.5,6.7,7.2-1.7,8.4-4.2c10.5-1.9,20.2,0.2,27.6-3.4c10-4.8,10.4-26.3,10.1-41c-0.5-24.4-14.5-47.8-18.4-63.7
		c-0.8-2.3-2.2,1.2-3.4-0.8c0.8-2.5,3.3-3.4,2.5-7.5c-2.4-3.3-5,2.8-5.9,0.8c-0.1-3.7,4.3-2.9,5-5.9c-0.6-3-3.8-1.1-4.2,0.8
		c-2.4-2.2,3-3.6,3.4-5.9c-2.4-12.9-4.8-25.9-7.5-38.5c-3.8-1-3.3,2.3-6.7,1.7c0-6.5-4.8-1.2-8.4-1.7c-1.1-1.1-1.1-4,0-5
		c-8.3,2.9-14.4,12.3-21.8,13.4c1.4-2.8,4-4.4,4.2-8.4c2.4,5.2,7.7-0.3,7.5-5c5.1,3.2,5.5-2.7,9.2-3.3c-0.2,0.7,0.3,0.8,0.8,0.8
		c2.8-0.9,1.3,2.6,1.7,4.2c2.6,0.4,3.4-1,4.2-2.5c2.1,0.9,2.1,4,5.9,3.4c-0.5-4.4-7.8-8.9-13.4-10.9c-2.4,0-3.6,2-5.9,2.5
		c0.5-0.1-4.1-0.1-2.5-0.8c-2.9,1.4-2.5,4.2-6.7,5c3.2-5.1,8.8-7.9,14.2-10.9c-0.3,1.1-1.5,1.3-1.7,2.5c4.2-0.6,6.5,0.8,10.1,0.8
		c-1-5.9-3.6-10.4-3.3-17.6c-5.1-0.9-16.4-3.7-24.3-1.7c2.5-3.1,4.7-6.4,9.2-7.5c1.1,0.3,0.7,2.1,0.8,3.4c1.1-1.1,4.7-1.3,2.5,0.8
		c1.9,2.7,1.7-1.8,3.4-1.7c0.8,0.1,1.9,2.5,1.7,2.5c2.2-0.1,6.7-1.1,7.5-4.2c-4.8-0.8-8.1-3.1-13.4-3.4c0.3-1.9-0.1-3.2-0.8-4.2
		c-2.7-1-0.6,2.7-3.4,1.7c-0.3-1.9,0.1-3.2,0.8-4.2c-2.3-2.3-2.1,2.2-5,1.7c-1.8-2,1.6-3.9,0.8-7.5c-3.3-0.5-2.9,2.6-5,3.4
		c-2-1.5,1.4-4.7,2.5-5.9c-2.3-2.8-3.8,2.3-6.7,1.7c1.3-2.9,3-5.4,6.7-5.9c1.8,2.6,3.2,4.4,3.4,6.7c4.8-2.3,6.3,3.8,10.1,5
		c0.3-5.1-5.6-3.9-4.2-10.1c4.7,1.4,7.9,2.9,11.7,6.7c4.7-3.9,7.8-4.5,14.2-5.9c-3.5-1.8-15.7,3-16.8-3.4c3.1-0.9,2.4,2.1,5,1.7
		c1.1-0.3,0.7-2.1,0.8-3.4c5.2-1,10.1,1.8,13.4,0c-1.1-3-5.5,2.5-4.2-2.5c-3.5,2-9.9,2.3-11.7-1.7c-2.5,2.1-5.4,2.9-9.2,1.7
		c-1.3-1.2-0.7-4.3-0.8-6.7c2.6,1,1.5,5.8,5,5.9c3.2,0.5,3.4-2.1,5.9-2.5c-0.6-3.9-3.3-5.7-4.2-9.2c2.4,0.1,1.5,3.6,4.2,3.4
		c2.2-0.2-1.1-1.4,0-3.4c1.7,1.4,2.3,3.9,2.5,6.7c0.7,1.9,5.2-0.2,4.2,3.4c-2.1,0.9-4-2.5-5,0c2.6,6.3,8.8-2.5,11.7,1.7
		c0.1-2-0.4-3.4,1.7-6.7c-2.4-2.3-5.8,4.9-8.4,2.5c1.4-2.5,5.8-2,6.7-5c-2.5-5.2-6.4,4.6-8.4,2.5c-2.8-1.4-2.7-5.6-3.4-9.2
		c0.8-2.2,5.3-0.9,6.7-2.5c-2.1-1.7-9.1-1.4-9.2,1.7c-2-3.2,3.6-6.6,5-6.7c2.7-0.2,14.5,9.4,15.1,16.8c0.5,5.3-3.4,8.9-5,12.6
		c0.8,2.3,1.8,4.3,2.5,6.7c-0.4,5.5-4.3,7.5-7.5,10.1c0.8,3.6-1.4,4.2-3.4,5c2.5,4.8-1.2,8.2-4.2,10.1c3.7,11.7,13.2,19.4,15.1,34.3
		c0.9,6.8,4,14,5,20.9c0.5,3.1-0.3,6.1,0,9.2c0.3,3.1,1.9,5.9,2.5,9.2c1.1,6.1,1,12.8,2.5,18.4c2.8,10.4,9.8,19.6,12.6,30.2
		c2,7.6,2.7,14.8,4.2,22.6c3.9-0.3,1.9-5.1,2.5-7.5c1.7-6.9,5.2-16.8,7.5-24.3c1.5-4.8,1.6-11.1,5.9-13.4
		c-4.5,16.2-9.4,31.9-12.6,49.4c-0.7,0.7-2.3,0.5-2.5,1.7c-0.6,20.9,2.5,45.6-19.3,45.2c2.1,3,9.7,1.7,15.1,1.7
		c5.7,0,11.9-0.6,15.9,0.8c-0.2,5.2-1.2,7.2,2.5,9.2c-1.5,14.4,0.5,29.2,0.8,42.7c0.1,2-0.1,4-0.2,6c-0.1,2.2-0.2,4.3-0.1,6.4
		c0,0,0,0.1,0,0.1c-0.1,5.2,0.5,10.7,2.1,15.8c0,1.8-0.3,3.4-1.7,4.4c-5-14.1-2.1-36.5-3.4-56.1c-0.2-2.7,1.5-7.5-2.5-8.4
		c-4.2,16.4,2.1,40.5,0,55.3c-3.4-2.5-3.3-11-3.4-16.8c0-16.3,1-34.1,0.1-50c0-0.1,0.1-0.2,0.1-0.3c0-0.2,0-0.5-0.1-0.7
		c0,0,0-0.1,0-0.1c0,0,0,0-0.1,0c-0.3-0.6-0.8-1-1.5-1.1c-2.8-0.1-5.5,0-8.3,0c-0.3,0-0.6,0.1-0.9,0.2c0,0,0,0,0,0h-1.1
		c-1.3,4.8-1.6,10.3-1.5,15.9c0.2,9.5,1.6,19.4,1.5,27.6v0c0,0,0,0,0.1,0c-0.5,4.1,0,8.2,0,12.4c0,0,0,0,0,0c-0.1,0.2-0.1,0.5-0.1,1
		c-0.1,1.1,0.1,1.9,0.5,2.5c0.5,1.3,1.1,2.4,2.1,3.3c0,0,0,0,0,0c0.3,0.5,0.7,1,1.2,1.3c0.5,0.4,1.2,0.6,1.8,0.7
		c15.1,6.9,8.7,35.3,15.3,50.8c2.5-0.3,2.7-2.9,4.2-4.2c-3.8-3.5-1.6-12.9-3.4-18.4c6.1,2,2.5,13.7,5.9,18.4
		C646.8,439.9,652,438.7,653.2,441.3 M585.2,70.2c-0.8,0-1.6,0-2.4,0.1c-0.1,0.8-0.2,1.5-0.8,1.7c-0.2,0.1-0.5,0.1-0.8,0
		c-0.1,2.1-0.2,4.1,1.7,4.2c-0.1-1.2-0.1-1.9,0-2.3c0.1-0.3,0.2-0.4,0.4-0.5c0.1,0,0.2,0,0.3,0c0.6,0.1,1.4,0.7,2.4,1
		c0.3,0.1,0.7,0.1,1,0.1c0.2,0,0.4,0,0.6-0.1c0.4-0.1,0.8-0.3,1.2-0.7C589.4,70.6,587.5,70.2,585.2,70.2 M581.2,100.4
		c3,1.3,0.5-2.8,2.5-2.5c0.6,0,1.1,0,1.7,0c1.7,0,3.2-0.1,3.3-1.7h-5.9c0,0.5,0,0.9-0.2,1.3c-0.1,0.4-0.3,0.7-0.5,1
		c-0.2,0.3-0.4,0.6-0.6,0.9C581.4,99.6,581.3,100,581.2,100.4 M579.5,102.9c4.8,0,10,0.5,10.9-3.4C586.1,100,582,100.7,579.5,102.9
		 M562.7,102.1c-1.3-0.1-0.7-2.1-2.5-1.7C559.5,102.1,562.4,104.1,562.7,102.1 M566.9,176.6c0.2-1.7,3.1-0.8,3.4-2.5
		C568.3,173.6,564.5,175.4,566.9,176.6 M468.9,330.7c1.4-0.3,4.2,0.8,4.3-0.8c0-0.2,0-0.5-0.1-0.9
		C471,328.9,469.6,329.5,468.9,330.7L468.9,330.7z M484.3,290.5c0-0.5,0-1,0-1.5c0.1-1.2,0.2-2.4,0.5-3.5c-1.6-0.1-0.6-2.7-2.5-2.5
		c0,0,0,0,0,0c-0.1,1-0.1,1.9-0.1,2.9c0,1.5,0.1,3,0.1,4.5c0,1.5,0,2.9-0.1,4.3c-0.4,4.5-2.3,9-2.4,12.7c0,0.1,0,0.1,0,0.2
		c0,0.3,0,0.6,0,0.9c0.1,1.7,0.7,3.1,2.1,4.4c0.1,0.1,0.2,0.2,0.3,0.2c0.2-0.2,0.4-0.4,0.6-0.6c4.8-4.8,1.9-13,1.4-20.5
		C484.3,291.5,484.3,291,484.3,290.5 M573.7,207.2c0-0.4,0-0.8,0-1.3c0-0.6,0-1.1,0-1.7h-4.2c-0.3,3.4,2.3,3.9,3.4,5.9
		C573.4,209.5,573.6,208.4,573.7,207.2 M575.3,202.6c-0.8-1.3-2-1.6-3.5-1.6c-1.9,0.1-4.3,0.8-7,0.9c-0.7,0-1.4,0-2.1-0.1h0
		c-1.6,2.9-7.8,1.1-8.4,5l0,0C560.5,204.5,566.8,202.4,575.3,202.6 M556.9,190.8c1.4,0.2,2.5,0,3-0.8c0.2-0.2,0.3-0.5,0.3-0.9
		c-0.5-0.1-0.9-0.1-1.3,0c-0.4,0-0.7,0.1-1,0.2C557.3,189.6,557,190.1,556.9,190.8 M572,190.9C572,190.9,572,190.8,572,190.9
		L572,190.9c-0.1,0.8,0.7,3,1.2,3.2c0.2,0.1,0.3-0.1,0.4-0.7h0C573.2,192.4,572.7,191.5,572,190.9L572,190.9z M568.6,190L568.6,190
		c-4.3-0.4-6.5,1.3-9.2,2.5h0c-0.3,3.7,2.4,4.3,2.5,7.5c0.8,0.3,1.7,0.4,2.5,0.4c2.7-0.1,5.7-1.4,9.2-1.2
		C572.7,195.4,568.9,194.5,568.6,190 M577.8,189.2h-4.2c0,1.9,0.9,2.9,1.9,3.9c0.3,0.3,0.6,0.6,0.8,0.9c0.3,0.3,0.5,0.7,0.7,1
		c0.1-1,0.5-1.8,0.7-2.6C577.9,191.5,578.1,190.5,577.8,189.2 M561.1,189.2c6.3-1.7,12.1-1.6,17.6-2.5
		C573.6,185.1,563.4,185.2,561.1,189.2 M555.9,187.1c0,0.4,0,0.8,0.1,1.3c0,0,0,0,0.1,0c2.5-0.5,4.3-1.8,6.6-2.5
		c-0.9-3-2.9-4.9-5.9-5.9c0.4,2.3-0.3,3.6-0.7,5.1C556,185.7,555.9,186.3,555.9,187.1 M553.5,201.7c0,0.6,0,1.1,0,1.7
		c2.1,0.1,4,0.1,5-0.8c0-1.6-0.4-2.7-1.1-3.5c-0.7-0.8-1.8-1.3-3.1-1.5c-0.3,0.3-0.5,0.6-0.6,1.1
		C553.5,199.5,553.5,200.6,553.5,201.7 M547,206.9c0.9-0.8,1.8-1.7,2.5-2.6c0.5-0.6,0.9-1.3,1.2-1.9c0.2-0.3,0.3-0.6,0.4-0.9
		c0.3-0.8,0.4-1.5,0.2-2.2c-0.1-0.7-0.5-1.3-1.2-1.7c-0.1,1.7-0.8,2.8-1.6,3.8c-0.3,0.3-0.6,0.6-0.9,0.9c-0.4,0.4-0.9,0.7-1.3,1.1
		c-0.9,0.7-1.8,1.5-2.4,2.4c-0.7,0.9-1.2,2-1.3,3.5c0.3,0,0.5-0.1,0.8-0.2C544.5,208.7,545.8,207.9,547,206.9 M547.7,214.3
		c0.2,0,0.5-0.1,0.7-0.2c1.6-0.7,2.7-3.4,2.5-5.4c-0.1-0.8-0.3-1.5-0.7-1.9v0c-0.1,0.2-0.3,0.4-0.4,0.6c-0.3,0.3-0.5,0.7-0.9,1
		c-0.5,0.5-1,1.1-1.4,1.7C546.7,211.3,546.3,212.6,547.7,214.3 M461.4,256.2C461.4,256.2,461.4,256.2,461.4,256.2
		c7.5-1.8,16,1.3,26,0c2.2-0.3,4.5-2.1,6.7-2.5c2.4-0.5,4.9,0.2,7.5,0c23.6-2.2,52.9-5.7,62-18.4c4-5.6,3.1-12.3,7.5-18.4
		c-2.3-4.4-5.3-8.1-9.2-10.9c0,0,0,0,0,0c0,0,0,0,0,0h0c0,0,0,0,0,0c-4.1,0.1-5.2,3.1-9.2,3.3c-0.3,7.5-2.9,12.8-4.2,19.3
		c-16.5,8.4-36.6,16.8-60.3,18.4c-11,0.7-18.8-0.2-25.1,4.2c0,0.6,0.1,1,0.3,1.2c1.1,1.6,5-2.7,6.8-0.9c0.1,0.1,0.3,0.3,0.4,0.5
		C467.4,253.2,463,253.3,461.4,256.2 M541.8,291.4C541.8,291.4,541.8,291.4,541.8,291.4C541.8,291.4,541.8,291.4,541.8,291.4
		c-2.5-1.2-3.2-4.1-6.7-4.2c0,0,0,0,0,0C535.2,290.1,540.5,292.3,541.8,291.4 M566.1,334.1c-2.6-2.4-3.5,2-6.7,1.7v0c0,0,0,0,0,0
		c0.4,1,0.5,1.7,0.5,2.3c-0.1,1.2-0.7,1.9-0.8,3.3c-0.1,0.7,0,1.6,0.4,2.8c2,0.5,3.8,1.2,6.7,0.8V334.1z M558.6,326.6
		C558.6,326.6,558.6,326.6,558.6,326.6c3.9-1.8,7.5,1.3,11.7,1.7c0.1-0.3,0.1-0.6,0.1-0.9c0-0.9-0.4-1.6-0.7-2.3
		c-0.3-0.7-0.5-1.5-0.2-2.7c0,0,0,0,0,0C566.4,324.3,560,322.9,558.6,326.6 M569.5,344.1c1.7-2.8,0.4-8.5,0.8-12.6h-2.5h0
		C568.3,337.1,566.6,342.5,569.5,344.1L569.5,344.1C569.5,344.1,569.5,344.1,569.5,344.1 M584.5,369.3c0.4-2.9-2.5-2.5-3.3-4.2
		c0,0,0,0,0,0h0c0,0,0,0,0,0c0,0,0,0,0,0c0,0,0,0,0,0c-4.7,2.3-11.8,6.6-11.7,10.9h0c0,0,0,0,0,0v0c0.9-0.9,1.9-1.8,2.9-2.5
		c1.8-1.3,4-2.2,6.4-2.9c0.4-0.1,0.8-0.3,1.2-0.4c0.2-0.1,0.5-0.1,0.7-0.1C581.9,369.7,583.2,369.4,584.5,369.3 M590.4,379.3
		c0.2-3.9-1.5-5.8-5-5.9h0c-1.3,1.8-3.2,3.4-5.2,4.9c0,0-0.1,0.1-0.1,0.1c-4.4,3.4-9.3,6.6-9.8,10.9c0,0,0,0,0,0
		c4.2-3.9,8.1-9.9,14.9-10.5c0.3,0,0.6,0,0.9,0c0.2,0,0.4,0,0.7,0C587.9,378.8,589.1,379,590.4,379.3
		C590.4,379.3,590.4,379.3,590.4,379.3 M629.5,325.7c0.1,0,0.2,0,0.2,0h0h0c-0.6-2.3-2.1-2.9-3.9-2.8c-2.3,0.1-5,1.2-7,1.2h0h0
		c-11.3-0.3-20-3.1-31.1-2.8c-1.6,0-3.2,0.1-4.9,0.3c-0.8,0-1,0.7-1.7,0.8c0,1.1-1.1,1.2-0.8,2.5c0.7,0,1.3,0,2,0.1
		C597.6,325.6,613.3,325.9,629.5,325.7 M611.2,388.5c0.4,0,0.7-0.2,1-0.8c-1.9-0.6-2.5-2.5-3.4-4.2c-0.1-15.3-1.5-36.5-0.8-55.3
		c-0.3,0.1-0.6,0.1-0.8,0.1c-1.4,0.1-1.6-0.9-2.7-1c-0.2,0-0.4,0-0.7,0h0c-3.8,5-0.8,12-0.8,18.4c0,12.3-2.4,25.5,0,35.2
		c-5.2,2.1-9.1,5.4-11.7,10.1c0,0,0,0,0,0c4.6-0.3,7.7-2.2,13.2-1.8c0.4,0,0.7,0,1.1,0.1h0c1.4,0,0.5-2.3,1.7-2.5
		c0.3-0.1,0.5-0.1,0.8-0.1C609.2,387,610.3,388.5,611.2,388.5 M603,422L603,422c2.8,1.4,5,3.4,8.4,4.2v0c-1.2-4.4,0.7-11.9-2.5-14.2
		c0,0,0,0,0,0C607.2,415.7,603.8,417.5,603,422 M597.7,429.8c-0.6,0.9-1.1,2-1.5,3.2c0,0,0,0,0,0c3.5,0.1,5.8,1.4,10,0.8
		c0.1-0.2,0.2-0.4,0.2-0.6c0.7-1.8,2.2-2.8,3.1-4.4c-3.1-3.8-7.5-3.3-10.5-0.6C598.6,428.6,598.1,429.2,597.7,429.8 M632.3,439.6
		c-2.7-10.1-1.6-24.1-4.2-34.3c0,0,0,0,0,0c-5.2-1.6-7.3,0.6-11.7,1.7l0,0c-0.6,10.6,6.1,19.5,0,27.6c-1.4,0.2-2.2-0.1-2.8-0.6
		c-0.8-0.7-1.3-1.8-2.2-2.4c-0.2-0.1-0.5-0.3-0.8-0.4c-1.7,1.9-1.8,5.5-5,5.9c-4.1-0.7-8.4-4.3-10.9,0c0,0,0,0,0,0
		C603.7,441.4,621.8,436.7,632.3,439.6 M639.8,450.5c0.5-3.8-1.9-3.5-4.2-2.5c0,0,0,0,0,0v0l0,0c0,0,0,0,0,0v2.5
		C638.2,451.1,637.2,451.1,639.8,450.5L639.8,450.5z M190,166.6c1.8-3.5,8.8-1.8,12.6-3.4c0.3-2-3.8,0.5-2.5-2.5
		c2.6,1,6,1.3,9.2,1.7C208,171.6,196.1,169.5,190,166.6 M196.7,166.6c3.1,1.6,8.5,2.8,9.2-1.7c-0.4-0.1-1.2-0.2-2.1-0.3
		c-0.3,0-0.7,0-1,0C200.4,164.7,197.5,165.2,196.7,166.6 M552.7,125.5c-2,0.3-1.8-1.5-4.2-0.8h0c4.1,5.5,2.5,11.9,0,15.9
		c-2.4,3.8-7.1,6.8-10.1,10.9c-1,1.5-1.9,4.3-3.4,6.7c-2.8,4.7-4.6,8-6.7,13.4c-2.7,7.1-2.8,11.1-1.7,17.6c7.7,0.1,12.3-6,15.9-10.1
		c4.6-5.1,8.6-8.3,8.4-14.2c-3.5,5.1-7.8,13.9-12.6,15.1c6.7-8.4,11.4-18.8,17.6-27.6c-12.4,8-12.9,27.9-28.5,32.7
		c2.7-12.3,6.6-20.1,12.6-29.3C546.5,145.9,557.4,137.8,552.7,125.5 M246.1,261.2c2.5-0.5,4.3-1.9,4.2-5c-3.6-2.3-14.5-2.2-13.4,1.7
		c1.9-2.2,6.9-3.5,9.2-0.8c-4.1,3.2-10.9,4.7-15.1,3.4c-0.8,5.8,5.7,4.4,8.4,6.7c0.3-2,4.5-4.4,3.4-5c-1.8,0.5-2.4,2.1-5,1.7
		C238.8,261.9,244.7,257.2,246.1,261.2 M525,105.4c1.1-5.6,7.7-5.7,5.9-14.2c-11-7.2-0.7-26.5,10.9-23.5c5.6-1.9,10.3-3.5,15.9-2.5
		c3.8-5.5,10.6-5,19.3-4.2c-0.9,3.3-4.3,5.7-7.5,4.2l0,0h0c0,0,0,0,0,0c3.7,2-2.4,4.3-2.5,7.5c-2,0.3-1.8-1.5-4.2-0.8
		c0.3-3.3,2.4-4.8,5-5.9c-3.8-2.4-5.5,4.6-9.2,5c2.2,4.2,2.9,9.9,5.9,13.4c-3.2,1.7-7.7-1.5-8.4-5c-2.8,0.5-1.2,3.2-0.8,5
		c-2.6,1.1-4.6-2.5-5.9,0c-2.7-0.9-2.2-5.1-4.2-6.7c-4.5-0.6-7.3,0.5-8.4,3.4c1.4,1.8,6.2-3.3,8.4-0.8c-3.6,2.3-7.3,4-10.9,4.2
		c-0.1,2.1-0.2,4.1,1.7,4.2c-0.1,1.6-2.8,0.5-3.4,1.7c0.5,1.2,1.3,2,2.5,2.5c4.7-1.8,5.3-11,11.7-8.4c0.6,3.1-2.9,2.1-4.2,3.4
		c0,1.7,2.3,1.1,1.7,3.4c-5.2,1.6-2.4,6.9-5,10.1c2.9,2.7,4.6-1,6.7-1.7c-0.1,3.2,0.7,0.3,2.5,0.8c-0.7,1.7-0.7,3.8,0.8,1.7
		c2,2.7-5,5.7-5.9,5.9c-4.3-2.4-6.3-7.1-9.2-10.9c-2.4,2-3.5,5.4-5.9,7.5c0.9,1.9,3.9,1.7,6.7,1.7c-3.8,5.1,4.1,10.2-0.8,15.9
		c1.2,3.8,10.1,0,12.6,2.5c-3.2,3-15.2,4.4-15.9-1.7c3.7-5.4,1.2-8,0-14.2C529.5,107.1,525.4,108.1,525,105.4 M558.6,77.8
		C557.9,74.2,559.7,84.2,558.6,77.8 M558.6,66C555.5,70,563.4,67.1,558.6,66 M540.5,69.4c-4.7-0.1-9.3,6-10.4,10.1
		c2.1,2.3,2.7,1.2,1.7,5.9v0c0,0,0,0,0,0h0v0c2.8-0.2,2.4-3.8,4.2-5c-1-0.1-2-0.3-1.7-1.7c0.2-1,0.8-1.6,1.6-2
		c1.5-0.7,3.8-0.7,5.8-1c1.1-0.2,2.1-0.5,2.7-1.2c-0.8-0.2-1.6-0.3-2.4-0.4c-1.7-0.1-3.1,0-4.3-0.2c-0.3-0.1-0.6-0.1-0.9-0.3
		c0-1.4,0.6-2.1,1.7-2.5c0.4-0.1,0.7-0.1,1.1-0.1c1.9,0,2.7,1.1,4.6,1.1c0.3,0,0.7,0,1.1-0.1C543.7,70.1,542.1,69.4,540.5,69.4
		 M554.4,112.1c-1.1,1.5,0.3-4.9-1.7-6.7h-2.5c-0.6,3.9-6.5,2.4-9.2,4.2C540.9,117.7,555,118.9,554.4,112.1 M223.5,22.5
		c-0.4-2.6,2.3-2.2,2.5-4.2c10.9-1.1,22.1,0.9,31,1.7c5,0.4,10.4-1.3,14.2,0.8c2.8,8.1-8.1,9-11.7,13.4c-3.1-0.1-6.8-0.6-5.9,3.4
		c4.8,4,7.6-1.7,11.7,0c0.2,7.5-3.1,11.4-5,16.8c-1.5-3.4-3.3-1.6-7.5-1.7c0.7-2.9,4.1-3.1,6.7-4.2c-0.8-2.5-5-1.7-7.5-2.5
		c1.8-1,2.7-2.9,3.4-5c-10.3-1.6-11.3,6-17.6,8.4c0.4,2.6,1.5,4.7,2.5,6.7c2.5-3.4,8.3-4.3,12.6-1.7c-1.6,4.5-5.3,6.9-10.9,7.5
		c2.9,4.5,8.2,1.4,14.2,2.5c2.5-1-0.9-2.9,0-5c3.4,0,5,1.7,6.7,3.4c-1.7,4.2-7.4,4.3-13.4,4.2c0.2,3.2,4.5,9.4,7.5,12.6
		c1.2-1.6,8.4-4.1,9.2-6.7c0.4-1.5-1.2-1.2-1.7-3.3c-1.1-5.6-1-9.7-3.4-13.4c4.5,1.4,6.2,5.5,5.9,11.7c0.7,2.9,4.7,2.6,3.4,7.5
		c-2.7,0.5-2.6-1.6-4.2,0c-5.4,6-13.3,9.6-19.3,15.1c0.2,2.6,2.2,3.4,3.3,5c5.7-0.4,8.9-7.1,13.4-5.9c1.3-6.5,7.5-8.1,9.2-14.2
		c3.3,0.3,4.8,2.4,5.9,5c8.1,7.6,17.8,13.5,28.5,18.4c5.2-3.5,10.1-8.2,15.1-13.4c4.3-4.5,8.8-12.1,14.2-14.2
		c3.1-1.2,7.1-0.3,10.1-0.8c9.4-1.6,18.5-4.4,28.5-6.7c-0.3-4.5,1.8-6.6,2.5-10.1c3.9,1.4,5,5.6,8.4,7.5c6,1.6,9.7-3.4,12.6,0
		c7.6-1.9,9-10,13.4-15.1c1.9-0.3,3.2,0.1,4.2,0.8c3.3-2.6,5.8-5.9,5.9-11.7c-3.2,0.7-3.5,4.3-5,6.7c-4.3-3.8,0.1-8.4-0.8-12.6
		c-1.2-5.3-6.7-7-8.4-12.6c-2.7,0-3.2-2.4-6.7-1.7c-1.6-1.2-1.5-4.1-2.5-5.9c-4.1,2.7-5.9,3.4-12.6,2.5c-1.4,1.9-3.5,3.2-3.4,6.7
		c1.1,2,4.5,1.6,6.7,2.5c0.2,2.6,3,5.1,1.7,6.7c-2.7-2.3-4.8-5.2-9.2-5.9c-1.5,0.2-1.9,1.4-1.7,3.4c2.6,2.1,10.3-0.8,9.2,5
		c-2.2-0.7-8.5,1.6-9.2-3.4c-3.6,5.4-1.4,16.5-3.4,23.5c-4.3-0.9-2.9-12-0.8-14.2c-2.4-2.7-6.4-11.9,0.8-12.6
		c-0.1-4.4-2.8-6.1-2.5-10.9c9.6-5.4,16.4-15.1,30.2-11.7c2.7,0.7,8.3,5.8,14.2,5c4.8,5.7,12.5,18,5,26c2.7,8.4-1.7,20.2-10,17.6
		l0,0h0c0,0,0,0,0,0c-18.8,24.2,22.8,34.1,36.9,45.2c-1.7,20.2,7.6,36.5,8.4,57c4.8,2.2,13.2,0.8,18.4,2.5
		c-1.9,7.6-10.7,8.3-13.4,15.1c-2.5-0.8-3.4-3.3-7.5-2.5c0.7,2.4,5.6,0.5,5,4.2c-3.9-0.5-7.9-1-8.4-5c2.1-0.9,4.6-2.5,5.9,0
		c2.1-6.3,12.7-4.1,15.1-10.1c-11-0.5-22-0.9-31-3.4c-0.7,0.2-0.8,0.8-1.7,0.8c-0.3,7,7.6,5.8,10.1,10.1c-3.2,1.3-3.2,5.7-5.9,7.5
		c1,1.2,2.9,1.6,5,1.7c2,2-2,2.2-0.8,5.9c2,0.5,4.3,1.7,4.2-1.7c1.6,2.7,0.4,6.4,5,4.2c-0.7,3.2,2.9,5.2,3.4,8.4
		c1.1,7.5-3.5,17-5,26c-1.8,10.7-1.4,20.8-5,28.5c-3.4,0.8-6,2.4-8.4,4.2c-26.8-2.2-47.3-1.2-75.4-3.4c-2.8-0.2-7.6,1.6-9.2-1.7
		c7.3,1.2,11.3,0.5,11.7-6.7c-5.2-0.5-7.3,5.8-12.6,2.5c-2,2.8-0.4,9.1-5.9,8.4c3-3.4,2.8-10,6.7-12.6c0.4-2.9-2.5-2.5-3.4-4.2
		c-6,1.8-12.4,3.2-14.2,9.2c-5.1-1.6-7.5-3.6-10.1,0.8c-1.1,1.2-3.6,0.8-5.9,0.8c0.7,1.2,2.1,1.8,4.2,1.7c-1.8,3.2-6.4,3.7-11.7,3.4
		c-3.3-0.7-2.3,5.2-5,2.5c0.1-1.5-1-1.8-0.8-3.3c4.2-0.7,8.5-1.3,12.6,0c0.5-3.9-3.7-3-5-5c1-3.2,7.3-1,10.9-1.7
		c1.1-0.3,0.7-2.1,0.8-3.4c5.5,4.9,2.6-8.4,0-10.1c0.9-6.3,1-15.8-1.7-20.9c-6.4-0.8-7.7,3.4-14.2,2.5c-0.6-4.5,1.3-6.5,0.8-10.9
		c0-1.4-4.7,1.3-5.9-0.8c-0.7-4.2,2.9-4.1,0.8-7.5c-8.4-1.4-4.5,9.4-10.1,10.9v10.1c4.5-0.2,5-0.7,9.2,0c1.8,3.6,7.1,8.4,3.4,12.6
		c0.5,2,5.2-0.1,5.9,1.7c0.1,4.6-3.7,5.2-8.4,5c-1.1-1.1-1.1-3.1,0-4.2c-5.3-0.6-4.3-7.5-7.5-10.1c2.5,0.3,5,3.1,7.5,0.8
		c0.1-7.6-9.4-2.7-10.9-5c-2.7,1.8-6.9,7-10.9,2.5c1.4-4.3,5.5-8.7,1.7-13.4c3.5-1,3.3,1.8,5.9,1.7c-3-4.9,2.3-13.3-6.7-12.6
		c0.2,2.8,1.3,4.8,0.8,8.4c-4,2-7.4-1.4-10.9-2.5c-0.8-3.3,1.8-4.9,0-6.7c-5.1,0.2-2.9,7.8-5,10.9h-5c-1.4-2.5-3.7-4.1-3.4-8.4
		c-2.2,0-4.8-0.3-5.9,0.8c0.6,2.6,2.2,1.1,4.2,0.8c-1.2,6.6-7.5,1.6-5.9-4.2c1.7-1.8,2.7,0.7,4.2-0.8c3.2-2.6,5.8-5.8,9.2-9.2
		c4.2-4.2,9.9-6.3,10.1-14.2c1.6-0.4,2.1-1.8,4.2-1.7c-0.4-2.4-3.6-2-4.2-4.2c1.4-3.1,5.3-3.7,5-8.4c4.4,0.6,6.8,3.2,9.2,5.9
		c3-0.7,2.7-4.6,7.5-3.4c2.7,2,4.4,5.1,8.4,5.9c0.4,3.8-2.1,8-5,5.9c-0.5-1.9,1.6-1.2,1.7-2.5c-6-1.8-16-2.3-21.8-1.7
		c1.9,5.1,12.8,1.2,17.6,3.4v3.4c5.5,2,9.2,5.8,10.9,11.7c2.1,0,4.4,0.6,4.2,3.4c4-11,5-23.7,5-36.9c0-9.1,3.8-17.7,2.5-26
		c-11.8,6.2-24.4,15.5-40.2,15.1c-0.6-1.9-2.8-2.2-3.4-4.2c-19-7.6-29.3-23.7-42.7-36.9c2.4-5.1,6.1-8.9,9.2-13.4
		c-0.1-5-4.6-5.4-4.2-10.9c-3.3,0.3-6.2,0-7.5-1.7c-0.3-2,1.5-1.8,0.8-4.2c4.2-0.6,8-1.5,8.4-5.9c-3.8-2.1-4.7,2.9-7.5,4.2
		c-4.5-2.2-6.5-7-6.7-13.4c8.1,2.9,7.5-8.2,11.7-11.7c-5.8,1.7-5.8,9.3-12.6,10.1c0.2-5.3,6.2-5,7.5-9.2
		C237.5,28.6,224.1,31.9,223.5,22.5 M299.5,156.5c0.1,0.5,0.5,0.8,1.1,0.9c0.5,0.1,1.1,0.2,1.6,0.1c0.3,0,0.6-0.1,0.8-0.2
		c0.5-0.2,0.8-0.5,0.8-0.8c-0.3,0.1-0.6,0.1-0.8,0.1c-1.4,0.1-1.6-0.9-2.8-1c-0.2,0-0.4,0-0.7,0C299.6,156,299.5,156.3,299.5,156.5
		 M293,155.7C288.1,152.4,288.9,158.8,293,155.7 M289.3,152c-0.2,0.3-0.4,0.6-0.5,1.1c0.3,0,0.7,0,1,0c1.1,0,2.1,0,2.3-0.8
		c-0.6-0.5-1.3-0.8-2-0.7C289.8,151.6,289.5,151.8,289.3,152 M296.4,210.3c0.1-0.3,0-0.6-0.1-1H293c-0.4,1.1-0.2,1.8,0.2,2.2
		c0.1,0.1,0.3,0.2,0.5,0.3c0.2,0.1,0.5,0.1,0.8,0.1c0.6-0.1,1.3-0.4,1.6-1C296.3,210.7,296.4,210.5,296.4,210.3 M314.1,224.7
		c-0.1,0.4-0.2,0.8-0.1,1.4c0,0,0,0,0,0c2.2,0.2,3.6-0.3,3.3-2.5c-0.5-0.1-1-0.1-1.5,0s-0.8,0.2-1.1,0.4
		C314.4,224,314.2,224.3,314.1,224.7 M309.5,217.8c-0.4,0.5-0.7,1.2-0.7,1.9c0,0.4,0,0.8,0.1,1.3h4.2c-0.2-1.6,0.9-1.8,0.8-3.4
		C312.5,216.3,310.6,216.6,309.5,217.8 M288,166.6c7.7,0.3,12.5-1,15.9-0.8c-3.5-1.5-6.7-3.3-11.7-3.4
		C290.9,163.8,288.3,164.1,288,166.6 M285.7,168.4c-0.6,0.2-1.3,0.4-1.9,0.6c0,0.3,0.1,0.5,0.1,0.7c0.2,0.7,0.5,1.2,1.6,0.9
		c7.5-0.6,17.3,1.1,23.5-0.8c-1.5-3.4-5.2-0.7-8.4-0.8C296,168.8,290.2,167.3,285.7,168.4 M279.6,173.3c0.1,0.8,0.2,1.5,0.8,1.7
		c0.2,0.1,0.5,0.1,0.8,0c0.9-0.3,1.9-0.5,2.9-0.6c3-0.5,6.2-0.5,9.4-0.3c2.9,0.1,5.8,0.4,8.6,0.6c1.4,0.1,2.7,0.2,4,0.3
		c2.6,0.2,5,0.2,6.9,0c-0.7-1-1.5-1.6-2.4-2c-0.9-0.4-1.9-0.7-2.9-0.7c-0.3,0-0.7,0-1.1,0c-1.1,0-2.2,0.1-3.3,0.3
		c-0.4,0.1-0.7,0.1-1.1,0.2c-0.7,0.1-1.5,0.2-2.2,0.4c-1.1,0.2-2.1,0.3-3,0.3c-0.7,0-1.5,0-2.2-0.1c-3-0.2-5.9-0.8-8.8-0.9
		c0,0-0.1,0-0.2,0C283.8,172.2,281.7,172.4,279.6,173.3 M274.6,180c12.9-0.2,26.1-0.1,33.5,0c2.2,0,6.6,1.4,7.5-1.7
		c-7-1.1-15.1-1.6-22.7-1.7c-2.5,0-5.1,0-7.5,0c-3.7,0.1-8.8-1.5-10.4,1.7C274.8,178.7,274.7,179.3,274.6,180 M274.6,192.4
		c0-0.5,0-1-0.1-1.5c-2.3,0.4-2.8-1.1-4.9-1c-0.3,0-0.6,0.1-1,0.1c0.3,1.5,0.8,2.8,1.6,3.9c0.8,1,1.9,1.7,3.4,2
		c0.4-0.4,0.6-0.9,0.7-1.5C274.6,193.8,274.6,193.1,274.6,192.4 M283.8,186.8c-0.3,1.3,0.5,1.6,1.6,1.6c0.7,0,1.5-0.1,2.3-0.2
		c0.1,0,0.3,0,0.4,0c0.3,0,0.5,0,0.7,0.1c0-0.5,0-0.8-0.1-1.1c-0.1-0.6-0.5-1-0.9-1.1c-0.2-0.1-0.5-0.1-0.7-0.1
		c-0.3,0-0.5,0-0.8,0.1c-0.4,0.1-0.9,0.2-1.3,0.3c-0.4,0.1-0.9,0.3-1.2,0.4C283.8,186.7,283.8,186.8,283.8,186.8 M286.1,189.8
		c-0.4-0.1-0.9-0.1-1.3-0.1c-0.8,0-1.5,0.1-1.9,0.3v2.5c2,0.1,3.1,1.1,4.8,1.5c0.6,0.1,1.2,0.2,1.9,0.1
		C290.5,191.2,288.3,190,286.1,189.8 M302.4,195.1c0.1-0.2,0-0.5-0.1-0.9c-0.4-1-1.7-1.6-2.9-1.5c-0.6,0-1.1,0.2-1.5,0.6
		c-0.4,0.4-0.7,0.9-0.6,1.7c0,0.2,0.1,0.3,0.3,0.4C298.5,196.3,302,196.5,302.4,195.1 M304.7,186.7L304.7,186.7
		c-0.3,0.1-0.5,0.1-0.8,0.1c-1.2,0-2.8-0.3-4-0.2c-0.9,0-1.5,0.2-1.8,0.9c0,0-0.1,0.1-0.1,0.1c0.5,0.2,1,0.4,1.4,0.7
		c0.4,0.3,0.8,0.6,1.1,1c0,1.1-1.1,1.2-0.8,2.5h3.4c-1.5-1.8-1.4-2.2-0.7-2.6c0.5-0.3,1.3-0.6,1.9-1.4
		C304.4,187.4,304.6,187.1,304.7,186.7 M313.7,193.4c1.6,0.1,2.7-0.2,3.6-0.9c-3-4.3,0.8-1.9,1.7-5.9h-5.9h0v6.7h0
		C313.3,193.4,313.5,193.4,313.7,193.4 M319.8,185c-4.3-5-14.9-3.9-23.5-4.2c-3.8-0.1-8.1-0.5-12.3-0.4c-7,0-13.5,1-16.1,5.5
		c1.4,2.2,4.2,3.1,8.4,2.5c0.1-0.5,0.2-0.9,0.1-1.2c-0.3-1.9-3.5-0.8-4.7-1.7c-0.2-0.1-0.3-0.3-0.4-0.5c6.3-0.8,13.5-0.6,21.7-0.3
		c6.1,0.2,12.7,0.5,19.7,0.5C315,185.1,317.4,185.1,319.8,185 M450.5,225.2L450.5,225.2L450.5,225.2h1.7c0-1.1,1.1-1.2,0.8-2.5h-2.5
		h0V225.2z M378.5,25c-4.1-1.5-2.5,6.9-2.5,6.7C377,29.7,378,27.6,378.5,25 M401.9,201.7L401.9,201.7c-1,0.1-2,0.2-3.2,0.2
		c-1,0-2,0-3,0c-3.8,0-7.7,0.3-9.7,3.1c0,0,0,0,0,0h0v0c2.1-0.2,4.6,0,6.9,0c0.1,0,0.2,0,0.3,0c0.1,0,0.1,0,0.2,0
		C397.4,205.1,401,204.7,401.9,201.7 M440,245c-2,0-4.3-0.1-6.7-0.3c-1.2-0.1-2.3-0.2-3.5-0.3c-4-0.3-7.4-0.3-8.7,0.9
		c0.4-0.1,0.9-0.1,1.3-0.1c4.2-0.1,10.3,1.3,14.9,1.5c3.1,0.1,5.6-0.4,6.4-2.2C442.8,244.8,441.5,245,440,245 M435.4,235.2
		c-3.3-0.9-8.2-1.7-10.7,0.1c-0.5,0.4-0.9,0.8-1.2,1.4c-0.1,0.3-0.2,0.6-0.3,1c-0.2,1.1-0.1,2.5,0.5,4.2c1.6,0.5,3.3,0.9,5.2,1.1
		c1.8,0.2,3.8,0.4,5.7,0.5h0c0.3-0.3,0.5-0.7,0.6-1.1c0.1-0.4,0.2-0.9,0.2-1.5C435.6,239.2,435.3,237,435.4,235.2 M426.2,206.8
		L426.2,206.8c0.6,4.2-1.8,10.2,3.4,11.7v0c3-9.4,3.3-24.5,0-33.5c6-9.7-0.5-29.2,0-38.5H427h0C419,163.7,423.9,189.4,426.2,206.8
		 M405.3,97v7.5c0.5,0.4,1,0.6,1.5,0.6c0.8,0,1.6-0.3,2.4-0.3c0.8,0,1.5,0.3,2,1.4c-0.1,0.2-0.2,0.3-0.4,0.4c-0.9,0.5-2.9,0-3.1,1.3
		c0,0.2,0,0.5,0.1,0.8c0.2,1.2,1.4,1.4,1.7,2.5c3-0.2,4.3-2.1,7.6-1.9c0.5,0,1,0.1,1.6,0.2c0-1.9-0.6-4.5,1.5-4.4
		c0.3,0,0.6,0.1,1.1,0.2c-0.3-2.8-1.8-5.4-3.8-7.3c-0.7-0.6-1.4-1.2-2.2-1.7c-0.8-0.5-1.6-0.8-2.4-1.1c-0.8-0.2-1.7-0.4-2.5-0.3
		C408.4,95.1,406.8,95.7,405.3,97 M339.1,153.2c0.4,0.1,0.6,0.1,0.9,0.1c0.2,0,0.4-0.1,0.5-0.2c0.3-0.3,0.4-0.7,0.4-1.2
		c0-1-0.3-2.4-0.2-3.4c0.1-0.6,0.3-1.1,0.9-1.1c0.2,0.4,0.4,0.8,0.6,1.2c1,2.9-0.3,6.1,0.3,8.8c0.9,4.6,7.2,14.8,10.1,16.8
		c2.4,1.7,5.5,2.5,8.9,2.6c9.3,0.3,20.5-4.5,24.5-10.2c0.4-0.5,0.7-1.1,0.9-1.6c0.4-1-0.4-2.9,0-5c0.4-2.2,2.1-4.7,2.5-6.7
		c1.4-7.3,1.4-14.3,2.5-21.8c0.8-5.3,4-10.2,5-15.1c1.3-5.8,1-11.8,2.5-17.6c3-11.9,7.7-24,7.5-38.5c-3.7-1.1-6.5,3.6-11.7,4.2
		c-6.6,0.7-12.2-2.3-16.8-5c-0.8,2.5-1.7,5-2.5,7.5c-12.6,7.5-16.4,17.6-23.5,33.5C345.1,117.1,340.3,132.3,339.1,153.2 M337.4,190
		L337.4,190c1.3,0.7,2.8,1.5,4.5,2.3c3.1,1.5,6.7,3,10.5,4.3c2.4,0.8,5,1.4,7.6,1.8c8.8,1.3,16.1-0.5,16.8,7.5c0,0,0,0,0,0
		c6.5-8.9,6.1-24.6,9.2-36.9v0c-4,3.2-9.3,8.8-16.8,10.1c-0.9,0.1-1.7,0.2-2.5,0.3c-5.9,0.3-11.5-1.5-16.7-3.6
		c-4.7-5.9-8.6-12.6-10-21.8c0,0,0,0,0,0C339.9,166.2,336.5,179.6,337.4,190 M302.2,102.9c0.4-0.2,0.8-0.3,1.2-0.2
		c1.9,0.1,2.3,3,3.5,2.8c0.3,0,0.7-0.3,1.2-0.9c-1.6-0.9-1.8-3.2-3.4-4.2C305,102.3,302.3,101.3,302.2,102.9 M252.8,79.4
		c-0.3,1.4-3.9,3.8-1.7,5C252.5,83.4,256.6,80.8,252.8,79.4 M261.2,45.9c0.7-2.3,2-4.1,2.5-6.7C260.6,39.1,257.7,44.7,261.2,45.9
		 M226.8,21.6c1.5,8,14,5,16.8,11.7c0.7-3.2,4.3-0.1,5,1.7c0.4,2.2-5.6,4.7-1.7,5c4.2-1.5,3.7-5.5,7.5-8.4
		c4.6-3.4,14.2-2.8,14.4-8.8c0-0.4,0-0.8-0.1-1.3c-4.5,0.4-9.5,0.4-14.7,0.3c-3.5-0.1-7.1-0.2-10.8-0.3
		C237.7,21.5,232.2,21.4,226.8,21.6 M318.1,233.6c4.7,3.1,11.3-2.2,13.4,0.8c0.7-2.4-1.2-2.2-0.8-4.2c-4,2.6-8.5,3-13.4,0.8
		c-2.9,2.4-1.7,8.9-5.9,10.1c-2.5-7.7-16.9-12.5-17.6,0c-5.4-0.1-7.3,3.3-6.7,9.2c6.6,1,6.7-4.5,9.2-7.5c6.9,0.1,11.5-1.7,16.8,0.8
		C316.2,241.6,315.5,235.9,318.1,233.6 M287.1,244.5c2-7-9.8-4.7-13.4-1.7c-0.5,3.1,0.6,4.5,1.7,5.9
		C281.6,248.6,281.4,240.2,287.1,244.5 M89.5,272.9c1.1,16.8,2.5,38.1,1.7,58.6c-22.8-2.7-41.8-6.2-63.7-10.9
		c-3.5,7.5,1,10.6,4.2,15.1c15.9,3.5,35.4,4.7,51.1,8.4c2.9,0.7,7.7-0.1,9.2,3.4c-12.5-1.9-29.3-3.2-44.4-5.9
		c-10.2-1.8-18.9-3.7-24.3-10.1c2-19.4,3.5-47,1.7-68.7c-0.7-8.7-1.7-22.7-6.7-26.8c20.1,2.2,44.4,9.4,67,7.5
		C90.7,251.4,88.8,262.9,89.5,272.9 M35.8,267.9c-4.3-2.7-4.1-9.8-9.2-11.7c2.5,18.7,1,41.3,1.7,61.2c3.4-0.6,1.9-4.5,2.5-6.7
		c0.7-2.4,1.8-5.2,2.5-7.5C36.5,292.1,36.9,281.2,35.8,267.9 M45.1,314c0-1.2-0.1-2.4-0.1-3.7c0-1.1-0.1-2.3-0.2-3.4
		c-0.8-17.5-2.6-39.2-3.9-53.2c-0.5-4.9,1.4-8.9-1.7-12.6c-1.1,0-1.2-1.1-2.5-0.8c0,1.1-1.1,1.2-0.8,2.5c2.8,19.6,4.5,45.1,5.9,66.2
		c0.3,4.9-2.2,12.4,2.5,13.4C48,320.9,45.1,316.4,45.1,314 M53.4,296.4c0.1,1.1-3.4,2.5-0.8,3.4C52.5,298.6,56,297.2,53.4,296.4
		 M60.4,290.1c0-1.8,0.1-3.5,0.3-5c0.2-1.5,0.6-2.8,1.1-3.8c-0.4,0-0.7,0.2-0.9,0.4c-0.2,0.2-0.4,0.4-0.8,0.5v-1.7
		c-1.7-7.8-0.4-19-1.1-27.7c-0.1-1.4-0.3-2.8-0.6-4.1c-0.1-0.7-0.3-1.6-0.6-2.5c-0.1-0.2-0.1-0.4-0.2-0.6c-0.2-0.6-0.5-1.1-0.8-1.5
		c-0.6-0.8-1.4-1.3-2.6-1.2c-0.8,3.9-0.5,8.8,0,13.5c0.3,2.4,0.6,4.7,0.9,6.8c0.3,2.1,0.6,4.1,0.8,5.7c0.2,1.9-0.9,4.6-0.8,6.7
		c0.1,3.1,0.2,6.5,0.4,9.9c0.1,1.7,0.2,3.4,0.3,5.2c0.2,3.5,0.4,6.9,0.6,10.2c0.2,3.3,0.3,6.4,0.4,9.3c0,1.4,0,2.7,0,4
		c0,0.4-0.1,0.9-0.2,1.4c-0.2,0.8-0.4,1.8-0.6,2.7c-0.2,0.9-0.4,1.8-0.4,2.7c0,1.7,0.6,3.2,2.9,4.2c2.3-4,2.7-9.9,2.6-16.3
		C61,302.3,60.4,295.5,60.4,290.1 M75.2,251.2c-0.2-1.4,1.4-5.7-1.7-5.9h-1.7c0,1.1-1.1,1.2-0.8,2.5c4,23.8-0.1,46.7,0.8,70.4
		c0,0.4,0,0.8,0,1.2c-0.1,0.9-0.2,1.9-0.3,2.9c0,0.5-0.1,1,0,1.5c0.1,2,0.7,3.8,2.9,4.4c0.2-3.1,0.5-6.1,0.7-9.3
		c0.7-9.4,1.2-19.1,1.5-28.9C76.9,277,76.6,263.9,75.2,251.2 M18.3,236.1L18.3,236.1C18.3,236.1,18.3,236.1,18.3,236.1L18.3,236.1z"
		/>
</g>
</svg>
