<?xml version="1.0" encoding="utf-8"?>
<!-- Generator: Adobe Illustrator 19.0.0, SVG Export Plug-In . SVG Version: 6.00 Build 0)  -->
<svg version="1.1" id="Layer_1" xmlns="http://www.w3.org/2000/svg" xmlns:xlink="http://www.w3.org/1999/xlink" x="0px" y="0px"
	 viewBox="6 -13.1 520.7 387.9" style="enable-background:new 6 -13.1 520.7 387.9;" xml:space="preserve">
<style type="text/css">
	.st0{clip-path:url(#SVGID_2_);fill:#116161;}
</style>
<g>
	<g>
		<defs>
			<rect id="SVGID_1_" x="6" y="-13.1" width="520.7" height="387.9"/>
		</defs>
		<clipPath id="SVGID_2_">
			<use xlink:href="#SVGID_1_"  style="overflow:visible;"/>
		</clipPath>
		<path class="st0" d="M211.1,4.1c0.4-2.5,1.8-3.9,4.3-4.3C215.7,3,212.9,5.7,211.1,4.1 M307.7,9.3c1,0.2,1.3,1,1.7,1.7
			c1.6-0.4,3.7-0.3,3.4-2.6c-1.8-0.8-2.4-2.8-3.4-4.3C308.9,5.9,307.2,6.6,307.7,9.3 M424,4.1L424,4.1c-0.6,3.5,0.8,4.9,4.3,4.3
			C428.5,5.4,427.1,3.9,424,4.1 M245.6,6.7c-3.4,0.6-3.5-2.3-6.9-1.7v4.3C241.9,10,245.1,10.7,245.6,6.7 M263.7,9.3
			c2.5,0.8,2.6,0.8,5.2,0c-0.1-2.5-2-3.2-3.4-4.3C265.1,6.6,263,6.6,263.7,9.3 M288.7,5.9c-1.9,0.7-2,3.2-1.7,6
			c3.7,0.8,4.3-1.4,5.2-3.4C290.4,8.2,289.8,6.7,288.7,5.9 M330.1,5.9v4.3h5.2C336.1,6.1,333.7,5.4,330.1,5.9 M352.5,6.7
			c-2.6,3.1,1.6,6.2,4.3,4.3C355.8,9.2,354.3,7.7,352.5,6.7 M402.5,9.3c-0.7-2.2-2.8-3-6-2.6v6C399.9,13.1,402.4,12.4,402.5,9.3
			 M216.3,13.6c-2.3,0.2-3.7-0.3-3.4-2.6c3.8,1.9,7.2-1.2,9.5-3.4c1.4,4.6,8.6,7.9,8.6,16.4C223.9,26,219.5,18.3,216.3,13.6
			 M222.3,15.3c-0.4,2.9,0.3,4.9,3.4,4.3C227.1,18.3,225.4,15,222.3,15.3 M411.1,23.1c-2-6.5,3.7-16.8,12.1-12.9
			C423.3,18.6,417.4,21.1,411.1,23.1 M415.4,17.1c2-0.3,3.6-1,5.2-1.7c-0.1-1.3,0.3-3.2-0.9-3.4c-1.6,4.1-1.6,2.8-4.3,0.9
			C414.8,15.4,414.8,14.4,415.4,17.1 M379.2,10.2H374C373.1,15,379,11.9,379.2,10.2 M239.6,14.5c-5.8-1.8-6.5,5.3-2.6,6
			C237.9,18.5,240,17.7,239.6,14.5 M405.1,22.2c0.5-3-0.7-4.4-2.6-5.2c-1,1.8-4.7,1.1-3.4,5.2C401.7,23.4,401.9,22.4,405.1,22.2
			 M217.2,30.9v-4.3c-2.7-0.6-1.7-0.6-4.3,0c-0.5,3,0.7,4.4,2.6,5.2C215.6,31,216.2,30.7,217.2,30.9 M240.4,27.4
			c-1.8-0.7-4.8-2.1-6-0.9c-2.4,1.6,1.2,4.5,0.9,6.9C238.8,33.3,240.4,31.2,240.4,27.4 M411.9,30c2.7,3.5,7.9,0.9,7.8-3.4
			C416.4,24.1,412.4,26.9,411.9,30 M405.9,27.4c-3.9-0.7-5.2,3.9-3.4,6C405.3,33.2,408.1,30,405.9,27.4 M425.7,32.6
			c2.6,0,5.7,0.5,5.2-2.6c-0.7-1.3-2.2-1.9-4.3-1.7l0,0C426.9,30.3,425,30.1,425.7,32.6 M355.9,44.6v-3.4h-2.6
			C353.1,43.4,353,45.5,355.9,44.6 M364.5,51.5c1.5-3.3,1.4,1.9,2.6,1.7c1-2.2,3.4-2.9,3.4-6C366.7,46.3,362.3,49.2,364.5,51.5
			 M391.3,49.8c-1.7-1.8-3.7,0-4.3,1.7C388.2,52.9,391.9,52.8,391.3,49.8 M430,52.4c-0.7-1.3-2.2-1.9-4.3-1.7
			c0.4,2.1-1.6,1.9-0.9,4.3C427.2,55.9,429.8,55.6,430,52.4 M212.9,51.5c-0.4,1.9-2,4.7,0.9,5.2C214.9,55.6,215.2,51.6,212.9,51.5
			 M387.8,71.4c2.8,0.3,4.9-3.7,1.7-4.3C388.6,68.1,387.1,68.6,387.8,71.4 M389.5,67.1L389.5,67.1L389.5,67.1L389.5,67.1z
			 M382.6,70.5c0,1.5-0.7,2.2-1.7,2.6c0-1.1-1.5-0.8-1.7-1.7c-0.6-2.4,1.7-1.7,1.7-3.4l0,0c-4.3,0.3-3.8,5.6-0.9,6.9
			C382.3,75.2,384.9,71.8,382.6,70.5 M430.9,71.4L430.9,71.4c-3-0.5-4.4,0.7-5.2,2.6c1,1,3,1,5.2,0.9V71.4z M211.1,79.1
			c3.3,0.4,4.6-1.2,5.2-3.4c0-1.1-1.1-1.2-0.9-2.6C210.7,72.3,209.4,75.9,211.1,79.1 M345.6,98.1c-0.4-4.8-1.7-8.7,1.7-11.2
			c4,4.6,6.1,11.6,4.3,17.2c2.7-0.4,3.4,1.9,5.2,0c0-2.9-2.8-2.9-2.6-6c0.8-1.5,1.6-3,4.3-2.6c-1.7,4.5,0.3,7.6,0.9,12.1
			c-1.2,0.3-1.6,1.2-3.5,0.9c1.1,3.9-2.2,7.5,2.6,10.3c-0.1-6,3.2-9.9,3.5-16.4c0-1.2-1.6-1.5-1.7-2.6c0-0.1,1.7-2,1.7-2.6
			c0-0.1-1.7-1.1-1.7-1.7c-0.1-1.2,1-3.4,0-5.2c-3.9,0.1-3,5-6.9,5.2l0,0c1.8-5.7-1.3-8.2-2.6-12.9c-6.6,0.6-6.5,7.8-8.6,12.9
			C344.9,94.7,343.9,97.7,345.6,98.1 M388.7,89.5c2.7,0.4,3.5-1.1,4.3-2.6c-1.2-0.3-1.6-1.2-3.4-0.9l0,0
			C389.3,87.2,388.3,87.7,388.7,89.5 M252.5,88.6c1.6,0.4,1.6,2.5,4.3,1.7C258.1,86.6,252.9,85.7,252.5,88.6 M430.9,92
			c-5.2,1.5-1.8-0.5-3.4-2.6c-0.2,1.2-1.9,1-2.6,1.7c-0.2,1.6,1,1.9,0.9,3.4C428.8,95.1,430.2,93.9,430.9,92 M285.3,105.8
			c-8,0.4-2-11.3-4.3-14.7c-5.5,14,3.2,27.6,8.6,36.2C290.3,118.7,279.2,111.7,285.3,105.8 M216.3,100.7c0.7-1,1.1-2.3,0.9-4.3
			c-2.8-0.2-4.1,1-4.3,3.4C214.5,99.6,214.8,100.8,216.3,100.7 M352.5,112.7v-4.3c-4.1,0.4-1.3-0.8-1.7-3.4c-1.1,0-1.2-1.1-2.6-0.9
			c-0.7,2.3-2,7.3,1.7,8.6c0.1-1.4-0.1-3,1.7-2.6C350.7,111.4,350.7,112.2,352.5,112.7 M255.1,106.7h-3.4
			C250.3,110.7,256.1,109.7,255.1,106.7 M392.1,107.6h-3.4v2.6C390.3,109.8,392.4,109.8,392.1,107.6 M430.9,112.7L430.9,112.7
			L430.9,112.7z M425.7,110.1v2.6c1.8,1.9,2.5-0.4,5.2,0C432.1,108.9,427.4,108.5,425.7,110.1 M214.6,120.5c2.4-0.2,3.7-1.5,3.4-4.3
			C215.5,116.3,213.9,117.3,214.6,120.5 M374,120.5c0.1,2.2,0.5,4.1,1.7,5.2c1.5-2.5,0.6-8.9-2.6-9.5c-0.5,2.1-5.1,4.6-2.6,6.9
			C371.3,121.8,371.3,119.7,374,120.5 M392.1,123.9h-3.4C387.3,127.9,393.1,126.9,392.1,123.9 M425.7,127.4L425.7,127.4L425.7,127.4
			z M429.2,130.8c-0.1-2.2-1.3-3.3-3.4-3.4c0.2,1.6-1,1.9-0.9,3.4C426,131.9,428.1,131.9,429.2,130.8 M389.5,148.1
			c1-3.5-2.6-4.3-4.3-2.6C384.8,148.2,387.1,148.2,389.5,148.1 M372.9,162c1,0.7,1.6,3.1,0.2,2.5c3.9,1.9,7.5,0.1,10.3,4.3
			C385.6,165.1,376.7,161.5,372.9,162 M371.4,162.7c0.2-0.4,0.8-0.6,1.5-0.7C372.5,161.7,371.9,161.7,371.4,162.7 M430,166.2
			c0.6-3.5-0.8-4.9-4.3-4.3v5.2C428.2,167.7,428,165.8,430,166.2 M362,173.1c2.4,0.2,4.9,4.8,6.9,2.6
			C367,174.9,364.3,170.4,362,173.1 M430.9,186c-0.4-2.5-1.8-3.9-4.3-4.3l0,0c-0.3,1.2-1.2,1.6-0.9,3.4
			C426.8,186.1,428.8,186.1,430.9,186 M387.8,204.1c8.9-1.7,7,7.4,9.5,12.1c0.2-1.9,3.9-4.6,1.7-6c-2.1,1.2-2.1-7.1-4.3-8.6
			c-2.1,0.1-4.2,0.2-4.3-1.7c-0.7-5.9,3.3-7,5.2-10.3l0,0C389.6,191.1,383.7,197.5,387.8,204.1 M379.2,199.8
			c-0.9,2.4-8.6,4.3-3.4,8.6C373.8,205.5,383.7,202.3,379.2,199.8 M431.8,200.6L431.8,200.6c-3.4,0.2-8-2.7-8.6,1.7
			c-0.2,3.1,1.2,4.5,4.3,4.3C428.3,204.1,432.4,204.7,431.8,200.6 M193.9,225.6c-8.5-2.6-19.6-6.6-15.5-19c4.3-0.8,5.8,1,7.8,2.6
			c2.5-1.6,3-5,5.2-6.9C203.2,204.6,197.5,218.6,193.9,225.6 M196.5,211.8c-1-1.9-2.9-2.9-3.4-5.2h-3.4c1,4.4-1.8,5.1-3.4,6.9
			c-0.5-1.8-1.3-3.3-4.3-2.6c0.2,1.6-1,1.9-0.9,3.4c1.7,4,4.5,1.6,5.2,6c3.5-1.2,3.1,1.5,4.3,2.6C195,220.4,194.7,215.6,196.5,211.8
			 M386.1,204.1c-2-0.3-3.6-1.7-5.2,0c-0.4,2.9,3.8,3,2.6,6c-0.2,0.5-2-0.2-1.7,0.9c0,0.2,1.5,0.3,1.7,0.9c0.7,1.8,0.2,5.1,2.6,6.9
			C387.9,214,384.5,209.5,386.1,204.1 M429.2,219.6L429.2,219.6c-0.8,4.4,2.6,4.6,5.2,3.4C434.2,220.3,432.4,219.3,429.2,219.6
			 M312,230.8c3.7-0.6,4.8,1.5,6.9,2.6C319.3,230.3,313.8,228.8,312,230.8 M428.3,242.9c-0.1,1.5,0.2,2.7,0.9,3.4
			c1.9-0.7,4.7-0.5,5.2-2.6l0,0C432.6,242.9,430.2,240.9,428.3,242.9 M396.4,253.2L396.4,253.2c3.2,4.6-1.7,5.9-2.6,10.3
			c-1.5,7.2,0.8,14.4-4.3,16.4c-3.2-1.5-5.1,2-6,5.2c2.3,0.4,1.6-2,3.4-2.6c9.5-2.7,6.7-7.8,8.6-17.2c1-5,4.5-8,3.4-11.2
			C397.9,254,397.8,253,396.4,253.2 M428.3,260.1c-0.8,2.5-0.8,2.7,0,5.2c3.7,0.8,4.3-1.4,5.2-3.4
			C430.3,262.8,431,259.7,428.3,260.1 M430,274.8c-1.5,1.8-1.9,2.5-0.9,5.2c2,0.3,3.3-0.1,4.3-0.9
			C433.7,276.3,432.5,274.9,430,274.8L430,274.8z M415.4,352.3c3.3-10-0.6-16.3-1.7-25.9c-7-6.8-10.2-17.3-16.4-25l0,0
			C402.5,318.9,418.2,329.7,415.4,352.3 M268,310.1c-0.4,0.1-0.8,0.1-1.1,0.1C267.2,310.3,267.5,310.3,268,310.1 M297.3,307.5
			c-10.9,1.5-21.3-5.1-26.7-4.3c-2.5,0.4-12.6,7.9-3.7,7c-1.1-0.3-0.4-2.3-0.6-3.6c6-4.6,13.2,2.6,20.7,3.4
			c11.1,1.2,18.3-4.1,27.6-6.9l0,0C307.7,302.4,305.1,306.4,297.3,307.5 M191.3,352.3c1.3-3.1-3.2-4.8-4.3-2.6
			C189.3,349.7,188.9,352.5,191.3,352.3 M209.1,70.1c-0.3,0.3-0.5,0.7-0.5,1.3C208.7,71.1,208.9,70.7,209.1,70.1 M208.5,60.2
			c2.2,3,1.4,7.6,0.5,10c1-1,3.1-0.9,2.9-3.1c0.2-3.9-1.5-6-2.6-8.6c-3.9,0.1-7.9,0.4-7.8-3.4c5.3-4.4,10.7-8.8,12.9-16.4
			c-1.5-3.1-6.7-2.4-8.6-5.2c-2.3-9.1,7.1-6.7,6.9-13.8c-6.3-3.4-8.3-14.9-4.3-21.5c8-2.4,16.1,2.2,19.8,6.9
			c2.9-0.8,4.1-3.3,6.9-4.3c1.8-2.5,1.4-7.2,5.2-7.8c4.9,3.4,6.1,10.5,12.9,12.1c3.9-5.3,6.3-12.1,12.1-15.5l0,0
			c4.4,3.7,5.2,10.9,11.2,12.9c6.6-0.9,5.2-9.8,11.2-11.2c4.5,2.7,8.4,6,11.2,10.3c7.2-0.3,5.4-9.6,11.2-11.2
			c3.4,2.6,5.1,7,6.9,11.2h7.8c1.1-4.3,2.3-8.6,4.3-12.1c7.7,2.3,5.4,12.8,12.9,12.1c5.7-0.6,4.2-9.7,11.2-11.2
			c2.3,4.4,10.2,6.5,8.6,12.1c9,1.5,6.5-8.4,12.1-10.3c7.6,3.2,6.2,10.5,12.9,13.8c5.2-2.8,8.4-7.7,11.2-12.9
			C405.6-4.2,404.8,7,416.1,6c2.3-8.8,10.9-6.2,19.8-8.6c2.8,4.8-2.8,12.6-1.7,15.5c3.4-3.7,5.4-12.8,3.4-19
			c-5.5,1.4-9.2,4.6-17.2,3.4c-3.3,2.1-4.6,6.3-9.5,6.9c-5.8-3.1-5.8-12-13.8-12.9c-3.4,4.1-3.5,11.4-10.3,12.1
			c-6.1-2.8-5.2-12.6-13.8-12.9c-4.5,2.4-3.6,10.2-9.5,11.2c-1.3-7-7.3-9.3-11.2-13.8C345.8-10.2,347.5-0.5,342,0
			c-7.5,0.7-4.6-10.3-12.1-12.9c-6.5,1.2-2.7,8-6,12.9c-3,0.4-4.8-0.3-6.9-0.9c-0.7-5.7-4.3-8.4-7.8-11.2c-5.3,1.9-3,11.4-10.3,11.2
			c-3.9-3.5-6-8.9-11.9-10.5c-4.8,2.4-4.2,10.2-9.5,12.1c-7.9-1-6-11.9-12.9-13.8c-5.9,3-5.7,12.1-12.1,14.7
			c-8.7,0.1-6.5-10.8-13.8-12.1c-2,5.2-3.2,11.2-8.6,12.9c-5.1-4.5-16.2-10.8-25-6c-0.4,6.2-2.7,22.2,6,24.1c-1.3,3-4.1,4.5-6.9,6
			c0.7,4.4-1.5,6.5,0,9.5c2.6,1.1,7.9-0.4,7.8,3.4c-1.8,2.2-3.1,5-3.4,8.6c-4.9,1.4-9.8,2.9-9.5,9.5
			C201.8,58.8,204.2,60.5,208.5,60.2 M436.9,35.2c4.8,0.7,6.3-1.7,6.9-5.2c-6-3.5-14.1-11-12.1-17.2l0,0c-1,2.2-3.4,2.9-3.4,6
			c2.9,2.8,7,4.5,7.8,9.5c3.4-0.3,4.7,1.7,4.3,5.2c-5.7,0.6-8,4.7-11.2,7.8c0.4,3.4,4.7,2.8,6.9,4.3c-0.5,5.4,7.7,5.8,1.7,9.5
			c3.1,0.5,3.8-1.4,5.2-2.6c-3.7-3.5-4.8-9.6-11.2-10.3C432.9,39.2,436.1,38.4,436.9,35.2 M338,283.5c-0.3-0.1-0.6-0.1-0.9-0.1
			C337.4,283.5,337.7,283.5,338,283.5 M399,230.8c0.1-0.7,0-1.3-0.3-1.7C398.7,229.7,398.7,230.3,399,230.8 M522.3,369.6
			c-108.5,1.5-217.4,2.2-321.5,5.2c-10,0.3-23.9-1.5-35.3-1.7c-8.3-0.1-16.8,1.7-25,1.7c-13.1,0-31.7,0.3-48.3-0.9
			c-21-1.5-42-0.5-62.1,0c-10,0.3-17.2,2.3-24.1-3.4v-6.9c9.4-6.2,24.6-4.6,35.3-4.3c10.5,0.3,22.1,1.2,32.8,1.7
			c-2.4-37.5-2.2-67.6,0-101.7c0.2-3.4,2-7.2,1.7-10.3c-0.4-4.7-6.1-17.5-8.6-22.4c-0.8-1.5-0.7-2.6-1.7-6.9c-0.4-1.8-2-2.6-2.6-4.3
			c-1.6-4.6-1.9-10-3.4-14.7c-0.3-0.9-1.3-0.7-1.7-1.7c-2.1-5.4-2.6-11.9-4.3-17.2c6.8-2.4,14.9-3.5,20.7-6.9
			c-0.5-26.9,0.7-51.8,1.7-75.8c42.7,2.6,86-0.7,128.4,1.7c0.3-5.1-5.5-7.5,0.9-9.5c-2.7,5.7,5,12.5,10.3,15.5
			c-2.3,5.5-8.1,7.4-10.3,12.9c2.3,2.3,5.7,3.5,7.8,6c5.7,1.2,9.7-3.7,14.7-5.2c4.3-1.3,10.4,0.5,12.9-4.3c0.5-4.3-5.6-6.4-4.3-8.6
			c-0.6-5.2,5.6-3.6,5.2-8.6c3.1,0,6.8,0.5,7.8-1.7c-3.2-1.4-6.6-2.6-9.5-4.3c0.2-5.8,2-4.7,0-9.5c5.1-2.9,8.6-2.3,12.9-5.2
			c0.1-3.8-2.1,0.1-4.3-0.9c-0.9-4-5.9-3.9-8.6-6c-0.7-4.7,1.1-7,0.9-11.2c3.2-1.7,5.3-0.5,6.9-2.6c0.4-4.7-3.4-5.2-4.3-8.6
			c0-7.4,1-8.7,1.7-15.5c2.9-0.6,4.3-2,4.3-3.4c2.3,0.3,0.9,3.4,6,2.6c0.3,4.9,4.7,5.6,6,9.5c3.1-1.8,3.7-6.1,8.6-6
			c1.1-2.8-2.8-0.7-1.7-3.4c2.5,0.2,4.7,0.1,4.3-2.6c4.6,5.8,18.5,9.2,19-0.9c5.7,0,8.6,2.9,11.2,6c2.2,0.7,4-3.4,5.2-0.9
			c-0.8-3.2,6.1-7.4,8.6-6.9c3.6,2.1,4.1,7.3,8.6,8.6c3.7-2.4,4.9-6.7,8.6-6.9c5.8-0.3,7,7.8,13.8,7.8c3.3-0.7,0.4-7.6,3.4-8.6
			c3.6-1,3.4,1.8,6,1.7c-0.2,0.9-1.7,0.6-1.7,1.7c3.7,1.4,7,3.4,7.8,7.8c2.8-3.3,5.9-6.1,7.8-10.3h8.6c0.4,1.8-1.2,1.6-2.6,1.7
			c1.8,2.2,3.5,4.5,4.3,7.8c9,0.3,11.9-4.1,19.8-0.9c-0.5,5.7,4.5,3.5,4.3,9.5c-4.1,2.5-3.9,8.5-8.6,12.1c1.8,1.6,4.1,2.8,6.9,3.4
			c-0.8,4.8,1.7,6.4,1.7,10.3c-2.2,2.1-7,1.6-8.6,4.3c1.3,1.3,3.4,1.8,6,1.7c-0.7,2.7,0.8,3.3,1.7,4.3c0.4,1.8-1.2,1.6-2.6,1.7
			c4.7,2.7,0.6,3.7,3.4,7.8c-2.1,2.2-5.6,3.1-8.6,4.3c1.7,2.3,5.3,2.8,7.8,4.3v9.5c-1,2.7-4.8,2.7-6,5.2c2.9,3.7,6.1,7.1,5.2,14.7
			c-4,1.4-6.8,4.1-10.3,6l0,0c5.4-1.4,14,7.3,9.5,16.4c-4.1,0.8-5.8,4-9.5,5.2c4,6.3,12.4-1.6,14.7-5.2c2.4-0.4,3.7-2.1,6-2.6
			c4.9-4.3,11.3-7,17.2-10.3c-3.4-6.4,5.2-6.3,6-11.2c-0.1-5.6-9.6-1.9-8.6-8.6c1.1-4.7,7.9-3.6,10.3-6.9
			c-0.3-6.9-3.3-11.1-9.5-12.1c2-4.9,8.3-5.5,11.2-9.5c-1.5-4.8-5.6-7.1-9.5-9.5c-0.6-5.9,5.2-4.9,7.8-6.9c0,0,2.6-4.1,2.6-3.4
			c0.3-3.9-10-6.7-12.9-9.5c1.8-2.2,7.7-8.6,8.6-6c-3.5,2.2-4.2,3.4-6,6c0.7,3.1,2.8-0.1,6,0.9c1.4,2.6,3.1,4.9,6,6
			c1.8,6-8.9,6.5-10.3,12.1c5.2-0.4,7.1,5.6,9.5,10.3c-0.9,2.9-5.8,3-7.8,6.9c5.5,2.5,16.9-0.8,22.4,1.7c0.3,7.1-3.4,17.9-0.9,26.7
			c8.8-2.7,15.8-7.2,24.1-10.3c-4.2,7.6-11.2,12.3-17.2,18.1c0.8,3.3,3.5,0.6,6,0.9c-2.5,5-9.8,5.2-12.1,10.3
			c1.6,46.8,1,98.4,0,139.6c8.4,2.8,14.2,8.2,22.4,11.2c2,4.6,5.9,7.3,9.5,10.3c2.7,13.1,17.4,14.2,21.5,25.9
			c-0.7,5.6-11.9,0.8-12.1,6.9c0.1,3.6,3.9,3.5,7.8,3.4c0.6,6.1-2.4,8.5-5.2,11.2c7.2,4.5,22.3-3.8,25.9,6.9
			C527.4,366.7,523.3,366.6,522.3,369.6 M444.7,149.8L444.7,149.8c1.3,0.8,2.7,1.3,2.6,3.4c2.1,29.2-0.2,63.8,0.9,91.4
			c-2.4,0.7-2.2-1.2-4.3-0.9c-1.2,5.8-8,3.5-10.3,9.5c9.9,2.4,9.5,11,10.3,19c-2.1-0.5-1.8-3.3-5.2-2.6c-1.5,3.3,1.4,3.2,2.6,4.3
			c1.1,1,1.4,3.4,3.4,1.7c0,2.9-2.8,2.9-2.6,6c6.9,0.7,4.7-22.9,2.6-20.7c4.8-2.9-2.1-7.9,1.7-10.3c-1.1-2.7-4.1-3.4,0-5.2
			c3.4,12.2,1.7,24.6,1.7,38.8c1.3,1.3,4.4,0.8,6.9,0.9c0.9-38.2-0.5-89.5,0-137.9C451.3,145.4,447.4,148,444.7,149.8 M410.2,273
			c1.8,0,6.4-1.5,3.4-3.4c-1.1,3-3.3,0.8-1.7-1.7C408.7,267.1,408.9,271.7,410.2,273L410.2,273L410.2,273L410.2,273z M410.2,254.1
			c-0.1,2.2,1.3,2.7,2.6,3.4c0.1-3.1,3.2-3.1,3.4-6l0,0c-1.6-1.6-1.6,0.5-4.3,0C412.2,253.8,413.7,254.3,410.2,254.1 M408.5,263.6
			c0,1.5,0.7,2.2,1.7,2.6c0.1-1.6,2.9-0.6,2.6-2.6C411.7,262.5,409.6,262.5,408.5,263.6 M412.8,279.9c0.6,2,2.9,2.3,3.4,4.3
			c8.5-0.5,18.4-0.9,24.1-1.7c1.7-8.6-6.1-7.7-9.5-11.2c1.3-4.6,6.3-2.1,9.5-3.4c0.9-9.5-6.4-10.8-9.5-16.4c2-4.9,8.4-5.4,11.2-9.5
			c0.1-7-8.2-5.5-10.3-10.3c0.8-5.8,7.6-5.7,8.6-11.2c-1.2-6-10.1-4.3-9.5-12.1c1.4-1.4,5.1-0.7,7.8-0.9c1.1-9.7-7.2-10.1-9.5-16.4
			c5.8-1.1,8.1-4.4,7.8-8.6c-0.5-5.1-7.3-5.7-8.6-9.5v-3.4c2.6-1.8,6.8-1.8,9.5-3.4c-0.3-5.4-4.9-6.6-7.8-9.5
			c-10.5,3.3-18.4,9.1-27.6,13.8c2.2,6.2-1,8.5-1.7,13.8c4.2,3.1,6.7,9.2,2.6,13.8c3.6,1.9,0.7,10.2,4.3,12.1c1-1.4-0.1-7.2,0-7.8
			c5.8,1.9,8.6,6.9,8.6,14.7l0,0c2.1,0.5,3.9,1.2,6.9,0.9c3.8,5,5.2,16,1.7,22.4c-1.8,3.4-6.2,2.4-6,6c1.1,8-1,12.8-3.4,17.2
			C422,268.5,413.7,274.5,412.8,279.9 M445.6,160.1c1-2.4,0.2-3.7-0.9-6c-4.1-0.7-5.5,1.3-9.5,0.9c-0.1,3.2-1,2.5,0,5.2
			c2.1,0.4,1.9-1.6,4.3-0.9c0.9,5.2-2.7,10-4.3,12.1c-1.5,0.1-2-0.9-1.7-2.6c-2.4,0.2-3.7,1.5-3.4,4.3c5-0.7,4.7,3.9,7.8,5.2
			c1.4-0.6-0.2-4.2,2.6-3.4c-1.1,3.9-2.5,6.1,0,9.5c-7.2,4.2,0.6,16.6,0.9,24.1c-3,2-7.2-0.4-7.8,2.6c8.7,0.8,11.9,14.7,2.6,17.2
			c2.1,0.1,0.3,2.9,0,3.4c3.7,0.9,4.8,4.4,7.8,6c-0.8,0-0.4,6.1,2.6,5.2c-0.1-5.8,0-6.5-1.7-10.3c4-4,0.5-13.5-0.9-15.5
			c1.1-0.1,2-0.3,1.7-1.7c-0.4-1.5-1.1,0.2-2.6,0c3.3-2.1,5.8-13.1,0.9-15.5h2.6c-0.7-8.9-0.3-22.8,0-31.9c-1.5-2.6-3.4,3.2-5.2,0
			c3.1,0.5,2.1-3.1,5.2-2.6v-4.3c-2-1.2-3.2,2.2-3.4,0c1.6-0.2-0.5-1.4,0.9-1.7C444,159.9,444.6,160.3,445.6,160.1 M432.6,137.7
			c4.4-0.5,7.3-2.4,9.5-5.2c5.4,0.5,7.3-2.5,11.2-3.4c0.8-7.1-0.5-18,0-27.6c-7,0-10-1-16.4,0l0,0c1.6,2.5,1.5,6.5,3.4,8.6
			c2.4,0.1,5.9-0.7,6,1.7c-0.9,5.7,2,15.2-1.7,18.1c-1.1-4.1-1.1-12.3,0-16.4c-2.7-0.1-2.5,2.7-6,1.7c-0.6,4.3,3.2-1.1,3.4,1.7
			c-3.2,2.6-7.9-0.6-11.2,2.6c0.6,2.7,0.6,1.7,0,4.3c6.2-1.3,7,2.7,9.5,5.2C438,132.2,434.5,134.1,432.6,137.7 M397.3,166.2
			c7.4,3.5,15.6-4.1,22.4-7.8c3.2-1.7,6-1.5,7.8-4.3c1.6-0.7,3.2-1.4,5.2-1.7c1.5-1.6,2.3-4,4.3-5.2c2.1-0.8,3.7-2,6.9-1.7
			c0.3-1.7-1.2-1.7-1.7-2.6c2.8-2.6,7.2-3.7,9.5-6.9c-1.2-0.3-1.6-1.2-3.4-0.9C431.2,145.5,408.8,150.4,397.3,166.2 M387.8,158.4
			L387.8,158.4L387.8,158.4L387.8,158.4c0.5,3.3,3.7,3.8,6.9,4.3C394.3,159.4,390,160,387.8,158.4 M254.2,113.6
			c6.9-1.7,12.1-5.1,19.8-6c1.7,3.6,3.1,10.4,5.2,16.4c1.9,5.7,4.5,15.2,7.8,12.9c0.2,2.7,0.6,5.1,3.4,5.2c1.4-1.4,0.7-5.1,0.9-7.8
			c-0.6-1.7-5.1,0.5-4.3-2.6c1.1-1.2,3-1.6,5.2-1.7c1.3,3.5,2.7,7,6,8.6c-1.9,1.8,0.1,2.8,0.9,4.3c-1.2-0.3-1.6-1.2-3.4-0.9
			c-0.6,5.2,0.3,8.8,6,7.8c1.3-3.9-2.5-2.6-1.7-6c1.5-0.5,1.4-2.6,2.6-3.4c1.3,0.1,3.2-0.3,3.4,0.9c-4.2-1-3.8,2.5-5.2,4.3
			c4.5,0.5,1.9,3.1,4.3,6c2.2-0.1,3-1.6,4.3-2.6c-1.5-0.2-4.3,0.9-3.4-1.7c2.5-2.5,2.7,1.7,6,0.9c0.9-3.2-3.6-5.5-1.7-6.9
			c3.1,0.7,1.3,6.1,6,5.2c1.1-4-1-6,0.9-9.5c-1.5-2-4.2-2.7-4.3-6c4.8,0.1,2.9,6.8,7.8,6.9c8.3-5.7-2.3-14-10.3-13.8
			c6.6-2.7,12.1,2.7,19,2.6c-2.3,5.7-7.9,9.8-6,17.2c-7.3,2.1-9.8,6.7-14.7,9.5c0.9,1.7,0.2,4.1,3.4,5.2c0.1-1.3-0.3-3.2,0.9-3.4
			c2.7,6.2,12.1,5.8,12.9,13.8c-2.5,0.2-4.4-0.2-5.2-1.7c2.5-3.6-6-7.5-8.6-6c5,2.5,6.2,8.7,11.2,11.2c-2.1,2.4-1.4,6.1,0.9,7.8
			c1.3-1.4-1.1-4.7,2.6-5.2c-3.1-0.8-2.9-5.8,0-6c1.1,1.4-0.3,5.5,2.6,5.2c2.6-0.7,4.5-5.2,3.4-6.9c-1.1-1.5-4.1-1.1-4.3-3.4
			c5.7-5.3-5.3-9-7.8-12.1c7.7,2,22.8,4.8,20.7-7.8c-4.5,0.7-5.3-2.2-7.8-3.4c1.2-1.1,0.9-3.7,0.9-6c3.9-1.4,5.7,0.4,8.6,0.9
			c-2,1.1-6,0.4-7.8,1.7c-0.5,4.5,3.3,4.8,6,6c4.1-1.6,5.8-5.7,10.3-6.9c0.3-4.2,0.3-7.5,0.9-9.5c3.8,5.6-0.1,15.8-8.6,17.2
			c-1.7,4-0.9,7.7-0.9,9.5c3.8-1.1,7.4-6.1,6-9.5c3,0,3.4-1.8,5.2-4.3c1.4-2,3.8-4.9,4.3-6c1.7-3.7,2.3-7.3,6-10.3
			c-0.6,2.4,1.7,1.7,1.7,3.4c-1.6,1-4.2,1-3.5,4.3c1.7,2.9,6.4,2.8,6.9,6.9c3.3,0.8,3.1-2.1,5.2-2.6c-0.6,5.6,4.8,1.6,5.2,2.6
			c-4.5,1.8,3,5.8-2.6,6c-0.9-1.7,0.1-5.1-5.2-4.3c-2.2,1.1,0.8,4.2-0.9,4.3h-2.6c-0.6-2.7,2.4-1.7,1.7-4.3
			c-2.1-1.8-1.8-1.2-5.2-0.9c0.3-2,1.8-3.7-0.9-4.3c-1.5,3.1-9.8,3.1-6,8.6c3-0.9,7.4-4.4,8.6,0c-3.2,1.7-5,0.8-7.8,1.7
			c-1.5,5.5,6.3,1.7,6,6c-6.3-0.3-7-6.2-11.2-8.6c-10.4,14.6-20.4,29.6-29.3,45.7c-5.8-8-7.5-20.1-15.5-25.9
			c-2.6,3.7,3.9,4.3,3.4,8.6c-1,1.3-0.7,3.9-3.4,3.4c-0.2-1.2-1.4-1.5-1.7-2.6c7.3,2.2-2.7-9.2-5.2-9.5c-1.1,0-1.2,1.1-2.6,0.9
			c-0.1,4.4,2.1,6.5,5.2,7.8c-2.4-0.9-5.9,1.4-6,0c0.3-7.6-3.9-10.7-1.7-16.4c2,2.7,0.7,3.5,1.7,6.9c4.5-0.9,4.3-1.6,9.5-0.9
			c2-2.2-1.8-4-2.6-6c-2.9-0.6-1.1,3.5-4.3,2.6v-6c-4.9,1.3-4.5-0.8-8.6-1.7c-0.9,2-3,2.8-2.6,6c1.5,0.8,4.3,0.3,5.2,1.7
			c-7.2,1.3-0.5,13.6,2.6,15.5c-1.5,10.2,5.7,19,7.8,28.4c1.5,0.1,2.7-0.2,3.4-0.9c-0.5,2.1-3.3,1.8-2.6,5.2c4.2,1.9,4.2-4.9,6-2.6
			c-7.4,4.2-2.3,14.3,0,20.7c9.2-4.3,15.8-11.2,25-15.5c-0.5-2.9-2.5-4.4-1.7-8.6c5.3-5.2,9.9-13.9,6.9-22.4
			c5.3-2.8-2.1-12.1,3.4-14.7c-2,2,0.1,4.2,0,6.9c5.1-0.4,5.3-5.7,10.3-6c0,1.1-1.1,1.2-0.9,2.6c5.2,0.3,7.8-2,7.8-6.9
			c3.7,2.4,5.5-3.4,8.6-4.3c0.3,2.3,0.4,3.2,2.6,5.2c-4.6-0.3-7.4,1.2-8.6,4.3c1.5,1,5,0.2,6,1.7c-4.4-0.9-5.3,1.1-5.2,2.6
			c-3.9,1.6-1.5-3.1-3.4-3.4c0.5,3.1-2.9,2.2-2.6,6.9c-2.6,0-5.3-0.1-5.2,2.6c4.8,1,12.5,3.5,10.3,8.6c-1.7,0.4-2-4.8-3.4-1.7
			c3.8,2.6-1.7,8.7-3.4,11.2c1.8,0.3,1.7,2.3,3.4,2.6c-0.4-4.1,0.8-1.3,3.4-1.7c0-2.3-0.5-5.1,1.7-5.2c-1.6,3.1,0.9,5.5,2.6,7.8
			c-3.4,1.1-1.6,6.1-4.3,9.5c2.9,0.8,3.7-4.8,5.2-2.6c-0.7,1.4-2.7,1.3-2.6,3.4c3.3,1.9,4.9,5.4,8.6,6.9c-1.5,3.9-3.2,5.2-3.4,8.6
			c-2.2-2.5,0.4-5.3,0-8.6c-2.3-4-9.7-3-11.2-7.8c1.9-1.6,3.8-3.1,3.4-6.9c-7.3-0.8-9.5-6.4-14.7-0.9c2.1-2.4-1.2-5.2,0.9-6.9
			c-0.1,2.4,2.1,2.5,4.3,2.6c0.5-5.2,1.7-8.9,0.9-11.2c0.9,0,1-0.7,1.7-0.9c0.8,3.4,1,5.4-0.9,7.8c5.9-1,1.4-8.9,0.9-12.1
			c-4.8-0.4-4.9-2.7-8.6-2.6c0.1-1.4,2.2-0.7,1.7-2.6c-2.7,0.2-6.1,4.2-4.3,6c0.2-1.2,1.9-1,2.6-1.7c-0.4,4.2,2.4,5.1,3.4,7.8
			c-0.7,0.2-1,0.7-0.9,1.7c-2.7,0.4-2.3-3-4.3-0.9c0.9,7.7-3.3,7.7-4.3,13.8c6.9,2.4,7.1,9.3,6,16.4c12.8-1,16.1,7.4,19.8,15.5
			c-1.9,4.5-9.9,13.2-2.6,16.4c6.4-5.3,6.9-18.3,15.5-19c1.1-3.8-1.9-7.8,0-9.5c0.6,5.6,8.7,3.7,10.3,6c-8.8,2.4-13.6,8.9-17.2,16.4
			c5-0.2,8.2,0.1,11.2-3.4c-0.8-0.3-3.8-2.3-1.7-2.6c-0.1,1.9,3.1,0.4,4.3,0.9c1.1-2.9-3.4-4.6-0.9-6c-0.9,2.6,1.9,1.5,3.4,1.7
			c-0.5-2.2,0.3-3.1,2.6-2.6c-2.7-4.1,2.6-3.1,2.6-6.9c-0.5-1.2-3.3-0.1-3.4-1.7c0.7-1.9,2.1-3,5.2-2.6c-2.2,2.3,0.9,3.9,0.9,6
			c0,2.3-1.7,4.3-2,6.1c-0.4-0.7-1.2-1-2.3-0.9c0.9,4.3-5.1,1.8-4.3,6c0,3.8,2.8,4.7,3.4,7.8c-0.5,7.6-8.8,7.3-8.6,15.5
			c-5.1,2.7-9.7,0-7.8-6.9c-1.9-2-5.1-3.7-3.4-6.9c-5.8-0.9-4.3,5.5-10.3,4.3c-0.1-1.3,0.3-3.2-0.9-3.4c-1.7,4.9-5.5,7.7-7.8,12.1
			c0.6,10.3-7.6,18.3,4.3,21.5c1.2-0.5,0.1-3.3,1.7-3.4c-1.4,5,0.7,3.9,2.6,6.9c2.8,1.1,0.7-2.8,3.4-1.7c-0.9,1.9-2,3.8-3.4,5.2
			c-0.8-2.8-0.1-4.4-4.3-5.2c0.5,4.2-1.3,6.1-3.4,7.8c-4.6,0.9-7.1-0.3-10.3,0.9c-2.4-2.9-5.6-4.4-9.3-5c1.3,0,2.6-0.5,4.1-0.2
			c4.7,1.1,11,6.5,13.8,0.9c-7-1-10.2-5.9-14.7-9.5c1.3-0.1,3.2,0.3,3.4-0.9c-1.9-0.1-0.4-3.7-0.9-5.2c-4.1-0.1-3.8,5-4.3,6
			c-4.8-1.9-9.3-3.5-15.5-4.3c-9-1.2-21.4-3.8-27.6-3.4c-8.9,0.5-16.7,7.3-25.9,9.5c-6,1.4-10.9,0.3-16.4,3.4
			c-4.8-3.4-15.1,0.5-15.5,6.9c1.5,2.2,8.1,4.8,3.4,7.8c1.3,1.7,3.6-1.5,4.3,1.7c1.7,9.5,10.3,12.1,9.5,24.1
			c-2.1,0.5-4.4,0.7-4.3,3.4c3.6,0.5,3.6-2.8,6-3.4c1.3,2.7,0.1,7.9,2.6,9.5c-3.3,0.2-3.3,3.6-6.9,3.4c-3.4-0.6-2.3-5.7-6.9-5.2
			c-0.5,11.7,6.8,15.6,11.2,22.4c3.1-0.6,4.2-3.3,6.9-4.3c-1.9,5.2,1.5,12.1,6.9,13.8c1.7,0.5,4.1-0.8,6-0.9c7-0.3,16.2,0.4,23.3,0
			c6.1-5.4,9.1-18.5,19.8-16.4c-0.5,3-3.7,7.7-6,6c1.2-1.6,3.3-2.5,3.4-5.2c-9.1,1.3-9.9,10.8-15.5,15.5c6.7-0.7,13.8-1.1,21.5-0.9
			c1.3-3.6,4.6-5.2,8.6-6c0.7-3.2-4.6-0.6-3.4-4.3c6.5,0.6,14.6-1.8,23.3,0c-0.1-3.7,2.1-0.9,3.4-1.7c7.9-4.7,7.7-17.6,10.3-27.6
			c0.8-3,4.3-5.1,2.6-8.6c2.9-2.9,4.6-6.9,6-11.2c-1.4-5-7.7-5-7.8-11.2c2.2-1.5,7.3-0.1,6.9-4.3c-3.7,0,1.2-3.6,0-8.6
			c-4.8-1.3-8.5-9.6-6-14.7c0.9-1.8,3.9-0.8,3.5-3.4c1.1-2.9-1.9-6,0-6.9c3.1,3,1,10.2-2.6,12.9c0.3,6.6,5.4,8.4,6.9,13.8
			c0.4,2.7-1.6,3-0.9,6c14.6,2.5-0.7-19.2,9.5-17.2c2,14.2-6.5,18.9-10.3,29.3c4.6,0.1,4.5-4.7,10.3-3.4c0.4-1.6-1.2-5.2,1.7-4.3
			c0.3,3.8-3.5,8.1-3.4,11.2c-4.5,0.3-1-4-2.6-5.2c-4.8,0.1-2.4,5.1-3.4,7.8c-1.1,2.9-4,5.7-5.2,8.6c-3.9,9.8-4.7,21.7-8.6,31.9
			c-2.8,2.3-7.7,7.1-10.3,7.8c-4.3,1.1-9-0.8-14.7,0c-1.3,4.7-4.6,4.6-9.5,6.9c3.6-0.1,0.6,1.9,0,2.6c12.4-2.7,34.4,4.9,38.8-7.8
			c-0.1,3-2.5,3.9-2.6,6.9c18.9,2.2,38.2-2.1,55.2,0c2-2.9,4.2-5.6,3.4-11.2c4.4-2.1,8.1-6.9,14.7-4.3c0.4-4.7-2.6-6-6-6.9
			c0.2-1.6-1-1.9-0.9-3.4c-14.1-7.4-23-20.1-29.3-35.3c0.7-3.1-2.5-5.2,0.9-6v6c1.6,2.1,3.9,3.6,3.4,7.8c5.6,5.3,7.1,12.1,12.9,17.2
			c2.5,2.2,6.7,3,9.5,5.2c6.6,5.3,11.9,13.2,12.9,22.4c-1.1,3.2-5,3.6-5.2,7.8c11.5,2.6,15.1-7.3,23.3-5.2c-3.6,0.9-6.5,2.7-9.5,4.3
			c9.5,3.5,22.9-2.2,12.1-6.9c1.8-2,8,0.5,8.6-2.6v9.5c13.4-1.3,34.1,4.8,33.6-10.3c-4.2-0.2-6.9,1.1-10.3,1.7
			c-8-3.5-9.1-12.7-11-21.3c1.5,3,3.8,6.3,4.1,7.5c0.4,1.5-1.3,4.5,0,6c3.1-0.5,2.1,3.1,5.2,2.6c1.1-6.4,6.9-7.6,13.8-6
			c0.2-1,1-1.3,1.7-1.7c0.3-9.5-8.9-9.5-13.8-13.8c-3.6-8.7-9.4-13.6-15.5-19c-3.2-2.8-5.9-7.1-8.6-8.6c-7.2-4-16.8-4.5-25.9-6
			c-1-0.2-1.9-1.6-2.6-1.7c-10.7-1.3-24.9,5.3-31-4.3c0.1-3.8-1.2-6.2-3.4-7.8c-3.1,5.6-11.6,5.6-11.2,14.7c0.5,2.3,3.6,2.1,3.4,5.2
			c-0.4,1.6-2.5,1.6-1.7,4.3c-2-0.3-1.6-3-4.3-2.6c-1.7,2.3-0.5,7.5-0.9,11.2c-8.1,13.7-10.4,33.3-24.1,41.4
			c11.1-12.1,17.4-32.9,23.3-47.4c-0.5-1.2-3.3-0.1-3.4-1.7c3.8,1.2,0-5.2,2.6-5.2c3.1,1.7,4.7-0.3,6-2.6c-1.4-1.5-4-1.8-4.3-4.3
			c3.2-0.4,2.7-4,4.3-6c2.9-3.5,7.7-5.7,10.3-9.5c-0.5-4.8,0.8-7.8,2.6-10.3c-4.6-7-8.4-11.7-5.2-22.4c-1.8-1.9-6.6-0.9-6.9-4.3
			c5.3,2.6,2.5-1.1,6-2.6c-0.4,0.1,3.8,2.6,4.3,0c1.1,0.9,2.6,1.4,3.4,2.6c-1.2,0.6-1.6,1.8-1.7,3.4c1.5,1.3,3.9-1,5.2,1.7
			c-2.7,4.6-2.9,7.4-4.3,12.1c7.7-0.7,4.6-7.6,5.2-11.2c2.6-0.6,2.5,1.5,5.2,0.9c4.3-5.1,2.3-5.5,0.2-4.8c5.4-3.2,2.2-16.2-3.6-14.2
			c1,1.6,5.4,4.3,2.6,6.9v-3.4c-3.2-0.4-3.7-0.3-6.9-1.7c-0.3,2.6,2.3,4.4-0.9,5.2c-2.8-1.5-2.2-3.8-1.7-6.9
			c-2.2-0.3-4.8-3.8-1.7-4.3v2.6c4.6-1,2.7-1.4,6.9,0c-0.1-4.2-3.2-5.4-3.4-9.5c-3.8-1.2-2.3,2.9-5.2,2.6c-3.7-3.6-4-14.6-10.3-14.7
			c2.5-3.2,5-5.1,6-7.8c-0.7-2.5-2.8,0.5-4.3,0c-2.7-5.3-2.9-12,0.9-15.5c0.2,0.7,0,1.7,0.9,1.7c1.8-5-4.1-2.2-4.3-5.2
			c1.9,0.2,2.7-0.7,2.6-2.6c-4.1-3.1-4.9,1-7.8,0c0.8-4-1.1-5.2-1.7-7.8c-4.7-1.4-5.8,2.7-8.6-1.7c2.8-0.9,4.1-3.9,4.3-5.2
			c5.4,0.7,13.2-1.1,15.5-6c-1.7-6.6-7.4-9.2-12.9-12.1c1.2-5.1,7-5.6,12.1-6.9c0.8-8.3-4.8-10.1-11.2-11.2v-3.4
			c5.1-2.1,12-2.4,12.9-8.6c-2-5.8-11.2-4.3-12.1-11.2c2.2-3.7,10.6-0.2,12.9-1.7c-2-2.1-0.7-5-1.7-6.9c-2.5-4.6-8.8-4.1-11.2-8.6
			c3.4-3,7.8-4.8,12.9-6c-2-5.2-7.7-6.7-11.2-10.3c-0.9-5.5,3.6-5.6,6-7.8c-0.1-6.7,3.9-8.2,0.9-12.9c-4.1,4.5-9.2,4.4-14.7,6
			c-3.6-3.8-5.2-9.7-9.5-12.9c-4.4,3.7-3.3,12.8-12.9,11.2c-1.5,3.1-1.9,5.9-0.9,9.5c1.1,2.1,3.2-0.9,3.4,0.9c-1,1.9-3,2.8-5.2,3.4
			c1.3-2.7,1-6-2.6-6c-4.6,1.4-1.9,10.2-6.9,11.2c-6.1-1.3-11.8,1.7-8.6,6.9c3.2,0.6,3.3-1.9,6-1.7c7.8,1.2,10.8-2.4,15.5-4.3
			c1.9-3,1.7-8,5.2-9.5c-1.8,4.6-2.9,9.7-6,12.9c2.9,1.4,3.7-3.7,5.2-0.9c-5.4,3.8-16,6.9-22.4,6.9c2.9,0,4.6-1.2,6-2.6
			c-4.1-1.5-7.2,0-10.3,1.7c-1.1,2.8,2.8,0.7,1.7,3.4c-4.9,0-8,1.7-11.2,3.4v6.9c8.8-3.5,13-11.7,25-12.1c5.1,5.1,11.1-4.6,18.1-1.7
			c-1.4,1.4-6.3-0.5-6,2.6c10.6-2.2,17.6,2.7,17.2,13.8c-2-0.3-1,2.5-2.6,2.6c-7.8,0.7-3.7-5.3-7.8-7.8c5.1-0.5,5.5,2.3,4.3,6
			c10.7-3.4-1.6-19.1-11.2-12.9c0.3,3.9,3.8,5,5.2,8.6c4.7,12.1-0.9,28.2-6.9,36.2c-0.8-5.1,6.2-8.7,1.7-12.1
			c4.5,1.5,2.5-4.4,2.6-5.2c0.2-1.1,3.7-4.6,0-5.2c1.2,0,1.9-0.4,2.6-0.9c-3.3-4-0.4-7.5-3.4-13.8c-0.2,1.2-1.9,1-2.6,1.7
			c0.4-1.6,2.5-1.6,1.7-4.3c-4.3,0.4-2.8-0.3-2.6-3.4c-2.8-1.1-0.7,2.8-3.5,1.7c1-1.3,1-2.2,0-3.4c-4.6,2.2-7.7-0.4-14.7,0
			c-2.9,2.7-3.4,5.9-8.6,4.3c-1.8,3.9-4.5,7-7.8,9.5c-1.7-0.6,0.5-5.1-2.6-4.3c-2,2.8,4.2,8.3,0,11.2c-3.7-3.2-7-11.4-7.8-14.7
			c1.6,1.5,2.7,3.6,4.3,5.2c1.9-1.8,2-5.4,2.6-8.6c-7.8,0.7-9.6-4-8.6-7.8c-4.6-0.5-5,3-9.5,2.6c-2.5-1.1-6.4-3.8-10.3-5.2
			c-3.8-1.3-10.6-4-12.1,0c3.4-0.2,6,0.3,6.9,2.6c0.7,2.4-1.2,2.2-0.9,4.3c1.3,0.5,4.5-1,4.3,0.9c-6.5,2.7-10.6,7.8-14.7,12.9
			c-0.5-7.2,6.2-7,7.8-12.1c-5.7,0.3-10.3,1.8-14.7,3.4c0,3.9-3.2,5.6-1.7,8.6c2.5,1.1,3.9,0.4,4.3-2.6c0.4-2.4-3.2,2.2-3.4-0.9
			c1.1-1.2,5.2-1.5,5.2,0.9c0,4.8-3.9,5.5-7.8,4.3c0.7-3-1.3-3.3-0.9-6c2.6-8.9,17-6,21.5-12.9c-1-2.8-7.1-0.3-7.8-3.4
			c0.4-3.1,2.7-4.1,6-4.3c3.1,0.9,4,4,8.6,3.4c1.4-2.7-4.3-2.4-1.7-3.4c5.9-0.3,10.1,8.7,19,5.2c2.2,0.5,4.2,3.5,6,1.7
			c0.6-7-5.2-7.4-11.2-7.8c0-2-1.5-2.5-0.9-5.2c3.8,0.6,3.5-2.8,6-3.4c-0.3-2-1.4-3.2-0.9-6c-3.6-0.4-0.3,6-4.3,5.2
			c0.1-4.7-2.9-6.3-6.9-6.9c2.4,3.3,2.4,9.1,3.4,13.8c-4.1,2.3-5.3-2.5-9.5-2.6c-1.2,2,2.2,3.2,0,3.4c-4.7-2.1-2.8,3-8.6,1.7
			c-1.6-1.5,1-2.5-0.9-4.3c-6.1-1.2-25.6-8.4-22.4,6c2.7,1,7,0.5,6.9,4.3c-0.7,4.4-3.4,6.9-9.5,6c0.2-1.5-2.4-4.3,0-5.2
			c1.8,0.5,0.2,4.4,3.4,3.4c2.8-0.4,5-1.3,4.3-5.2c-2.9-1.1-7-1-7.8-4.3c-1.5-15.8,19.9-8.3,26.7-7.8c-1.3-1.6-3.1-2.6-2.6-6
			c1.2-0.2,1.5-1.4,2.6-1.7c4.7,2.8,8,7,13.8,8.6c1.1-5.4-1.3-7.3-3.5-9.5c4.6-0.6-1.4-1.6,0-4.3c4.6-0.5,4.9,3.2,8.6,3.4
			c3-0.7,1.9-5.5,6.9-4.3c0.2,7.7,4.7,13.7-0.9,18.1c8,0.6,7.4,9.9,12.1,13.8c3.7-0.6,3.8-4.9,9.5-3.4c-2.9-8.3,3.9-11.7,10.3-11.2
			c-0.2-4.7-4-5.8-5.2-9.5c2.4-3,4.8-6.1,9.5-6.9l0,0c-0.1,2.7-2,3.8-1.7,6.9c9.9-0.8,10.8-14.8,1.7-17.2c-1.5,1.9-3.4,3.5-2.6,7.8
			c-2.1,1.6-4.5,2.9-7.8,3.4c-2.1-5.1-1-9.1-7.8-10.3c-3.2,4.6-4.5,11-12.9,10.3c-1.4-1.4-0.7-5.1-0.9-7.8c-3-1-3.7-4.4-7.8-4.3
			c1.3,4.3-4,7.6-6.9,10.3c-4.3,0.2-7-6.1-11.2-8.6c-4.8,2.4-3.7,10.6-9.5,12.1c-4.8-1.8-4.2-9-11.2-8.6c-3.1,2.7-5.2,6.2-6.9,10.3
			c-9.4,0.8-12.4-8.6-19.8-6.9c0.7,7.2,10.9,13.5,6,20.7c-2.7-1.9-8.2-0.5-8.6,2.6c3.1,5.3,7.1,9.5,12.9,12.1
			c0.8,8.8-11.8,4.3-12.9,11.2c4.9,2.3,10.2,4.1,12.9,8.6c-5.9,3.9-11.5,8-17.2,12.1C245.7,109.5,250.1,111.4,254.2,113.6
			 M347.3,47.2c-1.2,1.4-3,2.1-2.6,5.2l0,0c1.9,1.8,1.8,5.7,6,5.2C348.8,53,349.7,50.6,347.3,47.2 M325.8,75.7
			c-0.8,2.3-3-0.9-4.3-0.9C320.2,79.5,328.7,78.1,325.8,75.7 M291.3,54.1c-1.2,2.5,1.7,7.2,6,6.9C295.5,58.6,294.7,55,291.3,54.1
			 M406.8,249.8c0.1-2.7,2-3.8,1.7-6.9C404.9,242.1,403.5,249,406.8,249.8 M407.6,236.8H405v4.3
			C407.7,241.5,407.8,239.3,407.6,236.8 M432.6,342.9c-7.2,1.5-10.1,10-9.5,14.7c1.8-4.3,4,1.1,7.8,0
			C435.7,355.9,436.8,346.1,432.6,342.9 M376.6,286c-2.9-2.3-4.4,2.6-7.8,2.6l0,0l0,0c0.1,2.2,1.3,3.3,3.4,3.4
			C374.4,290.7,376.2,289,376.6,286 M257.7,360.1c3.2,0.6,5.7,1.6,6.9-0.9C263,357.7,258.4,358.1,257.7,360.1 M162.9,353.2
			c-2,3.1,3.9,4.3,4.3,7.8c13.8,0.1,27.1-0.7,38.8,0c-0.1-3.9-4.8-10-6.9-14.7c-2-1.2-3.2,2.2-3.4,0l0,0c0.1-2.9-2.1-1.7-4.3-3.4
			c-7.3-5.7-12.3-14.3-19.8-3.4c-6.4-0.1-9.2,1.9-16.4,2.6C155.2,348.2,159.5,350.3,162.9,353.2 M187.9,329.1c1.9-2.1,0.6-6.4-2.6-6
			C184.9,326.3,185.6,328.4,187.9,329.1 M206.8,344.6c1.9,1.6,3.1,4.6,5.2,6c2.7,1.9,5.5,2.7,8.6,3.4c1.6-5.5-9.4-8.1-5.2-16.4
			c-9.6-2.2-15.8-7.8-25.9-9.5C192.5,337.1,200.5,339.2,206.8,344.6 M225.8,323c-0.5-1.2-1.3-2.1-2.6-2.6c-2,2.8-8.6,1.2-9.5,5.2
			c1.7,2.8,3.7-2.1,4.3,0c-1.4,1.7,0.1,1.1,0,3.4c7.2,2.3,20.9,1,27.6,2.6c-2.4-7,4.8-7.6,6-12.1c-1.3-0.1-3.2,0.3-3.4-0.9
			c1.7-4,3.3,1.4,6-0.9c-6.4-8.9-19.2-0.9-27.6,0.9l0,0C226.9,320.7,228.5,322.4,225.8,323 M243.9,310.1c-0.4-3,4.7-0.5,5.2-2.6
			c-2-0.3-4.4-0.9-2.6-2.6H243C243.5,306.4,242,310,243.9,310.1 M241.3,332.5c-8.4,1.8-19.5-5-23.3,3.4l0,0l0,0l0,0
			c6,2.3,14.6,2,22.4,2.6C240.7,335.5,242.7,335.4,241.3,332.5 M198.2,319.6c-1.6,9.2,8.3,14,16.4,16.4c1.3-1.9,2.6-3.7,2.6-6.9
			C209.9,326.8,206.7,320.5,198.2,319.6 M218.9,360.1c6.2,1.2,13.4-0.9,20.7-0.9c5,0,11.4,4,13.8-0.9c-4.4-0.2-10.6-2.2-12.9-1.7
			V354C231.9,350.3,220.6,350.7,218.9,360.1 M253.4,354.9c-0.3-6.6-5.6-8.2-6.9-13.8c-9.6-1.2-19.1-2.4-28.4-1.7l0,0
			c0,1.1-1.1,1.2-0.9,2.6c0.7,3.9,4,5.2,6,7.8C236.8,347.6,243,359.2,253.4,354.9 M256.8,324.8c-2.1,0.8-5,0.8-5.2,3.4l0,0
			C253.7,327.4,257.1,327.9,256.8,324.8 M324,246.3c-4.7,8.3,2.2,27.7,12.9,25l0,0c1.6-0.4,3.9-2.5,4.3-5.2c0.4-2.9-7-11.6-10.3-19
			c-1.4-3.1-1.5-6.7-2.6-8.6c-2.7-4.8-9.2-9.1-11.2-12.1c-5.1,0.5-8.3-0.8-12.1-1.7c-2.7,0.7-7.5,5.7-4.3,6.9c2.7-1,2.2-5.3,6.9-4.3
			c1.1,2.8-2.8,0.7-1.7,3.4C312.2,235.7,319.4,239.8,324,246.3 M306.8,232.5c-3.6,2.2-8.1,3.4-9.5,7.8c2.9-0.5,2.9-2.5,6-0.9
			c1-4,2.3-2.7,6.9-2.6C310.5,234,309.2,232.7,306.8,232.5L306.8,232.5L306.8,232.5z M337.8,211L337.8,211
			c-4.9,6.8-15.3,8.2-20.7,14.7c13.4,5.2,14.8,22.6,22.4,33.6c5.7-0.9,11.4-1.8,12.1-7.8c-8.1-1.8-9.3-7-6-13.8
			c0.1-0.2,8.7-3.7,1.7-6c-3.8,1.7-1.4,9.6-6.9,9.5c-8.7-4.1-6.8-18.9,2.6-20.7V211H337.8z M342.1,205.8v-6.9
			C338.4,199.2,339.1,205.4,342.1,205.8 M343.9,208.4L343.9,208.4c3.2,0.8,3.4-4.2,0.9-4.3C345.1,206.2,343.1,206,343.9,208.4
			 M345.6,225.6c-3.3-1.2-1.7,2.4-4.3,1.7c-0.8,2.8,2.8,1.2,2.6,3.4c-1.5-0.2-3.3,4.1-1.7,1.7c4.4-1.4,4.6-6.9,9.5-7.8
			c-0.1,2.2,1.3,2.7,2.6,3.4c-0.6-5.4,4.4,0.2,5.2-3.4c-4.5,0.7-4.6-2.6-4.4-3.4h0.1l0,0c0-0.2-0.1-0.2-0.1,0
			c-1.3,0.2-3.4,3.1-4.2,0.8c0.3-1,3.5-3.3,0.9-4.3c-1.6,2.1-1.6,0.1-0.9-1.7c-5.8,1.3-2,6.7-6.9,8.6
			C344.5,225,345.6,224.8,345.6,225.6 M359.4,229.9c3,0.1,5.9-4.3,3.4-6.9c-2.8,4.4-6.2,8.2-11.2,10.3c2.1,6.1-7.5,13.6,0,12.1
			c-0.5,0-1-0.7,0-0.9c-0.6,2.3,4.1-0.6,3.4,1.7c-2.1,2-1.2,4.6,0.9,5.2c-0.2-2.8,3.1,0.3,4.3-3.4c-1.1-0.9-3.2-0.8-3.4-2.6h5.2
			c-0.6-2.6,0.9-3.1,0.9-5.2c-3.1-1.3-0.5,2.9-2.6,2.6c-0.4-2.8-4.6-1.7-6-3.4c0.2-0.7,0-1.7,0.9-1.7c1.3,0.4,2.2,1.3,3.4,1.7
			c1-3.4,2.6-4.3,5.2-4.3c0-2.3-0.5-5.1,1.7-5.2c0,0.9,1.5,1.1,1.7,0l0,0c-0.7-0.2-1.7,0-1.7-0.9c-3.1-0.5-2.1,3.1-5.2,2.6
			C360.2,230.8,359.5,230.6,359.4,229.9 M352.5,273.9v-6c-4.1-1-2.5-7.8-6-9.5c-1.3,1.9-4.3,2-4.3,5.2c4.6,7.9,5.2,22.8,17.2,18.1
			l0,0C358.7,277.4,353.7,277.6,352.5,273.9 M390.4,239.4c-3.5-0.6-3.9,1.8-5.2,3.4c-1.6-1.5-6.2-1.1-6.9,0.9
			c1.8,1.6,3.5,3.4,5.2,5.2c-2.2-0.4-3.3-1.5-3.4,1.7c3.6-0.7,4.4,1.3,7.8,0.9c0-1.7,2.4-1.1,1.7-3.4c-5.8-2.7,5.6-4.5,1.7-7.8l0,0
			l0,0l0,0C390.6,242.4,388.7,240.5,390.4,239.4 M292.1,141.2c2.8,0.8,2.7-1.3,3.4-2.6c-1.1,0-1.2-1.1-2.6-0.9
			C293.2,139.4,292,139.6,292.1,141.2 M287,142L287,142c-0.1,4.1,0.7,7.4,3.4,8.6c0.8-2.1,3.5-2.3,2.6-6
			C290.7,144,288.9,143,287,142 M331.8,163.6c2.5-0.8,2.6-0.8,5.2,0c0.1-3.3,3.5-3.4,4.3-6c-3.5-1.1-7.9-2.4-10.3,0
			C330.2,160.5,332.2,160.9,331.8,163.6 M76.7,173.9c10.6,1.3,7.8-11.3,7.8-19c0-16,0-32,1.7-45.7c41.3,1.5,81.1-0.6,125.8,0.9
			c0.7-0.2,1-0.7,0.9-1.7c-1-3-4.2-3.8-6-6c-47-1.3-83.6,0-128.4,0C77.7,128,74.6,148.7,76.7,173.9 M86.2,271.3
			c5.1,14.7,11.6,30,15.5,44.8c15.1,0.7,28.2,0.7,48.3,0.9c1.6,1.5,3.8,2.5,3.4,6c-3.2,2.7-8.6-1.7-10.3,1.7
			c2.5,6.7,6,12.4,11.2,16.4c7.6-4.2,17.1-6.5,26.7-8.6c-0.9-5.3-6.6-12.5,0.9-14.7c4.9-0.6,3.5,5.1,7.8,5.2c0.1-5-4-5.8-3.4-11.2
			c9.8-4.1,14.4,9.7,24.1,11.2c10.7-4,22-7.3,31.9-12.1c-4-9.7-2.9-19.3-5.2-30.2c4.2-2.3,7.8-5.5,12.1-6c4.2-0.6,8.8,2,13.8,1.7
			c2.3-0.1,8-1.5,11.2-2.6c3.7-1.3,11-6.3,12.9-6.9c13-4.2,24.7,1,37.9,1.7c-3.8-6.8-4.1-17.2-6-25.9c-4.9-1.1-7.8-4.3-12.9-5.2
			c-1.5,2.2-0.1,7.3-4.3,6.9c0.3-6-5-1.2-6.9-4.3c-3.6,3.7-9.5,4.7-14.7,7.8c-5.5,3.3-10.9,11.4-17.2,7.8c8.3-7.7,18.8-13.4,29.3-19
			c-1.6-6.9,6.9-10,11.2-13.8l0,0c2.8,0,3.3,2.5,6.9,1.7c-5.1-24.8-16.1-43.7-20.7-69c-6.4-12.6-10.9-27.1-14.7-42.2
			c-4.9-3.4-11.1-2.7-15.5,0.9c-25.5,5.3-49,17.1-71.5,22.4c2.2-1.9,3.7-4.3,8.6-3.4c-0.6-2.6,1.5-2.5,0.9-5.2
			c2,3.6,11.6,2.7,11.2-3.4c-1.9-1.8-3.8-3.7-6-5.2c1.5-1.6,2.3-4,3.4-6c-2.9-0.2-4.7-1.6-6.9-2.6c-2.2,0.6-1.6,4.1-4.3,4.3
			c1.3-6.7-11.1-0.6-16.4-3.4c-3.1,1.4-4,2.9-4.3,5.2c-0.8-2.5-1.1-3,0.9-4.3c-13.8-1.9-28.3,1-38.8-0.9c-2,0.3-1.9,2.7-3.4,3.4
			c-0.6-1.9,2.4-2.7-0.9-2.6c-3.4,1-13.2-2-16.4,2.6c0.2-1.9-0.7-2.7-2.6-2.6c-8.1,1.2-14.3-1.1-20.7,1.7c-1.4-0.4-0.7-2.7-3.4-1.7
			c-0.9,5.2-2.5,8.8,0.9,12.1c-5.2,3,0.4,7.2-2.6,11.2c2.3-0.6,1.7,1.8,2.6,2.6c-2.7,1.8-2,7.5,0,9.5c-5.9-1.7-3.6,7.8-0.9,7.8
			c-6,2.9,0.7,8.4-0.9,14.7c3.4-1.4,7.8-2,9.5-5.2c3.8,2.3,4.8-0.9,6.9-2.6c12.1,0.3,23.2-7.8,35.3-10.3c2.3-1.6,0.1-2.9,1.7-4.3
			c1.7,0.3,0.7,3.3,3.4,2.6c5.8-2.8,12.1-5.2,20.7-5.2c4.1-4.8,10.5-8.1,17.2-6c-16.6,5.8-32.6,12.2-50.9,16.4
			c-7.7,3.5-14.2,7.1-23.3,10.3c-3.8,1.4-8.6,2.9-12.9,4.3c-7.3,2.3-15.9,6.1-18.1,6c-0.3,0,0.1-2.1-0.9-1.7
			c0.2-0.1-0.8,1.7-0.9,1.7c-4.3,3.7-12.6,2.4-14.7,6.9c2.4,1.9,4.7,3.9,9.5,3.4c12.2,5.3,24.8,10.2,38.8,13.8
			c1.4,0.6-0.2,4.2,2.6,3.4c1.4-0.1,0.7-2.2,2.6-1.7c25.9,10.6,52.3,20.6,80.2,29.3c5.8-6.3,9.4-14.1,13.8-21.5
			c4.4-7.3,10.1-14.7,12.9-23.3c9.6-10.6,16.1-23.9,24.1-36.2c4-6,8.1-11.9,12.1-18.1c3.9-6.1,6.7-13.8,12.9-18.1
			c-4.2,17.4-15.3,27.8-20.7,44c-2.3,0.6-1.8,3.9-4.3,4.3c-1.3,5.4-3.8,10.7-6,13.8c-1.1,1.5-2.3,1.9-3.4,3.4
			c-3.2,4.3-3.5,9.7-6,14.7c-1.7,3.3-5.4,5.4-6.9,8.6c-0.7,1.4-0.1,3.8-0.9,5.2c-1.6,2.9-4.3,5.7-6,8.6c-4,6.8-6.7,12.5-11.2,17.2
			c-0.2,3.8-0.9,7.1-4.3,7.8c-47.7-19-94.2-39.1-143.1-56.9c-1.1,4.8,1.8,9.5,3.4,13.8c1.8,4.8,2.6,9.6,4.3,14.7
			c1.8,5.3,5.6,10.2,7.8,15.5C78.6,242.5,82,259.4,86.2,271.3 M149.1,353.2c-3.7-6.6-8.1-12.6-12.1-19c-9.9,1.2-23.1-0.8-35.3,0
			c-5.9,4.7-8.8,12.5-12.9,19C110.3,352.4,126.6,355.7,149.1,353.2 M109.4,360.1c1.6,1.5,5.7,0.6,8.6,0.9v-5.2
			C114.6,353.6,108.3,354.9,109.4,360.1 M107.7,354.9c-5.1-0.8-8,0.6-8.6,4.3C101.6,362.4,109.6,361.4,107.7,354.9 M87,316.1
			c1,0.2,1.3,1,1.7,1.7c4.7,0,5.8-2.8,10.3-0.9c-2-5.4-2.5-12.4-6-16.4c-2.8,2.9-1,5.2-6,6l0,0C92.8,308.3,85.3,310.9,87,316.1
			 M90.5,289.4c-4.8,1.8-1.3,7.8-2.6,13.8c2.1-2,5.4-2.7,5.2-6.9c-1.2-1.9-2.1,1.1-2.6-0.9c1-0.2,1.3-1,1.7-1.7
			C90.3,293.6,90.3,291.6,90.5,289.4 M90.5,326.5c-3.2-0.5-3.5,6.2-1.7,7.8c0.9-4.6,5.5-5.4,5.2-11.2c-3.1,0.7-4.2-1.9-6,0
			C87.1,325.8,90.7,324.2,90.5,326.5 M114.6,323c-1.1-1.2-4.1-1.2-5.2,0c0.2,2.8-1.4,5.1-1.7,9.5C114.6,333.9,112,325.9,114.6,323
			 M116.3,332.5L116.3,332.5h3.4c-1-5.4-0.2-5.9,1.7-9.5c-1.2-0.3-1.6-1.2-3.4-0.9C118.5,326.3,113.8,327.5,116.3,332.5 M75,357.5
			c4.1,0.9,4.1-5,6-8.6c1.6-2.9,3.7-4.7,4.3-7.8c0.7-3.5,1.9-15.1,0.9-18.1c-0.7-2-5.4-2.1-4.3-4.3c1.5-1.7,3.7-2.6,4.3-5.2
			c-1.6-18.6,2.6-42.3-8.6-57.7C73.9,284.8,77.4,329.1,75,357.5 M522.3,363.5c-0.9-5.8-6.8-3.2-10.3-3.4l0,0
			c-24.2-1.9-59.6-0.9-89.6,0c-38.2,1.2-76.1,2.6-112,2.6c-40.4,0-82.8,2.3-122.4,1.7c-29.9-0.4-59.9,0.9-88.8,0
			c-23.4-0.8-46.8-1.5-70.7-1.7c-5.1,0-14.1-2.4-16.4,5.2c5.5,4.8,12.9,3.5,18.1,3.4c6.6-0.1,13.4-1.7,21.5-1.7
			c25.3-0.1,50.7,1.4,75.8,0.9c24.8-0.5,49.5-0.2,74.1,0c96.7,0.8,200.2-4.3,305.1-4.3C511.5,366.1,519.1,368.2,522.3,363.5
			 M332.7,280.8c-10.5-0.8-22.9,7.6-34.5,9.5c-3.3,0.5-8.4,0.5-11.2,0.9c-16,2.2-33.3-8.4-34.5,6c3.2-1.1,3.8-4.8,6.9-6
			c2.4,0.1,5.9-0.7,6,1.7c6.1-4.4,14.5,2.4,22.4,1.7c9-4.4,20.5-3.6,29.3-9.5c6.5-1.2,13.7-2.5,19.9-1.7h-0.1
			C335.5,282.9,334.3,280.9,332.7,280.8 M481.8,318.7c-3-7.8-8.9-11.8-16.4-14.7c2.9,6.2,8.2,4.1,12.1,8.6c2.1,2.4,3.4,5.5,4.3,8.8
			C481.9,320.5,482.1,319.5,481.8,318.7 M481.8,323c0.2,0.9,0.6,1.8,1.1,2.8c-0.3-1.5-0.7-3-1.1-4.4
			C481.7,322,481.6,322.6,481.8,323 M275.8,330.8c4.4-2.5,9.7-4.5,15.5-7.8c9.9-5.6,21-10.5,35.3-12.1c-4.6-1.3-7.5-0.3-12.9,0.9
			c-19.1,4.1-29.2,19.2-53.4,18.1C261.7,331.9,272.3,332.7,275.8,330.8 M365.4,128.2c4-0.5,4.5,2.4,5.2,5.2c1.3-0.1,3.2,0.3,3.4-0.9
			c-1.9-0.7-4.8-2.1-2.6-4.3l0,0C369.9,127.4,366.1,124.9,365.4,128.2 M335.2,46.4c0.1,1-1.3,1.3,0,1.7c0.8-1.5,2.4-2.2,1.7-5.2
			c-2.2-0.7-4.6-1.1-4.3,2.6C333.7,45.6,335.1,45.4,335.2,46.4 M384.4,62.7L384.4,62.7c3.7-8.8-14.9-9.6-12.9-1.7
			c0.9-3.1,4.7-3.4,6.9-5.2C381.1,57.4,382.6,60.2,384.4,62.7 M206,71.4c-2.6-0.5-6.8,3-6,6.9c3.3,3,6.9,5.8,12.1,6.9
			c1.4,0.6-0.2,4.2,2.6,3.4c0-8-11.3-4.8-12.1-12.1C202.2,74,207.2,71.6,206,71.4 M317.1,80.8c-2.2-2.4-6.6-2.6-8.6-5.2
			c-3.4,0.9-10.6-2-11.2,1.7C306.5,74.4,312.3,80.3,317.1,80.8 M297.3,77.4L297.3,77.4L297.3,77.4z M295.6,124.8
			c1.6,0.4,2.2,1.9,4.3,1.7c0.4-2.7-2-3.5,0.9-4.3c3.8-1.3,5.5,11,4.3,12.1c-1.9,1.7-6.9-1.9-6,0.9h6c0.9,1.9,2,3.8,3.4,5.2
			c-4.6-6.7-0.2-12.2-0.9-19c-8.3,0-12.5-7.8-7.8-13.8c-1-1.3-2.8-1.8-2.6-4.3c1.2-2.2,2-4.9,5.2-5.2c0.3,7.3,3,8.9,0,14.7
			c4.8-0.3,1,5.4,5.2,1.7l0,0c0.3,3.3,1.2,2.7,2.6,6c2,0.4,0.4-4.1,0-5.2c-1.3-3-5.1-6.1-5.2-8.6c0.8-1.3,0.7-3.3,3.4-2.6
			c-0.6-8.4,5.9-9.6,6-17.2H312c-1.9,2.8-0.9,11.3-6.9,13.8c-0.4-5-0.9-10-2.6-13.8c-3.1,1.3,0,3.8-0.9,7.8
			c-6.7,5.1-8.6,18.2-3.4,25C296.3,120.4,296.8,123.4,295.6,124.8 M286.1,103.3c-3.5-5,1.1-7.5,0.9-13.8c2,0.2,3.2-0.2,3.4-1.7
			c-2.1-0.4-1.9,1.6-4.3,0.9l0,0C286.7,94.5,280.4,99.7,286.1,103.3 M319.7,112.7c-0.4,1.1-1.1,1.8-2.6,1.7
			c-1.1-4.9-5.2-6.8-7.8-10.3c1.1,6.6,7.9,7.6,7.8,15.5c3.7-2.9,8.5-0.9,13.8-0.9c2.1-2.8,6.1-3.7,10.3-4.3c-0.1,3.2,3.5,2,5.2,3.4
			c2.2,1.9,2.1,5.8,5.2,6.9c0.6-2.6,3.2-3.2,4.3-5.2c-2.6-3.3-5.7-4.2-11.2-2.6c1.2-3.5-1.9-2.7-1.7-5.2c-4.7-0.9-5.3,3.8-6.9-0.9
			c-0.1,2.2-3.2,1.4-4.3,2.6c-0.2,1.6,1,1.9,0.9,3.4c-2.1-0.4-1.9,1.6-4.3,0.9c-0.3-2.9-5.3-7.2-0.9-9.5c0.3,1.8,5.5,3.1,6,1.7
			c-3.5-2.1-3.4-5.3-7.8-2.6c1-2.7,0.1-2,0-5.2c3.9-0.4,5.9-2.8,9.5-3.4c4.3,2.4,3.3,13.4,11.2,9.5c-1.9-1.4-1.3-7.9-1.7-6
			c-1,0.1-0.9,1.4-0.9,2.6c-2.4-0.7-2.2,1.2-4.3,0.9c1.9-2.4,3.5-5.2,4.3-8.6c-8.9-0.5-25.2,1.4-19.8,12.1c-2.9,1.1-6-1.9-6.9,0
			c1.1,1.2,3.7,0.9,6,0.9c0.4,2.3,0.7,2.9,2.6,5.2c-3.6-0.7-4.1,1.7-6.9,1.7C317.9,114.8,322.6,114,319.7,112.7 M380.1,136
			c0.1-3.3,2.5-4.4,4.3-6c0.5-5.1-0.5-8.7-3.4-10.3c-0.6,3.5,0.1,7,2.6,9.5c-1.5,2.3-5.1,4-6,0C376.4,130.7,377.5,135.4,380.1,136
			 M345.6,133.4c-0.9,0-2.2,0.4-0.9,0.9c1.1,0,1.2-1.1,2.6-0.9c-0.3-5.2-3.4-7.6-6-10.3C340.3,128.9,345.9,128.2,345.6,133.4
			 M168,134.3c0.4-1.9,4.7,0.1,4.3-2.6C170.7,129.2,166,133.3,168,134.3 M374,148.1c-1.6,2.3-8.3,0.7-6.9,1.7c1.2,1.3,2.2,3,4.3,3.4
			c-0.7-4.8,3.3-3.1,5.2-1.7C377.9,148.2,372.8,151.3,374,148.1 M359.4,149.8c3,7.8-6.6,10-11.2,12.9
			C351.2,157.7,350.5,149,359.4,149.8 M359.4,152.4c-0.7-0.2-1-0.7-0.9-1.7c-2.6,1.5-6.6,1.4-6.9,5.2c0,0.9,0.7,1,0.9,1.7
			C356,157,358.3,155.4,359.4,152.4 M380.1,176.5c-0.6-2.4,1.7-1.7,1.7-3.4c-3.5,0-5.2-6.2-7.8-4.3c3.2,2.4-4.5,1.2-4.3,3.4
			C374.5,171.5,376.8,172.3,380.1,176.5 M379.2,198.9L379.2,198.9L379.2,198.9L379.2,198.9z M383.5,169.6c1.6-0.4,1.6-2.5,4.3-1.7
			c-0.7,4.9,0.8,4.3,4.3,3.4c-0.3,4.6-6,3.7-4.3,10.3c-2.4-0.6-1.7,1.7-3.4,1.7c0.1,7-6.5,7.3-5.2,15.5c-1.5-2.2-3.7-3.7-5.2-6
			c0.4-3.1,2.3-4.6,1.7-8.6c5.3,3.8,3.7-2.6,9.5-2.6C380.5,177.7,385.5,176.5,383.5,169.6 M383.5,184.3c-2.4,2.2-6.5,2.6-6,7.8
			C381.1,191.1,382.3,187.7,383.5,184.3 M318.9,190.3c-5.4,0.7-5,7-8.6,9.5c2.6,1.3,3.4-0.3,5.2,0.9c-0.7,3.6,1.7,4.1,1.7,6.9
			c-2.8,3.3-2.1,4.8-2.6,10.3c6-1,0.6-3.4,1.7-8.6c1.3-2,3.6-0.9,4.3-1.7c-4.4-1.9,2.1-3,4.3-3.4c-1.4,1.3-1,3.9,1.7,3.4
			c0.6-2.6-1.5-2.5-0.9-5.2c-4-0.8-5.2,1.1-7.8,1.7c0-0.9-0.7-1-0.9-1.7c-0.6-2.4,1.7-1.7,1.7-3.4c-1.3-0.1-3.2,0.3-3.4-0.9v-5.2
			c1.2,0,1.9-0.4,2.6-0.9c2.3,4.6,10.1,1.5,6,7.8h3.4c-0.3-3.7-0.1-7,3.4-6.9l0,0c1.7,4.2-0.9,6.6,0,8.6c2.7-2.8,1.5-7.2,0-10.3
			C327.3,194.6,322,193.8,318.9,190.3 M404.2,286c1.2-0.1-1-5.3,2.6-5.2l0,0c1.4,0.6-0.2,4.2,2.6,3.4c-0.3-3.2-2.4-4.5-5.2-5.2
			C405.5,282.2,400.4,285.9,404.2,286 M364.5,293.7L364.5,293.7L364.5,293.7L364.5,293.7z M364.5,293.7v6.9
			c-5.7,2.6-6.7,10-7.8,17.2c-3.5,3.2-6,7.9-10.3,10.3c-4.7,2.6-10.2,1.7-14.7,5.2c13.4-1.2,21.8-7.5,27.6-16.4
			C357,306.1,369.4,301.5,364.5,293.7 M420.6,303.2c11.8,18.8,39.2,18.1,49.1,39.6c-0.8-8.1-13.4-20.6-25-22.4
			c-1.1-2.6-4.9-2.5-6-5.2h-5.2c-3.5-7.7-11.1-11.4-13.8-19.8l0,0C418.7,299.4,423.3,300.2,420.6,303.2 M349,298.9
			c-4.5,2.9-14.2,8.3-21.5,11.2C337.2,308.9,343.8,304.6,349,298.9 M278.4,341.1L278.4,341.1c2.1,5-11.2,1.3-12.9,5.2
			c23.2,1.1,29.9-15.8,45.7-22.4c3-1.3,6.1,0.7,8.6-3.4c-18.6,2.1-25,16.4-40.5,21.5C280.8,339.1,275.4,340.6,278.4,341.1
			 M224.9,34.3c3.5-1.5,2.4-5.1,0.9-7.8h-3.4C220.6,28.9,221.1,34.8,224.9,34.3"/>
	</g>
</g>
</svg>
