<?xml version="1.0" encoding="utf-8"?>
<!-- Generator: Adobe Illustrator 19.0.0, SVG Export Plug-In . SVG Version: 6.00 Build 0)  -->
<svg version="1.1" id="Layer_1" xmlns="http://www.w3.org/2000/svg" xmlns:xlink="http://www.w3.org/1999/xlink" x="0px" y="0px"
	 viewBox="11 -9 530 380.8" style="enable-background:new 11 -9 530 380.8;" xml:space="preserve">
<style type="text/css">
	.st0{clip-path:url(#SVGID_2_);fill:#116161;}
</style>
<g>
	<g>
		<defs>
			<rect id="SVGID_1_" x="11" y="-9" width="530" height="380.8"/>
		</defs>
		<clipPath id="SVGID_2_">
			<use xlink:href="#SVGID_1_"  style="overflow:visible;"/>
		</clipPath>
		<path class="st0" d="M539.1,17.3c-1.6-1.4-3.5-2.2-5.5-2.9c-3.9-1.4-7.9-2.2-11.9-2.6c-1.3-0.1-2.5-0.4-3.7-0.9
			c-12.6-4.9-25.6-8.2-39-9.6c-5.2-0.6-10.5-0.8-15.8-1c-3.8-0.1-7.5,0.5-11.3,0.7c-7.3,0.5-14.4,1.9-21.5,3.5
			c-0.9,0.2-1.7,0.5-2.3,1.2c-1.6,1.8-3.7,2.4-6.1,1.9c-1.8-0.4-3.6-0.3-5.3,0.4c-3.4,1.3-6.8,2.7-9.7,4.9c-2.9,2.2-5.7,4.5-8.4,7
			c-2.4,2.2-5,4.2-7.8,5.9c-2,1.2-3.7,1.3-5.9,0C373.1,19,360.5,14.3,347,11.9c-2.5-0.4-4.7-1.5-6.6-3c-1.5-1.1-2.8-2.4-4.3-3.6
			c-0.9-0.8-1.5-1.7-1.7-3c-0.3-1.9-1.4-3.4-3.3-3.9c-2-0.5-3.7-1.5-5.3-2.7c-3.6-2.8-7.9-3.6-12.3-4c-0.4,0-1.1-0.1-1.1,0.4
			c-0.1,0.5,0.6,0.6,1,0.8c1.9,0.9,3.9,1.5,5.9,2c0.7,0.2,1.3,0.3,1.7,0.9c1.8,2.6,4.4,4.4,7,6.2c2.2,1.5,4.5,3,6.1,5.2
			c0.4,0.5,1.1,1.1,0.6,1.7c-0.4,0.5-1.1,0.2-1.7,0.1c-12.3-1-24.8-1.3-37.1-2.8c-1.1-0.1-1.5,0.1-1.3,1.3c0.4,2.8,0.5,5.6,0.3,8.4
			c-0.6,9.7-4.2,17.9-12,23.9c-1.8,1.4-3.6,2.9-5.4,4.2c-2.8,2.2-5.7,4.2-8.4,6.6c-2.5,2.2-4.9,4.6-6.8,7.4c-0.9,1.4-1,1.4-1.8,0
			c-0.1-0.1-0.1-0.3-0.2-0.4c-1.2-1.9-2.2-2.2-4.3-1.2c-1.1,0.6-2.1,1.4-3.1,2.2c-0.8,0.6-0.9,1.2-0.5,2.1c1.1,2.9,0.8,5.7-0.3,8.5
			c-0.9,2.3-2.4,4.3-4,6.2c-2.5,3-5.3,5.6-7.7,8.7c-0.3,0.4-0.7,0.8-1.2,1c-3.3,1.3-4.8,4-5.6,7.3c-0.3,1.4-0.6,2.8-0.8,4.2
			c-0.3,1.8-0.6,3.5-1.1,5.2c-0.8,2.4-2.3,4.1-5,4.6c-0.7,0.1-1.3,0.2-1.7,0.9c-1.4,3.1-3.4,5.9-4.6,9.2c-0.9,2.4-1.5,4.8-0.2,7.3
			c0.3,0.6,0.3,1.1-0.5,1.4c-1.9,0.6-2.9,2.2-3.8,3.9c-0.7,1.5-1.5,3.1-2.3,4.6c-0.9,1.7-2.2,3.1-4.1,3.6c-3.7,1.1-5.6,3.8-6.9,7.1
			c-0.8,2.1-1.4,4.2-2,6.4c-1.1,3.6-2.4,7-5.2,9.7c-0.3,0.3-0.5,0.7-0.8,1.1c-3.4,4.7-6.9,9.3-10.8,13.6c-2.2,2.5-4.8,4.8-6.6,7.5
			c-2.6,3.8-5.8,6.9-9.4,9.7c-2.6,2-5.2,4-7.7,6c-0.8,0.6-1.4,1.2-1.2,2.4c0.3,1.4-0.5,2.4-1.8,2.9c-1,0.4-2,0.5-3,0.6
			c-1.7,0.2-2.6,0.8-2.6,1.9c0.1,1.2-0.6,1.6-1.4,2c-1.4,0.7-2.8,1-4.3,0.9c-1.9-0.2-3.6-0.9-5.3-1.7c-1.8-0.8-3.6-1.8-5.5-2.4
			c-2.3-0.7-4.5-0.6-6.8,0.1c-0.4,0.1-0.9,0.3-0.8,0.6c0.1,0.4,0.6,0.1,0.9,0.1c2.4-0.1,4.7,0.4,6.9,1.6c5.3,2.9,6.2,7.6,2.2,12.1
			c-0.1,0.2-0.3,0.3-0.4,0.5c-0.3,0.4-1,0.7-0.7,1.3c0.3,0.6,1,0.7,1.6,0.6c1.4-0.2,2.5-0.9,3.6-1.7c2.2-1.5,4.1-3.4,6.1-5.2
			c2-1.9,4.2-3.5,6.7-4.8c13.2-7.1,25.5-15.5,35.8-26.6c1.1-1.2,2.3-2.3,3.5-3.5c0.5-0.5,1.1-1,1.7-1.5c0.6-0.4,1.2-1.3,1.9-0.7
			c0.6,0.5,0,1.3-0.3,1.8c-0.5,1.2-1.1,2.3-1.7,3.4c-2.2,3.8-4.4,7.6-6.3,11.6c-0.8,1.8-1.5,3.6-1.7,5.5c-0.1,1.2-0.1,2.3,0.9,3.1
			c0.8,0.6,0.6,1.3,0.5,2c-0.4,1.5-1.3,2.7-2.2,3.8c-1.5,1.7-3.1,3.2-4.5,5c-1.5,2.1-1.8,4.3-1,6.8c0.7,2,0.7,2-1.5,1.8
			c-0.3,0-0.6-0.1-0.9-0.1c-2.3-0.3-3.8,0.8-4.8,2.8c-0.3,0.7-0.6,1.4-1.1,1.9c-2.5,3.2-5.1,6.4-8.2,9.1c-3.7,3.3-7.9,5.9-12.8,6.7
			c-0.6,0.1-1.1,0.3-1.6,0.7c-1.6,1.5-3.5,1.8-5.6,1.7c-2.9-0.2-5.7-0.8-8.6-1.3c-2.2-0.4-4.4-0.5-6.6,0c-3.4,0.9-6.1,4.6-5.4,8.1
			c0.5,2.4-0.2,4.2-2.2,5.6c-1,0.7-2,1.4-2.1,2.7c-0.1,1.3-0.9,1.9-2,2.3c-1.4,0.6-1.5,1.2-0.7,2.6c0.2,0.3,0.4,0.6,0.6,1
			c0.4,0.8,0.2,1.3-0.7,1.4c-0.3,0-0.6,0-0.9,0c-2.5,0.3-2.7,0.9-1.4,3c0.6,0.9,0.3,1.1-0.5,1.4c-3.2,1-5.6,3-7.2,6
			c-0.6,1.2-1.2,2.4-1.6,3.7c-0.9,2.6-1.7,5.2-2.6,7.8c-0.7,2-1.6,3.9-2.9,5.5c-0.9,1.1-0.9,1.1,0.6,1.6c1.8,0.6,2.6,1.4,2.6,2.6
			c0,1.4-1.2,2.8-2.9,3.3c-1.4,0.4-2.8,0.2-4.1-0.5c-0.2-0.1-0.5-0.4-0.7-0.1s0.1,0.5,0.3,0.8c1,1.6,2.6,2,4.3,2
			c4.1,0,7.7-1.5,10.6-4.4c0.2-0.2,0.4-0.7,0.9-0.5c0.4,0.2,0.4,0.6,0.4,1c0,2.6-1.3,4.6-3.4,5.9c-4.2,2.6-8.6,2.7-12.9,0.2
			c-0.9-0.5-1.8-1-2.8-1.4c-0.2-0.1-0.4-0.1-0.6,0.1s0,0.4,0.1,0.6c0.5,0.6,1,1.3,1.5,2c0.5,0.8,1,1.6,0.3,2.5
			c-0.6,0.8-1.4,0.6-2.2,0.3c-0.9-0.2-1.7-0.4-2.6-0.6c-0.4-0.1-0.8-0.3-1,0.1c-0.3,0.6,0.4,0.7,0.7,0.9c0.2,0.2,0.5,0.3,0.8,0.5
			c3.8,2.3,8.2,2.4,12.4,3.2c1.1,0.2,2.2-0.2,3.2-0.7c0.5-0.3,1-0.7,1.6-0.8c1.4-0.3,2.5-1.8,3.9-1.3c1.3,0.5,1.3-0.1,1.4-1
			c0.2-1.4,0.8-2.7,1.6-3.9c0.2-0.3,0.5-0.8,0.8-0.7c0.4,0.1,0.2,0.7,0.1,1c-0.4,1.1,0,2,0.7,2.8c0.2,0.3,0.5,0.6,0.9,0.4
			s0.5-0.5,0.4-0.9c-0.1-1.3-0.3-2.5-0.8-3.7c-0.2-0.5-0.4-0.8,0.1-1.1c0.8-0.6,1.8-1.2,2.6-1c1.1,0.4,2.1,0.1,3.1,0
			c0.7-0.1,1.8,0,1.6,1.2c-0.3,1.9-0.6,3.8-1.1,5.7c-0.5,2-1.5,3.4-3.8,3.3c-0.7,0-1.1,0.2-1.4,0.9c-0.8,1.9-2.3,2.8-4.2,3.4
			c-0.9,0.3-1.8,0.7-2.7,1c-0.2,0.1-0.5,0.3-0.5,0.4c0,0.4,0.4,0.3,0.6,0.3c1.4,0.3,2.8,0.5,4,1.3c1.8,1.1,2.2,2.4,1.3,4.3
			c-0.6,1.3-1.6,2.3-2.6,3.3c-1.3,1.3-2.6,2.7-3.5,4.3c-0.3,0.4-0.5,1,0,1.4c0.4,0.3,0.8-0.2,1.1-0.5c1.9-1.7,3.7-3.6,5.3-5.7
			c4.6-6,8-12.7,11.4-19.4c3.1-5.9,4-12.2,3-18.8c-0.5-3.4-1.2-6.7-1.7-10.1c-0.7-4.6-1.3-9.3-0.4-14c0.2-1.1,0.5-2.1,1.2-3
			c2.4-3,5.3-5.4,8.4-7.6c4.4-3.3,9.1-6.2,14.5-7.6c0.9-0.2,1.7-0.5,2.5-0.9c3.9-1.9,8-3.1,12.1-4.5c6.2-2.1,12.4-4.2,17.5-8.6
			c0.5-0.5,1.3-0.8,1.9-1.1c7.5-3.6,14.2-8.3,20.3-13.9c3.9-3.5,7.2-7.5,10.9-11.1c10-9.7,18.8-20.3,27.2-31.2
			c8.3-10.8,16-22,24.2-32.9c3-3.9,5.5-8.1,7.1-12.8c1.2-3.4,3.2-6.6,6.4-8.4c3.3-1.9,6.7-3.7,10.2-5.4c4.5-2.2,9.3-1.8,14-0.5
			c5,1.3,9.7,3.4,14.4,5.3c6,2.4,11.7,2.2,17.1-1.6c2.9-2.1,5.2-4.6,6.8-7.8c1.5-3.1,1.5-3.1-1-5.6c-7.4-7.2-16-12.9-24.8-18.1
			c-1.2-0.7-2.5-1.2-3.9-1.4c0.6,0.7,1.4,1,2.1,1.4c2.8,1.7,6,3.1,8.4,5.4c1.3,1.2,2.6,2.2,4.1,3.1c2.6,1.6,5.3,3.1,7.6,5
			c4.7,3.9,5.4,7.5,2,12.6c-3.2,4.8-6.9,6.3-12.4,4.4c-3.4-1.2-6.6-3-9.2-5.3c-4.7-4.1-10-6.9-15.6-9.3c-0.1,0-0.1-0.1-0.2-0.1
			c-4.8-2.2-9.7-4.1-15-4.8c-1.9-0.3-3.4,0.1-4.8,1.6c-2.4,2.6-5.3,4.5-8.8,5.4c-1.8,0.5-1.8,0.5-1.2,2.2c0.8,2,1.2,4,1.3,6.1
			c0.1,0.9,0.5,2.4-0.3,2.7c-1.1,0.4-1.3-1.1-1.7-1.9c-0.6-1.1-1-0.6-1.3,0.1c-1,1.8-3,2.1-4.9,1.3c-1.3-0.5-2.4-1.2-3.5-2
			c-1.2-0.8-2.5-1.7-3.7-2.4c-0.7-0.4-1.2-0.2-1.1,0.7c0.1,0.8,0.4,1.6,0.7,2.3c0.5,1.3,0,2-1.4,1.8c-1.3-0.2-2.1-1.1-2-2.5
			c0.4-4.8,2.7-8.7,6.1-12c0.2-0.2,0.5-0.4,0.8-0.4c2.2-0.3,3-2,3.7-3.7c0.4-1,0.8-1.9,1.2-2.9c0.5-1,1.1-0.9,1.7-0.1
			c0.2,0.2,0.3,0.5,0.5,0.7c0.3,0.5,0.6,0.9,1,0c0.8-2,2.3-3.4,3.8-4.9c2-1.9,4.2-3.6,5.9-5.8c0.8-1.1,1.9-1.6,3.1-2
			c3-0.9,6.1-0.9,9.3-0.6c4.6,0.4,9.3,1.4,14,0.8c0.5-0.1,0.9,0,1.1,0.5c1.1,2.3,3.3,1.9,5.2,2.2c0.2,0,0.6-0.1,0.6-0.2
			c0.1-0.3-0.2-0.5-0.5-0.6c-1.3-0.6-2.6-1.1-4-1.4c-0.2-0.1-0.8-0.1-0.6-0.4c1-1.3-0.4-0.8-0.7-0.8c-6.5-0.7-13-1.4-19.5-2.2
			c-1-0.1-1.9,0-2.9,0.2c-10.1,2.2-20,4.9-29.8,8.5c-0.6,0.2-1.4,1.2-2,0.4c-0.5-0.7,0.4-1.5,0.8-2.1c0.6-0.9,1.5-1.7,2.4-2.3
			c1.6-1,3.3-1.8,5-2.4c5.3-1.8,10.8-2.7,16.2-3.9c12-2.7,24-5.2,36.3-5.8c7.8-0.4,15.6,0.1,23.2,2.1c2.9,0.8,5.8,1.2,8.8,1.4
			c7.5,0.7,14.1-1.1,19.5-6.6c0.5-0.5,1.4-1.1,0.9-1.6c-1.2-1.3-0.3-2.7-0.3-4c0.1-4-1.1-7.5-4.1-10.3c-1.7-1.6-3.4-3.4-4.8-5.3
			c-1.1-1.5-2-3.2-2-5.1c0-0.9-0.4-1.2-1.2-1c-4.6,1.1-9.1,0.3-13.6-0.9c-5.2-1.4-10.3-2.7-15.7-2.8c-5.7-0.2-11.9-5.3-13.5-10.6
			c-0.7-2.3-0.4-4.4,1.5-6.1c1.6-1.5,3.6-2.4,5.9-2.3c7.6,0.3,15.3,0.6,22.9,1.3c10.4,1,20.6,2.9,30.3,6.9c4,1.6,7.2,4,9.9,7.4
			c2.4,3,4.2,6.3,6.2,9.5c0.6,1.1,1.3,2.1,1.9,3.3c4.3,8.1,11.2,12.6,19.9,14.8c11.9,3,23.8,1.9,35.5-0.8
			c10.2-2.3,20.1-5.5,29.8-9.2c13.5-5,27-10,40.1-16.1c7.4-3.5,14.7-7.1,21.6-11.5c1.6-1,3.1-2.1,4.2-3.6
			C541.6,21.4,541.4,19.3,539.1,17.3 M169.6,199.2c-1,1-2.2,1.6-3.5,2.3c-0.2,0.1-0.4,0-0.6,0c0-0.2,0-0.5,0.1-0.6
			c1.1-1.4,2.4-2.5,3.9-3.4c0.4-0.2,0.7-0.1,0.9,0.1C170.3,198.3,170,198.8,169.6,199.2 M231.4,172.3c-0.5,1.8-1.2,3.5-2.7,4.7
			c-2,1.8-4.3,3.1-7.4,3.9c-1.1,0.4-2.3-0.3-3.3-1.4c-1-1.2-0.8-2.6,0-3.7c2.7-3.7,6.3-6,10.9-6.5
			C231,169.2,231.9,170.4,231.4,172.3 M252.2,141.4c0,0.4,0,0.7,0,1.1c0,0.6,0.2,1.3-0.6,1.5c-0.6,0.2-0.9-0.4-1.3-0.7
			c-0.4-0.3-0.7-0.7-1.1-1.1c-1.4-1.1-1.9-1.2-3.3-0.1c-3.6,2.8-3.8,2.7-6.1-1.1c-0.2-0.3-0.4-0.6-0.6-0.9c-0.3-0.4-0.4-0.9,0.4-0.8
			c2.4,0.6,4.5-0.3,6.8-0.7c1.9-0.3,3.5,0.2,5,1.3C251.8,140.3,252.2,140.8,252.2,141.4 M257.7,137c-0.4,0.8-0.8,1.6-1.7,1.9
			c-0.2,0-0.3,0-0.4-0.1c-0.6-0.6-0.5-1.3-0.2-2.1c0.2-0.7,0.5-1.2,1.3-1.2C257.6,135.5,258.1,136.2,257.7,137 M288.5,59.7
			c-0.9,0.2-1.3-0.2-1.3-1c0-1.6,0.5-3.2,1.6-4.5c0.4-0.5,0.9-0.8,1.5-0.5s1,0.6,1.1,1.3C291.8,56.4,290,59.3,288.5,59.7
			 M299.9,65.8c-0.6,0.6-1.2,1.1-2.4,1.3c-0.8,0.1-1.8-0.3-2.4-1.2c-0.6-0.8-0.9-1.8-0.3-2.7c0.5-1,1.4-1.5,2.6-1.3
			c0.5,0.1,1,0.1,1.5,0.2C300.8,62.6,301.3,64.4,299.9,65.8 M299.7,51.8c-0.2,1.8-1.2,2.8-2.7,2.5c-1-0.2-1.7-0.8-2.4-1.5
			c-1.1-1.1-2-2.4-2.5-3.7c-0.2-0.7-0.3-1.2,0.1-1.7c0.1-0.2,0.3-0.3,0.5-0.4c0.3-0.1,0.4,0.1,0.5,0.3c0.1,0.3,0.1,0.6,0.3,0.9
			c0.7,1.7,1.2,2.1,3,2.1c0.4,0,0.9,0,1.3,0C299.4,50.5,299.8,50.8,299.7,51.8 M325.3,54.9c0.5-1.7,1.5-2.4,3.3-2.3
			c1.3,0.1,2.5,0.4,3.7,0.7c1.5,0.4,3,0.9,4.5,1.1c1.1,0.2,2.2,0.4,3.3-0.2c4.4-2.4,8.8-1.7,13.1,0c3,1.2,5.6,3.1,7.5,5.7
			c2.5,3.5,2.4,7.1-0.3,10.4c-0.9,1-1.8,2-2.8,2.9c-1.4,1.4-1.7,1.5-4.5,2c-3.5,0.4-7.7-0.4-11.6-2c-6.6-2.8-12.1-6.9-15.8-13.2
			C324.8,58.4,324.8,56.7,325.3,54.9 M322.4,53c0.4,0,0.7,0.5,1,1.8c0,0.1,0.1,0.4,0,0.7c0,0.2-0.1,0.4-0.3,0.5
			c-0.3,0.2-0.6,0.1-0.8-0.1c-0.2-0.2-0.4-0.5-0.5-0.7C321.6,54.2,321.9,53,322.4,53 M314.6,50.7c0.3-0.2,0.6,0,0.8,0.1
			c1.1,0.6,1.9,2.1,2.3,4c0,0.3,0.1,0.7-0.3,0.9c-0.3,0.1-0.5-0.2-0.7-0.4c-1-1.1-1.7-2.4-2.2-3.8C314.3,51.2,314.3,50.9,314.6,50.7
			 M315.7,55.1c0.8,0.9,1.5,1.8,2.5,2.5c1.2,0.9,1.1,1.6-0.1,2.4c-0.6,0.4-1.2,0.5-2.2,0.7c-1.5,0.1-3.4,0.3-5.1-0.5
			c-1.3-0.5-1.4-1.1-0.5-2.1c0.2-0.2,0.4-0.4,0.6-0.6c0.6-0.8,0.5-1.4-0.6-1.5c-1.9-0.3-3.8,0.1-5.8,0.2c-1.7,0.1-1.9,0-2-1.7
			c-0.1-3.8,1.8-5.3,5.5-4.4C311.1,51,313.6,52.8,315.7,55.1 M379.8,32c-3.7-3.2-8-5.2-12.7-6c-5.1-0.9-9.9-2.5-14.9-3.7
			c-4.6-1.1-9.1-2.2-13.8-1.8c-0.6,0.1-1.1-0.2-1.5-0.7c-1.2-1.8-1.9-2-3.9-1.3c-0.6,0.2-1.1,0.5-1.6,0.7c-0.4,0.2-0.9,0.3-0.9-0.4
			c-0.1-1.1-0.8-1-1.6-0.9c-1.1,0.2-2.2,0.5-3.2,0.9c-2.4,0.8-4.7,1.2-7.1,0.1c-1.1-0.5-2.5-0.3-3.7-0.1c-3,0.5-6,0.9-9,1.3
			c-0.5,0.1-1,0.1-1.6,0c-0.7,0-1.6,0.1-2-0.6c-0.4-0.8,0.3-1.4,0.8-1.9c0.4-0.4,0.4-0.7-0.2-0.9c-1.1-0.4-2.2-1-3-1.9
			c-1.6-1.5-1.3-2.7,0.8-3.4c0.5-0.2,1-0.3,1.6-0.4c5.4-0.5,10.8-0.4,16.2-0.1c10.8,0.5,21.4,2.1,32,3.7c1.5,0.2,2.9,0.5,4.4,0.6
			c6.6,0.6,12.5,3.2,17.7,7.2c2.1,1.6,4.1,3.2,5.9,5.1c1.9,2,4.2,3.5,6.3,5.3c1.2,1,2.3,2.2,3,3.6c0.1,0.3,0.3,0.6,0.1,0.8
			c-0.2,0.2-0.6,0.1-0.8-0.1C384.4,35.6,382,33.9,379.8,32 M388.4,41.9C388.5,42,388.5,42,388.4,41.9c0,0.1-0.1,0-0.1,0
			C388.4,41.9,388.4,41.9,388.4,41.9 M492.9,42.4c-0.5,0.6-1.2,0.8-1.9,1.2c-2.8,1.3-5.7,2.2-8.6,2.9c-3.3,0.9-6.5,2.1-9.8,3
			c-5.9,1.8-11.9,3.3-17.8,4.9c-7.9,2.1-16,3.4-24.2,4c-6.7,0.6-13.5,0.4-20.2-0.7c-6.5-1-12.1-4-16.6-8.8c-1.9-2.1-3.9-4.2-5.2-6.8
			c1,0.2,1.7,1,2.6,1.6c2.8,1.9,5.5,3.8,8.4,5.5c5.3,3,11,4,16.9,3.8c2.1-0.1,4.2,0,6.2,0.1c1.2,0.1,2.5-0.1,3.7-0.4
			c1.9-0.5,3.9-0.7,5.9-0.8c2.7-0.2,5.3-0.7,7.9-1.1c5.6-0.9,11.2-1.7,16.7-3c4.4-1,8.9-1.9,13.3-2.8c6.3-1.4,12.6-2.2,18.9-3.2
			c1-0.2,2.1-0.2,3.1-0.3c0.3,0,0.8-0.2,0.9,0.3C493.3,41.9,493.1,42.2,492.9,42.4 M504.8,17.8c-0.2,1-0.6,2-1.1,2.9
			c-1.2,2.2-2.5,4.4-3.7,6.6c-0.4,0.7-0.9,1.4-1,2.2c-0.3,2.1-1.8,2.9-3.5,3.6c-3.6,1.6-7.5,2.6-11.3,3.4
			c-6.3,1.4-12.5,3.3-18.2,4.3c-7.9,1.6-15.3,2.5-22.7,2.6c-0.4,0-0.9,0-1.3,0.2c-8.6,2-17.1,1-25.5-1.1c-2.9-0.7-5.7-1.5-8.6-2.4
			c-4.4-1.3-6.7-5.7-5.3-10c1-3.2,3.2-5.5,5.6-7.6c0.5-0.4,1-0.9,1.6-1.2c0.6-0.4,0.8-0.8,0.5-1.5c-0.2-0.4-0.3-0.8-0.4-1.3
			c-0.4-2,0.2-3.3,2.1-4.1c1.4-0.6,2.8-1,4.3-1.3c1.4-0.2,2.8-0.6,3.8-1.6c0.5-0.5,0.9-0.6,1.5-0.1c1.2,1,2.2,0.5,3.2-0.4
			c0.5-0.5,0.9-1,1.3-1.5c1-1.2,2.1-1.5,3.7-1.6c5.5-0.6,10.9-1,16.2-2.6c1.9-0.6,3.9-1.1,5.6-2c1-0.5,1.9-0.3,2.8-0.1
			c2.9,0.7,5.8,1.4,8.6,2.1c0.9,0.2,1.9,0.5,2.8,0.6c0.6,0.1,1.5,0.6,1.8,0c0.2-0.5-0.8-0.7-1.1-1.2c-0.1-0.2-0.4-0.4-0.3-0.5
			c0.1-0.3,0.5-0.3,0.8-0.2c1.9,0,3.7,0.4,5.5,0.9c3.5,1,7,2,10.5,3.1c3.2,0.9,6.5,1.6,9.8,1.6c1.1,0,1.5,0.4,1.6,1.3
			c0.1,0.8,0.2,1.6,0.4,2.4c0.4,2.4,0.9,2.8,3.2,2.7c1,0,2.1-0.2,3.1-0.3c0.8-0.1,1.6-0.2,2.4,0.1C504.5,16,505.1,16.6,504.8,17.8
			 M523.3,29.9c-0.1,0-0.1,0-0.2,0c-0.6-0.1-1.6,0.1-1.7-0.6c-0.1-0.7,0.9-0.8,1.5-1c0.2,0,0.3,0,0.5,0c0.7,0.2,2.1-0.5,2.1,0.3
			C525.6,29.5,524.2,29.6,523.3,29.9 M538.3,21.4c-0.5,1.7-1.3,3.1-3.2,3.7c-1.5,0.5-2.9,1.1-4.3,1.7v-0.1c-0.3,0.1-0.6,0.1-0.9,0.2
			c-0.4,0.1-0.8,0.1-1-0.3c-0.1-0.3,0-0.6,0.2-0.8c2.2-1.5,2.5-3.9,3.1-6.3c0.4-1.8,2.5-2.7,4.3-2.1
			C538.1,17.9,538.9,19.5,538.3,21.4 M20.8,208.9c0.7-1.4,2.9-2.6,4.3-2.3s2.2,1.3,2.5,3.3c0.1,0.8,0.2,1.6,0.4,2.4
			c0.1,0.4,0,1,0.5,1.1c0.6,0.1,0.6-0.6,0.7-1c0.3-2,0.5-4-0.5-5.9c-0.4-0.7-0.6-1.4-0.3-2.3c0.8-2.4-0.1-4.4-2-5.9
			c-0.8-0.6-0.8-1,0.1-1.3c3.4-1.4,5.8-3.8,7-7.3c0.2-0.5,0.5-0.9,1.1-1c1.2-0.2,2.3-0.7,3.4-1.1c0.6-0.2,1.3-0.6,1.9,0
			s0.1,1.3-0.1,1.9c-0.4,1.3-0.8,2.5-1.2,3.8c-0.1,0.3-0.1,0.8,0.2,1c0.4,0.2,0.7-0.2,0.9-0.5c1.1-1.5,2-3.1,2.4-5
			c1-4.7,3.7-8.4,6.8-11.8c0.4-0.4,0.9-0.8,1.4-1.2c1.2-0.8,2-0.3,2.1,1.1c0,1-0.2,1.9-0.1,2.9c0,0.9,0.8,1.9,0.3,2.8
			c-0.5,0.9-1.7,0.9-2.5,1.3c-1.3,0.7-1.6,3-0.4,3.7c1.6,0.9,2.1,2.5,2.5,4c1.4,5.7,2,11.4,1.1,17.2c-0.1,0.5-0.1,1-0.1,1.5
			c0.6,7.2,2,14.3,3.8,21.3s3.8,13.9,5.8,20.8c0.8,2.7,1.5,5.4,2.6,8c1.9,4.7,4.4,9.3,6.3,14c1.5,3.8,3.3,7.5,3.2,11.7
			c0,1.6,0.6,1.9,2.1,1.1c0.5-0.3,0.9-1,1.5-0.5c0.6,0.4,0.3,1.1,0.3,1.7c-0.2,1.5,0,3,0.4,4.4c0.1,0.6,0.3,1.2,1.1,1.2
			c0.8,0,0.9-0.7,1-1.3c0.3-2.1,0.3-4.3,0-6.4c-0.8-5.9-2.9-11.3-4.6-17c-1-3.5-1.9-7-2-10.7c-0.2-5.2-1.4-10.1-3-15
			c-1.7-5-4-9.8-5.9-14.6c-0.8-2-0.9-2,0.9-3.4c3.7-3,4.3-5.6,2.3-10c-0.4-1-0.5-1.8-0.3-2.8c0.5-2,0.6-4.1,0.6-6.2
			c0-4.1-0.7-8.1-0.5-12.2c0-0.7-0.3-1.9,0.5-2.2c0.6-0.2,0.9,1,1.4,1.5c0.2,0.3,0.4,0.7,0.9,0.5c0.4-0.1,0.4-0.6,0.5-1
			c0.2-1,0.3-1.9,0.9-2.7c0.9-1.3,1.8-1.4,3.1-0.5c0.4,0.3,0.7,0.5,1.1,0.7c0.7,0.3,1.2,0.1,1.5-0.5c0.8-1.4,0.1-3.7-1.4-3.8
			c-1.7-0.2-1.7-1.1-1.7-2.3c-0.1-3.1,0.3-6.1,1-9c1.1-4.2,2.3-8.5,3.3-12.7c1.2-5,3.4-9.7,6.2-14c2.8-4.2,6-7.9,9.2-11.7
			c0.5-0.6,1.1-1,1.1-1.9c0-0.5,0.1-0.9-0.3-1.2s-0.8-0.1-1.2,0.1c-0.8,0.4-1.3,1-1.9,1.5c-1.2,1.1-2.3,2.3-3.5,3.5
			c-0.2,0.2-0.5,0.6-0.9,0.3c-0.3-0.3-0.2-0.7-0.1-1c0.1-0.4,0.3-0.9,0.4-1.3c1.4-4.1,3.2-8,5.5-11.7c1.8-3,3.7-6,6.5-8.3
			c0.1,0.8-0.3,1.4-0.5,2.1c-0.7,3-0.9,5.9,0.4,8.7c0.8,1.8,2.2,2,3.5,0.6c1.2-1.3,2.1-2.8,2.1-4.8c0-4.1,0.1-8.2,0.3-12.2
			c0.3-5.6,1.2-11.1,3.2-16.3c0.6-1.7,1.7-3,2.8-4.2c0.2-0.3,0.6-0.5,1-0.4c0.5,0.2,0.5,0.7,0.4,1.1c-0.1,0.9-0.3,1.8-0.5,2.6
			c-0.4,1.8-0.9,3.6-1.3,5.4c-0.2,0.7-0.2,1.5-0.3,2.2c0,0.2,0.2,0.5,0.3,0.5c0.2,0.1,0.4,0,0.6-0.2c0.7-0.5,0.8-1.4,1-2.2
			c2.1-8.6,4.3-17.2,6.5-25.7c1.1-4.1,2.1-8.2,2.5-12.4c0.9-8.4,5.1-14.9,11-20.5c1.2-1.2,2.6-2,4.2-2.5c2.4-0.7,4.8-1.3,7.2-1.4
			c5.3-0.2,10.5-0.2,15.8-0.2c3.2,0,6.4,0.4,9.5-0.3c4.4-1.1,8.5-0.6,12.7,0.9c2.9,1,5.8,2.2,8.9,2.9c3.2,0.7,6.3,0.5,9.2-1.3
			c1.3-0.8,2.7-0.9,4.1-0.9c2.2,0,3.3,1.4,3.2,3.6c-0.1,2.2-1,4.2-1.9,6.1c-2.4,4.9-6,8.8-10.2,12.2c-1.6,1.3-2.8,1.2-4.3-0.2
			c-1.3-1.2-2.2-2.8-3.2-4.3c-0.2-0.3-0.4-0.8-0.8-0.7c-0.5,0.1-0.4,0.7-0.4,1.1c0.1,2.1,1,3.9,2.4,5.3c1,1,2.1,1.9,3,2.9
			C194,65,194.6,66,194,67c-1.6,2.5-3.4,5-5.2,7.4c-0.6,0.8-1.5,0.6-2.1-0.1c-0.8-0.9-1.2-2-1.6-3.2c-1.1-3.4-2.4-6.7-4.1-9.8
			c-0.3-0.5-0.6-1.5-1-1.3c-0.5,0.2,0,1,0.1,1.6c0.4,2.4,1.2,4.6,1.8,6.9c1,3.9-1,6.4-4.9,6.6c-2.3,0.1-4.6-0.1-6.9-0.4
			c-2.7-0.3-5.3-0.7-8-0.7c-1.7,0-3.2,0.3-4.8,0.7c-0.5,0.1-0.9,0.4-1.2,0.8c0.4,0.1,0.9,0.2,1.3,0.3c0.7,0.1,1.5,0.1,2.2,0.1
			c3.6,0.2,7.1,0.2,10.7,0.6c2,0.3,4,0.6,5.8,1.5c2.3,1.1,2.9,2.8,2.1,5.2c-0.5,1.4-1.2,2.7-2.6,3.5c-0.6,0.3-1.1,0.8-1.6,1.2
			c-0.2,0.2-0.7,0.5-0.4,0.9c0.1,0.1,0.5,0.1,0.8,0.1c1.4-0.2,2.7-0.7,4-1.2c5-2,9.9-4.1,13.8-7.9c2.3-2.1,4.9-3.8,7.6-5.4
			c3.1-1.8,6.2-3.6,9.2-5.4c2.8-1.7,5.7-3.3,7.9-5.7c3.7-4.1,7.7-7.9,11.5-11.9c3.4-3.6,6.5-7.4,8.5-11.9c1.6-3.6,3.7-6.9,5.8-10.3
			c3-4.8,6.8-9,10.5-13.3c2.6-3,5.3-6.1,7.9-9.1c0.2-0.2,0.5-0.5,0.3-0.8c-0.2-0.3-0.5-0.1-0.8-0.1c-3.8,0.6-7.6,1.2-11.5,1.7
			c-5.1,0.6-10.2,1.1-15.3,1.3c-4.5,0.3-9,0.4-13.6,0.5c-4.9,0.1-9.8,0.7-14.7,0.7c-2.8,0-5.5-0.2-8.2-0.9c-0.3-0.1-0.9,0-0.9-0.5
			c0-0.4,0.4-0.6,0.8-0.7c0.3-0.1,0.6-0.2,0.8-0.3c3.9-1.8,8-3.2,12.1-4.6s8.2-2.6,12.4-3.8c4.2-1.1,8.4-2,12.4-3.6
			c4.1-1.6,8.4-1.9,12.6-2.5c0.9-0.1,2.5,0,2.5-0.8c-0.1-0.9-1.6-0.4-2.5-0.5c-0.1,0-0.1,0-0.2,0c-6.1,0.8-12.2,1.7-18.2,3.1
			c-7.7,1.8-15.3,3.8-22.8,6.1c-4.3,1.3-8.7,2.3-12.9,4.2c-4,1.8-8.3,2.9-12.6,3.8c-9.7,1.9-19.6,2-29.5,2.4c-4,0.2-8,0.2-12,1.1
			c-2.1,0.5-4,1.2-5.5,2.7c-2.1,2-3.4,4.3-2.2,7.3c0.7,1.8,1.3,3.6,0.3,5.6c-0.3,0.7-0.3,1.6,0.1,2.4c0.5,1,0.3,2,0.1,3
			c-1.1,4.4-3.3,8.3-5.8,12c-2.8,4.1-5.4,8.3-6.8,13.2c-0.6,2.1-1.5,4-2.3,6c-4.7,11.5-10.5,22.5-15.8,33.7
			c-3.1,6.4-6.3,12.8-8.6,19.6c-1.8,5.2-3.9,10.3-6.4,15.2c-3.6,7.2-7.7,14.1-11.1,21.4c-1.7,3.5-3.1,7.1-4.4,10.7
			c-0.8,2.2-1,4.5-1.6,6.7c-0.9,3.4-2.5,4.1-5.6,2.6c-1.6-0.8-3.1-1.7-4.7-2.6c-3.1-1.8-6.3-1.8-9.6-0.3c-4.8,2.1-9.2,4.9-13.6,7.6
			c-7.2,4.5-13.9,10-22.1,12.7c-2,0.7-2.8,2.3-2.6,4.5c0.1,0.7,0.3,1.5,0.5,2.2c1.2,3.2,3.1,6.1,3.4,9.6c0,0.5,0.3,1.1,0.8,1.3
			c1.1,0.3,2.3,0.7,3.4,0.7C20.3,210.8,20.4,209.6,20.8,208.9 M133.6,24.8c0.4-3.2,2.1-5.7,4.3-7.8c1.4-1.4,3.2-2.2,5.3-2
			c3.6,0.3,7.1-0.3,10.7-0.5c7-0.5,14.1-0.9,21.1-1.1c8.7-0.3,17.4-0.5,26-0.7c9.6-0.2,19.3-0.3,28.9-0.4c5.6,0,11.3,0,16.9,0.1
			c1.1,0,2.2,0.2,3.3,0.6c1.4,0.5,1.6,1.5,0.7,2.6c-0.5,0.7-1.3,1.2-2.1,1.7c-2.9,1.6-6,2.4-9.2,3.5c-1.6,0.1-3.2,0.4-4.9,0.2
			c-2.4-0.2-4.7,0-7.1,0.4c-10.4,1.5-20.6,3.7-30.9,5.7c-5.9,1.1-11.8,2.1-17.8,2.8c-0.4,0-0.7,0.1-1.1,0.1c-0.4,0-1,0.1-1.2-0.3
			c-0.1-0.3,0.6-0.4,0.9-0.6c0.3-0.2,0.7-0.4,0.6-0.8c-0.1-0.4-0.6-0.5-0.9-0.5c-2.5-0.3-5,0-7.5,0.3c-6.8,0.9-13.5,0.4-19.7-2.8
			c-2.3-1.2-4.4-2.8-6.2-4.7c-0.3-0.3-0.6-0.9-1-0.8c-0.5,0.1-0.2,0.7-0.3,1.1c-0.3,1.3-0.7,2.6-1.3,3.8c-0.6,1.4-1.2,2.9-1.8,4.3
			c-0.3,0.8-0.4,1.9-1.6,1.8c-1.3,0-2.5-0.1-3.2-1.5C133.8,27.8,133.5,26.4,133.6,24.8 M72,169.3c0-0.1,0.1-0.3,0.1-0.4
			c0.1-0.5,0.1-1.2,0.7-1.2c0.7,0,0.6,0.7,0.8,1.1c0,0.2,0.1,0.3,0.1,0.5c0,0.9-0.9,2.6-1.2,2.4C71.6,171.1,72,170.2,72,169.3
			 M64,215c0.7,0,0.8,1,1.1,1.6c0.1,0.6,0.1,1.3-0.4,1.4c-0.9,0.1-1.2-0.6-1.4-1.4C63.2,215.9,63.3,215,64,215 M58.9,203.5
			c0.8,0.1,1.7,0,1.8,0.7c0.1,0.9-0.6,1.8-1.4,2.3c-0.5,0.3-0.7-0.1-0.7-0.5C58.4,205.2,57.9,204.2,58.9,203.5 M277.1,24.7
			c-0.5-1.4-0.1-2.4,0.7-3.5c2.3-3.3,4.8-6.4,6.8-9.9c0.4-0.7,0.8-0.5,1.3-0.2c2.8,1.5,4.8,3.8,5.4,7.1c0.5,1.9-0.2,3.8-0.9,5.6
			c-2.3,5.6-6.3,9.5-12.1,11.4c-2.9,1-5.5-0.2-8.1-1.5c-0.6-0.3-0.6-0.8,0-1.2c0.7-0.4,1.4-0.8,2.1-1.2c1.2-0.6,2.4-1.2,3.4-2.1
			C276.9,27.8,277.7,26.4,277.1,24.7 M42.4,213.7c-0.9-0.5-1.8-0.8-2.7-1c-2.2-0.3-3.2,0.8-3,3c0.2,2,1.2,3.8,1.8,5.7
			c0.3,1,0.6,2,0.8,3c0.1,0.4,0.3,0.9-0.1,1.2c-0.5,0.4-0.9-0.2-1.4-0.4c-1.2-0.7-1.7-1.9-2-3.1c-1.7-6.1-2.1-12.3-0.4-18.4
			c0.4-1.5,0.8-3,2.2-3.9c0.1,0.8-0.4,1.5-0.5,2.3c-0.1,0.5-0.2,1-0.3,1.5c-0.2,2.1,0.4,3.8,1.7,4.2c1.7,0.6,2.8-0.6,3.8-1.6
			c0.8-0.8,1.4-1.7,2.1-2.6c1-1.3,2.1-1.3,2.6,0.3c1.6,4.7,1.6,9.4,1.1,14.3c0,0.2-0.1,0.5-0.3,0.6c-0.3,0.1-0.5-0.2-0.7-0.5
			C46.1,216.3,44.4,214.8,42.4,213.7 M54,279.3c0.1,0.3,0.3,0.8-0.1,1c-0.4,0.2-0.7-0.2-0.9-0.5c-1.2-1.4-2.3-2.9-3.1-4.6
			c-2.3-5.2-5.1-10.2-7.2-15.5c-1.6-4.1-2.7-8.3-2.2-12.8c0.2-1.8,0.6-3.5,1.3-5.2c0.1-0.3,0.2-0.6,0.5-0.6c0.2,0,0.4,0.4,0.5,0.7
			c0.9,2.5,1.7,5,2.5,7.6c0.8,2.6,1.4,5.3,2.1,7.9c0.5,2,0.4,4.1,0.8,6.2c0.6,3.9,2.1,7.5,3.8,11.1C52.8,276.1,53.7,277.6,54,279.3
			 M103.9,336.6c-0.7,0.4-1.4,0.8-2.2,1.1c-2.4,1.1-5,1.5-7.8,2c-5.6,1.4-11.5,1.2-17.4,0.7c-3.5-0.3-6-2.6-8-5.5
			c-0.2-0.4-0.5-0.8-0.2-1.2c0.4-0.6,0.9-0.3,1.4-0.1c1.5,0.5,2.9,1.2,4.1,2.2c1.3,1.1,2.7,2.1,4.3,2.8c1.7,0.7,2.4,0.2,2.2-1.6
			c-0.1-0.8-0.8-1.7-0.1-2.3c0.6-0.5,1.6,0,2.4,0.1c6.3,0.7,12.6,0.7,18.8,1.3C102.3,336.1,103.2,335.8,103.9,336.6 M46.3,317.3
			c-4.2-4.1-6.8-9.1-8.5-14.7c-0.7-2.2-1.5-4.4-1.7-6.7c-0.2-1.6-0.4-3.2-1.1-4.8c-0.1-0.3-0.4-0.7,0.1-0.9c0.3-0.1,0.5,0.3,0.6,0.5
			c1.7,2.1,2.7,4.6,3.7,7c3,7.4,6.8,14.3,12.3,20.2c0.9,1,1.7,2,2.6,3.1c0.3,0.4,0.7,1,0.3,1.4c-0.4,0.5-1,0-1.4-0.2
			C50.6,321,48.4,319.3,46.3,317.3 M260.9-6.6c0-0.1,0.3-0.3,0.5-0.3c0.8-0.2,1.6-0.3,2.4-0.5c10-1.2,20.1-1.4,30.2-0.6
			c0.1,0,0.3,0,0.4,0.1c0.2,0.1,0.4,0.1,0.6,0.2c-0.2,0.1-0.3,0.2-0.5,0.3c-3.9,1.2-7.9,2-12,1.6c-4.2-0.4-8.3,0.1-12.4,0.4
			c-2.5,0.2-5,0.2-7.5-0.3c-0.4-0.1-0.8-0.3-1.3-0.4C261.2-6.2,260.9-6.3,260.9-6.6 M261,18.3c0.9-1.5,2-2.9,3.3-4.2
			c0.4-0.4,0.9-0.8,1.5-0.9c0.6,0,0.7,0.3,0.5,0.8c-0.6,1.8-1.4,3.5-2.7,4.8c-1.5,1.4-1.7,3.1-1.4,4.9c0.2,1.4,0.5,2.8,0.8,4.2
			c0.1,0.4,0.2,0.8-0.1,1c-0.4,0.4-0.9,0-1.2-0.2c-1.6-0.9-2.5-2.3-2.6-4.1C258.9,22.3,259.8,20.3,261,18.3 M68.7,359.1
			c-0.1,0.3-0.2,0.8-0.3,1.2c-1.9,4.8-5.5,8.2-9.6,11.1c-0.3,0.2-0.6,0.5-1,0.2c-0.1,0,0-0.4,0.1-0.6c2.4-3.6,4.1-7.6,7.5-10.5
			c0.8-0.7,1.6-1.4,2.5-1.9C68.2,358.5,68.5,358.6,68.7,359.1 M84.2,296.4c0.7-1.1,0.8-2.2,0.4-3.3c-0.1-0.2-0.1-0.5,0-0.6
			c0.2-0.2,0.6-0.1,0.8,0.1c2.4,2,4.2,4.4,5.2,7.2c0.3,1.3-0.1,2.2-1,2.5s-2.6-0.2-2.9-1c-0.4-1.2-1.2-2-2-2.9
			C84.1,297.9,83.7,297.2,84.2,296.4 M108.1,203.4c4,0,7.9,0.3,11.7,1.4c0.4,0.1,0.7,0.2,1,0.4c0.3,0.1,0.5,0.3,0.5,0.7
			c-0.1,0.4-0.4,0.5-0.7,0.5c-4.4,0.3-8.7,0.1-12.8-1.8c-0.3-0.1-0.6-0.3-0.4-0.7C107.5,203.6,107.9,203.5,108.1,203.4 M92.4,196.5
			c1.1,1.3,2.1,2.7,2.7,3.8c0.4,1.7,0,2.6-1,3c-1.2,0.4-2.6,0.1-3.1-1c-1-1.8-0.7-3.7-0.1-5.6C91,196,91.8,195.9,92.4,196.5
			 M43.7,294c-0.1,0.7,1,2.1-0.2,2.5c-1,0.3-1.4-1.3-1.9-2.1c-1.3-2.1-2-4.4-2.1-6.9c0-0.3,0-0.8,0.4-0.9c0.4-0.1,0.7,0.3,0.9,0.6
			C41.9,289.2,43.4,291.2,43.7,294 M60.6,314.4c0.2,0.3,0.4,0.6,0.5,1c0.1,0.2,0.1,0.5,0,0.6s-0.4,0.1-0.6,0c-3.1-2.2-5.7-4.9-7.9-8
			c-0.1-0.2-0.1-0.4,0.2-0.5c0.1,0,0.3,0,0.4,0.1C55.8,309.6,58.9,311.2,60.6,314.4 M169.3,62.5c-1.3-1-2.5-2.1-3.5-3.3
			c-0.1-0.2-0.2-0.4-0.3-0.6c0.1-0.1,0.2-0.1,0.4-0.2c0.1,0,0.1,0,0.2,0.1c2.4,1.2,4.6,2.6,6.6,4.4c0.2,0.2,0.4,0.4,0.2,0.8
			c-0.2,0.3-0.5,0.2-0.8,0.1C171.1,63.5,170.2,63.2,169.3,62.5 M44.6,300.1c-0.1-0.2-0.1-0.6,0.4-0.7c0.2,0.1,0.5,0.1,0.8,0.2
			c1,0.4,1.9,0.9,2.7,1.5c0.5,0.3,1.2,0.7,0.9,1.4c-0.3,0.7-1.1,0.7-1.8,0.4C46.3,302.4,45.3,301.3,44.6,300.1 M82.6,164.4
			c0.4-0.1,0.6,0.2,0.6,0.5c0,1.7-0.4,3.3-1.2,4.8c-0.1,0.3-0.6,0.8-1,0c-0.6-1.2,0.2-4.3,1.2-5.2C82.4,164.5,82.5,164.5,82.6,164.4
			 M81.7,193.8c0.7,0,3.3,2.3,3.5,2.9c0.1,0.4-0.1,0.6-0.5,0.6c-1.4,0.1-3.4-1.6-3.5-3C81.3,194,81.3,193.7,81.7,193.8 M302-7.4
			c-0.1-0.8,1.3-0.9,2.1-1.1c0.9-0.3,2.3-1,2.7,0.2c0.2,0.8-1.4,0.9-2.3,1.2C303.5-7.1,302.1-6.8,302-7.4 M184.2,90.3
			c0,0.4,0,0.9,0,1.4c-0.1,0.7,0.2,1.8-0.8,1.7c-0.6,0-0.8-1.2-0.8-1.9c0-0.5,0.2-1,0.4-1.5c0.1-0.4,0.3-1,0.8-1
			C184.2,89.2,184,89.8,184.2,90.3 M277.8,7.6c-0.2-0.5-0.5-1.2,0.1-1.6c0.7-0.5,1,0.2,1.4,0.6c0.3,0.3,0.6,0.6,0.6,1
			c0.1,0.4,0.2,0.7-0.1,0.9c-0.2,0.2-0.5,0.2-0.8,0C278.5,8.3,278,8.1,277.8,7.6 M71.2,327.8c0.4,0.5,0.9,1,1.2,1.5
			c0.3,0.4,1,1,0.4,1.4c-0.5,0.3-1-0.4-1.4-0.7c-0.6-0.6-0.9-1.3-1-2.1c0-0.2-0.1-0.5,0.3-0.4C70.9,327.5,71.1,327.6,71.2,327.8
			 M245.6,33.7c0.3,0.9-0.9,0.8-1.5,1.1c-0.8,0-1.9,0.6-2.2-0.2c-0.2-0.5,1.1-0.8,1.8-1C244.3,33.3,245.4,32.9,245.6,33.7
			 M64.9,320.8c0.4,0.6,1,1.2,0.8,2c-0.1,0.3-1.6-0.7-2-1.5c-0.2-0.4-0.3-0.8-0.5-1.2c-0.1-0.2,0-0.4,0.3-0.5
			c0.1,0.1,0.4,0.1,0.5,0.3C64.3,320.1,64.6,320.4,64.9,320.8 M99.5,134c0,0.3,0.1,0.7,0.1,1.1c0,0.1-0.1,0.2-0.1,0.4
			c-0.1-0.1-0.3-0.1-0.4-0.2c-0.2-0.3-0.4-0.6-0.5-1c-0.1-0.6-0.3-1.5,0.2-1.6C99.4,132.5,99.3,133.5,99.5,134 M37.8,199.7v-0.1
			C37.9,199.6,37.9,199.7,37.8,199.7 M37.7,199.8L37.7,199.8L37.7,199.8C37.7,199.7,37.7,199.7,37.7,199.8
			C37.7,199.7,37.7,199.8,37.7,199.8 M314.8,88.2L314.8,88.2C314.8,88.3,314.8,88.2,314.8,88.2h-0.1H314.8z M443.8,52.2
			c0.1,1-1.5,0.7-2.3,0.9c-0.1,0-0.3,0.1-0.4,0c-0.5-0.1-1.4,0.1-1.4-0.5c0-0.5,0.8-0.5,1.3-0.6c0.1-0.1,0.3-0.1,0.6-0.1
			C442.2,51.8,443.7,51.2,443.8,52.2 M452.1,50.4c-0.1,0.2-0.1,0.5-0.2,0.6c-0.3,0.2-0.6,0.5-0.9,0.5c-0.6,0.1-1.6,0.2-1.8-0.4
			c-0.2-0.7,0.8-0.8,1.3-1C451,49.9,451.6,49.7,452.1,50.4"/>
	</g>
</g>
</svg>
