<?xml version="1.0" encoding="utf-8"?>
<!-- Generator: Adobe Illustrator 19.0.0, SVG Export Plug-In . SVG Version: 6.00 Build 0)  -->
<svg version="1.1" id="Layer_1" xmlns="http://www.w3.org/2000/svg" xmlns:xlink="http://www.w3.org/1999/xlink" x="0px" y="0px"
	 viewBox="-25 -68.3 456.5 498.1" style="enable-background:new -25 -68.3 456.5 498.1;" xml:space="preserve">
<style type="text/css">
	.st0{clip-path:url(#SVGID_2_);fill:#116161;}
</style>
<g>
	<g>
		<defs>
			<rect id="SVGID_1_" x="-25" y="-68.3" width="456.5" height="498.1"/>
		</defs>
		<clipPath id="SVGID_2_">
			<use xlink:href="#SVGID_1_"  style="overflow:visible;"/>
		</clipPath>
		<path class="st0" d="M429.2,362.4c-6.8-0.2-13.7-0.6-20.5-0.6c-14.7-0.2-29.5-0.8-44.2-1.4c-2.8-0.1-2.8-0.1-3.1-3
			c-0.7-6.8-1.5-13.6-2.3-20.4c-1.3-11.9-2.5-23.8-4-35.6c-0.5-4.1,0.1-7.4,3.5-10.1c2-1.5,3.4-3.8,4.7-6c1.7-2.8,2.8-5.9,2.9-9.2
			c0-2,0.8-3.5,2-4.9c6.9-8,13.8-16,20.7-24c15.8-18.5,28-39,34.9-62.4c4.3-14.6,7.1-29.5,7.1-44.8c0-6.6-1.1-12.9-5.1-18.5
			c-1-1.4-2.1-2.2-3.9-2.4c-4.4-0.5-8.5,0.1-12.5,2c-2.7,1.3-5.2,3.1-7.7,4.7c-2,1.2-4,2.4-6.3,2.9c-2.6,0.5-3.5,0.3-5-2
			c-1.3-1.9-1.9-4-2.4-6.1c-0.7-2.8-1.3-5.7-2.3-8.4c-1.6-4.4-5.2-6.8-9.9-6.9c-2.4-0.1-4.6,0.5-6.7,1.4c-2,0.9-4,1.8-6.1,2.5
			c-3.4,1.2-3.8,0.9-5-2.6c-1.5-4.4-1.3-9-0.2-13.4c2.5-10.4-0.2-19-8.1-26.1c-2.4-2.2-4.5-4.7-6.6-7.2c-5.7-6.6-8-14.3-7-22.9
			c0.3-3,0.4-6,0.3-9c-0.2-4.5-2.3-7.9-6.1-10.3c-3.3-2-7-3-10.9-3.1c-7.6-0.3-15,1.4-22.4,2.6c-6.8,1.1-13.6,1.6-20.4,0.5
			c-2.1-0.3-3.2-1.3-4.2-3.1c-3.9-7.1-7.9-14.2-12.3-21c-6.4-9.9-13.7-19-22.9-26.6c-1.2-1-2.4-1.7-3.9-2.1
			c-4.8-1.4-9.3-3.4-13.8-5.6c-3.3-1.6-6.6-3.4-10.2-4.4c-2.7-0.8-4-1.9-3.8-5c0.2-3.2-1.2-4.2-4.5-4.3c-1.4,0-2.8,0-4.2-0.2
			c-1.3-0.3-2-1.1-1.3-2.6c0.8-1.4,1.6-2.8,2.3-4.3c1.4-2.9,0.8-5.4-1.3-6.4c-2-1-3.9,0-5.5,2.9c-1.1,1.9-2,3.9-3.1,5.8
			c-0.7,1.2-1.6,2.3-3.3,2.2c-7.2-0.5-14.4,0.9-21.5,0.9c-4.9,0-9.8-0.3-13.9-3.5c-1.2-0.9-1.9,0-2.7,0.5c-3,2.2-6.4,3.2-10.1,3.4
			c-8.2,0.3-16.1,1.8-23.8,4.5c-8.3,2.9-16.7,5.7-25.6,6c-0.9,0-1.6,0.4-2.2,0.9c-4.4,3.7-9.5,6.2-14.5,8.8
			c-7.3,3.9-14.6,7.7-21.2,12.7c-2.8,2.1-4.9,4.7-6.1,7.9c-0.9,2.3-0.3,3.2,2.2,3.3c0.8,0,1.6-0.2,2.4-0.3c2.3-0.4,4.4-1.5,6.5-2.4
			c3.8-1.7,7.6-1.8,11.5-0.7c2.5,0.7,4.7,2,7.2,2.6c5.1,1.2,8.6,4,9.8,9.3C82.9-2,83.6-1,84,0.1c1.5,3.4,2,6.8,1.5,10.5
			c-0.5,4.2-1.9,8.1-3.3,12c-1.8,4.8-4,9.4-5.6,14.3c-0.9,2.8-1.5,5.6-1.7,8.5c-0.1,1.9,0.5,2.3,2.3,1.9c2.3-0.5,4.3-1.8,6.2-3
			c2.1-1.3,4.1-2.7,6.3-3.6c2.2-1,4.5-1.2,6.7-0.1c1.5,0.7,2.2,1.7,1.7,3.6c-1.2,4.3-3.4,8.1-6.2,11.6c-2.5,3.1-5.2,5.9-7,9.5
			c-3.3,6.5-2.5,13.3,2.3,18.7c1.1,1.2,2.2,2.4,3.4,3.5c7.8,7,15.1,14.5,22,22.3c0.5,0.6,1.1,1.2,1.6,1.9c0.8,1,0.5,1.7-0.5,2.2
			c-0.5,0.3-1.1,0.5-1.6,0.7c-3,1.3-3.3,1.8-2.8,5c0.6,4,1.7,7.9,2.8,11.8c0.6,2.1-0.1,2.8-2.3,2.2c-2.1-0.5-3.3-2-4.2-3.8
			c-1.4-2.9-2-6.2-3.2-9.2c-2.4-6.1-6-11.3-12.1-14.3c-3.5-1.7-5.5-0.8-7.4,3.2c-0.6,1.2-0.6,2.5-0.6,3.8c-0.1,3.7,0,7.4,0.5,11.1
			c0.2,1.7,0.3,3.5,0,5.2c-0.5,2.7-0.9,2.8-2.9,0.9c-7.4-7.1-14.4-14.5-19.6-23.4c-1.4-2.3-2.8-4.5-4.6-6.5
			c-1.8-1.9-3.9-3.4-6.4-4.1c-3.4-0.9-4.2-0.4-4.6,3c-0.3,2.2-0.3,4.4-0.5,6.6c-0.1,0.8-0.2,1.6-0.4,2.4c-0.9,2.5-2.2,3-4.5,1.8
			c-9.4-5.2-19.2-10-27.8-16.4c-2.3-1.7-4.8-3.3-7.4-4.5c-2.3-1-4.6-1.5-7.1-1.3c-3.9,0.4-5.3,1.6-6,5.4c-0.2,1-0.3,2.1-0.4,3.1
			c-0.5,7.2,0.4,14.4,0.9,21.5c0.2,2.5-0.2,2.9-2.6,2.6c-1.5-0.2-3-0.6-4.4-1c-1.3-0.4-2.5-0.3-3.8-0.4c-1.4-0.1-2.1,0.5-2.6,1.8
			c-0.9,2.7-1.2,5.4-1,8.2c0.4,4.6,1.8,8.8,3.3,13.1c0.8,2.3,1.6,4.6,2.5,6.9c0.6,1.6,0.1,2.7-1.4,3.4c-1.3,0.6-2.6,1.1-3.8,1.7
			c-2.2,1.2-2.9,2.9-2.3,5.3c0.2,0.9,0.6,1.7,1,2.6c2.8,7.3,6.4,14.1,10.4,20.8c1.5,2.4,1.4,2.7-1,4c-0.3,0.2-0.6,0.3-0.9,0.4
			c-2.9,1.4-3.5,3.1-1.9,5.9c3.9,6.6,7.9,13.1,12.8,19c2.8,3.4,2.8,3.4-0.4,6.1c-3.3,2.8-3.5,5.6-0.5,8.8c4.8,5.2,10.1,10,15.4,14.6
			c1.7,1.5,3.3,1.9,5.7,1.4c5.5-1.2,10.3,0.5,14.2,4.6c1.3,1.4,1.3,2.4-0.1,3.8c-2.3,2.3-4.8,4.4-7.4,6.3c-2.2,1.7-4.4,3.4-6.6,5.1
			c-1.8,1.3-2,2.8-1,4.8c1.5,3.1,3.5,5.7,5.9,8.1c2.7,2.6,5.8,4.6,8.9,6.7c1.1,0.7,1.8,1.6,2,3c1.1,6.9,5.3,11.7,11.2,15.1
			c3.5,2,7.2,3.8,10.8,5.7c3.7,2,3.7,2,0.7,5c-3.7,3.7-3.8,8.2-0.3,12.1c0.8,0.9,1.6,1.7,2.5,2.4c3.9,3.3,6.1,7.5,7.1,12.4
			c1.1,5.1,0.7,10.1,0,15.2c-0.6,4.5-0.4,4.5-5,4.5c-5.3,0-10.7,0-16,0v-0.3c-2.4,0-4.9-0.1-7.3,0c-4.7,0.3-9.5,0-14.2,1
			c-1.6,0.4-4.1,3.3-3.6,4.5c0.7,1.8,2.4,1.5,3.8,1.6c0.3,0,0.7,0,1,0c7.9-0.2,15.8-0.3,23.7,0.5c3.1,0.3,6.3,0.5,9.4,0
			c3.8-0.6,7.4-0.1,11,0.6c5.4,1,10.8,1.2,16.3,1.2c10-0.1,19.9-1.2,29.9-1c7.6,0.2,15,1.2,21.9,4.8c1,0.5,1.8,0.7,2.9,0
			c2.8-1.6,5.7-1.5,8.8-1c2.4,0.4,3.4,1.5,3.8,3.7c1.1,5.1,2.7,10.1,3.2,15.3c0.5,4.9,3.8,7.8,6.2,11.3c1,1.4,2,2.7,2.4,4.3
			c1.3,5.5,2.5,11.1,3.8,16.6c1.7,7.4,2.3,7.9,9.9,8.2c0.3,0,0.7,0,1,0c6.6,0.1,13.2,0.1,19.9,0.2c6.8,0.1,13-2.1,19.2-4.4
			c4-4.2,9-3.7,14.3-3.5c4.7,0.2,9.4-1.2,12.2-5.9c0.7-1.1,1.9-1.7,3-2.3c0.9-0.5,2-0.8,2.8-1.4c5.3-4.5,11.1-8.4,14.6-14.7
			c2.2-4,3.1-7.9,0.5-12.1c-1.3-2.1-2.4-4.3-2.9-6.7c-1-5-0.1-8,5.5-8.7c1.3-0.2,2.5-0.2,3.8-0.1c3.4,0.4,6.6,1.3,9.9,2.1
			c5.5,1.4,10.8,1.2,16-0.9c2.7-1.1,5.4-2,8.1-3.1c5.7-2.4,11.5-2.8,17.3-0.7c7.9,2.8,15.9,2.5,24,0.6c3.4-0.8,6.8-1.4,10.3-1.7
			c8.2-0.7,16.5-0.3,24.7,0.2c15.3,0.9,30.6,2.1,45.8,3.1c5.2,0.4,5.2,0.3,5.9-4.6C431.7,362.6,431.7,362.5,429.2,362.4
			 M362.6,274.1c-1,0.8-2.1,1.4-3.5,1.2c-1-0.2-1.6-0.8-1.8-1.9c-0.1-1,0.6-1.4,1.4-1.7c0.9-0.3,1.8-0.5,2.7-0.7c1,0,2,0.1,2.4,1.1
			C364,273,363.2,273.6,362.6,274.1 M285.5,233c0-0.6-0.2-1.5,0.7-1.8c1-0.3,1.4,0.6,1.7,1.3c2.2,5.7,3.9,11.6,5,17.7
			c0.9,5.2,1.6,10.3,0.6,15.5c-0.6,3-1.6,5.8-3.8,8.1c-1.4,1.5-1.9,1.4-2.3-0.6c-0.5-2.6-0.9-5.3-1.1-7.9
			c-0.5-6.6-1.1-13.2-0.8-18.6C285.5,241.4,285.5,237.2,285.5,233 M290.2,280.4c1.2-0.1,2,0.5,2.8,1.2c1.3,1.3,2.1,2.9,2.4,4.6
			c1,5.2,3.5,9.8,6.1,14.3c1.9,3.4,3.9,6.8,5.3,10.5c1,2.7,0.5,4-2.1,5.3c-0.3,0.2-0.6,0.3-1,0.4c-5,1.9-5.3,1.7-7.3-3.2
			c-3.1-7.6-5.9-15.3-7.2-23.5c-0.4-2.6-0.4-5.3-0.4-8C289,281.1,289.2,280.4,290.2,280.4 M300.6,288.9c-2.1-4.6-3.6-9.3-3.3-14.4
			c0.1-1.2,0.2-2.3,0.7-3.4c0.1-0.3,0.2-0.7,0.8-0.6c0.6,0.2,1,0.8,1.4,1.3c2.6,3.4,5.1,6.9,7.6,10.4c3.9,5.6,7.7,11.3,13,15.8
			c0.8,0.7,1.6,1.3,2.4,2c2.2,1.7,2.3,1.9,0.9,4.2c-2.3,3.9-6.1,5.5-10.2,6.5c-0.9,0.2-1.5-0.1-1.9-1
			C308.5,302.6,303.9,296.1,300.6,288.9 M313.4,281.6c-4.5-5.4-8.9-11-13.6-16.2c-1-1-1.9-2.1-1.6-3c0.2-1.5-0.1-2.6,1-3
			c1-0.3,2.1-0.4,3,0.4c1.1,1,2.1,2.1,3.1,3.3c5.8,6.5,11.8,12.8,18.7,18c4.1,3.1,8.5,5.6,13.1,7.8c2.3,1.1,2.2,1.1,1.1,3.2
			c-1.4,2.5-3.1,4.6-5.6,6.1c-1.6,1-2.8,0.9-4.3-0.5C322.8,292.7,318.1,287.2,313.4,281.6 M326.8,310.1c0.6-2.8,3.7-5.3,6.7-5.4
			c1.9-0.1,3.3,1,4.3,2.7c0.9,1.7,0,3.1-0.9,4.4c-0.6,0.9-1.4,1.5-2.3,2.1c-3.1,2-5.9,1.1-7.6-2.2
			C326.7,311.2,326.6,310.7,326.8,310.1 M338,299.9c1.1-1.9,2.1-3.9,3.6-5.5c1.3-1.4,2.9-2.2,4.9-2c1.5,0.2,2.4,0.8,2.2,2.5
			c0,3.7-2.8,7.8-6.2,9.4c-1.7,0.8-2.5,0-3.6-1C337.9,302.2,337.2,301.3,338,299.9 M346.6,277.6c-0.8,7.9-2.9,8.9-10.2,6.4
			c-2.2-0.8-4-2.4-5.7-3.9c-2.2-1.9-4.5-3.6-7.5-4.3c-0.8-0.2-1.5-0.6-2-1.3c-3.9-5.1-9.1-8.9-13.9-13.2c-3.1-2.7-5.9-5.5-8.2-9
			c-1.4-2.2-2.3-4.5-2.9-7c-0.1-0.5-0.4-1.3,0.1-1.6c0.6-0.4,1,0.3,1.4,0.6c2,2,4,3.9,5.9,5.9c5,5,10.1,10,15.8,14.1
			c7.5,5.4,15.6,9.1,24.9,9.8C346.6,274.5,346.7,274.7,346.6,277.6 M342.6,268.6c-4.6-0.6-8.8-2-12.8-4.1
			c-15.6-8.5-28.5-19.9-37.2-35.5c-2.3-4.2-4.2-8.5-5.3-13.2c-0.8-3.3-0.6-3.6,3.1-3.6c1.8-0.4,2.9,0.8,4.1,2.2
			c6.8,8.4,14.1,16.4,22.5,23.2c11.9,9.7,25.4,16.1,40.6,18.6c0.6,0.1,1.1,0.2,1.7,0.4c1,0.3,1.2,0.8,0.8,1.8
			C357.3,265.1,349.8,269.5,342.6,268.6 M337.3,171.1c2.9-0.4,5.7-1,8.6-1.3s3.3,0.4,2,3.1c-1.2,2.5-3,4.4-5.1,6.1
			c-11.3,9.6-24,16.9-37.5,23c-4.8,2.1-9.6,4-14.6,5.6c-0.7,0.2-1.6,1-2.3,0.4c-0.8-0.7-0.1-1.8,0.2-2.6c1.4-4.3,3.6-8.3,6.4-11.9
			c10.7-13.9,22.4-26.9,35.7-38.5c0.7-0.6,1.2-1.6,2.3-1.1c1.2,0.6,1,1.7,0.9,2.8c-0.1,1.8-0.9,3.3-1.4,5c-0.2,0.8-0.4,1.6-0.7,2.3
			C329.8,168.9,333.6,171.3,337.3,171.1 M348.3,153c-0.4-0.2-0.9-0.4-1.2-0.6c-0.5-0.4-0.8-0.9-0.6-1.5c0.1-0.6,0.6-1,1.2-1
			c1-0.1,2.1,0,3.1,0c4.2-0.1,4.5,0.2,4.8,4.3c0.3,3.1-0.1,6-2,8.6c-1.3,1.9-3.1,3.1-5.5,3.1c-2.3,0-3-1-2.8-3.3
			c0.2-1.5,0.9-2.6,1.8-3.7c0.5-0.6,1.2-1.1,1.8-1.7C351.7,154.6,351.6,154.4,348.3,153 M358.1,143.8c-0.4-0.2-0.9-0.3-1.3-0.5
			c-0.7-0.4-1.6-0.6-1.5-1.6c0.1-0.9,0.8-1.4,1.5-1.8c2.4-1.1,5-0.8,7.5-0.5c0.9,0.1,1.3,0.9,1.5,1.7c0.2,1.3,0.3,2.5,0.4,3.6
			c-0.2,6-2.2,10.8-6.9,14.3c-1.7,1.3-2.5,1-2.6-1.2c-0.1-3.3,0.5-6.4,2.6-9.2C361.3,146.2,361,145.1,358.1,143.8 M350.8,187.2
			c6.5-1.1,12.9-2.7,18.9-5.5c4.6-2.1,9.4-4,14.5-4.7c1.6-0.2,2.5,0.2,2.6,1.9c0.6,5.4,0.7,10.8-0.8,16.2c-0.8,3.1-2.6,4.5-5.8,4.9
			c-10.7,1.6-21.5,1.5-33,1.3c-6.3-0.2-13.4-0.5-20.5-0.8c-2.3-0.1-2.6-0.7-1.5-2.8c1.8-3.2,4.6-5.1,7.9-6.5
			C338.9,189,344.9,188.3,350.8,187.2 M362.1,250.8c-13.8-1.1-26.2-5.8-37.3-14c-8-5.9-14.9-12.9-21.8-20c-1.3-1.3-2.6-2.7-3.9-4
			c-1.2-1.2-0.8-2.3,0.4-3.2c1.9-1.4,4.2-1.3,6.4,0.2c5.8,4.1,11.9,7.7,18.3,10.7c12.1,5.7,24.9,9.4,37.9,12.5
			c3,0.7,6.1,1.4,9.1,2.1c2.4,0.6,2.7,1,1.9,3.3c-1.7,4.7-5,8.3-8.5,11.7C364,251,363,250.9,362.1,250.8 M375.5,255.1
			c-2.3,3.3-5.5,5.6-9,7.5c-0.3,0.2-0.8,0.6-1.2,0.1c-0.1-0.2-0.1-0.7,0-0.9c1.5-3.3,2.7-6.7,4.8-9.6c1.2-1.6,2.5-3,4.4-3.9
			c2.1-1,2.8-0.6,2.8,1.6C377.3,251.8,376.6,253.5,375.5,255.1 M374,229.2c-7.7-1.4-15.5-3-23.1-5c-12.2-3.3-24.1-7.4-35-14
			c-1.5-0.9-3-1.8-4.3-2.9c-1.4-1.1-1.3-2.5,0.4-3.2c1.7-0.6,3.6-1,5.5-0.9c6,0.4,11.9,1.8,17.8,3c8.5,1.7,17.1,1.5,25.6,0.8
			c6.7-0.5,13.4-1.4,20.1-1.1c3,0.1,3.4,0.6,2.9,3.6c-0.6,3.7-1.9,7.1-3.4,10.6c-1,2.3-1.9,4.7-2.7,7.1
			C376.9,229.7,376.9,229.8,374,229.2 M389.1,236.4c-1.2,3.5-3.2,6.4-6.8,7.8c-2.8,1.1-3.9,0.4-4.1-2.5c-0.4-5,3.4-9.3,8.1-9.3
			C389.5,232.5,390.2,233.4,389.1,236.4 M415,192.3c-0.6,1.6-1.4,3.2-2.2,4.7c-1.2,2.3-2.5,4.5-3.6,6.7c-2.1,4.1-2.1,4.2-6.5,3.7
			c-3.6-0.4-7.1-0.8-10.6-1.8c-1.6-0.5-2-1.1-1.7-2.7c0.6-3.8,1.2-7.6,1-11.4c-0.1-1.8,0.7-2.5,2.2-3c2.1-0.6,4.3-0.9,6.1-0.8
			c5,0,9.4,1,13.9,1.6C415.5,189.7,415.8,190.3,415,192.3 M394.1,151.2c3-2.2,6-4.3,9.8-4.8c2.2-0.3,2.8,0.3,2.3,2.5
			c-0.7,2.9-2,5.4-4.1,7.5s-4.2,4.2-6.4,6.4c-1.6,1.6-3.3,1.2-4.2-1c-0.1-0.3-0.2-0.7-0.2-1c-0.1-1.1-0.2-2.3-0.3-3.4
			C390.5,154.4,391.9,152.7,394.1,151.2 M417.9,179.7c-1,2-2.3,3.3-4.9,3c-2.8-0.3-5.5-0.1-8.3-0.1l0,0c-3,0-6-0.1-9,0
			c-1.7,0-2.3-0.6-2.2-2.3c0.1-2.3,0.2-4.6,0-6.9c-0.2-2.3,0.9-3.4,2.8-4.2c2.6-1.2,5.3-1.8,8-2.1c4.7-0.6,9.4-1,14.1-1.6
			c1.1-0.1,2.2-0.3,2.2,1.3C420.4,171.3,419.9,175.7,417.9,179.7 M425.7,141.9c-0.5,4.9-1.2,9.6-2.4,14.2c-0.2,0.9-0.2,1.8-1.3,2.3
			c-4.3,1.8-8.7,3.1-13.4,3.3c-1.6,0.1-2.1-0.4-1.5-2.1c1.6-4.3,3-8.7,5.4-12.7c2.1-3.6,4.9-6.4,8.9-7.8
			C425,137.8,425.9,138.4,425.7,141.9 M390.6,141.3c0.9-2.2,2.6-3.8,4.5-5.2c4.5-3.5,9.3-6.4,14.5-8.8c2.4-1.1,5-1.7,8.4-1.7
			c-0.1,0,0.5,0,1.1,0.1c1.8,0.3,4,0.3,4.7,2.3c0.6,1.9-0.7,3.5-1.9,5c-1.5,1.8-3.5,3-5.8,3.7c-2.1,0.7-4.2,1.4-6.3,1.9
			c-4.4,1-8.7,2.2-12.6,4.7c-1.2,0.8-2.7,1.5-4.2,1.5C390.4,144.9,389.6,143.6,390.6,141.3 M388.8,214.4c3.6-4.6,8.6-4.4,13-1.7
			c1,0.6,1.1,1.4,0.9,2.4c-0.5,2.1-1.3,4.2-2.5,6.1c-1.4,2.1-3,4.2-4.2,6.4c-1.1,2-2.6,2.8-4.3,2.5c-0.8,0-1.2,0-1.5-0.1
			c-6.6-1-6.5-2.5-5.2-7.4C385.8,219.6,386.9,216.8,388.8,214.4 M387.5,161.6c0.2,1,0,2.1,0,3.4c1,3.1-1,4.5-3.6,5.9
			c-9.7,5.1-20.2,8-30.8,10.4c-1.9,0.4-3.8,0.7-5.8,1c0.4-2,2.3-2.9,3.2-4.6c0.9-1.7,2.1-3.3,3.1-5c3-5.1,7.9-7.2,13.4-8.4
			c2.8-0.6,5.6-1.2,8.4-1.9c2.3-0.6,4.3-1.6,6.2-3C384,157.5,387,158.6,387.5,161.6 M384.8,131.3c0.9,3.8,0.6,7.6,0.5,11.4
			c0,2.4-0.1,4.9,0,7.3c0.1,1.6-0.6,2.6-2,3.3c-5.4,2.9-11.2,4.9-17.2,6.4c-1.2,0.3-1.6-0.1-1.1-1.2c2.5-5.8,3.6-12,5.8-17.8
			c0.8-2.2,1.9-4.2,3.2-6.1c1.9-2.6,4.3-4.5,7.5-5.4C384.1,128.6,384.2,128.7,384.8,131.3 M327.9,139.8c9.7-5.6,18.7-12.1,27-19.5
			c2.4-2.2,5-4.1,7.8-5.8c4.2-2.5,8.8-3.6,13.7-2.6c5,1,7,5.7,4.5,10.1c-0.8,1.4-2,2.5-3.4,3.4c-1.8,1.1-3.6,2.2-5.4,3.2
			c-1.4,0.8-3.1,1.5-3.8,2.9c-1.6,3.2-4.2,3.2-7,2.9c-3.1-0.3-5.9,0.6-8.7,1.9c-17.5,8-32.1,19.8-45,34c-3.9,4.3-7.6,8.8-11.3,13.2
			c-2.3,2.8-4.6,5.5-5.9,9c0,0.1-0.1,0.2-0.2,0.3c-0.9,1.5-1.7,3.3-3.9,2.8c-2.1-0.5-1.4-2.6-1.7-4c0.1-3.2,1.1-6.1,2.5-8.8
			c3.1-6.2,7.5-11.4,11.9-16.7c2.8-3.3,5.8-6.3,7.6-10.3c0.7-1.5,2-2.5,3.2-3.6C315.4,147.5,321.5,143.4,327.9,139.8 M306.4,142
			c0.3-2,0.9-3.9,2.8-4.9c0.9-0.5,5.3,1.6,6.1,2.7c0.6,0.8,0.3,1.5-0.2,2.2c-1.5,2.3-3.8,3.2-5.6,3.5c-2.4,0.1-3.2-0.6-3.2-2.2
			C306.4,143,306.4,142.5,306.4,142 M292.4,78.5c2.3,2,4.6,3.8,7.4,5.1c3,1.4,4.6,5.4,2.4,8.5c-1,1.4-2,1.2-3.4,1.3
			c-4.8-0.3-9.2-2.2-12.9-5.7c-3-2.8-5.3-6.2-7.7-9.4c-1.6-2.1-3.5-3.7-5.7-4.9c-4.3-2.4-8.8-4.1-13.3-5.9
			c-4.3-1.8-8.5-3.7-12.2-6.6c-0.6-0.5-1.4-1-1.8-1.6c-0.9-1.2-2.7-2.1-1.6-4.1c1.1-2.1,2.2-2.8,4.7-2.6c3.8,0.4,7.5,1.4,11.1,2.7
			c8.8,3.1,16.1,8.6,23.1,14.6C285.7,72.8,289,75.6,292.4,78.5 M274.5,127.9c-6.2,2.1-14.8,0.3-17-6.4c-0.4-1.1-0.5-2.2-0.5-3.4
			c0-0.6-0.1-1.2,0-1.7c0.1-0.9,0.7-1.2,1.4-0.6c3.4,2.8,7.5,4.1,11.2,6.2c1.9,1.1,3.8,2.2,5.2,4
			C275.4,126.7,275.5,127.6,274.5,127.9 M211.5-31.5c0.5-2.1,2.3-1.5,3.4-1.7c2.3,0.1,4.1,1,5.8,2c4.5,2.5,9,4.6,14.2,5.3
			c3.2,0.4,5.6,2,6.6,5.3c0.6,1.8,1.9,2.8,3.5,3.6c1.9,0.9,3.8,1.8,5.4,3.2c2,1.8,2.6,4.2,1.8,6.6c-0.5,1.3-1.1,1.9-2.5,0.9
			c-2.7-1.9-5.6-3.8-8.3-5.7c-8.8-6.1-17.6-12-27.6-15.9C211.6-28.7,211-29.7,211.5-31.5 M204.4-25.1c0.9-1.1,2.1-1.3,3.5-0.9
			c2.5,0.7,4.7,1.9,6.9,3.2c4.8,2.8,9.3,6.2,14.6,8c0.6,0.2,1.1,0.8,1.6,1.3c4.4,5,9.8,8.8,15.2,12.6c4,2.8,7.9,5.6,11.8,8.6
			c2.9,2.2,5.4,4.8,7.3,7.9c1.3,2,2.1,4.1,2.4,6.5c0.2,2.1-1.2,2.3-2.7,2.3c-3.7,0-7.4,0.4-11,1.2c-7.7,1.7-14.6,5.2-20.5,10.6
			c-2.2,2-2.3,2-3.3-0.9c-2.7-8.1-5.4-16.3-8.1-24.4c-1.7-4.9-3.7-9.7-6.1-14.4c-2.2-4.3-4.7-8.3-8-11.8c-1.7-1.8-2.7-3.9-3.9-6.1
			C203.6-22.8,203.5-24,204.4-25.1 M176.2-31.9c13.4,0.7,9.9-0.8,18.5,7.1c8.8,8.1,15.3,17.7,17.5,29.7c0.2,0.9,0.5,1.8,1,2.5
			c4.9,6.8,7.4,14.6,9.8,22.5c0.6,2.1,1.2,4.2,1.8,6.3c0.5,1.5-0.4,1.7-1.4,1.2c-1.9-0.8-3.8-1.7-5.6-2.8c-2.7-1.7-5.4-3.6-8-5.6
			c-5.3-4-11.1-7-17.7-8.6c-5.3-1.3-10.4-3.2-15.5-5.1c-3.2-1.2-6.4-2.7-10-0.8c-1,0.5-2.3-0.1-3.4-0.4c-4.8-1.2-9.4-3.1-14.4-3.9
			c-3.1-0.5-6-0.4-8.9,0.7c-4.1,1.5-8,2-12.1-0.2c-1.8-1-4-1.1-6.1-0.5s-4.3,0.9-6.4,1.4c-1.7,0.4-3.5,0.5-5.2,0.1
			c-4.3-0.9-5.3-3.2-3.1-6.9c2.3-3.9,5.9-6.6,9.8-8.6c3.7-1.8,6.7-4.4,9.7-7.2c11.6-11.3,25.3-18.3,41.4-20.4
			C170.9-31.8,173.9-31.8,176.2-31.9 M81.3-34.9c2.3-1.8,4.9-3,7.7-4c5.9-2.1,12.2-2.8,18.3-4c4.9-1,9.6-1.1,14.3,0.6
			c1.2,0.4,2.3-0.2,3.4-0.4c11.6-3,23.3-3.6,35.1-0.8c1.1,0.3,2.3,0.6,3.3,1c2.6,1,3.1,3.4,1.1,5.4c-1.4,1.4-3.2,2.3-5.1,2.9
			c-1.9,0.6-3.8,1.1-5.7,1.6c-3.6,0.9-6.9,2.6-10.1,4.6c-3,2-6.2,3.7-9.9,3.9c-1.6,0.1-2.7,1.2-3.9,2.2c-6.2,4.9-11.7,10.6-17.4,16
			c-2.8,2.7-5.6,5.2-8.6,7.6c-1.9,1.4-2.6,1.3-3.8-0.8c-0.8-1.3-1.3-2.7-1-5c1.6-3-0.7-5.9-2-9c-0.6-1.4-1.1-2.8-1.6-4.2
			c-1.8-4.7-4.7-8.5-9.2-10.9c-1.7-0.9-3.3-2.1-4.8-3.4C79.9-32.9,79.9-33.8,81.3-34.9 M89,3c-0.4-4.4-1.4-8.7-3.6-12.6
			c-3.6-6.3-9.1-9.7-16.2-10.6c-0.9-0.1-1.8-0.2-2.8-0.3c-1.1-0.1-2-0.5-2-1.9c0-1.2,0.5-1.9,1.7-2.3c5-1.4,9.9-1.1,14.5,1.3
			c7.7,4,12,10.7,14.2,18.9c1.5,5.6,1.6,11.3-0.7,16.7c-1.2,2.9-2.5,5.7-5.6,7.2h-0.2v-0.2C88.9,13.9,89.5,8.5,89,3 M110.3,28.9
			c-5.5,1.7-11.1,3.4-16.8,4.3c-1.6,0.2-3.8,1-4.6-0.1c-1.1-1.4,0.7-3.1,1.4-4.6c2.9-5.6,7.1-8.9,12.8-7.7c5.6,0.1,10.1-1,14.7-1.6
			c17.2-2.4,34.2-1.6,51,3.3c5.3,1.6,10.8,2.7,16.4,2.9c1,0,1.8,0.3,2.6,0.8c6.6,4.6,13.8,8.1,20.7,12.1c7.1,4.2,13.8,9,18.4,16.2
			c0.9,1.5,1.8,1.1,2.8,0.2c2-1.9,3.2-4.3,4.1-6.8c0.7-1.7,1.6-3,3-4.1c1.5-1.1,2.8-2.4,4.1-3.7c6.7-6.6,14.8-8.9,24-7.4
			c4.8,0.8,9.6,1.9,13.8,4.5c2.3,1.4,4.3,3.1,5.1,5.9c0.6,2,0.3,2.7-1.7,3.4c-1.5,0.6-2.9,0.5-4.4-0.1c-1.4-0.6-2.7-1.4-3.8-2.5
			c-7-6.5-14.7-5.8-22.7-2.3c-4.5,2-7.8,5.4-10.7,9.3c-4,5.4-6.5,11.4-8.4,17.8c-1,3.4-1,3.4-4,1.4c-1.5-1-3.1-2-4.7-3
			c-3.1-2.1-5.4-4.8-6.2-8.5c-0.2-1-0.6-1.7-1.4-2.3c-11.5-8.5-23.1-16.8-36.5-22c-8.2-3.1-16.6-4.9-25.2-6.2
			c-5.4-0.8-10.8-1.5-16.2-2.2C128.5,24.3,119.4,26.2,110.3,28.9 M223.6,108.3c0.6,1.4,0.1,2.5-0.8,3.4c-1.7,1.9-3.7,3.6-5.8,5
			c-2.2,1.5-2.2,1.6-0.6,3.8c1.4,2,3,3.8,3.4,6.3c0.7,4,0,5.5-3.8,6.9c-2.6,1-5.3,1.6-8.2,1.5c-8-0.3-14.8-3.4-20.4-9
			c-1.5-1.5-1.9-2.9-1-5c1.6-4,3.8-7.7,6.1-11.3c2-3.1,3.9-6.3,5.9-9.4c1.3-2.2,1.4-2.3,3.7-1c2.5,1.3,5.1,2.2,7.9,2.4
			c1.9,0.2,4.1,0.5,5.5-1.3c1.9-2.3,4.1-4.5,4-7.9c0-1.5-0.9-1.8-2.1-1.5c-1.6,0.4-2.9,1.5-4.2,2.4c-2.5,1.8-5.1,3.3-8.2,3.6
			c-3.8,0.4-5-0.6-5.4-4.1c-0.5-4.6,0.3-8.8,3.3-12.3c1.7-2.1,3.7-2.3,5.5-1c2.1,1.5,2.2,3.6,0.2,5.2c-0.3,0.2-0.6,0.4-0.9,0.6
			c-0.7,0.5-2.1,0.9-1.7,1.8c0.5,1.3,2,0.9,3.1,0.6c1.4-0.3,2.3-1.5,3.2-2.5c1.1-1.3,2.3-2.7,3.4-4c0.9-1.1,1.9-1,3.1-0.3
			c1.8,1.2,3,2.9,4,4.7c1.4,2.6,2.4,5.3,4.1,7.6c0.9,1.2,0.6,2.5,0.1,3.6c-0.7,1.5-1.6,2.8-2.5,4.2
			C223.2,103.6,222.5,105.9,223.6,108.3 M225.9,142.5c5.1-0.2,9.7,1.7,14.2,4c0.3,0.1,0.7,0.5,0.7,0.7c0,0.6-0.5,0.7-0.9,0.8
			c-2.9,0.7-5.9,1-8.9,1.1c-3.1,0-6.3-0.2-9.2-1.4c-2-0.8-2.2-1.8-0.6-3.3C222.5,143.2,224.1,142.6,225.9,142.5 M114.5,241.5
			c4,0.1,4.1,0.1,5-3.9c1.9-8.2,3.8-16.5,5.7-24.7c0.7-3.2,1.7-6.3,2.3-9.5c0.4-1.9,1.2-3.2,3.3-3.4c0.7-0.1,1.4-0.3,2-0.6
			c0.9-0.5,1-1.5,1-2.4s-0.7-1.1-1.5-1.1c-2.2,0-2.4-1.5-2-3.1c0.6-2.8,1.7-5.4,3.6-7.4c4.4-4.5,6.7-9.8,7.1-16.1
			c0.2-2.6,1.2-5.2,2.1-7.7c0.7-1.8,1.8-2.5,3.7-2.1c8.5,1.3,16.3,4.3,23.9,8.3c1.4,0.7,1.7,1.7,1.6,3.1c-0.3,3.4-1.3,6.6-2.5,9.7
			c-4,10-9.4,19.2-15.3,28c-10.8,16.1-21.9,32-32.7,48.1c-4.6,6.8-9.4,13.5-12.5,21.2c-1,2.4-2.6,4.4-5.1,5.5
			c-1.3,0.5-2.1,0.3-2.1-1.2s0-3,0-4.5c0.4-8,2.2-15.8,3.3-23.8c0.4-3,0.8-6,1.1-9c0.3-2.4,0.9-3.1,3.2-3.3
			C111.3,241.4,112.9,241.5,114.5,241.5 M110.3,230.2c0.5-3.3,1.9-6.2,3.4-9c0.9-1.6,1.8-3.2,2.7-4.8c0.3-0.5,0.5-1.2,1.2-1.1
			c0.6,0.1,0.9,0.7,1.1,1.2c0.7,1.3,0.6,2.7,0.6,4.7c-0.3,4.6-2.3,9.4-4.1,14.3c-0.4,1.1-1.1,1-1.9,0.6
			C111.2,235.3,109.9,232.9,110.3,230.2 M140.2,137.3c-0.8,2.3-0.6,4.6-0.7,6.9c0,2-0.1,4-1.1,5.7c-1.5,2.7-3.7,2.7-5.3,0.2
			c-1.1-1.7-1.6-3.6-1.6-5.7c0.2-2.3,0.7-4.8,1.6-7c5.3-11.9,7.3-24.6,10.2-37.1c2.5-11.1,5.2-22.1,7.3-33.2c0.6-3.4,2-6.7,3.2-9.9
			c1.4-3.8,2.6-7.7,3.2-11.7c0.1-0.9,0-2.1,1.1-2.4c1.5-0.4,3-0.5,4.5,0.1c1,0.4,0.4,1.4,0.3,2.2c-1.2,8.8-2.9,17.6-4.7,26.3
			C153.3,93.8,147.5,115.7,140.2,137.3 M125.5,111.9c-0.9-0.5-1.2-1.3-1.1-2.3c0.2-3.2,2.8-5.4,6.7-5.4c1.2,0.2,3.1-0.2,3.6,2
			c0.6,2.4-0.4,5-2.3,6C130.1,113.5,127.8,113.2,125.5,111.9 M159.3,88.7c0.3-2.3,1.6-3.8,3.3-5.1s3.7-2.3,5.8-3.2
			c5.3-2.3,10.6-4.7,15.8-7.1c5.2-2.4,9.9-5.6,13.8-9.7c1.4-1.5,3-2.9,4.7-4.2c1.9-1.5,5.3-1.6,6.8-0.3c1.9,1.7,2.1,4.5,0.6,6.9
			c-1.2,1.9-3.1,3.2-4.9,4.3c-2.5,1.5-5,3-6.4,5.7c-0.4,0.8-1.2,1.1-2,1.2c-5.4,0.9-10,3.6-14.4,6.6c-3.4,2.3-6.7,4.6-10.4,6.3
			c-3,1.4-6.1,2-9.1,2.4C159.7,92.6,159,91.7,159.3,88.7 M183.6,91.6c2.2-1,3.1-0.7,4,1.6c0.7,1.7,1.1,3.5,1.2,4.8
			c0,1.8-0.3,3.1-0.7,4.2c-1.3,3.2-3.7,3.7-6.1,1.1C178.6,99.7,179.4,93.4,183.6,91.6 M226.2,86.7c-1.5-1-2.5-3.1-1.8-4.5
			c0.8-1.6,2.3-1.6,4.4-1.7c1-0.1,2.4,0.3,3.6,1.4c1.1,1,1.5,2.1,0.8,3.7c-0.6,1.4-1.4,2.3-3,2.2C228.7,87.6,227.4,87.4,226.2,86.7
			 M111.5,166.5c0.3-3,0.9-6,1.1-9c0.1-2.1,1.1-3.2,2.7-4.1c2.8-1.6,5.8-1.5,8.8-0.9c4.3,0.8,8.4,2.5,12.3,4.5
			c0.9,0.5,1.9,0.9,1.7,2.3c-0.2,1.3-0.9,2.1-2,2.6c-1.3,0.6-2.7,0.3-4,0.4c-1.4-0.2-2.6-0.3-3.9,0c-0.4,0.1-1,0.1-1.1,0.7
			c-0.1,0.7,0.3,1.1,0.8,1.4c1,0.7,2.1,0.9,3.2,1.1c3.5,0.9,4,1.5,3.4,5.1c-0.8,4.3-2,8.6-4.3,12.4c-2.8,4.6-6.4,6.6-10.5,5.9
			c-4.6-0.8-7.5-4-8.7-9.2C110.1,175.2,111.1,170.8,111.5,166.5 M115.4,194.3c2.1,1.8,2.2,2.7,1,5.1c-1.3,2.5-3.6,3.8-6.1,4.9
			c-2.6,1.1-2.7,1.6-0.5,3.4c0.6,0.5,1.4,0.9,2.1,1.3c0.9,0.6,1.6,1.4,1.4,2.6c-0.2,1.3-0.9,2.1-2.1,2.5c-1.7,0.6-3.3,0.7-5.1,0
			c-4-1.5-6.9-4.2-9.2-7.7c-3.6-5.5-4.8-11.7-5.1-18.1c0.4-8.2,2.3-15.7,7.8-21.9c1-1.1,2-2.2,3.7-2.3c2.7-0.1,3.1,0.2,2.3,2.8
			c-1.9,6.2-1,12.2,1.9,17.9C109.5,188.3,112.1,191.5,115.4,194.3 M64.8,208.9c-0.4-1.2-0.9-2.3-1.3-3.5c-0.3-1-0.3-2,0-3
			c0.8-2.3,3.4-4.4,5.1-4.1c1.3,0.2,2.5,2.9,2.4,5.3c-0.1,0.9-0.3,1.8-0.6,2.7C69.5,209.5,68,210.1,64.8,208.9 M70.7,215.9
			c4.1-0.8,8.8,2.9,9,7.1c0.1,2.5-2.2,4.5-4.6,4.3c-2.3-0.2-3.8-1.4-5-3.3c-0.8-1.4-1.2-3-1.6-4.5C67.8,216.9,68.2,216.4,70.7,215.9
			 M70.1,195.5c-1.8-0.4-1.1-2-1.3-3c0-1.2,0.1-2.2,0.5-3.2c0.7-1.9,2-3.1,4-3.3c1.7-0.2,3.9,1.4,4.6,3.1c0.9,2.1,0.2,5.5-1.4,7.1
			c-0.7,0.7-1.5,1-2.5,0.6C72.7,196.4,71.5,195.8,70.1,195.5 M75.4,179.7c-1.8,0.9-3.5,1.7-5.4,2.3c-3.4,0.9-4.6,0.1-4.4-3.3
			c0.2-4.3,2.8-7.3,5.9-9.8c1.2-0.9,2.2-0.3,2.3,1.7c0.1,2,0.5,2.6,2.3,1.2c0.7-0.6,1.6-0.9,2.5-1.1c3.8-1.1,4.5-0.5,4.6,3.7
			c0.4,1.9-0.5,2.9-2.6,3.3C78.7,177.9,77.1,178.9,75.4,179.7 M63.8,197.5c-2.5,1.4-4.2,0-4.2-3.6c0-2.4,1-4.5,2.4-6.3
			c1-1.4,2.1-1.1,3.2-0.1C67.8,189.9,67,195.7,63.8,197.5 M60,208.1c1.9-1.2,3.4-0.8,4.8,0.8c1.4,3.2,0.6,6.4,0,9.5
			c-0.4,1.8-1.2,2.2-3,1.8c-2.1-0.5-3.9-2.7-4.2-5.4C57.2,212.2,57.4,209.7,60,208.1 M64.4,228.6c0.8-2.1,1-2.4,3.2-1.7
			c3.3,1.1,6.7,2.1,9.2,4.6c1.2,1.2,3,2.5,2.3,4.3c-0.8,2-3.1,2.2-5.1,2.5c-3.6-0.4-6.8-1.7-8.8-4.8
			C64.4,232.1,63.7,230.5,64.4,228.6 M69.7,242.5c0.4-0.5,1.1-0.5,1.6,0c4.2,3.6,8,7.4,9.6,12.8c0.1,0.4,0.1,0.9,0.1,1.2
			c0,2.3-0.5,2.8-2.4,1.8c-1.4-0.7-2.8-1.7-4.1-2.6c-3-2.1-5.9-4.1-9.9-2.9c-0.9,0.3-1.3-0.2-1-1.1
			C64.6,247.9,67.2,245.3,69.7,242.5 M77.5,216c-3.2-1.7-4.8-4.5-5.2-7.4c-0.1-3.3,0.5-3.8,3.1-3.1c4.3,1.1,7.3,3.6,8.6,8.1
			c0.6,1.9-0.3,2.6-1.8,3C80.6,217,79,216.8,77.5,216 M86.5,224.3c3.5,0.9,6.8,5,7,8.7c0.1,1.5-0.8,2.3-2.7,2.4
			c-4.2,0.1-8.5-5.6-7.3-9.6C84.1,224.1,85.1,223.9,86.5,224.3 M85.7,172.6c-0.3-1.8,2.6-4.6,4.5-4.6c1.5,0,2.6,1.4,2.6,3.4
			c0,2.2-1,3.1-3.6,3.1C87.8,174.4,86,174.6,85.7,172.6 M86.5,236.8c2.3-0.4,4.6-0.2,6.9,0.5c3.4,1.1,3.6,1.2,3.5,4.7
			c0,3.6-0.3,3.9-3.9,4c-2,0.1-3.9,0.1-5.8-0.8c-1.4-0.7-2.7-1.5-3.3-3C82.6,239,82.8,237.4,86.5,236.8 M95,251.6
			c0.8-0.4,1.8-0.5,2.6-0.9c1.4-0.9,2.3-0.7,3,0.8c0.8,1.8,0.5,3-1.1,3.7c-0.6,0.3-1.3,0.4-2,0.6c-0.8-0.2-1.5-0.4-2.3-0.6
			c-0.9-0.3-1.4-0.8-1.4-1.7C93.7,252.6,94.2,251.9,95,251.6 M88.5,116.4c0.2-0.7,0.5-1.6,1.5-1.6c0.8,0,1.2,0.6,1.5,1.3
			c1.6,2.9,3.2,5.9,4.9,8.8c3.2,5.4,6.8,10.5,9.6,16.1c1,2,1.7,4.1,2.8,6c1.5,2.6,1,4.7-0.8,6.9c-1.6,2-2.3,2.2-4.3,0.6
			c-1.8-1.5-3.2-3.3-4.5-5.2c-2.8-4.1-5.5-8.3-8.2-12.5c-2.4-3.7-3.7-7.7-3.9-12.1C87.2,121.8,87.7,119.1,88.5,116.4 M47.9,115.3
			c-0.1-2.7,0.7-5,1.7-7.3c1-2.2,3.7-2.5,4.9-0.4c6.2,11.3,16.2,19,25.2,27.6c6.1,5.8,11.5,12.1,14.9,19.9c0.5,1.1,1.8,2.5,0.6,3.4
			c-0.9,0.8-2.4-0.4-3.5-1c-3.2-1.6-5.6-4.2-6.6-7.7c-0.6-2.1-1.7-3.4-3.2-4.8c-10.1-8.8-20.5-17.3-31.5-25.2
			C48.6,118.6,47.4,117.4,47.9,115.3 M-2.2,97.4c0.9-3.4,1.6-3.7,4.5-2c5,2.9,10,5.9,15,8.9c18.6,11,36.1,23.6,53.7,36.1
			c6.9,4.9,12.6,10.9,16.5,18.6c0.5,1,1.7,2.1,0.8,3.1c-0.9,0.9-2.2-0.1-3.2-0.5c-5.5-2.3-10.2-5.9-14.4-10.2c-2.9-3-5.9-5.7-10-7.3
			c-4.2-1.7-7.6-4.8-11.2-7.6c-5-3.9-10.2-7.3-16.5-8.6c-3.2-0.6-4.5,0.2-4.8,3.5c-0.2,1.7-0.1,3.5-0.1,5.2c0,0.8-0.4,1.3-1.3,1
			c-12.3-3.6-23.1-9.1-28.4-21.9c-1.3-3-1.5-6.3-1.8-9.4C-3.3,103.3-3,100.4-2.2,97.4 M-11,125.9c8.2,4.8,17.1,8.2,25.6,12.6
			c2,1,4,1.9,5.8,3.2c3.5,2.6,7.4,4,11.7,4.8c11.7,2.3,22.4,7.4,32.8,13c2.2,1.2,4.2,2.6,4.4,5.4c0.2,2-0.4,2.5-2.4,2
			c-5-1.2-9.7-3.1-14.4-5c-6.6-2.7-13.2-5.8-20-7.9c-2-0.6-4-1.3-6.1-1.5c-2.7-0.3-3.6,0.7-3.1,3.4c0.3,1.4,0.9,2.7,1.1,4
			c0.3,1.8-0.7,2.8-2.4,2.4c-7.6-1.7-15.4-2.1-22.9-4.2c-1.3-0.4-2.6-0.9-3.9-1.5c-2.8-1.3-4.9-3-5.6-6.5c-0.9-4-2.6-7.9-3.9-11.9
			c-0.9-2.9-1.7-5.8-1.7-8C-16.1,125.1-14.5,123.8-11,125.9 M-14.2,166.8c-0.5-1.9-2-4.2-0.8-5.5c1.1-1.2,3.4,0.4,5.1,0.8
			c11.2,2.9,22.7,4.8,34,7c9.6,1.8,19.1,3.8,28.3,7c2.8,1,2.8,1,2.6,4c0,0.6-0.2,1.2-0.2,1.7c0,3.2,0,3.3-3,4.3
			c-5.1,1.8-10.5,1.8-15.8,1.9c-1,0-2.1-0.1-3.1-0.2c-7.3-0.2-14.6-0.3-21.9-1.4c-2.7-0.4-5.6-0.2-8.3-0.2c-1.1,0-2.1,0-3-0.7
			C-6.3,180.3-11.9,174.8-14.2,166.8 M-7.9,196.3c-0.3-0.7-0.5-1.5-0.6-2.3c-0.2-1.9,0.4-2.4,2.4-2.2c2.9,0.3,5.7-0.5,8.6-0.1
			c4.7,0.7,9.4,1.4,14.1,2.2c6.4,1.1,12.7,0.1,19-0.8c2.7-0.4,5.3-0.4,7.9,0.4c3.1,1,5,4.1,4.7,7.3c-0.1,1.3-0.8,1.9-2,1.8
			c-7.9-0.2-14.9,3.2-22,5.9c-4,1.5-7.9,3.3-12.1,4.3c-1.1,0.3-2.3,0.4-3.7,0.5c-1.3,0.2-2.7-0.3-4-1.3
			C-1,207.8-5.1,202.6-7.9,196.3 M18.2,236.9c-1,0.6-1.9,1.1-3.2,0.3c-3.6-2.3-7.3-4.5-10.4-7.5c-0.7-0.7-1.4-1.6-2-2.4
			c-3.7-4.9-3.4-5.6,2.4-7.2c11.4-3,22.5-7,34.1-9.5c3.3-0.7,6.6-1.3,9.9-1.8c3.2-0.4,3.6,0.2,3.6,3.4c0,0.3-0.1,0.7-0.1,0.6
			c0,1.3-0.3,2.2,0,2.9c1.2,2.5-0.3,3.7-2.1,5c-5.7,4.1-12.1,6.9-18.4,9.7C27.4,232.4,22.7,234.4,18.2,236.9 M29.2,242.2
			c-1.4-1.1-1-2.2-0.4-3.3c0.9-1.8,2.5-3,4.1-4.1c3.8-2.4,7.9-4.4,11.6-6.9c2.4-1.6,5.4-2,8.3-1.9c0.5,0,1.2,0,1.4,0.9
			c-0.3,0.4-0.6,0.8-1,1.3c-2.8,3-6,5.4-9.4,7.6c-3.6,2.3-7.3,4.5-10.8,7C31.3,244,30.5,243.1,29.2,242.2 M35.3,280.1
			c-1.7-0.5-3.4-1.2-4.9-2.4c-3.1-2.3-5.2-5.6-7.7-8.5c-0.7-0.8-0.4-1.5,0-2.2c1.7-3.4,4.1-6.1,7-8.5c1.4-1.2,2.8-0.8,4.1,0.2
			c3.5,2.4,4.2,2.3,7.5-0.4c3.9-3.2,7.1-7,10.6-10.5c2.6-2.6,5.3-5.1,8.7-6.9c0.8-0.4,1.7-0.7,2.6-1s2-0.8,2.6,0
			c0.4,0.6-0.4,1.5-0.8,2.2c-7.7,13.2-16.7,25.6-27.3,36.7C36.5,280,36.3,280.1,35.3,280.1 M57.1,289.9c0.3,1.3,0.4,2.5,0.1,3.8
			c-0.2,0.6-0.4,1.4-1.2,1.5c-0.6,0.1-1.1-0.4-1.5-0.8c-0.8-1-1.3-2.2-1.6-3.4c-0.3-1.2-0.5-2.5-0.8-3.7c-0.1-0.5-0.3-1-0.8-0.8
			c-0.2,0.1-0.4,0.5-0.4,0.9c-0.4,1.9,0,3.7,0.5,5.5c0.5,1.9,1.3,3.7,1.8,5.6c0.3,1.2,1.4,2.7,0.3,3.5c-0.8,0.6-2-0.8-2.9-1.5
			c-2.5-1.7-4.7-3.8-6.8-5.9c-0.9-0.9-1.8-1.8-2.7-2.7c-2.5-2.5-2.8-3.9-1.3-7c1.4-2.9,3.9-4.9,5.8-7.3c0.8-1,2-0.4,2.6,0.6
			c0.7,1.1,0.9,2.4,1,3.7c0,0.3,0.2,0.8,0.3,0.8c0.3,0.1,0.6-0.2,0.7-0.6c0.7-1.4,1.5-2.7,2.6-3.7c1.4-1.3,3-2.3,5-1.4
			c1.8,0.8,2.3,0,2.1-1.7c-0.1-0.7,0-1.4,0-2.1s0-1.4,0-2.1c-0.1-0.7,0.3-1.8-0.8-2c-0.9-0.1-1,0.8-1.3,1.4
			c-0.5,1.4-1.6,1.6-2.8,1.3c-1.3-0.3-2.3-1-2.7-2.4c-0.9-3.3,0.4-5.5,3.7-6.6c1.2-0.4,2.4-0.7,3.3-1.7c1.6-1.8,2-1.8,3.8-0.4
			s2.9,3.4,3.3,5.6c0.4,1.9,1.2,3.1,3,3.9c1.9,0.8,3.5,1.8,3.4,4.2c0,0.5,0.3,0.9,0.8,0.9c0.3,0,0.7-0.3,0.8-0.6
			c0.5-1,0.6-2.2,0.8-3.4c0.3-2.2,1.2-2.8,2.9-2.5c1.7,0.3,2.4,1.3,2.2,3.3c-0.1,1-0.5,2-0.5,3.1c-0.1,1.2-0.6,1.6-1.7,1.6
			c-1.9,0-1.4,1.1-0.8,2.1c0.5,0.8,1,1.5,1.5,2.3c0.6,1,1,2.1,1.1,3.3c0.2,2.8-0.4,3.6-3.2,3.6c-1.5,0-3-0.4-4.4-1
			c-2.5-1.1-3-1.9-2.4-4.6c0.3-1.3,0.6-2.5,0.4-3.8c-0.1-1-0.6-1.8-1.7-1.9c-1.2-0.2-1.5,0.8-1.8,1.7c-0.3,1.3,0.3,2.9-1.1,3.9
			c-1.5,1-2.6-0.6-3.9-0.8c-3-0.5-5.8,2-5.4,5C56.5,287.7,56.8,288.8,57.1,289.9 M70.1,308.1c-0.6,1.4-1.5,1.6-2.7,0.7
			c-2.7-2-3.5-5.1-4-8.2c-0.3-1.7-0.3-3.5-0.4-5.1c0.3-2.5,0.2-5,0.9-7.3c0.7-2.1,1.8-2.4,3.4-0.9c0.5,0.5,0.7,1.2,0.8,1.9
			c0.9,4.3,1.8,8.6,2.8,12.9C71.3,304.1,71,306.1,70.1,308.1 M60.8,320.4c-2.4-0.1-2.9-0.9-1.7-3c0.8-1.4,2-2.5,3.5-3.3
			c7.2-3.6,14.6-4,22.2-1.5c1.9,0.6,3.5,1.7,4.6,3.5c1.2,2.1,0.8,3-1.6,3c-6,0.1-12,1-18,1.3C66.8,320.4,63.8,320.5,60.8,320.4
			 M75,325c-0.2,1.4-1.5,1.2-2.5,1.2c-0.6-0.1-1.6,0.2-1.6-0.6c0.1-1.4,1.3-1.7,2.5-1.8C74.2,323.7,75.2,323.8,75,325 M68.7,338.8
			c-0.9-2.5-0.8-5,0.4-7.4c0.4-0.7,1.2-0.6,1.9-0.6c4.7-0.1,9.5,0.2,14.2-0.7c1.8-0.4,2.6,0.7,2.8,2.3c0.1,0.9,0,1.9,0.1,2.8
			c0.3,2.2-0.7,3.2-2.7,3.5c-4.1,0.7-8.2,1.4-12.6,1.5C71.4,339.7,69.5,341.1,68.7,338.8 M91.4,358c-0.6,1.6-1.5,2.5-3.3,2.5
			c-2.3,0-4.6,0-6.9,0c0-0.1,0-0.2,0-0.3c-2,0-3.9-0.1-5.9,0c-1.9,0.1-3-0.3-3.3-2.5c-0.3-2.5-1.1-4.9-1.6-7.4
			c-0.5-2.9-0.2-3.6,2.5-4.9c2.2-1,4.6-1.5,7-1.6c0.8,0,1.6-0.1,2.4-0.1c6-0.1,6.3,0.1,8.4,5.9C91.9,352.3,92.5,355.1,91.4,358
			 M92.9,299.9c-0.4,1.6-1.1,2.8-2.8,3.1c-1.7,0.2-2.8-0.8-3.6-2.2c-1.5-2.5-1.8-5.2-1.6-7.9c-0.2-3.4,0.5-6.6,1.8-9.6
			c1.1-2.5,1.1-4.8,0.6-7.4c-0.9-4.3-1.9-8.6-1.7-13.1c0.3-6.4,1.7-7.5,8.1-4.9c5.2,2.1,5,2.3,4.5,8.1c-0.7,7.4-1,14.8-2.5,22.1
			C94.8,292,93.8,295.9,92.9,299.9 M221.2,397.6c-0.9,0.5-1.9,0.8-2.9,1.1c-3.7,1.2-4,1.6-3.4,5.5c0.3,2.1,0.7,4.1,1.1,6.2
			c0.7,3.9-0.5,6.8-3.9,8.9c-4.2,2.7-8.9,4-13.6,5c-5.6,1.2-11.3,1.4-17,0.9c-2.5-0.2-4.8-0.8-6.9-2.1c-3-1.8-3.2-4.2-0.7-6.5
			s2.7-3.5-0.4-5.1c-4.1-2.2-6.1-5.5-7.5-9.8c-1.2-3.8-3.4-7.4-5.2-11c-4.1-8.3-5.6-16.9-3.1-26c1.1-4-1.9-6.9-6-5.9
			c-7.7,1.8-15.5,1.1-23.2,0c-5.6-0.8-11.2-1.7-16.8-2.6c-1.1-0.2-2.3-0.4-3.4-0.7c-6-1.7-11.2-5.3-10.6-14.5
			c0.7-10.5,2.9-20.6,5.8-30.7c0.8-2.9,2.3-5.6,3.7-8.2c11.9-22.6,26.4-43.7,41.1-64.6c9.7-13.9,19.2-27.9,27.2-42.9
			c2.3-4.3,4.7-8.6,6.3-13.2c0.9-2.6,3.3-3.1,5-4.4c0.8-0.6,1.7,0.7,2.5,0.7c4,0.1,4.7,3.2,5.6,6c1.9,6.3,2,12.8,2.1,19.3
			c0,2.9,0,5.8,0,8.7c-1.1,13.8,1.8,27.2,4.5,40.7c1.1,5.5,1.9,10.9,1.3,16.6c-0.7,6.6,0.9,12.9,2.3,19.3c0.5,2.3,0.9,4.5,1.2,6.9
			c0.4,3.5,0,6.7-1.9,9.7c-2.3,3.8-1.8,8.1-2.3,12.2c-0.3,2.7-0.8,5.3-2.3,7.6c-1.7,2.6-2.6,2.9-5.4,1.5c-4.8-2.4-9.5-4.9-14.2-7.3
			c-0.6-0.3-1.2-0.6-1.8-1c-5.5-2.9-11-4.9-17.6-4.3c-6.4,0.6-13-0.1-19.4,1.5c-2.3,0.6-4.4,1.4-6.3,2.8c-1.6,1.2-1.6,1.9-0.2,3.3
			c0.9,0.9,1.9,1.3,3.1,1.3c1.7,0.1,3.3-0.3,4.7-1.1c6-3.2,12.3-2.6,18.7-1.4c9.4,1.9,18.1,5.8,26.3,10.6c1.2,0.7,2.3,1.4,2.3,3.1
			c0,5.3,2.1,10.2,3.9,15c1.2,3.1,2.5,6.2,3.4,9.5s1.1,6.6,0,9.9c-1.6,4.7-1.8,9.4-0.5,14.3s0.3,9.4-3.5,13.1
			c-1.4,1.4-2.8,2.8-3.8,4.5c-0.5,0.9-0.3,1.6,0.8,1.7c1.9,0.3,3.7,0,5.4-1c1.5-0.9,3-1.8,4.3-2.9c4.5-3.5,9.6-5,15.2-5.3
			c1.9-0.1,3.7-0.4,5.5-0.5c2-0.1,2.4,0.4,2.3,2.4C223.1,396,222.4,397,221.2,397.6 M231.7,225.9c0.6,11.9-1.7,23.2-5.5,34.4
			c-2.2,6.6-4.4,13.2-5.5,20.1c-0.6,3.6-0.2,7.2-0.4,10.8c-0.1,2.1-0.4,4.1-1.3,6.1c-1,2.2-2.6,3.8-4.9,4.7c-1,0.4-1.6,0.2-1.6-1
			c0-1-0.1-2.1,0-3.1c0.1-12.3-1.5-24.5-3.2-36.7c-2.4-16.6-5-33.2-5.8-50c-0.3-6.3,0.2-12.5,0.6-18.8c0.3-3.6,2.8-5.2,6.2-4.4
			c2.9,0.7,5.6,2.1,8.3,3.6c3.4,2,6.8,4,10.7,4.8c1.5,0.3,2.1,1.2,2,2.7c-0.2,1.8-0.2,3.7-0.3,5.1
			C231.2,211.8,231.3,218.9,231.7,225.9 M208.8,385.5c0.2,1.6,0,2.3-1.8,2.9c-4,1.3-4.6,1.2-5.5-2.9c-0.3-1.2-0.3-2.5-0.4-3.8
			c0-2.1,0.3-4.1,1.3-6.1c0.7-1.5,1.8-2.7,3.4-3.3c2.5-1,3.2-0.6,2.7,2.1C207.7,378.2,208.4,381.9,208.8,385.5 M256.7,389.5
			c-0.7,2.3-1,4.8-0.8,7.2c0.2,1.7-0.5,2.8-1.7,3.9c-7.9,6.7-16.5,11.9-26.5,15c-3.9,1.2-6.2-0.8-5.4-4.9c0.4-2.1,1.3-4,2.3-5.8
			c1.2-2.1,2.4-4.2,3.5-6.4c1-1.9,1.3-4,1-6.1c-0.5-2.9-2.3-4.8-5.1-5.6c-2.4-0.7-4.9-1.3-7.4-2c-3-0.9-3-1-3.1-4.1
			c-0.2-4.8,0.7-9.5,1.8-14.1c0.2-0.8,0.5-1.6,0.5-2.4c0.1-1.9-0.9-3-2.9-3.1c-0.8-0.1-1.7-0.1-2.4,0.1c-3.1,1.1-4.7-0.5-6.1-2.9
			c-4.3-7.2-4.1-14.8-2.1-22.5c1.4-5.5,3.8-10.7,5.9-16c0.6-1.4,1.5-2.1,3.1-2.4c6-1.3,11.8-0.6,17.5,1.1c4.8,1.4,9.3,3.5,13.8,5.7
			c1.2,0.6,1.8,1.3,2,2.6c0.8,4.6,2.7,8.8,4.7,13.1c2.6,5.8,4.9,11.8,4.8,18.3c0,0.3,0,0.7,0,1c-0.1,5.4,0,5.5-5.3,6.6
			c-8,1.7-14.4,5.7-18.2,13.2c-0.5,0.9-1.7,2.1-0.7,3.1c0.8,0.9,2.2,0.4,3.3,0.1c2.3-0.6,4.1-2.1,5.7-3.9c1.3-1.5,2.6-3,4-4.4
			c1.8-1.8,4-2.8,6.5-3c2-0.1,2.5,0.4,1.9,2.4c-0.1,0.4-0.3,0.9-0.5,1.3c-1.4,3.1-1.4,3.1,1.3,5.3c0.9,0.7,1.7,1.6,2.5,2.4
			C256.4,384.3,257.6,386.5,256.7,389.5 M353.4,335.1c0.2,6.2-0.6,11.7-2.7,17c-3.3,8.1-9.1,12-17.8,12c-2.3,0-4.6-0.2-6.9-0.8
			c-3.3-0.9-4.4-2.2-4.1-5.6c0.2-1.7,0.4-3.5,0.6-5.2c0.1-0.9,0-1.9-0.2-2.8c-0.8-2.4-3.2-2.8-4.9-1c-1.1,1.2-1.7,2.8-2.2,4.3
			c-1.1,3.6-3.4,5.6-6.9,6.8c-3.3,1.1-6.7,1.7-10.1,2.5c-2.7,0.6-5.4,1.3-7.9,2.7c-0.9,0.5-1.9,0.9-3,0.7c-5.6-1.1-11.4-0.5-17-1.3
			c-2.4-0.3-4.8-0.8-7-2c-1.8-1-2.7-2.2-2.5-4.5c0.5-4.5-1-8.8-2.8-12.8c-2.6-5.6-4.8-11.3-5.6-17.5c-0.6-5.1-3.9-8.5-8.4-10.9
			c-3.8-2-8-2.9-12.2-4c-2.5-0.7-4.9-1.4-7.3-2.2c-2.2-0.7-3.1-1.9-3.3-4.2c-0.6-5.9,0.2-11.6,2.5-17c1.4-3.2,2.9-6.3,4.2-9.5
			c1.6-3.8,2.7-7.6,2.5-11.8c-0.2-3.8,0.8-7.4,3.3-10.4c4.3-5.1,5.4-11.2,5.6-17.5c0.3-8.2,0.5-16.5,0.7-24.7
			c0.1-3.6,0.7-7.2,1.7-10.6c1.1-3.8,2.7-7.4,5.6-10.2c1.3-1.2,0.9-1.8-0.6-2.4c-4.2-1.6-8.5-2.2-12.9-2.8
			c-3.9-0.5-7.8-1.1-11.6-2.2c-3-0.9-5.9-2.1-8.1-4.5c-1.8-1.8-2.6-3.8-1.6-6.3c0.2-0.4,0.3-0.9,0.4-1.3c0.2-0.8,0.3-1.6-0.3-2.3
			c-0.8-0.8-1.5-0.1-2.2,0.2c-6.8,3.3-13.3,2.2-19.5-1.7c-4.1-2.5-7.6-5.8-10.5-9.5c-1.4-1.8-2.8-2.8-5.2-2.1
			c-2.9,0.8-5.8,0.1-8.5-0.9c-5-1.7-9.7-4.4-15.3-4.5c-1,0-1.5-0.7-1.6-1.5c-0.6-3.2-2-6.2-2.9-9.3c-0.9-3.4-0.1-4.8,3.3-6.1
			c0.3-0.1,0.6-0.3,1-0.4c4.9-1.7,4.9-1.7,2.6-6.6c-0.2-0.4-0.4-0.8-0.5-1.3c-0.8-2.6,0.7-4.4,3.3-4c4.1,0.7,7.8,2.3,11.3,4.3
			c1.1,0.6,2.2,1.2,3.3,1.9c0.8,0.5,1.5,0.6,2.2,0c0.7-0.7,0.7-1.4,0.4-2.2c-0.6-1.5-1.6-2.8-1.6-4.6c0-1.7,0.5-2.1,2.1-1.7
			c1.6,0.5,2.9,1.5,4.1,2.5c3.2,2.7,5.9,6,9.3,8.4c1.6,1.1,1.2,2.7,0.7,4.1c-0.4,1.2-1.2,2.3-1.6,3.5c-0.8,2-0.3,3.8,1.1,4.7
			c1.5,0.9,3.5,0.4,4.9-1.3c0.4-0.5,0.8-1.2,1.1-1.8c1.7-3,1.8-2.9,5.3-2.2c5,1,8.9,3.8,12.6,7.1c2,1.8,4,3.5,6,5.3
			c0.9,0.8,1.9,1.2,3.2,1c10.3-1.7,20,0.7,29.8,3.4c3.5,0.9,6.9,2,10.5,2.3c2.6,0.2,3.3-0.8,2.4-3.3c-0.5-1.4-1.5-2.3-2.7-3.1
			c-1-0.6-2-1.1-3.1-1.7c-2.9-1.5-4.4-3.8-3.8-7.1c0.4-1.8-0.4-2.3-1.9-2.5c-8.8-1.2-16.6-4.9-24.4-8.9c-3-1.5-3.4-2.5-2.8-5.8
			c0.4-2.5,1.7-4.5,3.8-6c0.7-0.5,1.5-1,2.3-1.5c4-2.4,4.3-4.5,1.3-8.3c-0.3-0.4-0.6-0.7-0.9-1c-2.2-2.2-3.5-4.4-1.4-7.6
			c1.4-2.2,1.6-5.1,2.2-7.7c0.4-1.8,1-3.6,1.5-5.3c0.2-0.6,0.6-1.3,1.5-1.2c0.8,0.1,1.2,0.7,1.4,1.3c0.5,1.2,0.6,2.4,0.4,3.8
			c-0.2,1.6-0.4,3.2-0.4,4.9c0,2.5,0.2,2.7,2.9,2.5c4-0.3,6.6-3.1,9.5-5.4c0.8-0.6,0.4-1.4,0-2.2c-0.9-2-2.6-3.3-4.2-4.5
			c-1.7-1.3-3.2-2.7-4-4.7c-0.8-2.1-0.4-2.9,1.7-3.1c3.6-0.4,7.2-0.3,10.8,0c1.5,0.1,2.2,0.8,2.2,2.4c0,2,0.2,3.9,0.4,5.9
			c0.7,5.9-0.1,11.3-3.8,16.2c-2.9,3.8-3.4,8.3-2.5,12.9c1.7,8.4,7.8,14.3,16.3,16c4.9,1,9.7,0.5,14.4-0.8c1.7-0.5,2.7-0.2,3.9,1.2
			c3,3.5,6.9,6.2,10.5,9.2c1.9,1.6,3.7,3.2,5.3,5c1.9,2.1,1.8,4-0.3,6c-1,1-2.3,1.6-3.6,2.1c-1.8,0.7-3,1.8-3.8,3.7
			c-1.9,4.7-5.3,8.4-8.2,12.4c-2.8,3.9-5,8-5.9,12.8c-0.6,3.4,0.1,6.7,0.6,10c0.4,2.4,0.9,4.8,1.4,7.2c0.9,3.9,0.4,7.6-1.2,11.2
			c-0.7,1.5-0.8,2.8-0.6,4.4c1.2,12.1,1.7,24.3,2.4,36.5c0.9,17.3,1.8,34.5,6.2,51.4c0.9,3.6,2.1,7.1,3.5,10.6
			c1.6,4,4.7,5.9,8.9,6.1c4.8,0.2,9.3-1.2,13.3-3.6c4.7-2.9,8.7-3.2,13.8-0.8c5.7,2.7,10.4,1,14.7-3.8c1.7-1.9,3.3-3.9,5.6-5.1
			c1.3-0.7,2-0.5,2.5,1c1.5,4.6,2.6,9.4,3.2,14.2C353.1,329,353.8,332.3,353.4,335.1 M351.9,289.7c-0.2,0-0.5,0-0.7,0.1
			c-2.9,0-3.9-1.3-3.2-4.1c0.6-2.7,2.3-5,3-7.7c0.3-1,1.1-1.1,1.9-1c2.5,0.3,3.9,2.4,5.8,3.6c0.2,0.1,0.2,0.6,0.2,1
			C359,284.4,354.9,289.2,351.9,289.7 M225.7,168.6c0,2.3-1.1,3.3-3.4,3.3c-2.3,0-3.9-1.1-4-2.9c-0.1-1.9,1.7-3.9,3.4-4
			C224.3,165,225.7,166.3,225.7,168.6 M230.3,346.3c-0.5-1.6,0.4-2.9,1.8-3.8c1.2-0.7,2.5-1.1,3.8-1.1c2.4,0,3.1,0.7,2.8,2.9
			c-0.4,3-2.4,4.8-5,4.6C232,348.8,230.8,347.8,230.3,346.3"/>
	</g>
</g>
</svg>
