<?xml version="1.0" encoding="utf-8"?>
<!-- Generator: Adobe Illustrator 19.0.0, SVG Export Plug-In . SVG Version: 6.00 Build 0)  -->
<svg version="1.1" id="Layer_1" xmlns="http://www.w3.org/2000/svg" xmlns:xlink="http://www.w3.org/1999/xlink" x="0px" y="0px"
	 viewBox="0 0 530 380.8" style="enable-background:new 0 0 530 380.8;" xml:space="preserve">
<style type="text/css">
	.st0{clip-path:url(#SVGID_2_);fill:#A11C1C;}
</style>
<g>
	<defs>
		<rect id="SVGID_1_" width="530" height="380.8"/>
	</defs>
	<clipPath id="SVGID_2_">
		<use xlink:href="#SVGID_1_"  style="overflow:visible;"/>
	</clipPath>
	<path class="st0" d="M528.1,26.3c-1.6-1.4-3.5-2.2-5.5-2.9c-3.9-1.4-7.9-2.2-11.9-2.6c-1.3-0.1-2.5-0.4-3.7-0.9
		c-12.6-4.9-25.6-8.2-39-9.6c-5.2-0.6-10.5-0.8-15.8-1c-3.8-0.1-7.5,0.5-11.3,0.7c-7.3,0.5-14.4,1.9-21.5,3.5
		c-0.9,0.2-1.7,0.5-2.3,1.2c-1.6,1.8-3.7,2.4-6.1,1.9c-1.8-0.4-3.6-0.3-5.3,0.4c-3.4,1.3-6.8,2.7-9.7,4.9c-2.9,2.2-5.7,4.5-8.4,7
		c-2.4,2.2-5,4.2-7.8,5.9c-2,1.2-3.7,1.3-5.9,0c-11.8-6.8-24.4-11.5-37.9-13.9c-2.5-0.4-4.7-1.5-6.6-3c-1.5-1.1-2.8-2.4-4.3-3.6
		c-0.9-0.8-1.5-1.7-1.7-3c-0.3-1.9-1.4-3.4-3.3-3.9c-2-0.5-3.7-1.5-5.3-2.7c-3.6-2.8-7.9-3.6-12.3-4c-0.4,0-1.1-0.1-1.1,0.4
		c-0.1,0.5,0.6,0.6,1,0.8c1.9,0.9,3.9,1.5,5.9,2c0.7,0.2,1.3,0.3,1.7,0.9c1.8,2.6,4.4,4.4,7,6.2c2.2,1.5,4.5,3,6.1,5.2
		c0.4,0.5,1.1,1.1,0.6,1.7c-0.4,0.5-1.1,0.2-1.7,0.1c-12.3-1-24.8-1.3-37.1-2.8c-1.1-0.1-1.5,0.1-1.3,1.3c0.4,2.8,0.5,5.6,0.3,8.4
		c-0.6,9.7-4.2,17.9-12,23.9c-1.8,1.4-3.6,2.9-5.4,4.2c-2.8,2.2-5.7,4.2-8.4,6.6c-2.5,2.2-4.9,4.6-6.8,7.4c-0.9,1.4-1,1.4-1.8,0
		c-0.1-0.1-0.1-0.3-0.2-0.4c-1.2-1.9-2.2-2.2-4.3-1.2c-1.1,0.6-2.1,1.4-3.1,2.2c-0.8,0.6-0.9,1.2-0.5,2.1c1.1,2.9,0.8,5.7-0.3,8.5
		c-0.9,2.3-2.4,4.3-4,6.2c-2.5,3-5.3,5.6-7.7,8.7c-0.3,0.4-0.7,0.8-1.2,1c-3.3,1.3-4.8,4-5.6,7.3c-0.3,1.4-0.6,2.8-0.8,4.2
		c-0.3,1.8-0.6,3.5-1.1,5.2c-0.8,2.4-2.3,4.1-5,4.6c-0.7,0.1-1.3,0.2-1.7,0.9c-1.4,3.1-3.4,5.9-4.6,9.2c-0.9,2.4-1.5,4.8-0.2,7.3
		c0.3,0.6,0.3,1.1-0.5,1.4c-1.9,0.6-2.9,2.2-3.8,3.9c-0.7,1.5-1.5,3.1-2.3,4.6c-0.9,1.7-2.2,3.1-4.1,3.6c-3.7,1.1-5.6,3.8-6.9,7.1
		c-0.8,2.1-1.4,4.2-2,6.4c-1.1,3.6-2.4,7-5.2,9.7c-0.3,0.3-0.5,0.7-0.8,1.1c-3.4,4.7-6.9,9.3-10.8,13.6c-2.2,2.5-4.8,4.8-6.6,7.5
		c-2.6,3.8-5.8,6.9-9.4,9.7c-2.6,2-5.2,4-7.7,6c-0.8,0.6-1.4,1.2-1.2,2.4c0.3,1.4-0.5,2.4-1.8,2.9c-1,0.4-2,0.5-3,0.6
		c-1.7,0.2-2.6,0.8-2.6,1.9c0.1,1.2-0.6,1.6-1.4,2c-1.4,0.7-2.8,1-4.3,0.9c-1.9-0.2-3.6-0.9-5.3-1.7c-1.8-0.8-3.6-1.8-5.5-2.4
		c-2.3-0.7-4.5-0.6-6.8,0.1c-0.4,0.1-0.9,0.3-0.8,0.6c0.1,0.4,0.6,0.1,0.9,0.1c2.4-0.1,4.7,0.4,6.9,1.6c5.3,2.9,6.2,7.6,2.2,12.1
		c-0.1,0.2-0.3,0.3-0.4,0.5c-0.3,0.4-1,0.7-0.7,1.3c0.3,0.6,1,0.7,1.6,0.6c1.4-0.2,2.5-0.9,3.6-1.7c2.2-1.5,4.1-3.4,6.1-5.2
		c2-1.9,4.2-3.5,6.7-4.8c13.2-7.1,25.5-15.5,35.8-26.6c1.1-1.2,2.3-2.3,3.5-3.5c0.5-0.5,1.1-1,1.7-1.5c0.6-0.4,1.2-1.3,1.9-0.7
		c0.6,0.5,0,1.3-0.3,1.8c-0.5,1.2-1.1,2.3-1.7,3.4c-2.2,3.8-4.4,7.6-6.3,11.6c-0.8,1.8-1.5,3.6-1.7,5.5c-0.1,1.2-0.1,2.3,0.9,3.1
		c0.8,0.6,0.6,1.3,0.5,2c-0.4,1.5-1.3,2.7-2.2,3.8c-1.5,1.7-3.1,3.2-4.5,5c-1.5,2.1-1.8,4.3-1,6.8c0.7,2,0.7,2-1.5,1.8
		c-0.3,0-0.6-0.1-0.9-0.1c-2.3-0.3-3.8,0.8-4.8,2.8c-0.3,0.7-0.6,1.4-1.1,1.9c-2.5,3.2-5.1,6.4-8.2,9.1c-3.7,3.3-7.9,5.9-12.8,6.7
		c-0.6,0.1-1.1,0.3-1.6,0.7c-1.6,1.5-3.5,1.8-5.6,1.7c-2.9-0.2-5.7-0.8-8.6-1.3c-2.2-0.4-4.4-0.5-6.6,0c-3.4,0.9-6.1,4.6-5.4,8.1
		c0.5,2.4-0.2,4.2-2.2,5.6c-1,0.7-2,1.4-2.1,2.7c-0.1,1.3-0.9,1.9-2,2.3c-1.4,0.6-1.5,1.2-0.7,2.6c0.2,0.3,0.4,0.6,0.6,1
		c0.4,0.8,0.2,1.3-0.7,1.4c-0.3,0-0.6,0-0.9,0c-2.5,0.3-2.7,0.9-1.4,3c0.6,0.9,0.3,1.1-0.5,1.4c-3.2,1-5.6,3-7.2,6
		c-0.6,1.2-1.2,2.4-1.6,3.7c-0.9,2.6-1.7,5.2-2.6,7.8c-0.7,2-1.6,3.9-2.9,5.5c-0.9,1.1-0.9,1.1,0.6,1.6c1.8,0.6,2.6,1.4,2.6,2.6
		c0,1.4-1.2,2.8-2.9,3.3c-1.4,0.4-2.8,0.2-4.1-0.5c-0.2-0.1-0.5-0.4-0.7-0.1c-0.2,0.3,0.1,0.5,0.3,0.8c1,1.6,2.6,2,4.3,2
		c4.1,0,7.7-1.5,10.6-4.4c0.2-0.2,0.4-0.7,0.9-0.5c0.4,0.2,0.4,0.6,0.4,1c0,2.6-1.3,4.6-3.4,5.9c-4.2,2.6-8.6,2.7-12.9,0.2
		c-0.9-0.5-1.8-1-2.8-1.4c-0.2-0.1-0.4-0.1-0.6,0.1c-0.2,0.2,0,0.4,0.1,0.6c0.5,0.6,1,1.3,1.5,2c0.5,0.8,1,1.6,0.3,2.5
		c-0.6,0.8-1.4,0.6-2.2,0.3c-0.9-0.2-1.7-0.4-2.6-0.6c-0.4-0.1-0.8-0.3-1,0.1c-0.3,0.6,0.4,0.7,0.7,0.9c0.2,0.2,0.5,0.3,0.8,0.5
		c3.8,2.3,8.2,2.4,12.4,3.2c1.1,0.2,2.2-0.2,3.2-0.7c0.5-0.3,1-0.7,1.6-0.8c1.4-0.3,2.5-1.8,3.9-1.3c1.3,0.5,1.3-0.1,1.4-1
		c0.2-1.4,0.8-2.7,1.6-3.9c0.2-0.3,0.5-0.8,0.8-0.7c0.4,0.1,0.2,0.7,0.1,1c-0.4,1.1,0,2,0.7,2.8c0.2,0.3,0.5,0.6,0.9,0.4
		c0.4-0.2,0.5-0.5,0.4-0.9c-0.1-1.3-0.3-2.5-0.8-3.7c-0.2-0.5-0.4-0.8,0.1-1.1c0.8-0.6,1.8-1.2,2.6-1c1.1,0.4,2.1,0.1,3.1,0
		c0.7-0.1,1.8,0,1.6,1.2c-0.3,1.9-0.6,3.8-1.1,5.7c-0.5,2-1.5,3.4-3.8,3.3c-0.7,0-1.1,0.2-1.4,0.9c-0.8,1.9-2.3,2.8-4.2,3.4
		c-0.9,0.3-1.8,0.7-2.7,1c-0.2,0.1-0.5,0.3-0.5,0.4c0,0.4,0.4,0.3,0.6,0.3c1.4,0.3,2.8,0.5,4,1.3c1.8,1.1,2.2,2.4,1.3,4.3
		c-0.6,1.3-1.6,2.3-2.6,3.3c-1.3,1.3-2.6,2.7-3.5,4.3c-0.3,0.4-0.5,1,0,1.4c0.4,0.3,0.8-0.2,1.1-0.5c1.9-1.7,3.7-3.6,5.3-5.7
		c4.6-6,8-12.7,11.4-19.4c3.1-5.9,4-12.2,3-18.8c-0.5-3.4-1.2-6.7-1.7-10.1c-0.7-4.6-1.3-9.3-0.4-14c0.2-1.1,0.5-2.1,1.2-3
		c2.4-3,5.3-5.4,8.4-7.6c4.4-3.3,9.1-6.2,14.5-7.6c0.9-0.2,1.7-0.5,2.5-0.9c3.9-1.9,8-3.1,12.1-4.5c6.2-2.1,12.4-4.2,17.5-8.6
		c0.5-0.5,1.3-0.8,1.9-1.1c7.5-3.6,14.2-8.3,20.3-13.9c3.9-3.5,7.2-7.5,10.9-11.1c10-9.7,18.8-20.3,27.2-31.2
		c8.3-10.8,16-22,24.2-32.9c3-3.9,5.5-8.1,7.1-12.8c1.2-3.4,3.2-6.6,6.4-8.4c3.3-1.9,6.7-3.7,10.2-5.4c4.5-2.2,9.3-1.8,14-0.5
		c5,1.3,9.7,3.4,14.4,5.3c6,2.4,11.7,2.2,17.1-1.6c2.9-2.1,5.2-4.6,6.8-7.8c1.5-3.1,1.5-3.1-1-5.6c-7.4-7.2-16-12.9-24.8-18.1
		c-1.2-0.7-2.5-1.2-3.9-1.4c0.6,0.7,1.4,1,2.1,1.4c2.8,1.7,6,3.1,8.4,5.4c1.3,1.2,2.6,2.2,4.1,3.1c2.6,1.6,5.3,3.1,7.6,5
		c4.7,3.9,5.4,7.5,2,12.6c-3.2,4.8-6.9,6.3-12.4,4.4c-3.4-1.2-6.6-3-9.2-5.3c-4.7-4.1-10-6.9-15.6-9.3c-0.1,0-0.1-0.1-0.2-0.1
		c-4.8-2.2-9.7-4.1-15-4.8c-1.9-0.3-3.4,0.1-4.8,1.6c-2.4,2.6-5.3,4.5-8.8,5.4c-1.8,0.5-1.8,0.5-1.2,2.2c0.8,2,1.2,4,1.3,6.1
		c0.1,0.9,0.5,2.4-0.3,2.7c-1.1,0.4-1.3-1.1-1.7-1.9c-0.6-1.1-1-0.6-1.3,0.1c-1,1.8-3,2.1-4.9,1.3c-1.3-0.5-2.4-1.2-3.5-2
		c-1.2-0.8-2.5-1.7-3.7-2.4c-0.7-0.4-1.2-0.2-1.1,0.7c0.1,0.8,0.4,1.6,0.7,2.3c0.5,1.3,0,2-1.4,1.8c-1.3-0.2-2.1-1.1-2-2.5
		c0.4-4.8,2.7-8.7,6.1-12c0.2-0.2,0.5-0.4,0.8-0.4c2.2-0.3,3-2,3.7-3.7c0.4-1,0.8-1.9,1.2-2.9c0.5-1,1.1-0.9,1.7-0.1
		c0.2,0.2,0.3,0.5,0.5,0.7c0.3,0.5,0.6,0.9,1,0c0.8-2,2.3-3.4,3.8-4.9c2-1.9,4.2-3.6,5.9-5.8c0.8-1.1,1.9-1.6,3.1-2
		c3-0.9,6.1-0.9,9.3-0.6c4.6,0.4,9.3,1.4,14,0.8c0.5-0.1,0.9,0,1.1,0.5c1.1,2.3,3.3,1.9,5.2,2.2c0.2,0,0.6-0.1,0.6-0.2
		c0.1-0.3-0.2-0.5-0.5-0.6c-1.3-0.6-2.6-1.1-4-1.4c-0.2-0.1-0.8-0.1-0.6-0.4c1-1.3-0.4-0.8-0.7-0.8c-6.5-0.7-13-1.4-19.5-2.2
		c-1-0.1-1.9,0-2.9,0.2c-10.1,2.2-20,4.9-29.8,8.5c-0.6,0.2-1.4,1.2-2,0.4c-0.5-0.7,0.4-1.5,0.8-2.1c0.6-0.9,1.5-1.7,2.4-2.3
		c1.6-1,3.3-1.8,5-2.4c5.3-1.8,10.8-2.7,16.2-3.9c12-2.7,24-5.2,36.3-5.8c7.8-0.4,15.6,0.1,23.2,2.1c2.9,0.8,5.8,1.2,8.8,1.4
		c7.5,0.7,14.1-1.1,19.5-6.6c0.5-0.5,1.4-1.1,0.9-1.6c-1.2-1.3-0.3-2.7-0.3-4c0.1-4-1.1-7.5-4.1-10.3c-1.7-1.6-3.4-3.4-4.8-5.3
		c-1.1-1.5-2-3.2-2-5.1c0-0.9-0.4-1.2-1.2-1c-4.6,1.1-9.1,0.3-13.6-0.9c-5.2-1.4-10.3-2.7-15.7-2.8c-5.7-0.2-11.9-5.3-13.5-10.6
		c-0.7-2.3-0.4-4.4,1.5-6.1c1.6-1.5,3.6-2.4,5.9-2.3c7.6,0.3,15.3,0.6,22.9,1.3c10.4,1,20.6,2.9,30.3,6.9c4,1.6,7.2,4,9.9,7.4
		c2.4,3,4.2,6.3,6.2,9.5c0.6,1.1,1.3,2.1,1.9,3.3c4.3,8.1,11.2,12.6,19.9,14.8c11.9,3,23.8,1.9,35.5-0.8c10.2-2.3,20.1-5.5,29.8-9.2
		c13.5-5,27-10,40.1-16.1c7.4-3.5,14.7-7.1,21.6-11.5c1.6-1,3.1-2.1,4.2-3.6C530.6,30.4,530.4,28.3,528.1,26.3 M158.6,208.2
		c-1,1-2.2,1.6-3.5,2.3c-0.2,0.1-0.4,0-0.6,0c0-0.2,0-0.5,0.1-0.6c1.1-1.4,2.4-2.5,3.9-3.4c0.4-0.2,0.7-0.1,0.9,0.1
		C159.3,207.3,159,207.8,158.6,208.2 M220.4,181.3c-0.5,1.8-1.2,3.5-2.7,4.7c-2,1.8-4.3,3.1-7.4,3.9c-1.1,0.4-2.3-0.3-3.3-1.4
		c-1-1.2-0.8-2.6,0-3.7c2.7-3.7,6.3-6,10.9-6.5C220,178.2,220.9,179.4,220.4,181.3 M241.2,150.4c0,0.4,0,0.7,0,1.1
		c0,0.6,0.2,1.3-0.6,1.5c-0.6,0.2-0.9-0.4-1.3-0.7c-0.4-0.3-0.7-0.7-1.1-1.1c-1.4-1.1-1.9-1.2-3.3-0.1c-3.6,2.8-3.8,2.7-6.1-1.1
		c-0.2-0.3-0.4-0.6-0.6-0.9c-0.3-0.4-0.4-0.9,0.4-0.8c2.4,0.6,4.5-0.3,6.8-0.7c1.9-0.3,3.5,0.2,5,1.3
		C240.8,149.3,241.2,149.8,241.2,150.4 M246.7,146c-0.4,0.8-0.8,1.6-1.7,1.9c-0.2,0-0.3,0-0.4-0.1c-0.6-0.6-0.5-1.3-0.2-2.1
		c0.2-0.7,0.5-1.2,1.3-1.2C246.6,144.5,247.1,145.2,246.7,146 M277.5,68.7c-0.9,0.2-1.3-0.2-1.3-1c0-1.6,0.5-3.2,1.6-4.5
		c0.4-0.5,0.9-0.8,1.5-0.5c0.6,0.3,1,0.6,1.1,1.3C280.8,65.4,279,68.3,277.5,68.7 M288.9,74.8c-0.6,0.6-1.2,1.1-2.4,1.3
		c-0.8,0.1-1.8-0.3-2.4-1.2c-0.6-0.8-0.9-1.8-0.3-2.7c0.5-1,1.4-1.5,2.6-1.3c0.5,0.1,1,0.1,1.5,0.2
		C289.8,71.6,290.3,73.4,288.9,74.8 M288.7,60.8c-0.2,1.8-1.2,2.8-2.7,2.5c-1-0.2-1.7-0.8-2.4-1.5c-1.1-1.1-2-2.4-2.5-3.7
		c-0.2-0.7-0.3-1.2,0.1-1.7c0.1-0.2,0.3-0.3,0.5-0.4c0.3-0.1,0.4,0.1,0.5,0.3c0.1,0.3,0.1,0.6,0.3,0.9c0.7,1.7,1.2,2.1,3,2.1
		c0.4,0,0.9,0,1.3,0C288.4,59.5,288.8,59.8,288.7,60.8 M314.3,63.9c0.5-1.7,1.5-2.4,3.3-2.3c1.3,0.1,2.5,0.4,3.7,0.7
		c1.5,0.4,3,0.9,4.5,1.1c1.1,0.2,2.2,0.4,3.3-0.2c4.4-2.4,8.8-1.7,13.1,0c3,1.2,5.6,3.1,7.5,5.7c2.5,3.5,2.4,7.1-0.3,10.4
		c-0.9,1-1.8,2-2.8,2.9c-1.4,1.4-1.7,1.5-4.5,2c-3.5,0.4-7.7-0.4-11.6-2c-6.6-2.8-12.1-6.9-15.8-13.2
		C313.8,67.4,313.8,65.7,314.3,63.9 M311.4,62c0.4,0,0.7,0.5,1,1.8c0,0.1,0.1,0.4,0,0.7c0,0.2-0.1,0.4-0.3,0.5
		c-0.3,0.2-0.6,0.1-0.8-0.1c-0.2-0.2-0.4-0.5-0.5-0.7C310.6,63.2,310.9,62,311.4,62 M303.6,59.7c0.3-0.2,0.6,0,0.8,0.1
		c1.1,0.6,1.9,2.1,2.3,4c0,0.3,0.1,0.7-0.3,0.9c-0.3,0.1-0.5-0.2-0.7-0.4c-1-1.1-1.7-2.4-2.2-3.8C303.3,60.2,303.3,59.9,303.6,59.7
		 M304.7,64.1c0.8,0.9,1.5,1.8,2.5,2.5c1.2,0.9,1.1,1.6-0.1,2.4c-0.6,0.4-1.2,0.5-2.2,0.7c-1.5,0.1-3.4,0.3-5.1-0.5
		c-1.3-0.5-1.4-1.1-0.5-2.1c0.2-0.2,0.4-0.4,0.6-0.6c0.6-0.8,0.5-1.4-0.6-1.5c-1.9-0.3-3.8,0.1-5.8,0.2c-1.7,0.1-1.9,0-2-1.7
		c-0.1-3.8,1.8-5.3,5.5-4.4C300.1,60,302.6,61.8,304.7,64.1 M368.8,41c-3.7-3.2-8-5.2-12.7-6c-5.1-0.9-9.9-2.5-14.9-3.7
		c-4.6-1.1-9.1-2.2-13.8-1.8c-0.6,0.1-1.1-0.2-1.5-0.7c-1.2-1.8-1.9-2-3.9-1.3c-0.6,0.2-1.1,0.5-1.6,0.7c-0.4,0.2-0.9,0.3-0.9-0.4
		c-0.1-1.1-0.8-1-1.6-0.9c-1.1,0.2-2.2,0.5-3.2,0.9c-2.4,0.8-4.7,1.2-7.1,0.1c-1.1-0.5-2.5-0.3-3.7-0.1c-3,0.5-6,0.9-9,1.3
		c-0.5,0.1-1,0.1-1.6,0c-0.7,0-1.6,0.1-2-0.6c-0.4-0.8,0.3-1.4,0.8-1.9c0.4-0.4,0.4-0.7-0.2-0.9c-1.1-0.4-2.2-1-3-1.9
		c-1.6-1.5-1.3-2.7,0.8-3.4c0.5-0.2,1-0.3,1.6-0.4c5.4-0.5,10.8-0.4,16.2-0.1c10.8,0.5,21.4,2.1,32,3.7c1.5,0.2,2.9,0.5,4.4,0.6
		c6.6,0.6,12.5,3.2,17.7,7.2c2.1,1.6,4.1,3.2,5.9,5.1c1.9,2,4.2,3.5,6.3,5.3c1.2,1,2.3,2.2,3,3.6c0.1,0.3,0.3,0.6,0.1,0.8
		c-0.2,0.2-0.6,0.1-0.8-0.1C373.4,44.6,371,42.9,368.8,41 M377.4,50.9C377.5,51,377.5,51,377.4,50.9c0,0.1-0.1,0-0.1,0
		C377.4,50.9,377.4,50.9,377.4,50.9 M481.9,51.4c-0.5,0.6-1.2,0.8-1.9,1.2c-2.8,1.3-5.7,2.2-8.6,2.9c-3.3,0.9-6.5,2.1-9.8,3
		c-5.9,1.8-11.9,3.3-17.8,4.9c-7.9,2.1-16,3.4-24.2,4c-6.7,0.6-13.5,0.4-20.2-0.7c-6.5-1-12.1-4-16.6-8.8c-1.9-2.1-3.9-4.2-5.2-6.8
		c1,0.2,1.7,1,2.6,1.6c2.8,1.9,5.5,3.8,8.4,5.5c5.3,3,11,4,16.9,3.8c2.1-0.1,4.2,0,6.2,0.1c1.2,0.1,2.5-0.1,3.7-0.4
		c1.9-0.5,3.9-0.7,5.9-0.8c2.7-0.2,5.3-0.7,7.9-1.1c5.6-0.9,11.2-1.7,16.7-3c4.4-1,8.9-1.9,13.3-2.8c6.3-1.4,12.6-2.2,18.9-3.2
		c1-0.2,2.1-0.2,3.1-0.3c0.3,0,0.8-0.2,0.9,0.3C482.3,50.9,482.1,51.2,481.9,51.4 M493.8,26.8c-0.2,1-0.6,2-1.1,2.9
		c-1.2,2.2-2.5,4.4-3.7,6.6c-0.4,0.7-0.9,1.4-1,2.2c-0.3,2.1-1.8,2.9-3.5,3.6c-3.6,1.6-7.5,2.6-11.3,3.4c-6.3,1.4-12.5,3.3-18.2,4.3
		c-7.9,1.6-15.3,2.5-22.7,2.6c-0.4,0-0.9,0-1.3,0.2c-8.6,2-17.1,1-25.5-1.1c-2.9-0.7-5.7-1.5-8.6-2.4c-4.4-1.3-6.7-5.7-5.3-10
		c1-3.2,3.2-5.5,5.6-7.6c0.5-0.4,1-0.9,1.6-1.2c0.6-0.4,0.8-0.8,0.5-1.5c-0.2-0.4-0.3-0.8-0.4-1.3c-0.4-2,0.2-3.3,2.1-4.1
		c1.4-0.6,2.8-1,4.3-1.3c1.4-0.2,2.8-0.6,3.8-1.6c0.5-0.5,0.9-0.6,1.5-0.1c1.2,1,2.2,0.5,3.2-0.4c0.5-0.5,0.9-1,1.3-1.5
		c1-1.2,2.1-1.5,3.7-1.6c5.5-0.6,10.9-1,16.2-2.6c1.9-0.6,3.9-1.1,5.6-2c1-0.5,1.9-0.3,2.8-0.1c2.9,0.7,5.8,1.4,8.6,2.1
		c0.9,0.2,1.9,0.5,2.8,0.6c0.6,0.1,1.5,0.6,1.8,0c0.2-0.5-0.8-0.7-1.1-1.2c-0.1-0.2-0.4-0.4-0.3-0.5c0.1-0.3,0.5-0.3,0.8-0.2
		c1.9,0,3.7,0.4,5.5,0.9c3.5,1,7,2,10.5,3.1c3.2,0.9,6.5,1.6,9.8,1.6c1.1,0,1.5,0.4,1.6,1.3c0.1,0.8,0.2,1.6,0.4,2.4
		c0.4,2.4,0.9,2.8,3.2,2.7c1,0,2.1-0.2,3.1-0.3c0.8-0.1,1.6-0.2,2.4,0.1C493.5,25,494.1,25.6,493.8,26.8 M512.3,38.9
		c-0.1,0-0.1,0-0.2,0c-0.6-0.1-1.6,0.1-1.7-0.6c-0.1-0.7,0.9-0.8,1.5-1c0.2,0,0.3,0,0.5,0c0.7,0.2,2.1-0.5,2.1,0.3
		C514.6,38.5,513.2,38.6,512.3,38.9 M527.3,30.4c-0.5,1.7-1.3,3.1-3.2,3.7c-1.5,0.5-2.9,1.1-4.3,1.7c0,0,0-0.1,0-0.1
		c-0.3,0.1-0.6,0.1-0.9,0.2c-0.4,0.1-0.8,0.1-1-0.3c-0.1-0.3,0-0.6,0.2-0.8c2.2-1.5,2.5-3.9,3.1-6.3c0.4-1.8,2.5-2.7,4.3-2.1
		C527.1,26.9,527.9,28.5,527.3,30.4 M9.8,217.9c0.7-1.4,2.9-2.6,4.3-2.3c1.4,0.3,2.2,1.3,2.5,3.3c0.1,0.8,0.2,1.6,0.4,2.4
		c0.1,0.4,0,1,0.5,1.1c0.6,0.1,0.6-0.6,0.7-1c0.3-2,0.5-4-0.5-5.9c-0.4-0.7-0.6-1.4-0.3-2.3c0.8-2.4-0.1-4.4-2-5.9
		c-0.8-0.6-0.8-1,0.1-1.3c3.4-1.4,5.8-3.8,7-7.3c0.2-0.5,0.5-0.9,1.1-1c1.2-0.2,2.3-0.7,3.4-1.1c0.6-0.2,1.3-0.6,1.9,0
		c0.6,0.6,0.1,1.3-0.1,1.9c-0.4,1.3-0.8,2.5-1.2,3.8c-0.1,0.3-0.1,0.8,0.2,1c0.4,0.2,0.7-0.2,0.9-0.5c1.1-1.5,2-3.1,2.4-5
		c1-4.7,3.7-8.4,6.8-11.8c0.4-0.4,0.9-0.8,1.4-1.2c1.2-0.8,2-0.3,2.1,1.1c0,1-0.2,1.9-0.1,2.9c0,0.9,0.8,1.9,0.3,2.8
		c-0.5,0.9-1.7,0.9-2.5,1.3c-1.3,0.7-1.6,3-0.4,3.7c1.6,0.9,2.1,2.5,2.5,4c1.4,5.7,2,11.4,1.1,17.2c-0.1,0.5-0.1,1-0.1,1.5
		c0.6,7.2,2,14.3,3.8,21.3c1.8,7,3.8,13.9,5.8,20.8c0.8,2.7,1.5,5.4,2.6,8c1.9,4.7,4.4,9.3,6.3,14c1.5,3.8,3.3,7.5,3.2,11.7
		c0,1.6,0.6,1.9,2.1,1.1c0.5-0.3,0.9-1,1.5-0.5c0.6,0.4,0.3,1.1,0.3,1.7c-0.2,1.5,0,3,0.4,4.4c0.1,0.6,0.3,1.2,1.1,1.2
		c0.8,0,0.9-0.7,1-1.3c0.3-2.1,0.3-4.3,0-6.4c-0.8-5.9-2.9-11.3-4.6-17c-1-3.5-1.9-7-2-10.7c-0.2-5.2-1.4-10.1-3-15
		c-1.7-5-4-9.8-5.9-14.6c-0.8-2-0.9-2,0.9-3.4c3.7-3,4.3-5.6,2.3-10c-0.4-1-0.5-1.8-0.3-2.8c0.5-2,0.6-4.1,0.6-6.2
		c0-4.1-0.7-8.1-0.5-12.2c0-0.7-0.3-1.9,0.5-2.2c0.6-0.2,0.9,1,1.4,1.5c0.2,0.3,0.4,0.7,0.9,0.5c0.4-0.1,0.4-0.6,0.5-1
		c0.2-1,0.3-1.9,0.9-2.7c0.9-1.3,1.8-1.4,3.1-0.5c0.4,0.3,0.7,0.5,1.1,0.7c0.7,0.3,1.2,0.1,1.5-0.5c0.8-1.4,0.1-3.7-1.4-3.8
		c-1.7-0.2-1.7-1.1-1.7-2.3c-0.1-3.1,0.3-6.1,1-9c1.1-4.2,2.3-8.5,3.3-12.7c1.2-5,3.4-9.7,6.2-14c2.8-4.2,6-7.9,9.2-11.7
		c0.5-0.6,1.1-1,1.1-1.9c0-0.5,0.1-0.9-0.3-1.2c-0.4-0.3-0.8-0.1-1.2,0.1c-0.8,0.4-1.3,1-1.9,1.5c-1.2,1.1-2.3,2.3-3.5,3.5
		c-0.2,0.2-0.5,0.6-0.9,0.3c-0.3-0.3-0.2-0.7-0.1-1c0.1-0.4,0.3-0.9,0.4-1.3c1.4-4.1,3.2-8,5.5-11.7c1.8-3,3.7-6,6.5-8.3
		c0.1,0.8-0.3,1.4-0.5,2.1c-0.7,3-0.9,5.9,0.4,8.7c0.8,1.8,2.2,2,3.5,0.6c1.2-1.3,2.1-2.8,2.1-4.8c0-4.1,0.1-8.2,0.3-12.2
		c0.3-5.6,1.2-11.1,3.2-16.3c0.6-1.7,1.7-3,2.8-4.2c0.2-0.3,0.6-0.5,1-0.4c0.5,0.2,0.5,0.7,0.4,1.1c-0.1,0.9-0.3,1.8-0.5,2.6
		c-0.4,1.8-0.9,3.6-1.3,5.4c-0.2,0.7-0.2,1.5-0.3,2.2c0,0.2,0.2,0.5,0.3,0.5c0.2,0.1,0.4,0,0.6-0.2c0.7-0.5,0.8-1.4,1-2.2
		c2.1-8.6,4.3-17.2,6.5-25.7c1.1-4.1,2.1-8.2,2.5-12.4c0.9-8.4,5.1-14.9,11-20.5c1.2-1.2,2.6-2,4.2-2.5c2.4-0.7,4.8-1.3,7.2-1.4
		c5.3-0.2,10.5-0.2,15.8-0.2c3.2,0,6.4,0.4,9.5-0.3c4.4-1.1,8.5-0.6,12.7,0.9c2.9,1,5.8,2.2,8.9,2.9c3.2,0.7,6.3,0.5,9.2-1.3
		c1.3-0.8,2.7-0.9,4.1-0.9c2.2,0,3.3,1.4,3.2,3.6c-0.1,2.2-1,4.2-1.9,6.1c-2.4,4.9-6,8.8-10.2,12.2c-1.6,1.3-2.8,1.2-4.3-0.2
		c-1.3-1.2-2.2-2.8-3.2-4.3c-0.2-0.3-0.4-0.8-0.8-0.7c-0.5,0.1-0.4,0.7-0.4,1.1c0.1,2.1,1,3.9,2.4,5.3c1,1,2.1,1.9,3,2.9
		c0.7,0.8,1.3,1.8,0.7,2.8c-1.6,2.5-3.4,5-5.2,7.4c-0.6,0.8-1.5,0.6-2.1-0.1c-0.8-0.9-1.2-2-1.6-3.2c-1.1-3.4-2.4-6.7-4.1-9.8
		c-0.3-0.5-0.6-1.5-1-1.3c-0.5,0.2,0,1,0.1,1.6c0.4,2.4,1.2,4.6,1.8,6.9c1,3.9-1,6.4-4.9,6.6c-2.3,0.1-4.6-0.1-6.9-0.4
		c-2.7-0.3-5.3-0.7-8-0.7c-1.7,0-3.2,0.3-4.8,0.7c-0.5,0.1-0.9,0.4-1.2,0.8c0.4,0.1,0.9,0.2,1.3,0.3c0.7,0.1,1.5,0.1,2.2,0.1
		c3.6,0.2,7.1,0.2,10.7,0.6c2,0.3,4,0.6,5.8,1.5c2.3,1.1,2.9,2.8,2.1,5.2c-0.5,1.4-1.2,2.7-2.6,3.5c-0.6,0.3-1.1,0.8-1.6,1.2
		c-0.2,0.2-0.7,0.5-0.4,0.9c0.1,0.1,0.5,0.1,0.8,0.1c1.4-0.2,2.7-0.7,4-1.2c5-2,9.9-4.1,13.8-7.9c2.3-2.1,4.9-3.8,7.6-5.4
		c3.1-1.8,6.2-3.6,9.2-5.4c2.8-1.7,5.7-3.3,7.9-5.7c3.7-4.1,7.7-7.9,11.5-11.9c3.4-3.6,6.5-7.4,8.5-11.9c1.6-3.6,3.7-6.9,5.8-10.3
		c3-4.8,6.8-9,10.5-13.3c2.6-3,5.3-6.1,7.9-9.1c0.2-0.2,0.5-0.5,0.3-0.8c-0.2-0.3-0.5-0.1-0.8-0.1c-3.8,0.6-7.6,1.2-11.5,1.7
		c-5.1,0.6-10.2,1.1-15.3,1.3c-4.5,0.3-9,0.4-13.6,0.5c-4.9,0.1-9.8,0.7-14.7,0.7c-2.8,0-5.5-0.2-8.2-0.9c-0.3-0.1-0.9,0-0.9-0.5
		c0-0.4,0.4-0.6,0.8-0.7c0.3-0.1,0.6-0.2,0.8-0.3c3.9-1.8,8-3.2,12.1-4.6c4.1-1.4,8.2-2.6,12.4-3.8c4.2-1.1,8.4-2,12.4-3.6
		c4.1-1.6,8.4-1.9,12.6-2.5c0.9-0.1,2.5,0,2.5-0.8c-0.1-0.9-1.6-0.4-2.5-0.5c-0.1,0-0.1,0-0.2,0c-6.1,0.8-12.2,1.7-18.2,3.1
		c-7.7,1.8-15.3,3.8-22.8,6.1c-4.3,1.3-8.7,2.3-12.9,4.2c-4,1.8-8.3,2.9-12.6,3.8c-9.7,1.9-19.6,2-29.5,2.4c-4,0.2-8,0.2-12,1.1
		c-2.1,0.5-4,1.2-5.5,2.7c-2.1,2-3.4,4.3-2.2,7.3c0.7,1.8,1.3,3.6,0.3,5.6c-0.3,0.7-0.3,1.6,0.1,2.4c0.5,1,0.3,2,0.1,3
		c-1.1,4.4-3.3,8.3-5.8,12c-2.8,4.1-5.4,8.3-6.8,13.2c-0.6,2.1-1.5,4-2.3,6c-4.7,11.5-10.5,22.5-15.8,33.7
		c-3.1,6.4-6.3,12.8-8.6,19.6c-1.8,5.2-3.9,10.3-6.4,15.2c-3.6,7.2-7.7,14.1-11.1,21.4c-1.7,3.5-3.1,7.1-4.4,10.7
		c-0.8,2.2-1,4.5-1.6,6.7c-0.9,3.4-2.5,4.1-5.6,2.6c-1.6-0.8-3.1-1.7-4.7-2.6c-3.1-1.8-6.3-1.8-9.6-0.3c-4.8,2.1-9.2,4.9-13.6,7.6
		c-7.2,4.5-13.9,10-22.1,12.7c-2,0.7-2.8,2.3-2.6,4.5c0.1,0.7,0.3,1.5,0.5,2.2c1.2,3.2,3.1,6.1,3.4,9.6c0,0.5,0.3,1.1,0.8,1.3
		c1.1,0.3,2.3,0.7,3.4,0.7C9.3,219.8,9.4,218.6,9.8,217.9 M122.6,33.8c0.4-3.2,2.1-5.7,4.3-7.8c1.4-1.4,3.2-2.2,5.3-2
		c3.6,0.3,7.1-0.3,10.7-0.5c7-0.5,14.1-0.9,21.1-1.1c8.7-0.3,17.4-0.5,26-0.7c9.6-0.2,19.3-0.3,28.9-0.4c5.6,0,11.3,0,16.9,0.1
		c1.1,0,2.2,0.2,3.3,0.6c1.4,0.5,1.6,1.5,0.7,2.6c-0.5,0.7-1.3,1.2-2.1,1.7c-2.9,1.6-6,2.4-9.2,3.5c-1.6,0.1-3.2,0.4-4.9,0.2
		c-2.4-0.2-4.7,0-7.1,0.4c-10.4,1.5-20.6,3.7-30.9,5.7c-5.9,1.1-11.8,2.1-17.8,2.8c-0.4,0-0.7,0.1-1.1,0.1c-0.4,0-1,0.1-1.2-0.3
		c-0.1-0.3,0.6-0.4,0.9-0.6c0.3-0.2,0.7-0.4,0.6-0.8c-0.1-0.4-0.6-0.5-0.9-0.5c-2.5-0.3-5,0-7.5,0.3c-6.8,0.9-13.5,0.4-19.7-2.8
		c-2.3-1.2-4.4-2.8-6.2-4.7c-0.3-0.3-0.6-0.9-1-0.8c-0.5,0.1-0.2,0.7-0.3,1.1c-0.3,1.3-0.7,2.6-1.3,3.8c-0.6,1.4-1.2,2.9-1.8,4.3
		c-0.3,0.8-0.4,1.9-1.6,1.8c-1.3,0-2.5-0.1-3.2-1.5C122.8,36.8,122.5,35.4,122.6,33.8 M61,178.3c0-0.1,0.1-0.3,0.1-0.4
		c0.1-0.5,0.1-1.2,0.7-1.2c0.7,0,0.6,0.7,0.8,1.1c0,0.2,0.1,0.3,0.1,0.5c0,0.9-0.9,2.6-1.2,2.4C60.6,180.1,61,179.2,61,178.3
		 M53,224c0.7,0,0.8,1,1.1,1.6c0.1,0.6,0.1,1.3-0.4,1.4c-0.9,0.1-1.2-0.6-1.4-1.4C52.2,224.9,52.3,224,53,224 M47.9,212.5
		c0.8,0.1,1.7,0,1.8,0.7c0.1,0.9-0.6,1.8-1.4,2.3c-0.5,0.3-0.7-0.1-0.7-0.5C47.4,214.2,46.9,213.2,47.9,212.5 M266.1,33.7
		c-0.5-1.4-0.1-2.4,0.7-3.5c2.3-3.3,4.8-6.4,6.8-9.9c0.4-0.7,0.8-0.5,1.3-0.2c2.8,1.5,4.8,3.8,5.4,7.1c0.5,1.9-0.2,3.8-0.9,5.6
		c-2.3,5.6-6.3,9.5-12.1,11.4c-2.9,1-5.5-0.2-8.1-1.5c-0.6-0.3-0.6-0.8,0-1.2c0.7-0.4,1.4-0.8,2.1-1.2c1.2-0.6,2.4-1.2,3.4-2.1
		C265.9,36.8,266.7,35.4,266.1,33.7 M31.4,222.7c-0.9-0.5-1.8-0.8-2.7-1c-2.2-0.3-3.2,0.8-3,3c0.2,2,1.2,3.8,1.8,5.7
		c0.3,1,0.6,2,0.8,3c0.1,0.4,0.3,0.9-0.1,1.2c-0.5,0.4-0.9-0.2-1.4-0.4c-1.2-0.7-1.7-1.9-2-3.1c-1.7-6.1-2.1-12.3-0.4-18.4
		c0.4-1.5,0.8-3,2.2-3.9c0.1,0.8-0.4,1.5-0.5,2.3c-0.1,0.5-0.2,1-0.3,1.5c-0.2,2.1,0.4,3.8,1.7,4.2c1.7,0.6,2.8-0.6,3.8-1.6
		c0.8-0.8,1.4-1.7,2.1-2.6c1-1.3,2.1-1.3,2.6,0.3c1.6,4.7,1.6,9.4,1.1,14.3c0,0.2-0.1,0.5-0.3,0.6c-0.3,0.1-0.5-0.2-0.7-0.5
		C35.1,225.3,33.4,223.8,31.4,222.7 M43,288.3c0.1,0.3,0.3,0.8-0.1,1c-0.4,0.2-0.7-0.2-0.9-0.5c-1.2-1.4-2.3-2.9-3.1-4.6
		c-2.3-5.2-5.1-10.2-7.2-15.5c-1.6-4.1-2.7-8.3-2.2-12.8c0.2-1.8,0.6-3.5,1.3-5.2c0.1-0.3,0.2-0.6,0.5-0.6c0.2,0,0.4,0.4,0.5,0.7
		c0.9,2.5,1.7,5,2.5,7.6c0.8,2.6,1.4,5.3,2.1,7.9c0.5,2,0.4,4.1,0.8,6.2c0.6,3.9,2.1,7.5,3.8,11.1C41.8,285.1,42.7,286.6,43,288.3
		 M92.9,345.6c-0.7,0.4-1.4,0.8-2.2,1.1c-2.4,1.1-5,1.5-7.8,2c-5.6,1.4-11.5,1.2-17.4,0.7c-3.5-0.3-6-2.6-8-5.5
		c-0.2-0.4-0.5-0.8-0.2-1.2c0.4-0.6,0.9-0.3,1.4-0.1c1.5,0.5,2.9,1.2,4.1,2.2c1.3,1.1,2.7,2.1,4.3,2.8c1.7,0.7,2.4,0.2,2.2-1.6
		c-0.1-0.8-0.8-1.7-0.1-2.3c0.6-0.5,1.6,0,2.4,0.1c6.3,0.7,12.6,0.7,18.8,1.3C91.3,345.1,92.2,344.8,92.9,345.6 M35.3,326.3
		c-4.2-4.1-6.8-9.1-8.5-14.7c-0.7-2.2-1.5-4.4-1.7-6.7c-0.2-1.6-0.4-3.2-1.1-4.8c-0.1-0.3-0.4-0.7,0.1-0.9c0.3-0.1,0.5,0.3,0.6,0.5
		c1.7,2.1,2.7,4.6,3.7,7c3,7.4,6.8,14.3,12.3,20.2c0.9,1,1.7,2,2.6,3.1c0.3,0.4,0.7,1,0.3,1.4c-0.4,0.5-1,0-1.4-0.2
		C39.6,330,37.4,328.3,35.3,326.3 M249.9,2.4c0-0.1,0.3-0.3,0.5-0.3c0.8-0.2,1.6-0.3,2.4-0.5c10-1.2,20.1-1.4,30.2-0.6
		c0.1,0,0.3,0,0.4,0.1c0.2,0.1,0.4,0.1,0.6,0.2c-0.2,0.1-0.3,0.2-0.5,0.3c-3.9,1.2-7.9,2-12,1.6c-4.2-0.4-8.3,0.1-12.4,0.4
		c-2.5,0.2-5,0.2-7.5-0.3c-0.4-0.1-0.8-0.3-1.3-0.4C250.2,2.8,249.9,2.7,249.9,2.4 M250,27.3c0.9-1.5,2-2.9,3.3-4.2
		c0.4-0.4,0.9-0.8,1.5-0.9c0.6,0,0.7,0.3,0.5,0.8c-0.6,1.8-1.4,3.5-2.7,4.8c-1.5,1.4-1.7,3.1-1.4,4.9c0.2,1.4,0.5,2.8,0.8,4.2
		c0.1,0.4,0.2,0.8-0.1,1c-0.4,0.4-0.9,0-1.2-0.2c-1.6-0.9-2.5-2.3-2.6-4.1C247.9,31.3,248.8,29.3,250,27.3 M57.7,368.1
		c-0.1,0.3-0.2,0.8-0.3,1.2c-1.9,4.8-5.5,8.2-9.6,11.1c-0.3,0.2-0.6,0.5-1,0.2c-0.1,0,0-0.4,0.1-0.6c2.4-3.6,4.1-7.6,7.5-10.5
		c0.8-0.7,1.6-1.4,2.5-1.9C57.2,367.5,57.5,367.6,57.7,368.1 M73.2,305.4c0.7-1.1,0.8-2.2,0.4-3.3c-0.1-0.2-0.1-0.5,0-0.6
		c0.2-0.2,0.6-0.1,0.8,0.1c2.4,2,4.2,4.4,5.2,7.2c0.3,1.3-0.1,2.2-1,2.5c-0.9,0.3-2.6-0.2-2.9-1c-0.4-1.2-1.2-2-2-2.9
		C73.1,306.9,72.7,306.2,73.2,305.4 M97.1,212.4c4,0,7.9,0.3,11.7,1.4c0.4,0.1,0.7,0.2,1,0.4c0.3,0.1,0.5,0.3,0.5,0.7
		c-0.1,0.4-0.4,0.5-0.7,0.5c-4.4,0.3-8.7,0.1-12.8-1.8c-0.3-0.1-0.6-0.3-0.4-0.7C96.5,212.6,96.9,212.5,97.1,212.4 M81.4,205.5
		c1.1,1.3,2.1,2.7,2.7,3.8c0.4,1.7,0,2.6-1,3c-1.2,0.4-2.6,0.1-3.1-1c-1-1.8-0.7-3.7-0.1-5.6C80,205,80.8,204.9,81.4,205.5
		 M32.7,303c-0.1,0.7,1,2.1-0.2,2.5c-1,0.3-1.4-1.3-1.9-2.1c-1.3-2.1-2-4.4-2.1-6.9c0-0.3,0-0.8,0.4-0.9c0.4-0.1,0.7,0.3,0.9,0.6
		C30.9,298.2,32.4,300.2,32.7,303 M49.6,323.4c0.2,0.3,0.4,0.6,0.5,1c0.1,0.2,0.1,0.5,0,0.6c-0.1,0.1-0.4,0.1-0.6,0
		c-3.1-2.2-5.7-4.9-7.9-8c-0.1-0.2-0.1-0.4,0.2-0.5c0.1,0,0.3,0,0.4,0.1C44.8,318.6,47.9,320.2,49.6,323.4 M158.3,71.5
		c-1.3-1-2.5-2.1-3.5-3.3c-0.1-0.2-0.2-0.4-0.3-0.6c0.1-0.1,0.2-0.1,0.4-0.2c0.1,0,0.1,0,0.2,0.1c2.4,1.2,4.6,2.6,6.6,4.4
		c0.2,0.2,0.4,0.4,0.2,0.8c-0.2,0.3-0.5,0.2-0.8,0.1C160.1,72.5,159.2,72.2,158.3,71.5 M33.6,309.1c-0.1-0.2-0.1-0.6,0.4-0.7
		c0.2,0.1,0.5,0.1,0.8,0.2c1,0.4,1.9,0.9,2.7,1.5c0.5,0.3,1.2,0.7,0.9,1.4c-0.3,0.7-1.1,0.7-1.8,0.4
		C35.3,311.4,34.3,310.3,33.6,309.1 M71.6,173.4c0.4-0.1,0.6,0.2,0.6,0.5c0,1.7-0.4,3.3-1.2,4.8c-0.1,0.3-0.6,0.8-1,0
		c-0.6-1.2,0.2-4.3,1.2-5.2C71.4,173.5,71.5,173.5,71.6,173.4 M70.7,202.8c0.7,0,3.3,2.3,3.5,2.9c0.1,0.4-0.1,0.6-0.5,0.6
		c-1.4,0.1-3.4-1.6-3.5-3C70.3,203,70.3,202.7,70.7,202.8 M291,1.6c-0.1-0.8,1.3-0.9,2.1-1.1c0.9-0.3,2.3-1,2.7,0.2
		c0.2,0.8-1.4,0.9-2.3,1.2C292.5,1.9,291.1,2.2,291,1.6 M173.2,99.3c0,0.4,0,0.9,0,1.4c-0.1,0.7,0.2,1.8-0.8,1.7
		c-0.6,0-0.8-1.2-0.8-1.9c0-0.5,0.2-1,0.4-1.5c0.1-0.4,0.3-1,0.8-1C173.2,98.2,173,98.8,173.2,99.3 M266.8,16.6
		c-0.2-0.5-0.5-1.2,0.1-1.6c0.7-0.5,1,0.2,1.4,0.6c0.3,0.3,0.6,0.6,0.6,1c0.1,0.4,0.2,0.7-0.1,0.9c-0.2,0.2-0.5,0.2-0.8,0
		C267.5,17.3,267,17.1,266.8,16.6 M60.2,336.8c0.4,0.5,0.9,1,1.2,1.5c0.3,0.4,1,1,0.4,1.4c-0.5,0.3-1-0.4-1.4-0.7
		c-0.6-0.6-0.9-1.3-1-2.1c0-0.2-0.1-0.5,0.3-0.4C59.9,336.5,60.1,336.6,60.2,336.8 M234.6,42.7c0.3,0.9-0.9,0.8-1.5,1.1
		c-0.8,0-1.9,0.6-2.2-0.2c-0.2-0.5,1.1-0.8,1.8-1C233.3,42.3,234.4,41.9,234.6,42.7 M53.9,329.8c0.4,0.6,1,1.2,0.8,2
		c-0.1,0.3-1.6-0.7-2-1.5c-0.2-0.4-0.3-0.8-0.5-1.2c-0.1-0.2,0-0.4,0.3-0.5c0.1,0.1,0.4,0.1,0.5,0.3
		C53.3,329.1,53.6,329.4,53.9,329.8 M88.5,143c0,0.3,0.1,0.7,0.1,1.1c0,0.1-0.1,0.2-0.1,0.4c-0.1-0.1-0.3-0.1-0.4-0.2
		c-0.2-0.3-0.4-0.6-0.5-1c-0.1-0.6-0.3-1.5,0.2-1.6C88.4,141.5,88.3,142.5,88.5,143 M26.8,208.7c0,0,0-0.1,0-0.1
		C26.9,208.6,26.9,208.7,26.8,208.7 M26.7,208.8C26.7,208.8,26.7,208.8,26.7,208.8C26.7,208.8,26.7,208.8,26.7,208.8
		C26.7,208.7,26.7,208.7,26.7,208.8C26.7,208.7,26.7,208.8,26.7,208.8 M303.8,97.2C303.8,97.2,303.8,97.2,303.8,97.2
		C303.8,97.3,303.8,97.2,303.8,97.2l-0.1,0L303.8,97.2z M432.8,61.2c0.1,1-1.5,0.7-2.3,0.9c-0.1,0-0.3,0.1-0.4,0
		c-0.5-0.1-1.4,0.1-1.4-0.5c0-0.5,0.8-0.5,1.3-0.6c0.1-0.1,0.3-0.1,0.6-0.1C431.2,60.8,432.7,60.2,432.8,61.2 M441.1,59.4
		c-0.1,0.2-0.1,0.5-0.2,0.6c-0.3,0.2-0.6,0.5-0.9,0.5c-0.6,0.1-1.6,0.2-1.8-0.4c-0.2-0.7,0.8-0.8,1.3-1
		C440,58.9,440.6,58.7,441.1,59.4"/>
</g>
</svg>
