<?xml version="1.0" encoding="utf-8"?>
<!-- Generator: Adobe Illustrator 19.0.0, SVG Export Plug-In . SVG Version: 6.00 Build 0)  -->
<svg version="1.1" id="Layer_1" xmlns="http://www.w3.org/2000/svg" xmlns:xlink="http://www.w3.org/1999/xlink" x="0px" y="0px"
	 viewBox="0 0 456.5 498.1" style="enable-background:new 0 0 456.5 498.1;" xml:space="preserve">
<style type="text/css">
	.st0{clip-path:url(#SVGID_2_);fill:#A11C1C;}
</style>
<g>
	<defs>
		<rect id="SVGID_1_" width="456.5" height="498.1"/>
	</defs>
	<clipPath id="SVGID_2_">
		<use xlink:href="#SVGID_1_"  style="overflow:visible;"/>
	</clipPath>
	<path class="st0" d="M454.2,430.7c-6.8-0.2-13.7-0.6-20.5-0.6c-14.7-0.2-29.5-0.8-44.2-1.4c-2.8-0.1-2.8-0.1-3.1-3
		c-0.7-6.8-1.5-13.6-2.3-20.4c-1.3-11.9-2.5-23.8-4-35.6c-0.5-4.1,0.1-7.4,3.5-10.1c2-1.5,3.4-3.8,4.7-6c1.7-2.8,2.8-5.9,2.9-9.2
		c0-2,0.8-3.5,2-4.9c6.9-8,13.8-16,20.7-24c15.8-18.5,28-39,34.9-62.4c4.3-14.6,7.1-29.5,7.1-44.8c0-6.6-1.1-12.9-5.1-18.5
		c-1-1.4-2.1-2.2-3.9-2.4c-4.4-0.5-8.5,0.1-12.5,2c-2.7,1.3-5.2,3.1-7.7,4.7c-2,1.2-4,2.4-6.3,2.9c-2.6,0.5-3.5,0.3-5-2
		c-1.3-1.9-1.9-4-2.4-6.1c-0.7-2.8-1.3-5.7-2.3-8.4c-1.6-4.4-5.2-6.8-9.9-6.9c-2.4-0.1-4.6,0.5-6.7,1.4c-2,0.9-4,1.8-6.1,2.5
		c-3.4,1.2-3.8,0.9-5-2.6c-1.5-4.4-1.3-9-0.2-13.4c2.5-10.4-0.2-19-8.1-26.1c-2.4-2.2-4.5-4.7-6.6-7.2c-5.7-6.6-8-14.3-7-22.9
		c0.3-3,0.4-6,0.3-9c-0.2-4.5-2.3-7.9-6.1-10.3c-3.3-2-7-3-10.9-3.1c-7.6-0.3-15,1.4-22.4,2.6c-6.8,1.1-13.6,1.6-20.4,0.5
		c-2.1-0.3-3.2-1.3-4.2-3.1c-3.9-7.1-7.9-14.2-12.3-21c-6.4-9.9-13.7-19-22.9-26.6c-1.2-1-2.4-1.7-3.9-2.1
		c-4.8-1.4-9.3-3.4-13.8-5.6c-3.3-1.6-6.6-3.4-10.2-4.4c-2.7-0.8-4-1.9-3.8-5c0.2-3.2-1.2-4.2-4.5-4.3c-1.4,0-2.8,0-4.2-0.2
		c-1.3-0.3-2-1.1-1.3-2.6c0.8-1.4,1.6-2.8,2.3-4.3c1.4-2.9,0.8-5.4-1.3-6.4c-2-1-3.9,0-5.5,2.9c-1.1,1.9-2,3.9-3.1,5.8
		c-0.7,1.2-1.6,2.3-3.3,2.2c-7.2-0.5-14.4,0.9-21.5,0.9c-4.9,0-9.8-0.3-13.9-3.5c-1.2-0.9-1.9,0-2.7,0.5c-3,2.2-6.4,3.2-10.1,3.4
		c-8.2,0.3-16.1,1.8-23.8,4.5c-8.3,2.9-16.7,5.7-25.6,6c-0.9,0-1.6,0.4-2.2,0.9c-4.4,3.7-9.5,6.2-14.5,8.8
		c-7.3,3.9-14.6,7.7-21.2,12.7c-2.8,2.1-4.9,4.7-6.1,7.9c-0.9,2.3-0.3,3.2,2.2,3.3c0.8,0,1.6-0.2,2.4-0.3c2.3-0.4,4.4-1.5,6.5-2.4
		c3.8-1.7,7.6-1.8,11.5-0.7c2.5,0.7,4.7,2,7.2,2.6c5.1,1.2,8.6,4,9.8,9.3c0.3,1.1,1,2.1,1.4,3.2c1.5,3.4,2,6.8,1.5,10.5
		c-0.5,4.2-1.9,8.1-3.3,12c-1.8,4.8-4,9.4-5.6,14.3c-0.9,2.8-1.5,5.6-1.7,8.5c-0.1,1.9,0.5,2.3,2.3,1.9c2.3-0.5,4.3-1.8,6.2-3
		c2.1-1.3,4.1-2.7,6.3-3.6c2.2-1,4.5-1.2,6.7-0.1c1.5,0.7,2.2,1.7,1.7,3.6c-1.2,4.3-3.4,8.1-6.2,11.6c-2.5,3.1-5.2,5.9-7,9.5
		c-3.3,6.5-2.5,13.3,2.3,18.7c1.1,1.2,2.2,2.4,3.4,3.5c7.8,7,15.1,14.5,22,22.3c0.5,0.6,1.1,1.2,1.6,1.9c0.8,1,0.5,1.7-0.5,2.2
		c-0.5,0.3-1.1,0.5-1.6,0.7c-3,1.3-3.3,1.8-2.8,5c0.6,4,1.7,7.9,2.8,11.8c0.6,2.1-0.1,2.8-2.3,2.2c-2.1-0.5-3.3-2-4.2-3.8
		c-1.4-2.9-2-6.2-3.2-9.2c-2.4-6.1-6-11.3-12.1-14.3c-3.5-1.7-5.5-0.8-7.4,3.2c-0.6,1.2-0.6,2.5-0.6,3.8c-0.1,3.7,0,7.4,0.5,11.1
		c0.2,1.7,0.3,3.5,0,5.2c-0.5,2.7-0.9,2.8-2.9,0.9c-7.4-7.1-14.4-14.5-19.6-23.4c-1.4-2.3-2.8-4.5-4.6-6.5c-1.8-1.9-3.9-3.4-6.4-4.1
		c-3.4-0.9-4.2-0.4-4.6,3c-0.3,2.2-0.3,4.4-0.5,6.6c-0.1,0.8-0.2,1.6-0.4,2.4c-0.9,2.5-2.2,3-4.5,1.8c-9.4-5.2-19.2-10-27.8-16.4
		c-2.3-1.7-4.8-3.3-7.4-4.5c-2.3-1-4.6-1.5-7.1-1.3c-3.9,0.4-5.3,1.6-6,5.4c-0.2,1-0.3,2.1-0.4,3.1c-0.5,7.2,0.4,14.4,0.9,21.5
		c0.2,2.5-0.2,2.9-2.6,2.6c-1.5-0.2-3-0.6-4.4-1c-1.3-0.4-2.5-0.3-3.8-0.4c-1.4-0.1-2.1,0.5-2.6,1.8c-0.9,2.7-1.2,5.4-1,8.2
		c0.4,4.6,1.8,8.8,3.3,13.1c0.8,2.3,1.6,4.6,2.5,6.9c0.6,1.6,0.1,2.7-1.4,3.4c-1.3,0.6-2.6,1.1-3.8,1.7c-2.2,1.2-2.9,2.9-2.3,5.3
		c0.2,0.9,0.6,1.7,1,2.6c2.8,7.3,6.4,14.1,10.4,20.8c1.5,2.4,1.4,2.7-1,4c-0.3,0.2-0.6,0.3-0.9,0.4c-2.9,1.4-3.5,3.1-1.9,5.9
		c3.9,6.6,7.9,13.1,12.8,19c2.8,3.4,2.8,3.4-0.4,6.1c-3.3,2.8-3.5,5.6-0.5,8.8c4.8,5.2,10.1,10,15.4,14.6c1.7,1.5,3.3,1.9,5.7,1.4
		c5.5-1.2,10.3,0.5,14.2,4.6c1.3,1.4,1.3,2.4-0.1,3.8c-2.3,2.3-4.8,4.4-7.4,6.3c-2.2,1.7-4.4,3.4-6.6,5.1c-1.8,1.3-2,2.8-1,4.8
		c1.5,3.1,3.5,5.7,5.9,8.1c2.7,2.6,5.8,4.6,8.9,6.7c1.1,0.7,1.8,1.6,2,3c1.1,6.9,5.3,11.7,11.2,15.1c3.5,2,7.2,3.8,10.8,5.7
		c3.7,2,3.7,2,0.7,5c-3.7,3.7-3.8,8.2-0.3,12.1c0.8,0.9,1.6,1.7,2.5,2.4c3.9,3.3,6.1,7.5,7.1,12.4c1.1,5.1,0.7,10.1,0,15.2
		c-0.6,4.5-0.4,4.5-5,4.5c-5.3,0-10.7,0-16,0v-0.3c-2.4,0-4.9-0.1-7.3,0c-4.7,0.3-9.5,0-14.2,1c-1.6,0.4-4.1,3.3-3.6,4.5
		c0.7,1.8,2.4,1.5,3.8,1.6c0.3,0,0.7,0,1,0c7.9-0.2,15.8-0.3,23.7,0.5c3.1,0.3,6.3,0.5,9.4,0c3.8-0.6,7.4-0.1,11,0.6
		c5.4,1,10.8,1.2,16.3,1.2c10-0.1,19.9-1.2,29.9-1c7.6,0.2,15,1.2,21.9,4.8c1,0.5,1.8,0.7,2.9,0c2.8-1.6,5.7-1.5,8.8-1
		c2.4,0.4,3.4,1.5,3.8,3.7c1.1,5.1,2.7,10.1,3.2,15.3c0.5,4.9,3.8,7.8,6.2,11.3c1,1.4,2,2.7,2.4,4.3c1.3,5.5,2.5,11.1,3.8,16.6
		c1.7,7.4,2.3,7.9,9.9,8.2c0.3,0,0.7,0,1,0c6.6,0.1,13.2,0.1,19.9,0.2c6.8,0.1,13-2.1,19.2-4.4c4-4.2,9-3.7,14.3-3.5
		c4.7,0.2,9.4-1.2,12.2-5.9c0.7-1.1,1.9-1.7,3-2.3c0.9-0.5,2-0.8,2.8-1.4c5.3-4.5,11.1-8.4,14.6-14.7c2.2-4,3.1-7.9,0.5-12.1
		c-1.3-2.1-2.4-4.3-2.9-6.7c-1-5-0.1-8,5.5-8.7c1.3-0.2,2.5-0.2,3.8-0.1c3.4,0.4,6.6,1.3,9.9,2.1c5.5,1.4,10.8,1.2,16-0.9
		c2.7-1.1,5.4-2,8.1-3.1c5.7-2.4,11.5-2.8,17.3-0.7c7.9,2.8,15.9,2.5,24,0.6c3.4-0.8,6.8-1.4,10.3-1.7c8.2-0.7,16.5-0.3,24.7,0.2
		c15.3,0.9,30.6,2.1,45.8,3.1c5.2,0.4,5.2,0.3,5.9-4.6C456.7,430.9,456.7,430.8,454.2,430.7 M387.6,342.4c-1,0.8-2.1,1.4-3.5,1.2
		c-1-0.2-1.6-0.8-1.8-1.9c-0.1-1,0.6-1.4,1.4-1.7c0.9-0.3,1.8-0.5,2.7-0.7c1,0,2,0.1,2.4,1.1C389,341.3,388.2,341.9,387.6,342.4
		 M310.5,301.3c0-0.6-0.2-1.5,0.7-1.8c1-0.3,1.4,0.6,1.7,1.3c2.2,5.7,3.9,11.6,5,17.7c0.9,5.2,1.6,10.3,0.6,15.5
		c-0.6,3-1.6,5.8-3.8,8.1c-1.4,1.5-1.9,1.4-2.3-0.6c-0.5-2.6-0.9-5.3-1.1-7.9c-0.5-6.6-1.1-13.2-0.8-18.6
		C310.5,309.7,310.5,305.5,310.5,301.3 M315.2,348.7c1.2-0.1,2,0.5,2.8,1.2c1.3,1.3,2.1,2.9,2.4,4.6c1,5.2,3.5,9.8,6.1,14.3
		c1.9,3.4,3.9,6.8,5.3,10.5c1,2.7,0.5,4-2.1,5.3c-0.3,0.2-0.6,0.3-1,0.4c-5,1.9-5.3,1.7-7.3-3.2c-3.1-7.6-5.9-15.3-7.2-23.5
		c-0.4-2.6-0.4-5.3-0.4-8C314,349.4,314.2,348.7,315.2,348.7 M325.6,357.2c-2.1-4.6-3.6-9.3-3.3-14.4c0.1-1.2,0.2-2.3,0.7-3.4
		c0.1-0.3,0.2-0.7,0.8-0.6c0.6,0.2,1,0.8,1.4,1.3c2.6,3.4,5.1,6.9,7.6,10.4c3.9,5.6,7.7,11.3,13,15.8c0.8,0.7,1.6,1.3,2.4,2
		c2.2,1.7,2.3,1.9,0.9,4.2c-2.3,3.9-6.1,5.5-10.2,6.5c-0.9,0.2-1.5-0.1-1.9-1C333.5,370.9,328.9,364.4,325.6,357.2 M338.4,349.9
		c-4.5-5.4-8.9-11-13.6-16.2c-1-1-1.9-2.1-1.6-3c0.2-1.5-0.1-2.6,1-3c1-0.3,2.1-0.4,3,0.4c1.1,1,2.1,2.1,3.1,3.3
		c5.8,6.5,11.8,12.8,18.7,18c4.1,3.1,8.5,5.6,13.1,7.8c2.3,1.1,2.2,1.1,1.1,3.2c-1.4,2.5-3.1,4.6-5.6,6.1c-1.6,1-2.8,0.9-4.3-0.5
		C347.8,361,343.1,355.5,338.4,349.9 M351.8,378.4c0.6-2.8,3.7-5.3,6.7-5.4c1.9-0.1,3.3,1,4.3,2.7c0.9,1.7,0,3.1-0.9,4.4
		c-0.6,0.9-1.4,1.5-2.3,2.1c-3.1,2-5.9,1.1-7.6-2.2C351.7,379.5,351.6,379,351.8,378.4 M363,368.2c1.1-1.9,2.1-3.9,3.6-5.5
		c1.3-1.4,2.9-2.2,4.9-2c1.5,0.2,2.4,0.8,2.2,2.5c0,3.7-2.8,7.8-6.2,9.4c-1.7,0.8-2.5,0-3.6-1C362.9,370.5,362.2,369.6,363,368.2
		 M371.6,345.9c-0.8,7.9-2.9,8.9-10.2,6.4c-2.2-0.8-4-2.4-5.7-3.9c-2.2-1.9-4.5-3.6-7.5-4.3c-0.8-0.2-1.5-0.6-2-1.3
		c-3.9-5.1-9.1-8.9-13.9-13.2c-3.1-2.7-5.9-5.5-8.2-9c-1.4-2.2-2.3-4.5-2.9-7c-0.1-0.5-0.4-1.3,0.1-1.6c0.6-0.4,1,0.3,1.4,0.6
		c2,2,4,3.9,5.9,5.9c5,5,10.1,10,15.8,14.1c7.5,5.4,15.6,9.1,24.9,9.8C371.6,342.8,371.7,343,371.6,345.9 M367.6,336.9
		c-4.6-0.6-8.8-2-12.8-4.1c-15.6-8.5-28.5-19.9-37.2-35.5c-2.3-4.2-4.2-8.5-5.3-13.2c-0.8-3.3-0.6-3.6,3.1-3.6
		c1.8-0.4,2.9,0.8,4.1,2.2c6.8,8.4,14.1,16.4,22.5,23.2c11.9,9.7,25.4,16.1,40.6,18.6c0.6,0.1,1.1,0.2,1.7,0.4
		c1,0.3,1.2,0.8,0.8,1.8C382.3,333.4,374.8,337.8,367.6,336.9 M362.3,239.4c2.9-0.4,5.7-1,8.6-1.3c2.9-0.3,3.3,0.4,2,3.1
		c-1.2,2.5-3,4.4-5.1,6.1c-11.3,9.6-24,16.9-37.5,23c-4.8,2.1-9.6,4-14.6,5.6c-0.7,0.2-1.6,1-2.3,0.4c-0.8-0.7-0.1-1.8,0.2-2.6
		c1.4-4.3,3.6-8.3,6.4-11.9c10.7-13.9,22.4-26.9,35.7-38.5c0.7-0.6,1.2-1.6,2.3-1.1c1.2,0.6,1,1.7,0.9,2.8c-0.1,1.8-0.9,3.3-1.4,5
		c-0.2,0.8-0.4,1.6-0.7,2.3C354.8,237.2,358.6,239.6,362.3,239.4 M373.3,221.3c-0.4-0.2-0.9-0.4-1.2-0.6c-0.5-0.4-0.8-0.9-0.6-1.5
		c0.1-0.6,0.6-1,1.2-1c1-0.1,2.1,0,3.1,0c4.2-0.1,4.5,0.2,4.8,4.3c0.3,3.1-0.1,6-2,8.6c-1.3,1.9-3.1,3.1-5.5,3.1c-2.3,0-3-1-2.8-3.3
		c0.2-1.5,0.9-2.6,1.8-3.7c0.5-0.6,1.2-1.1,1.8-1.7C376.7,222.9,376.6,222.7,373.3,221.3 M383.1,212.1c-0.4-0.2-0.9-0.3-1.3-0.5
		c-0.7-0.4-1.6-0.6-1.5-1.6c0.1-0.9,0.8-1.4,1.5-1.8c2.4-1.1,5-0.8,7.5-0.5c0.9,0.1,1.3,0.9,1.5,1.7c0.2,1.3,0.3,2.5,0.4,3.6
		c-0.2,6-2.2,10.8-6.9,14.3c-1.7,1.3-2.5,1-2.6-1.2c-0.1-3.3,0.5-6.4,2.6-9.2C386.3,214.5,386,213.4,383.1,212.1 M375.8,255.5
		c6.5-1.1,12.9-2.7,18.9-5.5c4.6-2.1,9.4-4,14.5-4.7c1.6-0.2,2.5,0.2,2.6,1.9c0.6,5.4,0.7,10.8-0.8,16.2c-0.8,3.1-2.6,4.5-5.8,4.9
		c-10.7,1.6-21.5,1.5-33,1.3c-6.3-0.2-13.4-0.5-20.5-0.8c-2.3-0.1-2.6-0.7-1.5-2.8c1.8-3.2,4.6-5.1,7.9-6.5
		C363.9,257.3,369.9,256.6,375.8,255.5 M387.1,319.1c-13.8-1.1-26.2-5.8-37.3-14c-8-5.9-14.9-12.9-21.8-20c-1.3-1.3-2.6-2.7-3.9-4
		c-1.2-1.2-0.8-2.3,0.4-3.2c1.9-1.4,4.2-1.3,6.4,0.2c5.8,4.1,11.9,7.7,18.3,10.7c12.1,5.7,24.9,9.4,37.9,12.5c3,0.7,6.1,1.4,9.1,2.1
		c2.4,0.6,2.7,1,1.9,3.3c-1.7,4.7-5,8.3-8.5,11.7C389,319.3,388,319.2,387.1,319.1 M400.5,323.4c-2.3,3.3-5.5,5.6-9,7.5
		c-0.3,0.2-0.8,0.6-1.2,0.1c-0.1-0.2-0.1-0.7,0-0.9c1.5-3.3,2.7-6.7,4.8-9.6c1.2-1.6,2.5-3,4.4-3.9c2.1-1,2.8-0.6,2.8,1.6
		C402.3,320.1,401.6,321.8,400.5,323.4 M399,297.5c-7.7-1.4-15.5-3-23.1-5c-12.2-3.3-24.1-7.4-35-14c-1.5-0.9-3-1.8-4.3-2.9
		c-1.4-1.1-1.3-2.5,0.4-3.2c1.7-0.6,3.6-1,5.5-0.9c6,0.4,11.9,1.8,17.8,3c8.5,1.7,17.1,1.5,25.6,0.8c6.7-0.5,13.4-1.4,20.1-1.1
		c3,0.1,3.4,0.6,2.9,3.6c-0.6,3.7-1.9,7.1-3.4,10.6c-1,2.3-1.9,4.7-2.7,7.1C401.9,298,401.9,298.1,399,297.5 M414.1,304.7
		c-1.2,3.5-3.2,6.4-6.8,7.8c-2.8,1.1-3.9,0.4-4.1-2.5c-0.4-5,3.4-9.3,8.1-9.3C414.5,300.8,415.2,301.7,414.1,304.7 M440,260.6
		c-0.6,1.6-1.4,3.2-2.2,4.7c-1.2,2.3-2.5,4.5-3.6,6.7c-2.1,4.1-2.1,4.2-6.5,3.7c-3.6-0.4-7.1-0.8-10.6-1.8c-1.6-0.5-2-1.1-1.7-2.7
		c0.6-3.8,1.2-7.6,1-11.4c-0.1-1.8,0.7-2.5,2.2-3c2.1-0.6,4.3-0.9,6.1-0.8c5,0,9.4,1,13.9,1.6C440.5,258,440.8,258.6,440,260.6
		 M419.1,219.5c3-2.2,6-4.3,9.8-4.8c2.2-0.3,2.8,0.3,2.3,2.5c-0.7,2.9-2,5.4-4.1,7.5c-2.1,2.1-4.2,4.2-6.4,6.4
		c-1.6,1.6-3.3,1.2-4.2-1c-0.1-0.3-0.2-0.7-0.2-1c-0.1-1.1-0.2-2.3-0.3-3.4C415.5,222.7,416.9,221,419.1,219.5 M442.9,248
		c-1,2-2.3,3.3-4.9,3c-2.8-0.3-5.5-0.1-8.3-0.1v0c-3,0-6-0.1-9,0c-1.7,0-2.3-0.6-2.2-2.3c0.1-2.3,0.2-4.6,0-6.9
		c-0.2-2.3,0.9-3.4,2.8-4.2c2.6-1.2,5.3-1.8,8-2.1c4.7-0.6,9.4-1,14.1-1.6c1.1-0.1,2.2-0.3,2.2,1.3C445.4,239.6,444.9,244,442.9,248
		 M450.7,210.2c-0.5,4.9-1.2,9.6-2.4,14.2c-0.2,0.9-0.2,1.8-1.3,2.3c-4.3,1.8-8.7,3.1-13.4,3.3c-1.6,0.1-2.1-0.4-1.5-2.1
		c1.6-4.3,3-8.7,5.4-12.7c2.1-3.6,4.9-6.4,8.9-7.8C450,206.1,450.9,206.7,450.7,210.2 M415.6,209.6c0.9-2.2,2.6-3.8,4.5-5.2
		c4.5-3.5,9.3-6.4,14.5-8.8c2.4-1.1,5-1.7,8.4-1.7c-0.1,0,0.5,0,1.1,0.1c1.8,0.3,4,0.3,4.7,2.3c0.6,1.9-0.7,3.5-1.9,5
		c-1.5,1.8-3.5,3-5.8,3.7c-2.1,0.7-4.2,1.4-6.3,1.9c-4.4,1-8.7,2.2-12.6,4.7c-1.2,0.8-2.7,1.5-4.2,1.5
		C415.4,213.2,414.6,211.9,415.6,209.6 M413.8,282.7c3.6-4.6,8.6-4.4,13-1.7c1,0.6,1.1,1.4,0.9,2.4c-0.5,2.1-1.3,4.2-2.5,6.1
		c-1.4,2.1-3,4.2-4.2,6.4c-1.1,2-2.6,2.8-4.3,2.5c-0.8,0-1.2,0-1.5-0.1c-6.6-1-6.5-2.5-5.2-7.4C410.8,287.9,411.9,285.1,413.8,282.7
		 M412.5,229.9c0.2,1,0,2.1,0,3.4c1,3.1-1,4.5-3.6,5.9c-9.7,5.1-20.2,8-30.8,10.4c-1.9,0.4-3.8,0.7-5.8,1c0.4-2,2.3-2.9,3.2-4.6
		c0.9-1.7,2.1-3.3,3.1-5c3-5.1,7.9-7.2,13.4-8.4c2.8-0.6,5.6-1.2,8.4-1.9c2.3-0.6,4.3-1.6,6.2-3C409,225.8,412,226.9,412.5,229.9
		 M409.8,199.6c0.9,3.8,0.6,7.6,0.5,11.4c0,2.4-0.1,4.9,0,7.3c0.1,1.6-0.6,2.6-2,3.3c-5.4,2.9-11.2,4.9-17.2,6.4
		c-1.2,0.3-1.6-0.1-1.1-1.2c2.5-5.8,3.6-12,5.8-17.8c0.8-2.2,1.9-4.2,3.2-6.1c1.9-2.6,4.3-4.5,7.5-5.4
		C409.1,196.9,409.2,197,409.8,199.6 M352.9,208.1c9.7-5.6,18.7-12.1,27-19.5c2.4-2.2,5-4.1,7.8-5.8c4.2-2.5,8.8-3.6,13.7-2.6
		c5,1,7,5.7,4.5,10.1c-0.8,1.4-2,2.5-3.4,3.4c-1.8,1.1-3.6,2.2-5.4,3.2c-1.4,0.8-3.1,1.5-3.8,2.9c-1.6,3.2-4.2,3.2-7,2.9
		c-3.1-0.3-5.9,0.6-8.7,1.9c-17.5,8-32.1,19.8-45,34c-3.9,4.3-7.6,8.8-11.3,13.2c-2.3,2.8-4.6,5.5-5.9,9c0,0.1-0.1,0.2-0.2,0.3
		c-0.9,1.5-1.7,3.3-3.9,2.8c-2.1-0.5-1.4-2.6-1.7-4c0.1-3.2,1.1-6.1,2.5-8.8c3.1-6.2,7.5-11.4,11.9-16.7c2.8-3.3,5.8-6.3,7.6-10.3
		c0.7-1.5,2-2.5,3.2-3.6C340.4,215.8,346.5,211.7,352.9,208.1 M331.4,210.3c0.3-2,0.9-3.9,2.8-4.9c0.9-0.5,5.3,1.6,6.1,2.7
		c0.6,0.8,0.3,1.5-0.2,2.2c-1.5,2.3-3.8,3.2-5.6,3.5c-2.4,0.1-3.2-0.6-3.2-2.2C331.4,211.3,331.4,210.8,331.4,210.3 M317.4,146.8
		c2.3,2,4.6,3.8,7.4,5.1c3,1.4,4.6,5.4,2.4,8.5c-1,1.4-2,1.2-3.4,1.3c-4.8-0.3-9.2-2.2-12.9-5.7c-3-2.8-5.3-6.2-7.7-9.4
		c-1.6-2.1-3.5-3.7-5.7-4.9c-4.3-2.4-8.8-4.1-13.3-5.9c-4.3-1.8-8.5-3.7-12.2-6.6c-0.6-0.5-1.4-1-1.8-1.6c-0.9-1.2-2.7-2.1-1.6-4.1
		c1.1-2.1,2.2-2.8,4.7-2.6c3.8,0.4,7.5,1.4,11.1,2.7c8.8,3.1,16.1,8.6,23.1,14.6C310.7,141.1,314,143.9,317.4,146.8 M299.5,196.2
		c-6.2,2.1-14.8,0.3-17-6.4c-0.4-1.1-0.5-2.2-0.5-3.4c0-0.6-0.1-1.2,0-1.7c0.1-0.9,0.7-1.2,1.4-0.6c3.4,2.8,7.5,4.1,11.2,6.2
		c1.9,1.1,3.8,2.2,5.2,4C300.4,195,300.5,195.9,299.5,196.2 M236.5,36.8c0.5-2.1,2.3-1.5,3.4-1.7c2.3,0.1,4.1,1,5.8,2
		c4.5,2.5,9,4.6,14.2,5.3c3.2,0.4,5.6,2,6.6,5.3c0.6,1.8,1.9,2.8,3.5,3.6c1.9,0.9,3.8,1.8,5.4,3.2c2,1.8,2.6,4.2,1.8,6.6
		c-0.5,1.3-1.1,1.9-2.5,0.9c-2.7-1.9-5.6-3.8-8.3-5.7c-8.8-6.1-17.6-12-27.6-15.9C236.6,39.6,236,38.6,236.5,36.8 M229.4,43.2
		c0.9-1.1,2.1-1.3,3.5-0.9c2.5,0.7,4.7,1.9,6.9,3.2c4.8,2.8,9.3,6.2,14.6,8c0.6,0.2,1.1,0.8,1.6,1.3c4.4,5,9.8,8.8,15.2,12.6
		c4,2.8,7.9,5.6,11.8,8.6c2.9,2.2,5.4,4.8,7.3,7.9c1.3,2,2.1,4.1,2.4,6.5c0.2,2.1-1.2,2.3-2.7,2.3c-3.7,0-7.4,0.4-11,1.2
		c-7.7,1.7-14.6,5.2-20.5,10.6c-2.2,2-2.3,2-3.3-0.9c-2.7-8.1-5.4-16.3-8.1-24.4c-1.7-4.9-3.7-9.7-6.1-14.4c-2.2-4.3-4.7-8.3-8-11.8
		c-1.7-1.8-2.7-3.9-3.9-6.1C228.6,45.5,228.5,44.3,229.4,43.2 M201.2,36.4c13.4,0.7,9.9-0.8,18.5,7.1c8.8,8.1,15.3,17.7,17.5,29.7
		c0.2,0.9,0.5,1.8,1,2.5c4.9,6.8,7.4,14.6,9.8,22.5c0.6,2.1,1.2,4.2,1.8,6.3c0.5,1.5-0.4,1.7-1.4,1.2c-1.9-0.8-3.8-1.7-5.6-2.8
		c-2.7-1.7-5.4-3.6-8-5.6c-5.3-4-11.1-7-17.7-8.6c-5.3-1.3-10.4-3.2-15.5-5.1c-3.2-1.2-6.4-2.7-10-0.8c-1,0.5-2.3-0.1-3.4-0.4
		c-4.8-1.2-9.4-3.1-14.4-3.9c-3.1-0.5-6-0.4-8.9,0.7c-4.1,1.5-8,2-12.1-0.2c-1.8-1-4-1.1-6.1-0.5c-2.1,0.6-4.3,0.9-6.4,1.4
		c-1.7,0.4-3.5,0.5-5.2,0.1c-4.3-0.9-5.3-3.2-3.1-6.9c2.3-3.9,5.9-6.6,9.8-8.6c3.7-1.8,6.7-4.4,9.7-7.2
		C163.1,46,176.8,39,192.9,36.9C195.9,36.5,198.9,36.5,201.2,36.4 M106.3,33.4c2.3-1.8,4.9-3,7.7-4c5.9-2.1,12.2-2.8,18.3-4
		c4.9-1,9.6-1.1,14.3,0.6c1.2,0.4,2.3-0.2,3.4-0.4c11.6-3,23.3-3.6,35.1-0.8c1.1,0.3,2.3,0.6,3.3,1c2.6,1,3.1,3.4,1.1,5.4
		c-1.4,1.4-3.2,2.3-5.1,2.9c-1.9,0.6-3.8,1.1-5.7,1.6c-3.6,0.9-6.9,2.6-10.1,4.6c-3,2-6.2,3.7-9.9,3.9c-1.6,0.1-2.7,1.2-3.9,2.2
		c-6.2,4.9-11.7,10.6-17.4,16c-2.8,2.7-5.6,5.2-8.6,7.6c-1.9,1.4-2.6,1.3-3.8-0.8c-0.8-1.3-1.3-2.7-1-5c1.6-3-0.7-5.9-2-9
		c-0.6-1.4-1.1-2.8-1.6-4.2c-1.8-4.7-4.7-8.5-9.2-10.9c-1.7-0.9-3.3-2.1-4.8-3.4C104.9,35.4,104.9,34.5,106.3,33.4 M114,71.3
		c-0.4-4.4-1.4-8.7-3.6-12.6c-3.6-6.3-9.1-9.7-16.2-10.6c-0.9-0.1-1.8-0.2-2.8-0.3c-1.1-0.1-2-0.5-2-1.9c0-1.2,0.5-1.9,1.7-2.3
		c5-1.4,9.9-1.1,14.5,1.3c7.7,4,12,10.7,14.2,18.9c1.5,5.6,1.6,11.3-0.7,16.7c-1.2,2.9-2.5,5.7-5.6,7.2l-0.2,0l0-0.2
		C113.9,82.2,114.5,76.8,114,71.3 M135.3,97.2c-5.5,1.7-11.1,3.4-16.8,4.3c-1.6,0.2-3.8,1-4.6-0.1c-1.1-1.4,0.7-3.1,1.4-4.6
		c2.9-5.6,7.1-8.9,12.8-7.7c5.6,0.1,10.1-1,14.7-1.6c17.2-2.4,34.2-1.6,51,3.3c5.3,1.6,10.8,2.7,16.4,2.9c1,0,1.8,0.3,2.6,0.8
		c6.6,4.6,13.8,8.1,20.7,12.1c7.1,4.2,13.8,9,18.4,16.2c0.9,1.5,1.8,1.1,2.8,0.2c2-1.9,3.2-4.3,4.1-6.8c0.7-1.7,1.6-3,3-4.1
		c1.5-1.1,2.8-2.4,4.1-3.7c6.7-6.6,14.8-8.9,24-7.4c4.8,0.8,9.6,1.9,13.8,4.5c2.3,1.4,4.3,3.1,5.1,5.9c0.6,2,0.3,2.7-1.7,3.4
		c-1.5,0.6-2.9,0.5-4.4-0.1c-1.4-0.6-2.7-1.4-3.8-2.5c-7-6.5-14.7-5.8-22.7-2.3c-4.5,2-7.8,5.4-10.7,9.3c-4,5.4-6.5,11.4-8.4,17.8
		c-1,3.4-1,3.4-4,1.4c-1.5-1-3.1-2-4.7-3c-3.1-2.1-5.4-4.8-6.2-8.5c-0.2-1-0.6-1.7-1.4-2.3c-11.5-8.5-23.1-16.8-36.5-22
		c-8.2-3.1-16.6-4.9-25.2-6.2c-5.4-0.8-10.8-1.5-16.2-2.2C153.5,92.6,144.4,94.5,135.3,97.2 M248.6,176.6c0.6,1.4,0.1,2.5-0.8,3.4
		c-1.7,1.9-3.7,3.6-5.8,5c-2.2,1.5-2.2,1.6-0.6,3.8c1.4,2,3,3.8,3.4,6.3c0.7,4,0,5.5-3.8,6.9c-2.6,1-5.3,1.6-8.2,1.5
		c-8-0.3-14.8-3.4-20.4-9c-1.5-1.5-1.9-2.9-1-5c1.6-4,3.8-7.7,6.1-11.3c2-3.1,3.9-6.3,5.9-9.4c1.3-2.2,1.4-2.3,3.7-1
		c2.5,1.3,5.1,2.2,7.9,2.4c1.9,0.2,4.1,0.5,5.5-1.3c1.9-2.3,4.1-4.5,4-7.9c0-1.5-0.9-1.8-2.1-1.5c-1.6,0.4-2.9,1.5-4.2,2.4
		c-2.5,1.8-5.1,3.3-8.2,3.6c-3.8,0.4-5-0.6-5.4-4.1c-0.5-4.6,0.3-8.8,3.3-12.3c1.7-2.1,3.7-2.3,5.5-1c2.1,1.5,2.2,3.6,0.2,5.2
		c-0.3,0.2-0.6,0.4-0.9,0.6c-0.7,0.5-2.1,0.9-1.7,1.8c0.5,1.3,2,0.9,3.1,0.6c1.4-0.3,2.3-1.5,3.2-2.5c1.1-1.3,2.3-2.7,3.4-4
		c0.9-1.1,1.9-1,3.1-0.3c1.8,1.2,3,2.9,4,4.7c1.4,2.6,2.4,5.3,4.1,7.6c0.9,1.2,0.6,2.5,0.1,3.6c-0.7,1.5-1.6,2.8-2.5,4.2
		C248.2,171.9,247.5,174.2,248.6,176.6 M250.9,210.8c5.1-0.2,9.7,1.7,14.2,4c0.3,0.1,0.7,0.5,0.7,0.7c0,0.6-0.5,0.7-0.9,0.8
		c-2.9,0.7-5.9,1-8.9,1.1c-3.1,0-6.3-0.2-9.2-1.4c-2-0.8-2.2-1.8-0.6-3.3C247.5,211.5,249.1,210.9,250.9,210.8 M139.5,309.8
		c4,0.1,4.1,0.1,5-3.9c1.9-8.2,3.8-16.5,5.7-24.7c0.7-3.2,1.7-6.3,2.3-9.5c0.4-1.9,1.2-3.2,3.3-3.4c0.7-0.1,1.4-0.3,2-0.6
		c0.9-0.5,1-1.5,1-2.4c0-0.9-0.7-1.1-1.5-1.1c-2.2,0-2.4-1.5-2-3.1c0.6-2.8,1.7-5.4,3.6-7.4c4.4-4.5,6.7-9.8,7.1-16.1
		c0.2-2.6,1.2-5.2,2.1-7.7c0.7-1.8,1.8-2.5,3.7-2.1c8.5,1.3,16.3,4.3,23.9,8.3c1.4,0.7,1.7,1.7,1.6,3.1c-0.3,3.4-1.3,6.6-2.5,9.7
		c-4,10-9.4,19.2-15.3,28c-10.8,16.1-21.9,32-32.7,48.1c-4.6,6.8-9.4,13.5-12.5,21.2c-1,2.4-2.6,4.4-5.1,5.5
		c-1.3,0.5-2.1,0.3-2.1-1.2c0-1.5,0-3,0-4.5c0.4-8,2.2-15.8,3.3-23.8c0.4-3,0.8-6,1.1-9c0.3-2.4,0.9-3.1,3.2-3.3
		C136.3,309.7,137.9,309.8,139.5,309.8 M135.3,298.5c0.5-3.3,1.9-6.2,3.4-9c0.9-1.6,1.8-3.2,2.7-4.8c0.3-0.5,0.5-1.2,1.2-1.1
		c0.6,0.1,0.9,0.7,1.1,1.2c0.7,1.3,0.6,2.7,0.6,4.7c-0.3,4.6-2.3,9.4-4.1,14.3c-0.4,1.1-1.1,1-1.9,0.6
		C136.2,303.6,134.9,301.2,135.3,298.5 M165.2,205.6c-0.8,2.3-0.6,4.6-0.7,6.9c0,2-0.1,4-1.1,5.7c-1.5,2.7-3.7,2.7-5.3,0.2
		c-1.1-1.7-1.6-3.6-1.6-5.7c0.2-2.3,0.7-4.8,1.6-7c5.3-11.9,7.3-24.6,10.2-37.1c2.5-11.1,5.2-22.1,7.3-33.2c0.6-3.4,2-6.7,3.2-9.9
		c1.4-3.8,2.6-7.7,3.2-11.7c0.1-0.9,0-2.1,1.1-2.4c1.5-0.4,3-0.5,4.5,0.1c1,0.4,0.4,1.4,0.3,2.2c-1.2,8.8-2.9,17.6-4.7,26.3
		C178.3,162.1,172.5,184,165.2,205.6 M150.5,180.2c-0.9-0.5-1.2-1.3-1.1-2.3c0.2-3.2,2.8-5.4,6.7-5.4c1.2,0.2,3.1-0.2,3.6,2
		c0.6,2.4-0.4,5-2.3,6C155.1,181.8,152.8,181.5,150.5,180.2 M184.3,157c0.3-2.3,1.6-3.8,3.3-5.1c1.7-1.3,3.7-2.3,5.8-3.2
		c5.3-2.3,10.6-4.7,15.8-7.1c5.2-2.4,9.9-5.6,13.8-9.7c1.4-1.5,3-2.9,4.7-4.2c1.9-1.5,5.3-1.6,6.8-0.3c1.9,1.7,2.1,4.5,0.6,6.9
		c-1.2,1.9-3.1,3.2-4.9,4.3c-2.5,1.5-5,3-6.4,5.7c-0.4,0.8-1.2,1.1-2,1.2c-5.4,0.9-10,3.6-14.4,6.6c-3.4,2.3-6.7,4.6-10.4,6.3
		c-3,1.4-6.1,2-9.1,2.4C184.7,160.9,184,160,184.3,157 M208.6,159.9c2.2-1,3.1-0.7,4,1.6c0.7,1.7,1.1,3.5,1.2,4.8
		c0,1.8-0.3,3.1-0.7,4.2c-1.3,3.2-3.7,3.7-6.1,1.1C203.6,168,204.4,161.7,208.6,159.9 M251.2,155c-1.5-1-2.5-3.1-1.8-4.5
		c0.8-1.6,2.3-1.6,4.4-1.7c1-0.1,2.4,0.3,3.6,1.4c1.1,1,1.5,2.1,0.8,3.7c-0.6,1.4-1.4,2.3-3,2.2C253.7,155.9,252.4,155.7,251.2,155
		 M136.5,234.8c0.3-3,0.9-6,1.1-9c0.1-2.1,1.1-3.2,2.7-4.1c2.8-1.6,5.8-1.5,8.8-0.9c4.3,0.8,8.4,2.5,12.3,4.5
		c0.9,0.5,1.9,0.9,1.7,2.3c-0.2,1.3-0.9,2.1-2,2.6c-1.3,0.6-2.7,0.3-4,0.4c-1.4-0.2-2.6-0.3-3.9,0c-0.4,0.1-1,0.1-1.1,0.7
		c-0.1,0.7,0.3,1.1,0.8,1.4c1,0.7,2.1,0.9,3.2,1.1c3.5,0.9,4,1.5,3.4,5.1c-0.8,4.3-2,8.6-4.3,12.4c-2.8,4.6-6.4,6.6-10.5,5.9
		c-4.6-0.8-7.5-4-8.7-9.2C135.1,243.5,136.1,239.1,136.5,234.8 M140.4,262.6c2.1,1.8,2.2,2.7,1,5.1c-1.3,2.5-3.6,3.8-6.1,4.9
		c-2.6,1.1-2.7,1.6-0.5,3.4c0.6,0.5,1.4,0.9,2.1,1.3c0.9,0.6,1.6,1.4,1.4,2.6c-0.2,1.3-0.9,2.1-2.1,2.5c-1.7,0.6-3.3,0.7-5.1,0
		c-4-1.5-6.9-4.2-9.2-7.7c-3.6-5.5-4.8-11.7-5.1-18.1c0.4-8.2,2.3-15.7,7.8-21.9c1-1.1,2-2.2,3.7-2.3c2.7-0.1,3.1,0.2,2.3,2.8
		c-1.9,6.2-1,12.2,1.9,17.9C134.5,256.6,137.1,259.8,140.4,262.6 M89.8,277.2c-0.4-1.2-0.9-2.3-1.3-3.5c-0.3-1-0.3-2,0-3
		c0.8-2.3,3.4-4.4,5.1-4.1c1.3,0.2,2.5,2.9,2.4,5.3c-0.1,0.9-0.3,1.8-0.6,2.7C94.5,277.8,93,278.4,89.8,277.2 M95.7,284.2
		c4.1-0.8,8.8,2.9,9,7.1c0.1,2.5-2.2,4.5-4.6,4.3c-2.3-0.2-3.8-1.4-5-3.3c-0.8-1.4-1.2-3-1.6-4.5C92.8,285.2,93.2,284.7,95.7,284.2
		 M95.1,263.8c-1.8-0.4-1.1-2-1.3-3c0-1.2,0.1-2.2,0.5-3.2c0.7-1.9,2-3.1,4-3.3c1.7-0.2,3.9,1.4,4.6,3.1c0.9,2.1,0.2,5.5-1.4,7.1
		c-0.7,0.7-1.5,1-2.5,0.6C97.7,264.7,96.5,264.1,95.1,263.8 M100.4,248c-1.8,0.9-3.5,1.7-5.4,2.3c-3.4,0.9-4.6,0.1-4.4-3.3
		c0.2-4.3,2.8-7.3,5.9-9.8c1.2-0.9,2.2-0.3,2.3,1.7c0.1,2,0.5,2.6,2.3,1.2c0.7-0.6,1.6-0.9,2.5-1.1c3.8-1.1,4.5-0.5,4.6,3.7
		c0.4,1.9-0.5,2.9-2.6,3.3C103.7,246.2,102.1,247.2,100.4,248 M88.8,265.8c-2.5,1.4-4.2,0-4.2-3.6c0-2.4,1-4.5,2.4-6.3
		c1-1.4,2.1-1.1,3.2-0.1C92.8,258.2,92,264,88.8,265.8 M85,276.4c1.9-1.2,3.4-0.8,4.8,0.8c1.4,3.2,0.6,6.4,0,9.5
		c-0.4,1.8-1.2,2.2-3,1.8c-2.1-0.5-3.9-2.7-4.2-5.4C82.2,280.5,82.4,278,85,276.4 M89.4,296.9c0.8-2.1,1-2.4,3.2-1.7
		c3.3,1.1,6.7,2.1,9.2,4.6c1.2,1.2,3,2.5,2.3,4.3c-0.8,2-3.1,2.2-5.1,2.5c-3.6-0.4-6.8-1.7-8.8-4.8
		C89.4,300.4,88.7,298.8,89.4,296.9 M94.7,310.8c0.4-0.5,1.1-0.5,1.6,0c4.2,3.6,8,7.4,9.6,12.8c0.1,0.4,0.1,0.9,0.1,1.2
		c0,2.3-0.5,2.8-2.4,1.8c-1.4-0.7-2.8-1.7-4.1-2.6c-3-2.1-5.9-4.1-9.9-2.9c-0.9,0.3-1.3-0.2-1-1.1C89.6,316.2,92.2,313.6,94.7,310.8
		 M102.5,284.3c-3.2-1.7-4.8-4.5-5.2-7.4c-0.1-3.3,0.5-3.8,3.1-3.1c4.3,1.1,7.3,3.6,8.6,8.1c0.6,1.9-0.3,2.6-1.8,3
		C105.6,285.3,104,285.1,102.5,284.3 M111.5,292.6c3.5,0.9,6.8,5,7,8.7c0.1,1.5-0.8,2.3-2.7,2.4c-4.2,0.1-8.5-5.6-7.3-9.6
		C109.1,292.4,110.1,292.2,111.5,292.6 M110.7,240.9c-0.3-1.8,2.6-4.6,4.5-4.6c1.5,0,2.6,1.4,2.6,3.4c0,2.2-1,3.1-3.6,3.1
		C112.8,242.7,111,242.9,110.7,240.9 M111.5,305.1c2.3-0.4,4.6-0.2,6.9,0.5c3.4,1.1,3.6,1.2,3.5,4.7c0,3.6-0.3,3.9-3.9,4
		c-2,0.1-3.9,0.1-5.8-0.8c-1.4-0.7-2.7-1.5-3.3-3C107.6,307.3,107.8,305.7,111.5,305.1 M120,319.9c0.8-0.4,1.8-0.5,2.6-0.9
		c1.4-0.9,2.3-0.7,3,0.8c0.8,1.8,0.5,3-1.1,3.7c-0.6,0.3-1.3,0.4-2,0.6c-0.8-0.2-1.5-0.4-2.3-0.6c-0.9-0.3-1.4-0.8-1.4-1.7
		C118.7,320.9,119.2,320.2,120,319.9 M113.5,184.7c0.2-0.7,0.5-1.6,1.5-1.6c0.8,0,1.2,0.6,1.5,1.3c1.6,2.9,3.2,5.9,4.9,8.8
		c3.2,5.4,6.8,10.5,9.6,16.1c1,2,1.7,4.1,2.8,6c1.5,2.6,1,4.7-0.8,6.9c-1.6,2-2.3,2.2-4.3,0.6c-1.8-1.5-3.2-3.3-4.5-5.2
		c-2.8-4.1-5.5-8.3-8.2-12.5c-2.4-3.7-3.7-7.7-3.9-12.1C112.2,190.1,112.7,187.4,113.5,184.7 M72.9,183.6c-0.1-2.7,0.7-5,1.7-7.3
		c1-2.2,3.7-2.5,4.9-0.4c6.2,11.3,16.2,19,25.2,27.6c6.1,5.8,11.5,12.1,14.9,19.9c0.5,1.1,1.8,2.5,0.6,3.4c-0.9,0.8-2.4-0.4-3.5-1
		c-3.2-1.6-5.6-4.2-6.6-7.7c-0.6-2.1-1.7-3.4-3.2-4.8c-10.1-8.8-20.5-17.3-31.5-25.2C73.6,186.9,72.4,185.7,72.9,183.6 M22.8,165.7
		c0.9-3.4,1.6-3.7,4.5-2c5,2.9,10,5.9,15,8.9c18.6,11,36.1,23.6,53.7,36.1c6.9,4.9,12.6,10.9,16.5,18.6c0.5,1,1.7,2.1,0.8,3.1
		c-0.9,0.9-2.2-0.1-3.2-0.5c-5.5-2.3-10.2-5.9-14.4-10.2c-2.9-3-5.9-5.7-10-7.3c-4.2-1.7-7.6-4.8-11.2-7.6c-5-3.9-10.2-7.3-16.5-8.6
		c-3.2-0.6-4.5,0.2-4.8,3.5c-0.2,1.7-0.1,3.5-0.1,5.2c0,0.8-0.4,1.3-1.3,1c-12.3-3.6-23.1-9.1-28.4-21.9c-1.3-3-1.5-6.3-1.8-9.4
		C21.7,171.6,22,168.7,22.8,165.7 M14,194.2c8.2,4.8,17.1,8.2,25.6,12.6c2,1,4,1.9,5.8,3.2c3.5,2.6,7.4,4,11.7,4.8
		c11.7,2.3,22.4,7.4,32.8,13c2.2,1.2,4.2,2.6,4.4,5.4c0.2,2-0.4,2.5-2.4,2c-5-1.2-9.7-3.1-14.4-5c-6.6-2.7-13.2-5.8-20-7.9
		c-2-0.6-4-1.3-6.1-1.5c-2.7-0.3-3.6,0.7-3.1,3.4c0.3,1.4,0.9,2.7,1.1,4c0.3,1.8-0.7,2.8-2.4,2.4c-7.6-1.7-15.4-2.1-22.9-4.2
		c-1.3-0.4-2.6-0.9-3.9-1.5c-2.8-1.3-4.9-3-5.6-6.5c-0.9-4-2.6-7.9-3.9-11.9c-0.9-2.9-1.7-5.8-1.7-8C8.9,193.4,10.5,192.1,14,194.2
		 M10.8,235.1c-0.5-1.9-2-4.2-0.8-5.5c1.1-1.2,3.4,0.4,5.1,0.8c11.2,2.9,22.7,4.8,34,7c9.6,1.8,19.1,3.8,28.3,7c2.8,1,2.8,1,2.6,4
		c0,0.6-0.2,1.2-0.2,1.7c0,3.2,0,3.3-3,4.3c-5.1,1.8-10.5,1.8-15.8,1.9c-1,0-2.1-0.1-3.1-0.2c-7.3-0.2-14.6-0.3-21.9-1.4
		c-2.7-0.4-5.6-0.2-8.3-0.2c-1.1,0-2.1,0-3-0.7C18.7,248.6,13.1,243.1,10.8,235.1 M17.1,264.6c-0.3-0.7-0.5-1.5-0.6-2.3
		c-0.2-1.9,0.4-2.4,2.4-2.2c2.9,0.3,5.7-0.5,8.6-0.1c4.7,0.7,9.4,1.4,14.1,2.2c6.4,1.1,12.7,0.1,19-0.8c2.7-0.4,5.3-0.4,7.9,0.4
		c3.1,1,5,4.1,4.7,7.3c-0.1,1.3-0.8,1.9-2,1.8c-7.9-0.2-14.9,3.2-22,5.9c-4,1.5-7.9,3.3-12.1,4.3c-1.1,0.3-2.3,0.4-3.7,0.5
		c-1.3,0.2-2.7-0.3-4-1.3C24,276.1,19.9,270.9,17.1,264.6 M43.2,305.2c-1,0.6-1.9,1.1-3.2,0.3c-3.6-2.3-7.3-4.5-10.4-7.5
		c-0.7-0.7-1.4-1.6-2-2.4c-3.7-4.9-3.4-5.6,2.4-7.2c11.4-3,22.5-7,34.1-9.5c3.3-0.7,6.6-1.3,9.9-1.8c3.2-0.4,3.6,0.2,3.6,3.4
		c0,0.3-0.1,0.7-0.1,0.6c0,1.3-0.3,2.2,0,2.9c1.2,2.5-0.3,3.7-2.1,5c-5.7,4.1-12.1,6.9-18.4,9.7C52.4,300.7,47.7,302.7,43.2,305.2
		 M54.2,310.5c-1.4-1.1-1-2.2-0.4-3.3c0.9-1.8,2.5-3,4.1-4.1c3.8-2.4,7.9-4.4,11.6-6.9c2.4-1.6,5.4-2,8.3-1.9c0.5,0,1.2,0,1.4,0.9
		c-0.3,0.4-0.6,0.8-1,1.3c-2.8,3-6,5.4-9.4,7.6c-3.6,2.3-7.3,4.5-10.8,7C56.3,312.3,55.5,311.4,54.2,310.5 M60.3,348.4
		c-1.7-0.5-3.4-1.2-4.9-2.4c-3.1-2.3-5.2-5.6-7.7-8.5c-0.7-0.8-0.4-1.5,0-2.2c1.7-3.4,4.1-6.1,7-8.5c1.4-1.2,2.8-0.8,4.1,0.2
		c3.5,2.4,4.2,2.3,7.5-0.4c3.9-3.2,7.1-7,10.6-10.5c2.6-2.6,5.3-5.1,8.7-6.9c0.8-0.4,1.7-0.7,2.6-1c0.9-0.3,2-0.8,2.6,0
		c0.4,0.6-0.4,1.5-0.8,2.2c-7.7,13.2-16.7,25.6-27.3,36.7C61.5,348.3,61.3,348.4,60.3,348.4 M82.1,358.2c0.3,1.3,0.4,2.5,0.1,3.8
		c-0.2,0.6-0.4,1.4-1.2,1.5c-0.6,0.1-1.1-0.4-1.5-0.8c-0.8-1-1.3-2.2-1.6-3.4c-0.3-1.2-0.5-2.5-0.8-3.7c-0.1-0.5-0.3-1-0.8-0.8
		c-0.2,0.1-0.4,0.5-0.4,0.9c-0.4,1.9,0,3.7,0.5,5.5c0.5,1.9,1.3,3.7,1.8,5.6c0.3,1.2,1.4,2.7,0.3,3.5c-0.8,0.6-2-0.8-2.9-1.5
		c-2.5-1.7-4.7-3.8-6.8-5.9c-0.9-0.9-1.8-1.8-2.7-2.7c-2.5-2.5-2.8-3.9-1.3-7c1.4-2.9,3.9-4.9,5.8-7.3c0.8-1,2-0.4,2.6,0.6
		c0.7,1.1,0.9,2.4,1,3.7c0,0.3,0.2,0.8,0.3,0.8c0.3,0.1,0.6-0.2,0.7-0.6c0.7-1.4,1.5-2.7,2.6-3.7c1.4-1.3,3-2.3,5-1.4
		c1.8,0.8,2.3,0,2.1-1.7c-0.1-0.7,0-1.4,0-2.1c0-0.7,0-1.4,0-2.1c-0.1-0.7,0.3-1.8-0.8-2c-0.9-0.1-1,0.8-1.3,1.4
		c-0.5,1.4-1.6,1.6-2.8,1.3c-1.3-0.3-2.3-1-2.7-2.4c-0.9-3.3,0.4-5.5,3.7-6.6c1.2-0.4,2.4-0.7,3.3-1.7c1.6-1.8,2-1.8,3.8-0.4
		c1.8,1.4,2.9,3.4,3.3,5.6c0.4,1.9,1.2,3.1,3,3.9c1.9,0.8,3.5,1.8,3.4,4.2c0,0.5,0.3,0.9,0.8,0.9c0.3,0,0.7-0.3,0.8-0.6
		c0.5-1,0.6-2.2,0.8-3.4c0.3-2.2,1.2-2.8,2.9-2.5c1.7,0.3,2.4,1.3,2.2,3.3c-0.1,1-0.5,2-0.5,3.1c-0.1,1.2-0.6,1.6-1.7,1.6
		c-1.9,0-1.4,1.1-0.8,2.1c0.5,0.8,1,1.5,1.5,2.3c0.6,1,1,2.1,1.1,3.3c0.2,2.8-0.4,3.6-3.2,3.6c-1.5,0-3-0.4-4.4-1
		c-2.5-1.1-3-1.9-2.4-4.6c0.3-1.3,0.6-2.5,0.4-3.8c-0.1-1-0.6-1.8-1.7-1.9c-1.2-0.2-1.5,0.8-1.8,1.7c-0.3,1.3,0.3,2.9-1.1,3.9
		c-1.5,1-2.6-0.6-3.9-0.8c-3-0.5-5.8,2-5.4,5C81.5,356,81.8,357.1,82.1,358.2 M95.1,376.4c-0.6,1.4-1.5,1.6-2.7,0.7
		c-2.7-2-3.5-5.1-4-8.2c-0.3-1.7-0.3-3.5-0.4-5.1c0.3-2.5,0.2-5,0.9-7.3c0.7-2.1,1.8-2.4,3.4-0.9c0.5,0.5,0.7,1.2,0.8,1.9
		c0.9,4.3,1.8,8.6,2.8,12.9C96.3,372.4,96,374.4,95.1,376.4 M85.8,388.7c-2.4-0.1-2.9-0.9-1.7-3c0.8-1.4,2-2.5,3.5-3.3
		c7.2-3.6,14.6-4,22.2-1.5c1.9,0.6,3.5,1.7,4.6,3.5c1.2,2.1,0.8,3-1.6,3c-6,0.1-12,1-18,1.3C91.8,388.7,88.8,388.8,85.8,388.7
		 M100,393.3c-0.2,1.4-1.5,1.2-2.5,1.2c-0.6-0.1-1.6,0.2-1.6-0.6c0.1-1.4,1.3-1.7,2.5-1.8C99.2,392,100.2,392.1,100,393.3
		 M93.7,407.1c-0.9-2.5-0.8-5,0.4-7.4c0.4-0.7,1.2-0.6,1.9-0.6c4.7-0.1,9.5,0.2,14.2-0.7c1.8-0.4,2.6,0.7,2.8,2.3
		c0.1,0.9,0,1.9,0.1,2.8c0.3,2.2-0.7,3.2-2.7,3.5c-4.1,0.7-8.2,1.4-12.6,1.5C96.4,408,94.5,409.4,93.7,407.1 M116.4,426.3
		c-0.6,1.6-1.5,2.5-3.3,2.5c-2.3,0-4.6,0-6.9,0c0-0.1,0-0.2,0-0.3c-2,0-3.9-0.1-5.9,0c-1.9,0.1-3-0.3-3.3-2.5
		c-0.3-2.5-1.1-4.9-1.6-7.4c-0.5-2.9-0.2-3.6,2.5-4.9c2.2-1,4.6-1.5,7-1.6c0.8,0,1.6-0.1,2.4-0.1c6-0.1,6.3,0.1,8.4,5.9
		C116.9,420.6,117.5,423.4,116.4,426.3 M117.9,368.2c-0.4,1.6-1.1,2.8-2.8,3.1c-1.7,0.2-2.8-0.8-3.6-2.2c-1.5-2.5-1.8-5.2-1.6-7.9
		c-0.2-3.4,0.5-6.6,1.8-9.6c1.1-2.5,1.1-4.8,0.6-7.4c-0.9-4.3-1.9-8.6-1.7-13.1c0.3-6.4,1.7-7.5,8.1-4.9c5.2,2.1,5,2.3,4.5,8.1
		c-0.7,7.4-1,14.8-2.5,22.1C119.8,360.3,118.8,364.2,117.9,368.2 M246.2,465.9c-0.9,0.5-1.9,0.8-2.9,1.1c-3.7,1.2-4,1.6-3.4,5.5
		c0.3,2.1,0.7,4.1,1.1,6.2c0.7,3.9-0.5,6.8-3.9,8.9c-4.2,2.7-8.9,4-13.6,5c-5.6,1.2-11.3,1.4-17,0.9c-2.5-0.2-4.8-0.8-6.9-2.1
		c-3-1.8-3.2-4.2-0.7-6.5c2.5-2.3,2.7-3.5-0.4-5.1c-4.1-2.2-6.1-5.5-7.5-9.8c-1.2-3.8-3.4-7.4-5.2-11c-4.1-8.3-5.6-16.9-3.1-26
		c1.1-4-1.9-6.9-6-5.9c-7.7,1.8-15.5,1.1-23.2,0c-5.6-0.8-11.2-1.7-16.8-2.6c-1.1-0.2-2.3-0.4-3.4-0.7c-6-1.7-11.2-5.3-10.6-14.5
		c0.7-10.5,2.9-20.6,5.8-30.7c0.8-2.9,2.3-5.6,3.7-8.2c11.9-22.6,26.4-43.7,41.1-64.6c9.7-13.9,19.2-27.9,27.2-42.9
		c2.3-4.3,4.7-8.6,6.3-13.2c0.9-2.6,3.3-3.1,5-4.4c0.8-0.6,1.7,0.7,2.5,0.7c4,0.1,4.7,3.2,5.6,6c1.9,6.3,2,12.8,2.1,19.3
		c0,2.9,0,5.8,0,8.7c-1.1,13.8,1.8,27.2,4.5,40.7c1.1,5.5,1.9,10.9,1.3,16.6c-0.7,6.6,0.9,12.9,2.3,19.3c0.5,2.3,0.9,4.5,1.2,6.9
		c0.4,3.5,0,6.7-1.9,9.7c-2.3,3.8-1.8,8.1-2.3,12.2c-0.3,2.7-0.8,5.3-2.3,7.6c-1.7,2.6-2.6,2.9-5.4,1.5c-4.8-2.4-9.5-4.9-14.2-7.3
		c-0.6-0.3-1.2-0.6-1.8-1c-5.5-2.9-11-4.9-17.6-4.3c-6.4,0.6-13-0.1-19.4,1.5c-2.3,0.6-4.4,1.4-6.3,2.8c-1.6,1.2-1.6,1.9-0.2,3.3
		c0.9,0.9,1.9,1.3,3.1,1.3c1.7,0.1,3.3-0.3,4.7-1.1c6-3.2,12.3-2.6,18.7-1.4c9.4,1.9,18.1,5.8,26.3,10.6c1.2,0.7,2.3,1.4,2.3,3.1
		c0,5.3,2.1,10.2,3.9,15c1.2,3.1,2.5,6.2,3.4,9.5c0.9,3.3,1.1,6.6,0,9.9c-1.6,4.7-1.8,9.4-0.5,14.3c1.3,4.9,0.3,9.4-3.5,13.1
		c-1.4,1.4-2.8,2.8-3.8,4.5c-0.5,0.9-0.3,1.6,0.8,1.7c1.9,0.3,3.7,0,5.4-1c1.5-0.9,3-1.8,4.3-2.9c4.5-3.5,9.6-5,15.2-5.3
		c1.9-0.1,3.7-0.4,5.5-0.5c2-0.1,2.4,0.4,2.3,2.4C248.1,464.3,247.4,465.3,246.2,465.9 M256.7,294.2c0.6,11.9-1.7,23.2-5.5,34.4
		c-2.2,6.6-4.4,13.2-5.5,20.1c-0.6,3.6-0.2,7.2-0.4,10.8c-0.1,2.1-0.4,4.1-1.3,6.1c-1,2.2-2.6,3.8-4.9,4.7c-1,0.4-1.6,0.2-1.6-1
		c0-1-0.1-2.1,0-3.1c0.1-12.3-1.5-24.5-3.2-36.7c-2.4-16.6-5-33.2-5.8-50c-0.3-6.3,0.2-12.5,0.6-18.8c0.3-3.6,2.8-5.2,6.2-4.4
		c2.9,0.7,5.6,2.1,8.3,3.6c3.4,2,6.8,4,10.7,4.8c1.5,0.3,2.1,1.2,2,2.7c-0.2,1.8-0.2,3.7-0.3,5.1
		C256.2,280.1,256.3,287.2,256.7,294.2 M233.8,453.8c0.2,1.6,0,2.3-1.8,2.9c-4,1.3-4.6,1.2-5.5-2.9c-0.3-1.2-0.3-2.5-0.4-3.8
		c0-2.1,0.3-4.1,1.3-6.1c0.7-1.5,1.8-2.7,3.4-3.3c2.5-1,3.2-0.6,2.7,2.1C232.7,446.5,233.4,450.2,233.8,453.8 M281.7,457.8
		c-0.7,2.3-1,4.8-0.8,7.2c0.2,1.7-0.5,2.8-1.7,3.9c-7.9,6.7-16.5,11.9-26.5,15c-3.9,1.2-6.2-0.8-5.4-4.9c0.4-2.1,1.3-4,2.3-5.8
		c1.2-2.1,2.4-4.2,3.5-6.4c1-1.9,1.3-4,1-6.1c-0.5-2.9-2.3-4.8-5.1-5.6c-2.4-0.7-4.9-1.3-7.4-2c-3-0.9-3-1-3.1-4.1
		c-0.2-4.8,0.7-9.5,1.8-14.1c0.2-0.8,0.5-1.6,0.5-2.4c0.1-1.9-0.9-3-2.9-3.1c-0.8-0.1-1.7-0.1-2.4,0.1c-3.1,1.1-4.7-0.5-6.1-2.9
		c-4.3-7.2-4.1-14.8-2.1-22.5c1.4-5.5,3.8-10.7,5.9-16c0.6-1.4,1.5-2.1,3.1-2.4c6-1.3,11.8-0.6,17.5,1.1c4.8,1.4,9.3,3.5,13.8,5.7
		c1.2,0.6,1.8,1.3,2,2.6c0.8,4.6,2.7,8.8,4.7,13.1c2.6,5.8,4.9,11.8,4.8,18.3c0,0.3,0,0.7,0,1c-0.1,5.4,0,5.5-5.3,6.6
		c-8,1.7-14.4,5.7-18.2,13.2c-0.5,0.9-1.7,2.1-0.7,3.1c0.8,0.9,2.2,0.4,3.3,0.1c2.3-0.6,4.1-2.1,5.7-3.9c1.3-1.5,2.6-3,4-4.4
		c1.8-1.8,4-2.8,6.5-3c2-0.1,2.5,0.4,1.9,2.4c-0.1,0.4-0.3,0.9-0.5,1.3c-1.4,3.1-1.4,3.1,1.3,5.3c0.9,0.7,1.7,1.6,2.5,2.4
		C281.4,452.6,282.6,454.8,281.7,457.8 M378.4,403.4c0.2,6.2-0.6,11.7-2.7,17c-3.3,8.1-9.1,12-17.8,12c-2.3,0-4.6-0.2-6.9-0.8
		c-3.3-0.9-4.4-2.2-4.1-5.6c0.2-1.7,0.4-3.5,0.6-5.2c0.1-0.9,0-1.9-0.2-2.8c-0.8-2.4-3.2-2.8-4.9-1c-1.1,1.2-1.7,2.8-2.2,4.3
		c-1.1,3.6-3.4,5.6-6.9,6.8c-3.3,1.1-6.7,1.7-10.1,2.5c-2.7,0.6-5.4,1.3-7.9,2.7c-0.9,0.5-1.9,0.9-3,0.7c-5.6-1.1-11.4-0.5-17-1.3
		c-2.4-0.3-4.8-0.8-7-2c-1.8-1-2.7-2.2-2.5-4.5c0.5-4.5-1-8.8-2.8-12.8c-2.6-5.6-4.8-11.3-5.6-17.5c-0.6-5.1-3.9-8.5-8.4-10.9
		c-3.8-2-8-2.9-12.2-4c-2.5-0.7-4.9-1.4-7.3-2.2c-2.2-0.7-3.1-1.9-3.3-4.2c-0.6-5.9,0.2-11.6,2.5-17c1.4-3.2,2.9-6.3,4.2-9.5
		c1.6-3.8,2.7-7.6,2.5-11.8c-0.2-3.8,0.8-7.4,3.3-10.4c4.3-5.1,5.4-11.2,5.6-17.5c0.3-8.2,0.5-16.5,0.7-24.7
		c0.1-3.6,0.7-7.2,1.7-10.6c1.1-3.8,2.7-7.4,5.6-10.2c1.3-1.2,0.9-1.8-0.6-2.4c-4.2-1.6-8.5-2.2-12.9-2.8c-3.9-0.5-7.8-1.1-11.6-2.2
		c-3-0.9-5.9-2.1-8.1-4.5c-1.8-1.8-2.6-3.8-1.6-6.3c0.2-0.4,0.3-0.9,0.4-1.3c0.2-0.8,0.3-1.6-0.3-2.3c-0.8-0.8-1.5-0.1-2.2,0.2
		c-6.8,3.3-13.3,2.2-19.5-1.7c-4.1-2.5-7.6-5.8-10.5-9.5c-1.4-1.8-2.8-2.8-5.2-2.1c-2.9,0.8-5.8,0.1-8.5-0.9
		c-5-1.7-9.7-4.4-15.3-4.5c-1,0-1.5-0.7-1.6-1.5c-0.6-3.2-2-6.2-2.9-9.3c-0.9-3.4-0.1-4.8,3.3-6.1c0.3-0.1,0.6-0.3,1-0.4
		c4.9-1.7,4.9-1.7,2.6-6.6c-0.2-0.4-0.4-0.8-0.5-1.3c-0.8-2.6,0.7-4.4,3.3-4c4.1,0.7,7.8,2.3,11.3,4.3c1.1,0.6,2.2,1.2,3.3,1.9
		c0.8,0.5,1.5,0.6,2.2,0c0.7-0.7,0.7-1.4,0.4-2.2c-0.6-1.5-1.6-2.8-1.6-4.6c0-1.7,0.5-2.1,2.1-1.7c1.6,0.5,2.9,1.5,4.1,2.5
		c3.2,2.7,5.9,6,9.3,8.4c1.6,1.1,1.2,2.7,0.7,4.1c-0.4,1.2-1.2,2.3-1.6,3.5c-0.8,2-0.3,3.8,1.1,4.7c1.5,0.9,3.5,0.4,4.9-1.3
		c0.4-0.5,0.8-1.2,1.1-1.8c1.7-3,1.8-2.9,5.3-2.2c5,1,8.9,3.8,12.6,7.1c2,1.8,4,3.5,6,5.3c0.9,0.8,1.9,1.2,3.2,1
		c10.3-1.7,20,0.7,29.8,3.4c3.5,0.9,6.9,2,10.5,2.3c2.6,0.2,3.3-0.8,2.4-3.3c-0.5-1.4-1.5-2.3-2.7-3.1c-1-0.6-2-1.1-3.1-1.7
		c-2.9-1.5-4.4-3.8-3.8-7.1c0.4-1.8-0.4-2.3-1.9-2.5c-8.8-1.2-16.6-4.9-24.4-8.9c-3-1.5-3.4-2.5-2.8-5.8c0.4-2.5,1.7-4.5,3.8-6
		c0.7-0.5,1.5-1,2.3-1.5c4-2.4,4.3-4.5,1.3-8.3c-0.3-0.4-0.6-0.7-0.9-1c-2.2-2.2-3.5-4.4-1.4-7.6c1.4-2.2,1.6-5.1,2.2-7.7
		c0.4-1.8,1-3.6,1.5-5.3c0.2-0.6,0.6-1.3,1.5-1.2c0.8,0.1,1.2,0.7,1.4,1.3c0.5,1.2,0.6,2.4,0.4,3.8c-0.2,1.6-0.4,3.2-0.4,4.9
		c0,2.5,0.2,2.7,2.9,2.5c4-0.3,6.6-3.1,9.5-5.4c0.8-0.6,0.4-1.4,0-2.2c-0.9-2-2.6-3.3-4.2-4.5c-1.7-1.3-3.2-2.7-4-4.7
		c-0.8-2.1-0.4-2.9,1.7-3.1c3.6-0.4,7.2-0.3,10.8,0c1.5,0.1,2.2,0.8,2.2,2.4c0,2,0.2,3.9,0.4,5.9c0.7,5.9-0.1,11.3-3.8,16.2
		c-2.9,3.8-3.4,8.3-2.5,12.9c1.7,8.4,7.8,14.3,16.3,16c4.9,1,9.7,0.5,14.4-0.8c1.7-0.5,2.7-0.2,3.9,1.2c3,3.5,6.9,6.2,10.5,9.2
		c1.9,1.6,3.7,3.2,5.3,5c1.9,2.1,1.8,4-0.3,6c-1,1-2.3,1.6-3.6,2.1c-1.8,0.7-3,1.8-3.8,3.7c-1.9,4.7-5.3,8.4-8.2,12.4
		c-2.8,3.9-5,8-5.9,12.8c-0.6,3.4,0.1,6.7,0.6,10c0.4,2.4,0.9,4.8,1.4,7.2c0.9,3.9,0.4,7.6-1.2,11.2c-0.7,1.5-0.8,2.8-0.6,4.4
		c1.2,12.1,1.7,24.3,2.4,36.5c0.9,17.3,1.8,34.5,6.2,51.4c0.9,3.6,2.1,7.1,3.5,10.6c1.6,4,4.7,5.9,8.9,6.1c4.8,0.2,9.3-1.2,13.3-3.6
		c4.7-2.9,8.7-3.2,13.8-0.8c5.7,2.7,10.4,1,14.7-3.8c1.7-1.9,3.3-3.9,5.6-5.1c1.3-0.7,2-0.5,2.5,1c1.5,4.6,2.6,9.4,3.2,14.2
		C378.1,397.3,378.8,400.6,378.4,403.4 M376.9,358c-0.2,0-0.5,0-0.7,0.1c-2.9,0-3.9-1.3-3.2-4.1c0.6-2.7,2.3-5,3-7.7
		c0.3-1,1.1-1.1,1.9-1c2.5,0.3,3.9,2.4,5.8,3.6c0.2,0.1,0.2,0.6,0.2,1C384,352.7,379.9,357.5,376.9,358 M250.7,236.9
		c0,2.3-1.1,3.3-3.4,3.3c-2.3,0-3.9-1.1-4-2.9c-0.1-1.9,1.7-3.9,3.4-4C249.3,233.3,250.7,234.6,250.7,236.9 M255.3,414.6
		c-0.5-1.6,0.4-2.9,1.8-3.8c1.2-0.7,2.5-1.1,3.8-1.1c2.4,0,3.1,0.7,2.8,2.9c-0.4,3-2.4,4.8-5,4.6C257,417.1,255.8,416.1,255.3,414.6
		"/>
</g>
</svg>
